G04*
G04 #@! TF.GenerationSoftware,Altium Limited,Altium Designer,24.2.2 (26)*
G04*
G04 Layer_Physical_Order=2*
G04 Layer_Color=16711680*
%FSLAX44Y44*%
%MOMM*%
G71*
G04*
G04 #@! TF.SameCoordinates,6367177B-399A-4A79-9B87-6996C0B02EFD*
G04*
G04*
G04 #@! TF.FilePolarity,Positive*
G04*
G01*
G75*
%ADD20R,1.2000X1.2000*%
%ADD66C,0.5000*%
%ADD68C,0.3000*%
%ADD69C,3.2004*%
%ADD70O,3.0000X1.5000*%
%AMCUSTOMSHAPE71*
4,1,8,-1.0000,-1.5250,-0.5000,-2.0250,0.5000,-2.0250,1.0000,-1.5250,1.0000,1.5250,0.5000,2.0250,-0.5000,2.0250,-1.0000,1.5250,-1.0000,-1.5250,0.0*%
%ADD71CUSTOMSHAPE71*%

%AMCUSTOMSHAPE72*
4,1,8,-1.5250,1.0000,-2.0250,0.5000,-2.0250,-0.5000,-1.5250,-1.0000,1.5250,-1.0000,2.0250,-0.5000,2.0250,0.5000,1.5250,1.0000,-1.5250,1.0000,0.0*%
%ADD72CUSTOMSHAPE72*%

%ADD73O,2.4000X1.8000*%
%ADD74R,2.4000X1.8000*%
%ADD75O,0.9000X1.7000*%
%ADD76O,0.9000X2.0000*%
%ADD77C,0.6000*%
%ADD78O,1.5000X1.8000*%
%ADD79C,0.8000*%
%ADD80C,0.7000*%
%ADD81C,1.0000*%
%ADD82C,1.2000*%
G36*
X8972Y561530D02*
X8683Y561374D01*
X8425Y561190D01*
X8197Y560980D01*
X7999Y560743D01*
X7832Y560479D01*
X7696Y560188D01*
X7589Y559870D01*
X7514Y559525D01*
X7469Y559153D01*
X7454Y558754D01*
X4453Y559912D01*
X4445Y560292D01*
X4383Y561029D01*
X4329Y561386D01*
X4175Y562079D01*
X4076Y562414D01*
X3830Y563063D01*
X3685Y563376D01*
X8972Y561530D01*
D02*
G37*
G36*
X54623Y534091D02*
X54402Y533816D01*
X54207Y533526D01*
X54038Y533222D01*
X53895Y532903D01*
X53778Y532571D01*
X53687Y532225D01*
X53622Y531865D01*
X53583Y531490D01*
X53570Y531102D01*
X50570D01*
X50557Y531490D01*
X50518Y531865D01*
X50453Y532225D01*
X50362Y532571D01*
X50245Y532903D01*
X50102Y533222D01*
X49933Y533526D01*
X49738Y533816D01*
X49517Y534091D01*
X49270Y534353D01*
X54870D01*
X54623Y534091D01*
D02*
G37*
G36*
X242569Y683259D02*
X243580Y683260D01*
X244665Y682810D01*
X245008Y683172D01*
X532371D01*
Y520089D01*
X529003Y518029D01*
X525392Y518899D01*
X524379Y521620D01*
X524059Y522600D01*
X526109Y525669D01*
X527542Y529127D01*
X528272Y532799D01*
Y536541D01*
X527542Y540213D01*
X526109Y543671D01*
X524030Y546783D01*
X521383Y549430D01*
X518271Y551509D01*
X514813Y552942D01*
X511142Y553672D01*
X507398D01*
X503727Y552942D01*
X500269Y551509D01*
X497157Y549430D01*
X494510Y546783D01*
X492431Y543671D01*
X490998Y540213D01*
X490268Y536541D01*
Y532799D01*
X490998Y529127D01*
X492431Y525669D01*
X494510Y522557D01*
X494889Y522178D01*
X493232Y518178D01*
X355600D01*
X353649Y517790D01*
X351995Y516685D01*
X340559Y505248D01*
X336559Y506905D01*
X336559Y557529D01*
X336559Y558540D01*
X336559Y558540D01*
X336559Y558540D01*
X336454Y559071D01*
X336366Y559515D01*
X336366Y559515D01*
X336365Y559516D01*
X335592Y561383D01*
X335592Y561383D01*
X335592Y561384D01*
X335293Y561831D01*
X335040Y562210D01*
X335040Y562210D01*
X335039Y562211D01*
X333610Y563640D01*
X333610Y563640D01*
X333610Y563640D01*
X333167Y563936D01*
X332783Y564192D01*
X332783Y564192D01*
X332783Y564192D01*
X330915Y564965D01*
X330915Y564965D01*
X330915Y564966D01*
X330459Y565056D01*
X329940Y565159D01*
X329939Y565159D01*
X329939Y565159D01*
X328932Y565159D01*
X328930Y565159D01*
X115571Y565159D01*
X114813Y565159D01*
X114813Y565159D01*
X114812Y565159D01*
X114318Y565061D01*
X113838Y564966D01*
X113837Y564965D01*
X113837Y564965D01*
X112436Y564385D01*
X112436Y564385D01*
X112436Y564385D01*
X111991Y564088D01*
X111609Y563833D01*
X111609Y563833D01*
X111609Y563833D01*
X110537Y562761D01*
X110537Y562761D01*
X110537Y562760D01*
X110272Y562364D01*
X109984Y561934D01*
X109984Y561934D01*
X109984Y561933D01*
X109404Y560533D01*
X109404Y560532D01*
X109404Y560532D01*
X109315Y560083D01*
X109211Y559557D01*
X109211Y559557D01*
X109211Y559557D01*
X109211Y558798D01*
Y553721D01*
X109211Y552963D01*
X109211Y552962D01*
X109211Y552962D01*
X109317Y552429D01*
X109405Y551987D01*
X109405Y551987D01*
X109405Y551987D01*
X109985Y550587D01*
X109985Y550586D01*
Y550586D01*
X110537Y549759D01*
X110537Y549759D01*
X111609Y548688D01*
X111609Y548687D01*
X111609Y548687D01*
X112019Y548414D01*
X112436Y548135D01*
X112436Y548135D01*
X112436Y548135D01*
X113837Y547555D01*
X113837Y547555D01*
X113837Y547555D01*
X114266Y547469D01*
X114812Y547361D01*
X114812Y547361D01*
X114812Y547361D01*
X115570Y547361D01*
X142115D01*
X142358Y547337D01*
X142913Y547107D01*
X143247Y546773D01*
X143477Y546218D01*
X143501Y545972D01*
Y529591D01*
X143501Y528833D01*
X143501Y528833D01*
X143501Y528832D01*
X143594Y528364D01*
X143694Y527857D01*
X143695Y527857D01*
X143695Y527857D01*
X144275Y526456D01*
X144275Y526456D01*
X144275Y526456D01*
X144614Y525949D01*
X144827Y525629D01*
X144827Y525629D01*
X144827Y525629D01*
X145899Y524557D01*
X145899Y524557D01*
X145899Y524557D01*
X146215Y524346D01*
X146726Y524005D01*
X146726Y524005D01*
X146726Y524005D01*
X148126Y523425D01*
X148127Y523425D01*
X148127Y523425D01*
X148602Y523330D01*
X149102Y523231D01*
X149102Y523231D01*
X149102Y523231D01*
X149860Y523231D01*
X163830D01*
X164335Y523231D01*
X164335Y523231D01*
X164335Y523231D01*
X165310Y523425D01*
X165310Y523425D01*
X165311Y523425D01*
X166244Y523812D01*
X167071Y524364D01*
X167785Y525079D01*
X168338Y525906D01*
X168725Y526839D01*
X168725Y526839D01*
X168725Y526839D01*
X168919Y527814D01*
X168919Y527815D01*
X168919Y527815D01*
X168919Y528318D01*
X168919Y528320D01*
Y530735D01*
X168967Y531225D01*
X169387Y532238D01*
X170071Y532923D01*
X171085Y533343D01*
X171578Y533391D01*
X213360D01*
X213865Y533391D01*
X214841Y533585D01*
X215774Y533972D01*
X216601Y534524D01*
X217316Y535239D01*
X217566Y535614D01*
X217868Y536066D01*
X218255Y536999D01*
X218449Y537975D01*
Y538479D01*
X218449Y538480D01*
X218449Y543411D01*
X222399Y547361D01*
X305945Y547361D01*
X306436Y547313D01*
X307449Y546893D01*
X308133Y546209D01*
X308552Y545196D01*
X308601Y544702D01*
X308601Y356880D01*
X304720Y356593D01*
X304206Y358510D01*
X303530Y359682D01*
X303530Y359410D01*
X303530Y349250D01*
X303530Y340360D01*
X303530Y340360D01*
Y339855D01*
X303143Y338921D01*
X302429Y338207D01*
X301495Y337820D01*
X238760D01*
Y337820D01*
X238255Y337820D01*
X237321Y338207D01*
X236607Y338921D01*
X236220Y339855D01*
Y340360D01*
Y341630D01*
X236196D01*
X234063Y338227D01*
X233442Y337829D01*
X200660Y337829D01*
X199397D01*
X198421Y337635D01*
X196087Y336668D01*
X195261Y336116D01*
X193474Y334329D01*
X192922Y333502D01*
X191955Y331168D01*
X191761Y330193D01*
X191761Y328930D01*
X191761Y328930D01*
Y247713D01*
X191730Y247092D01*
X191476Y245813D01*
X191001Y244667D01*
X190312Y243635D01*
X189435Y242758D01*
X188403Y242069D01*
X187257Y241594D01*
X185979Y241339D01*
X185357Y241309D01*
X40968Y241309D01*
X40039Y244951D01*
X40079Y245309D01*
X42372Y247068D01*
X44215Y249470D01*
X44513Y250190D01*
X15240D01*
X15240D01*
X14482Y250190D01*
X13082Y250770D01*
X12010Y251842D01*
X11430Y253242D01*
X11430Y254000D01*
Y284480D01*
X11430Y285238D01*
X12010Y286638D01*
X13082Y287710D01*
X14482Y288290D01*
X15240Y288290D01*
X41909D01*
X42656Y288326D01*
X42773Y288350D01*
X42372Y288872D01*
X39970Y290715D01*
X37172Y291874D01*
X35385Y292109D01*
Y296144D01*
X36781Y296327D01*
X39213Y297335D01*
X41302Y298938D01*
X42905Y301027D01*
X43793Y303169D01*
X43962D01*
X43963Y303169D01*
X45523Y303480D01*
X46846Y304364D01*
X48604Y306121D01*
X48604Y306121D01*
X49488Y307445D01*
X49530Y307656D01*
X49530Y422502D01*
X49488Y422713D01*
X48604Y424036D01*
X48604Y424036D01*
X46846Y425794D01*
X46307Y426154D01*
X45795Y429016D01*
X45441Y429162D01*
X44450Y429260D01*
X22860Y429260D01*
X22860Y429260D01*
X21597D01*
X19263Y430227D01*
X17477Y432013D01*
X16510Y434347D01*
Y435610D01*
Y510540D01*
X16510Y511415D01*
X16778Y512765D01*
Y519011D01*
X19364Y521596D01*
X50354Y521835D01*
X51116Y521993D01*
X51883Y522146D01*
X51896Y522155D01*
X51912Y522158D01*
X52558Y522597D01*
X53206Y523030D01*
X54954Y524777D01*
X54954Y524778D01*
X55838Y526101D01*
X56148Y527661D01*
Y531511D01*
X56178Y531674D01*
X56217Y531823D01*
X56264Y531956D01*
X56318Y532078D01*
X56382Y532193D01*
X56458Y532305D01*
X56548Y532418D01*
X56724Y532604D01*
X56838Y532785D01*
X57271Y533219D01*
X58127Y534701D01*
X58570Y536354D01*
Y538066D01*
X58127Y539719D01*
X57271Y541201D01*
X56061Y542411D01*
X54579Y543267D01*
X52926Y543710D01*
X51214D01*
X49561Y543267D01*
X49274Y543101D01*
X45858Y545155D01*
X45654Y545407D01*
X45672Y545499D01*
Y549241D01*
X44942Y552913D01*
X43509Y556371D01*
X41430Y559483D01*
X38783Y562130D01*
X35671Y564209D01*
X32213Y565642D01*
X28542Y566372D01*
X24799D01*
X21127Y565642D01*
X17669Y564209D01*
X14132Y565839D01*
X13677Y566353D01*
X13327Y567659D01*
X12471Y569141D01*
X11261Y570351D01*
X9779Y571207D01*
X8126Y571650D01*
X6414D01*
X3568Y574950D01*
Y683172D01*
X88694D01*
X88907Y683260D01*
X242570D01*
X242569Y683259D01*
D02*
G37*
G36*
X496234Y494129D02*
X496169Y494601D01*
X495974Y495022D01*
X495648Y495395D01*
X495192Y495717D01*
X494606Y495990D01*
X493890Y496213D01*
X493044Y496387D01*
X492067Y496511D01*
X490960Y496585D01*
X489723Y496610D01*
Y501610D01*
X490960Y501635D01*
X493044Y501833D01*
X493890Y502007D01*
X494606Y502230D01*
X495192Y502503D01*
X495648Y502826D01*
X495974Y503198D01*
X496169Y503619D01*
X496234Y504091D01*
Y494129D01*
D02*
G37*
G36*
X522699Y478242D02*
X522825Y478217D01*
X523030Y478195D01*
X523675Y478160D01*
X526661Y478123D01*
Y473123D01*
X526180Y473122D01*
X524188Y472991D01*
X524171Y472961D01*
X522651Y478270D01*
X522699Y478242D01*
D02*
G37*
G36*
X495321Y444594D02*
X495364Y445067D01*
X495266Y445489D01*
X495026Y445862D01*
X494644Y446185D01*
X494122Y446459D01*
X493457Y446682D01*
X492652Y446856D01*
X491704Y446981D01*
X490616Y447055D01*
X489385Y447080D01*
X490316Y452080D01*
X491158Y452105D01*
X491975Y452179D01*
X492766Y452302D01*
X493532Y452475D01*
X494274Y452698D01*
X494990Y452970D01*
X495680Y453291D01*
X496345Y453661D01*
X496985Y454081D01*
X497600Y454551D01*
X495321Y444594D01*
D02*
G37*
G36*
X393383Y435350D02*
X393304Y435407D01*
X393183Y435458D01*
X393020Y435503D01*
X392816Y435542D01*
X392570Y435575D01*
X391954Y435623D01*
X390718Y435650D01*
Y440650D01*
X391171Y440653D01*
X392816Y440758D01*
X393020Y440797D01*
X393183Y440842D01*
X393304Y440893D01*
X393383Y440950D01*
Y435350D01*
D02*
G37*
G36*
X452174Y434304D02*
X452077Y434288D01*
X451956Y434239D01*
X451809Y434155D01*
X451637Y434039D01*
X451440Y433888D01*
X450970Y433486D01*
X450077Y432631D01*
X446541Y436167D01*
X446860Y436490D01*
X447948Y437727D01*
X448065Y437899D01*
X448149Y438046D01*
X448198Y438167D01*
X448214Y438264D01*
X452174Y434304D01*
D02*
G37*
G36*
X496234Y392529D02*
X496169Y393001D01*
X495974Y393422D01*
X495648Y393795D01*
X495192Y394117D01*
X494606Y394390D01*
X493890Y394613D01*
X493044Y394787D01*
X492067Y394911D01*
X490960Y394985D01*
X489723Y395010D01*
Y400010D01*
X490960Y400035D01*
X493044Y400233D01*
X493890Y400407D01*
X494606Y400630D01*
X495192Y400903D01*
X495648Y401226D01*
X495974Y401598D01*
X496169Y402019D01*
X496234Y402491D01*
Y392529D01*
D02*
G37*
G36*
X478772Y452509D02*
X479160Y450558D01*
X480265Y448904D01*
X483194Y445975D01*
X484848Y444870D01*
X486799Y444482D01*
X490881D01*
X491451Y444443D01*
X492216Y444343D01*
X492626Y444254D01*
X493035Y443267D01*
X494638Y441178D01*
X496727Y439575D01*
X499160Y438567D01*
X500555Y438384D01*
Y434349D01*
X498768Y434114D01*
X495970Y432955D01*
X493568Y431112D01*
X491725Y428710D01*
X490566Y425912D01*
X490434Y424910D01*
X528106D01*
X527974Y425912D01*
X526815Y428710D01*
X524972Y431112D01*
X522570Y432955D01*
X519772Y434114D01*
X517985Y434349D01*
Y438384D01*
X519380Y438567D01*
X521813Y439575D01*
X523902Y441178D01*
X525505Y443267D01*
X526513Y445700D01*
X526856Y448310D01*
X526513Y450920D01*
X525505Y453353D01*
X523902Y455442D01*
X521813Y457045D01*
X519380Y458053D01*
X516770Y458396D01*
X501770D01*
X499160Y458053D01*
X496727Y457045D01*
X496334Y456744D01*
X496245Y456710D01*
X496159Y456629D01*
X496053Y456577D01*
X495511Y456162D01*
X495024Y455843D01*
X494521Y455563D01*
X493998Y455320D01*
X493454Y455113D01*
X492885Y454942D01*
X490556Y456158D01*
X489720Y456809D01*
X488968Y457622D01*
Y468033D01*
X492968Y468829D01*
X493035Y468667D01*
X494638Y466578D01*
X496727Y464975D01*
X499160Y463967D01*
X501770Y463624D01*
X516770D01*
X519380Y463967D01*
X521813Y464975D01*
X523902Y466578D01*
X525505Y468667D01*
X525583Y468855D01*
X528850Y469769D01*
X532371Y467270D01*
Y3569D01*
X3569D01*
Y80041D01*
X7205Y82683D01*
X9427Y80080D01*
X9084Y77470D01*
X9427Y74859D01*
X10435Y72427D01*
X12038Y70338D01*
X14127Y68735D01*
X16559Y67727D01*
X19170Y67384D01*
X34170D01*
X36781Y67727D01*
X39213Y68735D01*
X41302Y70338D01*
X42646Y72089D01*
X42687Y72102D01*
X43274Y72222D01*
X44847Y72372D01*
X171061D01*
X172512Y72661D01*
X173659Y72303D01*
X176512Y70288D01*
Y57168D01*
X44706D01*
X44120Y57207D01*
X43314Y57310D01*
X42687Y57438D01*
X42646Y57451D01*
X41302Y59202D01*
X39213Y60805D01*
X36781Y61813D01*
X34170Y62156D01*
X19170D01*
X16559Y61813D01*
X14127Y60805D01*
X12038Y59202D01*
X10435Y57113D01*
X9427Y54681D01*
X9084Y52070D01*
X9427Y49460D01*
X10435Y47027D01*
X12038Y44938D01*
X14127Y43335D01*
X16559Y42327D01*
X19170Y41984D01*
X34170D01*
X36781Y42327D01*
X39213Y43335D01*
X41302Y44938D01*
X42646Y46689D01*
X42687Y46702D01*
X43274Y46822D01*
X44847Y46972D01*
X66706D01*
X67063Y46271D01*
X67665Y42972D01*
X65357Y41430D01*
X62710Y38783D01*
X60631Y35671D01*
X59198Y32213D01*
X58468Y28542D01*
Y24799D01*
X59198Y21127D01*
X60631Y17669D01*
X62710Y14557D01*
X65357Y11910D01*
X68469Y9831D01*
X71927Y8398D01*
X75599Y7668D01*
X79342D01*
X83013Y8398D01*
X86471Y9831D01*
X89583Y11910D01*
X92230Y14557D01*
X94309Y17669D01*
X95742Y21127D01*
X96472Y24799D01*
Y28542D01*
X95742Y32213D01*
X94309Y35671D01*
X92230Y38783D01*
X89583Y41430D01*
X87275Y42972D01*
X87877Y46271D01*
X88234Y46972D01*
X178681D01*
X180632Y47360D01*
X181402Y47875D01*
X184216Y46891D01*
X185402Y45925D01*
Y24130D01*
X185790Y22179D01*
X186895Y20525D01*
X194515Y12905D01*
X196169Y11800D01*
X198120Y11412D01*
X252341D01*
X254292Y11800D01*
X255946Y12905D01*
X258875Y15834D01*
X259980Y17488D01*
X260368Y19439D01*
Y29874D01*
X260407Y30460D01*
X260510Y31266D01*
X260638Y31893D01*
X260651Y31934D01*
X262402Y33278D01*
X264005Y35367D01*
X265013Y37799D01*
X265356Y40410D01*
Y43410D01*
X265013Y46020D01*
X264005Y48453D01*
X262402Y50542D01*
X260313Y52145D01*
X259588Y52445D01*
Y56775D01*
X260313Y57075D01*
X262402Y58678D01*
X264005Y60767D01*
X265013Y63200D01*
X265196Y64595D01*
X269231D01*
X269466Y62808D01*
X270625Y60010D01*
X272468Y57608D01*
X274535Y56022D01*
X274848Y54909D01*
X274761Y51481D01*
X273538Y50542D01*
X271935Y48453D01*
X270927Y46020D01*
X270584Y43410D01*
Y40410D01*
X270927Y37799D01*
X271935Y35367D01*
X273538Y33278D01*
X275627Y31675D01*
X278060Y30668D01*
X280670Y30324D01*
X283281Y30668D01*
X285713Y31675D01*
X287802Y33278D01*
X289405Y35367D01*
X290413Y37799D01*
X290756Y40410D01*
Y43410D01*
X290413Y46020D01*
X289405Y48453D01*
X287802Y50542D01*
X286579Y51480D01*
X286492Y54909D01*
X286805Y56022D01*
X288872Y57608D01*
X290715Y60010D01*
X291874Y62808D01*
X292203Y65310D01*
X280670D01*
Y67310D01*
X278670D01*
Y80146D01*
X277668Y80014D01*
X274870Y78855D01*
X272468Y77012D01*
X270625Y74610D01*
X269466Y71812D01*
X269231Y70025D01*
X265196D01*
X265013Y71420D01*
X264005Y73853D01*
X262402Y75942D01*
X260651Y77285D01*
X260638Y77327D01*
X260518Y77915D01*
X260368Y79487D01*
Y93962D01*
X459351D01*
X461302Y94350D01*
X462956Y95455D01*
X465885Y98384D01*
X466990Y100038D01*
X467378Y101989D01*
Y341612D01*
X491234D01*
X491820Y341573D01*
X492626Y341470D01*
X493253Y341342D01*
X493294Y341329D01*
X494638Y339578D01*
X496727Y337975D01*
X499160Y336967D01*
X501770Y336624D01*
X516770D01*
X519380Y336967D01*
X521813Y337975D01*
X523902Y339578D01*
X525505Y341667D01*
X526513Y344100D01*
X526856Y346710D01*
X526513Y349320D01*
X525505Y351753D01*
X523902Y353842D01*
X521813Y355445D01*
X519380Y356453D01*
X516770Y356796D01*
X501770D01*
X499160Y356453D01*
X496727Y355445D01*
X494638Y353842D01*
X493294Y352091D01*
X493253Y352078D01*
X492665Y351958D01*
X491093Y351808D01*
X465209D01*
X463258Y351420D01*
X461604Y350315D01*
X458675Y347386D01*
X457570Y345732D01*
X457408Y344917D01*
X453408Y345311D01*
Y364918D01*
X455502Y367012D01*
X491234D01*
X491820Y366973D01*
X492626Y366870D01*
X493253Y366742D01*
X493294Y366729D01*
X494638Y364978D01*
X496727Y363375D01*
X499160Y362367D01*
X501770Y362024D01*
X516770D01*
X519380Y362367D01*
X521813Y363375D01*
X523902Y364978D01*
X525505Y367067D01*
X526513Y369500D01*
X526856Y372110D01*
X526513Y374720D01*
X525505Y377153D01*
X523902Y379242D01*
X521813Y380845D01*
X519380Y381853D01*
X516770Y382196D01*
X501770D01*
X499160Y381853D01*
X496727Y380845D01*
X494638Y379242D01*
X493294Y377491D01*
X493253Y377478D01*
X492665Y377358D01*
X491093Y377208D01*
X453390D01*
X451439Y376820D01*
X449785Y375715D01*
X444708Y370638D01*
X444696Y370638D01*
X440708Y371852D01*
Y383968D01*
X449152Y392412D01*
X491234D01*
X491820Y392373D01*
X492626Y392270D01*
X493253Y392142D01*
X493294Y392129D01*
X494638Y390378D01*
X496727Y388775D01*
X499160Y387767D01*
X501770Y387424D01*
X516770D01*
X519380Y387767D01*
X521813Y388775D01*
X523902Y390378D01*
X525505Y392467D01*
X526513Y394899D01*
X526856Y397510D01*
X526513Y400121D01*
X525505Y402553D01*
X523902Y404642D01*
X521813Y406245D01*
X519380Y407253D01*
X517985Y407436D01*
Y411471D01*
X519772Y411706D01*
X522570Y412865D01*
X524972Y414708D01*
X526815Y417110D01*
X527974Y419908D01*
X528106Y420910D01*
X490434D01*
X490566Y419908D01*
X491725Y417110D01*
X493568Y414708D01*
X495970Y412865D01*
X498768Y411706D01*
X500555Y411471D01*
Y407436D01*
X499160Y407253D01*
X496727Y406245D01*
X494638Y404642D01*
X493294Y402891D01*
X493253Y402878D01*
X492665Y402758D01*
X491093Y402608D01*
X447040D01*
X445089Y402220D01*
X443435Y401115D01*
X432005Y389685D01*
X430900Y388031D01*
X430512Y386080D01*
Y138448D01*
X232923D01*
X231525Y142448D01*
X232040Y143218D01*
X232428Y145169D01*
Y291398D01*
X233110Y292238D01*
X236428Y294155D01*
X236634Y294100D01*
X238346D01*
X239999Y294543D01*
X241481Y295399D01*
X241562Y295479D01*
X241920Y295502D01*
X260523D01*
X262244Y291502D01*
X261990Y291122D01*
X261602Y289171D01*
Y257749D01*
X260951Y256621D01*
X260508Y254967D01*
Y253256D01*
X260951Y251603D01*
X261807Y250121D01*
X263017Y248910D01*
X264499Y248055D01*
X266152Y247612D01*
X267864D01*
X269517Y248055D01*
X270302Y248508D01*
X272720Y247684D01*
X274302Y246557D01*
Y240303D01*
X270043Y236044D01*
X268826Y236370D01*
X267114D01*
X265461Y235927D01*
X263979Y235071D01*
X262769Y233861D01*
X261913Y232379D01*
X261470Y230726D01*
Y229014D01*
X261913Y227361D01*
X262769Y225879D01*
X263979Y224669D01*
X265461Y223813D01*
X267114Y223370D01*
X268826D01*
X270479Y223813D01*
X271961Y224669D01*
X272883Y225591D01*
X273604Y225734D01*
X275258Y226839D01*
X283005Y234586D01*
X284110Y236240D01*
X284498Y238191D01*
Y278112D01*
X353060D01*
X355011Y278500D01*
X356665Y279605D01*
X382065Y305005D01*
X383170Y306659D01*
X383558Y308610D01*
Y424162D01*
X443170D01*
X445121Y424550D01*
X446775Y425655D01*
X452918Y431798D01*
X452925Y431804D01*
X453070D01*
X454723Y432247D01*
X456205Y433103D01*
X457415Y434313D01*
X458271Y435795D01*
X458714Y437448D01*
Y439160D01*
X458271Y440813D01*
X457415Y442295D01*
X456205Y443505D01*
X454723Y444361D01*
X453070Y444804D01*
X451358D01*
X449705Y444361D01*
X448223Y443505D01*
X447013Y442295D01*
X446157Y440813D01*
X445714Y439160D01*
Y439046D01*
X445477Y438777D01*
X441058Y434358D01*
X405970D01*
X402740Y437294D01*
Y439006D01*
X402297Y440659D01*
X401441Y442141D01*
X400231Y443351D01*
X398749Y444207D01*
X397096Y444650D01*
X395384D01*
X393731Y444207D01*
X392249Y443351D01*
X392169Y443271D01*
X391810Y443248D01*
X373769D01*
X371818Y442860D01*
X370164Y441755D01*
X369778Y441369D01*
X365778Y443026D01*
Y481758D01*
X366602Y482582D01*
X478772D01*
Y452509D01*
D02*
G37*
G36*
X496234Y367129D02*
X496169Y367601D01*
X495974Y368022D01*
X495648Y368395D01*
X495192Y368717D01*
X494606Y368990D01*
X493890Y369213D01*
X493044Y369387D01*
X492067Y369511D01*
X490960Y369585D01*
X489723Y369610D01*
Y374610D01*
X490960Y374635D01*
X493044Y374833D01*
X493890Y375007D01*
X494606Y375230D01*
X495192Y375503D01*
X495648Y375826D01*
X495974Y376198D01*
X496169Y376619D01*
X496234Y377091D01*
Y367129D01*
D02*
G37*
G36*
Y341729D02*
X496169Y342201D01*
X495974Y342622D01*
X495648Y342994D01*
X495192Y343317D01*
X494606Y343590D01*
X493890Y343813D01*
X493044Y343987D01*
X492067Y344111D01*
X490960Y344185D01*
X489723Y344210D01*
Y349210D01*
X490960Y349235D01*
X493044Y349433D01*
X493890Y349607D01*
X494606Y349830D01*
X495192Y350103D01*
X495648Y350425D01*
X495974Y350798D01*
X496169Y351219D01*
X496234Y351691D01*
Y341729D01*
D02*
G37*
G36*
X24514Y329312D02*
X24414Y329363D01*
X24219Y329409D01*
X23930Y329449D01*
X23071Y329514D01*
X19281Y329581D01*
Y332581D01*
X24514Y332850D01*
Y329312D01*
D02*
G37*
G36*
X115570Y562610D02*
X328930Y562610D01*
X328930Y562610D01*
X329940Y562610D01*
X331808Y561837D01*
X333237Y560408D01*
X334010Y558541D01*
X334010Y557530D01*
X334010Y328930D01*
X334010Y328930D01*
X334010Y327667D01*
X333043Y325333D01*
X331257Y323547D01*
X328923Y322580D01*
X215900D01*
X215900Y322580D01*
X215157Y322507D01*
X213783Y321938D01*
X212732Y320887D01*
X212163Y319513D01*
X212090Y318770D01*
X212090Y227330D01*
X212088Y227328D01*
X212088Y226065D01*
X211122Y223732D01*
X209336Y221946D01*
X207003Y220980D01*
X17022D01*
X15622Y221560D01*
X14550Y222632D01*
X13970Y224032D01*
Y224790D01*
Y233681D01*
X13969Y234692D01*
X14742Y236559D01*
X16172Y237988D01*
X18039Y238761D01*
X19050Y238760D01*
X185420Y238760D01*
X186291Y238803D01*
X188001Y239143D01*
X189611Y239810D01*
X191060Y240778D01*
X192292Y242010D01*
X193260Y243459D01*
X193927Y245069D01*
X194267Y246779D01*
X194310Y247650D01*
Y328930D01*
X194310Y328930D01*
X194310Y330193D01*
X195277Y332527D01*
X197063Y334313D01*
X199397Y335280D01*
X200660D01*
X306070Y335280D01*
X306070D01*
X307061Y335378D01*
X308892Y336136D01*
X310294Y337538D01*
X311052Y339369D01*
X311150Y340360D01*
X311150Y544830D01*
X311150Y544830D01*
X311052Y545821D01*
X310294Y547653D01*
X308893Y549054D01*
X307061Y549813D01*
X306070Y549910D01*
X218440Y549910D01*
X218440Y549910D01*
X217944Y549861D01*
X217029Y549482D01*
X216328Y548781D01*
X215949Y547865D01*
X215900Y547370D01*
X215900Y538480D01*
X215900Y538480D01*
Y537975D01*
X215513Y537041D01*
X214799Y536327D01*
X213865Y535940D01*
X213360Y535940D01*
X171450D01*
X171450Y535940D01*
X170459Y535842D01*
X168628Y535084D01*
X167226Y533682D01*
X166468Y531851D01*
X166370Y530860D01*
Y528320D01*
X166370Y528320D01*
X166370Y527814D01*
X165983Y526881D01*
X165269Y526167D01*
X164335Y525780D01*
X163830Y525780D01*
X149860D01*
X149102Y525780D01*
X147701Y526360D01*
X146630Y527431D01*
X146050Y528832D01*
X146050Y529590D01*
Y546100D01*
X146050Y546100D01*
X145977Y546843D01*
X145408Y548217D01*
X144357Y549268D01*
X142983Y549837D01*
X142240Y549910D01*
X115570D01*
X114812Y549910D01*
X113412Y550490D01*
X112340Y551562D01*
X111760Y552962D01*
X111760Y553720D01*
Y558800D01*
X111760Y559558D01*
X112339Y560958D01*
X113411Y562030D01*
X114812Y562610D01*
X115570Y562610D01*
D02*
G37*
G36*
X12539Y328095D02*
X12487Y328378D01*
X12367Y328630D01*
X12178Y328853D01*
X11920Y329046D01*
X11595Y329210D01*
X11200Y329343D01*
X10737Y329447D01*
X10206Y329522D01*
X9606Y329566D01*
X8937Y329581D01*
X8774Y332581D01*
X9438Y332596D01*
X10030Y332641D01*
X10551Y332715D01*
X11000Y332820D01*
X11377Y332954D01*
X11682Y333118D01*
X11916Y333312D01*
X12077Y333535D01*
X12167Y333789D01*
X12186Y334072D01*
X12539Y328095D01*
D02*
G37*
G36*
X40759Y309468D02*
X40878Y309317D01*
X41057Y309183D01*
X41294Y309068D01*
X41591Y308970D01*
X41947Y308890D01*
X42362Y308828D01*
X42837Y308783D01*
X43963Y308748D01*
Y305748D01*
X43471Y305739D01*
X42654Y305667D01*
X42328Y305604D01*
X42056Y305523D01*
X41840Y305424D01*
X41679Y305307D01*
X41572Y305172D01*
X41521Y305019D01*
X41525Y304848D01*
X40699Y309636D01*
X40759Y309468D01*
D02*
G37*
G36*
X240426Y303343D02*
X240547Y303292D01*
X240710Y303247D01*
X240914Y303208D01*
X241160Y303175D01*
X241776Y303127D01*
X243013Y303100D01*
Y298100D01*
X242559Y298097D01*
X240914Y297992D01*
X240710Y297953D01*
X240547Y297908D01*
X240426Y297857D01*
X240347Y297800D01*
Y303400D01*
X240426Y303343D01*
D02*
G37*
G36*
X269204Y259405D02*
X269295Y258005D01*
X269337Y257757D01*
X269386Y257550D01*
X269443Y257384D01*
X269508Y257259D01*
X269580Y257175D01*
X263996Y256744D01*
X264035Y256812D01*
X264070Y256924D01*
X264100Y257078D01*
X264127Y257275D01*
X264167Y257798D01*
X264200Y259361D01*
X269200Y259857D01*
X269204Y259405D01*
D02*
G37*
G36*
X275352Y230608D02*
X271471Y227934D01*
X270201Y233190D01*
X270294Y233156D01*
X270411Y233161D01*
X270554Y233205D01*
X270723Y233288D01*
X270917Y233410D01*
X271138Y233570D01*
X271654Y234008D01*
X272274Y234601D01*
X275352Y230608D01*
D02*
G37*
G36*
X152083Y92450D02*
X152004Y92507D01*
X151883Y92558D01*
X151720Y92603D01*
X151516Y92642D01*
X151270Y92675D01*
X150654Y92723D01*
X149417Y92750D01*
Y97750D01*
X149871Y97753D01*
X151516Y97858D01*
X151720Y97897D01*
X151883Y97942D01*
X152004Y97993D01*
X152083Y98050D01*
Y92450D01*
D02*
G37*
G36*
X7857Y93720D02*
X8513Y93169D01*
X8717Y93028D01*
X8914Y92909D01*
X9103Y92811D01*
X9285Y92734D01*
X9459Y92679D01*
X9626Y92646D01*
X6803Y89823D01*
X6770Y89990D01*
X6715Y90164D01*
X6638Y90346D01*
X6540Y90535D01*
X6421Y90732D01*
X6280Y90936D01*
X5934Y91366D01*
X5729Y91592D01*
X5502Y91826D01*
X7623Y93947D01*
X7857Y93720D01*
D02*
G37*
G36*
X257795Y79620D02*
X257993Y77537D01*
X258167Y76690D01*
X258390Y75974D01*
X258663Y75388D01*
X258986Y74932D01*
X259358Y74606D01*
X259779Y74411D01*
X260251Y74346D01*
X250289D01*
X250761Y74411D01*
X251182Y74606D01*
X251555Y74932D01*
X251877Y75388D01*
X252150Y75974D01*
X252373Y76690D01*
X252547Y77537D01*
X252671Y78513D01*
X252745Y79620D01*
X252770Y80857D01*
X257770D01*
X257795Y79620D01*
D02*
G37*
G36*
X39771Y81979D02*
X39966Y81558D01*
X40292Y81186D01*
X40748Y80863D01*
X41334Y80590D01*
X42050Y80367D01*
X42896Y80193D01*
X43873Y80069D01*
X44980Y79995D01*
X46217Y79970D01*
Y74970D01*
X44980Y74945D01*
X42896Y74747D01*
X42050Y74573D01*
X41334Y74350D01*
X40748Y74077D01*
X40292Y73755D01*
X39966Y73382D01*
X39771Y72961D01*
X39706Y72489D01*
Y82451D01*
X39771Y81979D01*
D02*
G37*
G36*
Y56579D02*
X39966Y56158D01*
X40292Y55785D01*
X40748Y55463D01*
X41334Y55190D01*
X42050Y54967D01*
X42896Y54793D01*
X43873Y54669D01*
X44980Y54595D01*
X46217Y54570D01*
Y49570D01*
X44980Y49545D01*
X42896Y49347D01*
X42050Y49173D01*
X41334Y48950D01*
X40748Y48677D01*
X40292Y48355D01*
X39966Y47982D01*
X39771Y47561D01*
X39706Y47089D01*
Y57051D01*
X39771Y56579D01*
D02*
G37*
G36*
X225475Y34394D02*
X225270Y34864D01*
X224950Y35285D01*
X224517Y35656D01*
X223970Y35979D01*
X223309Y36251D01*
X222533Y36474D01*
X221644Y36647D01*
X220641Y36771D01*
X219524Y36845D01*
X218293Y36870D01*
X217364Y41870D01*
X218473Y41895D01*
X219449Y41970D01*
X220292Y42095D01*
X221003Y42270D01*
X221582Y42494D01*
X222028Y42769D01*
X222342Y43094D01*
X222523Y43468D01*
X222572Y43893D01*
X222489Y44367D01*
X225475Y34394D01*
D02*
G37*
G36*
X259779Y34809D02*
X259358Y34614D01*
X258986Y34288D01*
X258663Y33832D01*
X258390Y33246D01*
X258167Y32530D01*
X257993Y31683D01*
X257869Y30707D01*
X257795Y29600D01*
X257770Y28363D01*
X252770D01*
X252745Y29600D01*
X252547Y31683D01*
X252373Y32530D01*
X252150Y33246D01*
X251877Y33832D01*
X251555Y34288D01*
X251182Y34614D01*
X250761Y34809D01*
X250289Y34874D01*
X260251D01*
X259779Y34809D01*
D02*
G37*
%LPC*%
G36*
X313080Y677790D02*
Y667480D01*
X315426D01*
Y670476D01*
X315478Y670002D01*
X315633Y669577D01*
X315891Y669203D01*
X316252Y668879D01*
X316717Y668604D01*
X317285Y668379D01*
X317955Y668205D01*
X318730Y668080D01*
X319607Y668005D01*
X319653Y668004D01*
Y669480D01*
X319361Y671699D01*
X318505Y673767D01*
X317142Y675542D01*
X315367Y676905D01*
X313299Y677761D01*
X313080Y677790D01*
D02*
G37*
G36*
X399580D02*
Y667480D01*
X406153D01*
Y669480D01*
X405861Y671699D01*
X405005Y673767D01*
X403642Y675542D01*
X401867Y676905D01*
X399799Y677761D01*
X399580Y677790D01*
D02*
G37*
G36*
X395580D02*
X395361Y677761D01*
X393293Y676905D01*
X391518Y675542D01*
X390155Y673767D01*
X389299Y671699D01*
X389007Y669480D01*
Y668004D01*
X389053Y668005D01*
X389930Y668080D01*
X390704Y668205D01*
X391376Y668379D01*
X391943Y668604D01*
X392408Y668879D01*
X392769Y669203D01*
X393027Y669577D01*
X393182Y670002D01*
X393234Y670476D01*
Y667480D01*
X395580D01*
Y677790D01*
D02*
G37*
G36*
X309080D02*
X308861Y677761D01*
X306793Y676905D01*
X305018Y675542D01*
X303655Y673767D01*
X302799Y671699D01*
X302507Y669480D01*
Y667480D01*
X309080D01*
Y677790D01*
D02*
G37*
G36*
X378300Y671130D02*
X370300D01*
Y663130D01*
X374251D01*
X374269Y667100D01*
X378300Y667809D01*
Y671130D01*
D02*
G37*
G36*
X366300D02*
X358300D01*
Y667809D01*
X362331Y667100D01*
X362349Y663130D01*
X366300D01*
Y671130D01*
D02*
G37*
G36*
X349090Y671130D02*
X341090D01*
Y663130D01*
X345041D01*
X345060Y667100D01*
X349090Y667809D01*
Y671130D01*
D02*
G37*
G36*
X337090D02*
X329090D01*
Y667809D01*
X333120Y667100D01*
X333139Y663130D01*
X337090D01*
Y671130D01*
D02*
G37*
G36*
X395580Y663480D02*
X393234D01*
Y660484D01*
X393182Y660958D01*
X393027Y661383D01*
X392769Y661757D01*
X392408Y662081D01*
X391943Y662356D01*
X391376Y662581D01*
X390704Y662755D01*
X389930Y662880D01*
X389053Y662955D01*
X389007Y662956D01*
Y661480D01*
X389299Y659261D01*
X390155Y657193D01*
X391518Y655418D01*
X393293Y654055D01*
X395071Y653319D01*
X395066Y653663D01*
X394954Y655291D01*
X394855Y656022D01*
X394575Y657314D01*
X394392Y657876D01*
X394181Y658382D01*
X393943Y658832D01*
X393676Y659226D01*
X395580D01*
Y663480D01*
D02*
G37*
G36*
X406153D02*
X399580D01*
Y659226D01*
X401484D01*
X401217Y658832D01*
X400979Y658382D01*
X400768Y657876D01*
X400586Y657314D01*
X400431Y656696D01*
X400305Y656022D01*
X400136Y654505D01*
X400094Y653663D01*
X400089Y653319D01*
X401867Y654055D01*
X403642Y655418D01*
X405005Y657193D01*
X405861Y659261D01*
X406153Y661480D01*
Y663480D01*
D02*
G37*
G36*
X315426D02*
X313080D01*
Y659226D01*
X314984D01*
X314717Y658832D01*
X314479Y658382D01*
X314268Y657876D01*
X314086Y657314D01*
X313931Y656696D01*
X313805Y656022D01*
X313636Y654505D01*
X313594Y653663D01*
X313589Y653319D01*
X315367Y654055D01*
X317142Y655418D01*
X318505Y657193D01*
X319361Y659261D01*
X319653Y661480D01*
Y662956D01*
X319607Y662955D01*
X318730Y662880D01*
X317955Y662755D01*
X317285Y662581D01*
X316717Y662356D01*
X316252Y662081D01*
X315891Y661757D01*
X315633Y661383D01*
X315478Y660958D01*
X315426Y660484D01*
Y663480D01*
D02*
G37*
G36*
X309080D02*
X302507D01*
Y661480D01*
X302799Y659261D01*
X303655Y657193D01*
X305018Y655418D01*
X306793Y654055D01*
X308571Y653319D01*
X308566Y653663D01*
X308454Y655291D01*
X308355Y656022D01*
X308074Y657314D01*
X307892Y657876D01*
X307681Y658382D01*
X307443Y658832D01*
X307176Y659226D01*
X309080D01*
Y663480D01*
D02*
G37*
G36*
X378300Y659130D02*
X368300D01*
X358300D01*
Y652009D01*
X358300Y651130D01*
X359792Y647769D01*
X358652Y646648D01*
X355800Y645145D01*
X355186Y645310D01*
X353474D01*
X351821Y644867D01*
X349343Y647876D01*
X348550Y649913D01*
X349090Y651130D01*
X349090Y652009D01*
Y659130D01*
X339090D01*
X329090D01*
Y652009D01*
X329090Y651130D01*
X330590Y647751D01*
X330590Y647130D01*
Y637248D01*
X329598Y636210D01*
X326590Y634581D01*
X326220Y634680D01*
X324640D01*
X323114Y634271D01*
X322653Y634005D01*
X320698Y633798D01*
X317610Y634733D01*
X317142Y635342D01*
X315367Y636705D01*
X313589Y637441D01*
X313594Y637097D01*
X313706Y635469D01*
X313805Y634738D01*
X314086Y633446D01*
X314268Y632884D01*
X314479Y632378D01*
X314717Y631928D01*
X314984Y631534D01*
X313080D01*
Y623780D01*
Y609970D01*
X313299Y609999D01*
X315367Y610855D01*
X317142Y612218D01*
X318505Y613993D01*
X319361Y616061D01*
X319653Y618280D01*
Y620535D01*
X321669Y622023D01*
X323653Y622944D01*
X324640Y622680D01*
X326220D01*
X327746Y623089D01*
X329114Y623879D01*
X330231Y624996D01*
X331021Y626364D01*
X331430Y627890D01*
X331430Y629470D01*
X334992Y631630D01*
X347590D01*
Y631630D01*
X351590Y632886D01*
X351821Y632753D01*
X353474Y632310D01*
X355186D01*
X355800Y632475D01*
X359800Y631630D01*
X359800Y631630D01*
X364222D01*
Y601737D01*
X360556Y598071D01*
X360420Y597976D01*
X360287Y597899D01*
X360160Y597838D01*
X360035Y597790D01*
X359908Y597754D01*
X359776Y597728D01*
X359632Y597713D01*
X359376Y597705D01*
X359168Y597657D01*
X358554D01*
X356901Y597214D01*
X355419Y596359D01*
X354209Y595148D01*
X353353Y593666D01*
X352910Y592013D01*
Y590302D01*
X353353Y588648D01*
X354209Y587166D01*
X355419Y585956D01*
X356901Y585100D01*
X358554Y584657D01*
X360266D01*
X361919Y585100D01*
X363401Y585956D01*
X364611Y587166D01*
X365467Y588648D01*
X365910Y590302D01*
Y590915D01*
X365958Y591123D01*
X365965Y591380D01*
X365981Y591523D01*
X366007Y591656D01*
X366043Y591782D01*
X366091Y591907D01*
X366152Y592034D01*
X366229Y592168D01*
X366323Y592303D01*
X371184Y597164D01*
X371184Y597164D01*
X372068Y598487D01*
X372378Y600047D01*
X372378Y600047D01*
Y627734D01*
X372973Y628069D01*
X374412Y628008D01*
X377639Y626364D01*
X378429Y624996D01*
X379546Y623879D01*
X380914Y623089D01*
X382440Y622680D01*
X384020D01*
X385007Y622944D01*
X386991Y622023D01*
X389007Y620535D01*
Y618280D01*
X389299Y616061D01*
X390155Y613993D01*
X391518Y612218D01*
X393293Y610855D01*
X395361Y609999D01*
X395580Y609970D01*
Y623780D01*
Y631534D01*
X393676D01*
X393943Y631928D01*
X394181Y632378D01*
X394392Y632884D01*
X394575Y633446D01*
X394729Y634064D01*
X394855Y634738D01*
X395024Y636255D01*
X395066Y637097D01*
X395071Y637441D01*
X393293Y636705D01*
X391518Y635342D01*
X391050Y634733D01*
X387962Y633798D01*
X386007Y634005D01*
X385546Y634271D01*
X384020Y634680D01*
X382440D01*
X380914Y634271D01*
X380800Y634205D01*
X377417Y635700D01*
X376800Y636344D01*
X376800Y647751D01*
X378300Y651130D01*
X378300Y652009D01*
Y659130D01*
D02*
G37*
G36*
X144240Y629920D02*
Y628632D01*
X157490D01*
X157490Y628632D01*
X159051Y628942D01*
X160374Y629826D01*
X160468Y629920D01*
X144240D01*
D02*
G37*
G36*
X124012Y629920D02*
X124106Y629826D01*
X125429Y628942D01*
X126990Y628632D01*
X126990Y628632D01*
X140240D01*
Y629920D01*
X124012Y629920D01*
D02*
G37*
G36*
X400089Y637441D02*
X400094Y637097D01*
X400206Y635469D01*
X400305Y634738D01*
X400586Y633446D01*
X400768Y632884D01*
X400979Y632378D01*
X401217Y631928D01*
X401484Y631534D01*
X399580D01*
Y625780D01*
X406153D01*
Y629280D01*
X405861Y631499D01*
X405005Y633567D01*
X403642Y635342D01*
X401867Y636705D01*
X400089Y637441D01*
D02*
G37*
G36*
X308571D02*
X306793Y636705D01*
X305018Y635342D01*
X303655Y633567D01*
X302799Y631499D01*
X302507Y629280D01*
Y625780D01*
X309080D01*
Y631534D01*
X307176D01*
X307443Y631928D01*
X307681Y632378D01*
X307892Y632884D01*
X308074Y633446D01*
X308229Y634064D01*
X308355Y634738D01*
X308524Y636255D01*
X308566Y637097D01*
X308571Y637441D01*
D02*
G37*
G36*
X108762Y628888D02*
X107536Y627662D01*
X106777Y625831D01*
X106680Y624840D01*
Y613710D01*
X109318D01*
Y626960D01*
X109318Y626960D01*
X109008Y628521D01*
X108762Y628888D01*
D02*
G37*
G36*
X83820Y631308D02*
X82356Y629844D01*
X81472Y628521D01*
X81162Y626960D01*
X81162Y626960D01*
Y613710D01*
X83820D01*
Y631308D01*
D02*
G37*
G36*
X406153Y621780D02*
X399580D01*
Y609970D01*
X399799Y609999D01*
X401867Y610855D01*
X403642Y612218D01*
X405005Y613993D01*
X405861Y616061D01*
X406153Y618280D01*
Y621780D01*
D02*
G37*
G36*
X309080D02*
X302507D01*
Y618280D01*
X302799Y616061D01*
X303655Y613993D01*
X305018Y612218D01*
X306793Y610855D01*
X308861Y609999D01*
X309080Y609970D01*
Y621780D01*
D02*
G37*
G36*
X341630Y597172D02*
X341630Y596900D01*
X341630Y594360D01*
X342746D01*
X342306Y596000D01*
X341630Y597172D01*
D02*
G37*
G36*
X109318Y609710D02*
X106680D01*
X106680Y592132D01*
X108124Y593576D01*
X109008Y594899D01*
X109318Y596460D01*
X109318Y596460D01*
Y609710D01*
D02*
G37*
G36*
X83820D02*
X81162D01*
Y596460D01*
X81162Y596460D01*
X81472Y594899D01*
X82356Y593576D01*
X83820Y592112D01*
Y609710D01*
D02*
G37*
G36*
X342746Y591820D02*
X341630D01*
X341630Y589008D01*
X342306Y590180D01*
X342746Y591820D01*
D02*
G37*
G36*
X157490Y595259D02*
X126990D01*
X126014Y595065D01*
X125188Y594512D01*
X120188Y589512D01*
X119635Y588685D01*
X119441Y587710D01*
Y577710D01*
X119635Y576735D01*
X120188Y575908D01*
X125188Y570908D01*
X126014Y570355D01*
X126990Y570161D01*
X157490D01*
X158465Y570355D01*
X159292Y570908D01*
X164292Y575908D01*
X164845Y576735D01*
X165039Y577710D01*
Y587710D01*
X164845Y588685D01*
X164292Y589512D01*
X159292Y594512D01*
X158465Y595065D01*
X157490Y595259D01*
D02*
G37*
G36*
X292956Y494180D02*
X291244D01*
X289591Y493737D01*
X288109Y492881D01*
X288029Y492801D01*
X287670Y492778D01*
X52363D01*
X52354Y492779D01*
X52251Y492881D01*
X50769Y493737D01*
X49116Y494180D01*
X47404D01*
X45751Y493737D01*
X44269Y492881D01*
X43059Y491671D01*
X42203Y490189D01*
X41760Y488536D01*
Y486824D01*
X42203Y485171D01*
X43059Y483689D01*
X44269Y482479D01*
X45751Y481623D01*
X47404Y481180D01*
X49116D01*
X50769Y481623D01*
X52251Y482479D01*
X52332Y482559D01*
X52690Y482582D01*
X287997D01*
X288006Y482581D01*
X288109Y482479D01*
X289591Y481623D01*
X291244Y481180D01*
X292956D01*
X294609Y481623D01*
X296091Y482479D01*
X297301Y483689D01*
X298157Y485171D01*
X298600Y486824D01*
Y488536D01*
X298157Y490189D01*
X297301Y491671D01*
X296091Y492881D01*
X294609Y493737D01*
X292956Y494180D01*
D02*
G37*
G36*
X197111Y477529D02*
X197111Y477529D01*
X197111Y477529D01*
X196607Y477429D01*
X196135Y477336D01*
X196135Y477336D01*
X196135Y477336D01*
X194268Y476563D01*
X194268Y476563D01*
X194268Y476563D01*
X193801Y476251D01*
X193441Y476011D01*
X193441Y476011D01*
X193440Y476011D01*
X192011Y474582D01*
X192011Y474582D01*
X192011Y474582D01*
X191702Y474119D01*
X191459Y473755D01*
X191459Y473755D01*
X191458Y473755D01*
X190685Y471888D01*
X190685Y471888D01*
X190685Y471888D01*
X190591Y471417D01*
X190491Y470913D01*
X190491Y470912D01*
X190491Y470912D01*
X190491Y469902D01*
X190491Y450975D01*
X190443Y450484D01*
X190023Y449471D01*
X189339Y448787D01*
X188326Y448367D01*
X187835Y448319D01*
X105410Y448319D01*
X104147Y448319D01*
X103172Y448125D01*
X103172Y448125D01*
X103172Y448125D01*
X100838Y447159D01*
X100838Y447159D01*
X100011Y446606D01*
X100011Y446606D01*
X98224Y444820D01*
X98224Y444820D01*
X98224Y444820D01*
X97950Y444409D01*
X97672Y443993D01*
X97672Y443993D01*
X97672Y443993D01*
X96705Y441660D01*
X96705Y441659D01*
X96705Y441659D01*
X96601Y441137D01*
X96511Y440684D01*
X96511Y440684D01*
X96511Y440684D01*
X96511Y439421D01*
X96511Y315907D01*
X94750Y312438D01*
X94745Y312429D01*
X94280Y312337D01*
X93770Y312235D01*
X93770Y312235D01*
X93770Y312235D01*
X92836Y311849D01*
X92836Y311849D01*
X92836Y311849D01*
X92337Y311516D01*
X92009Y311296D01*
X92009Y311296D01*
X92009Y311296D01*
X91294Y310582D01*
X91294Y310582D01*
X91294Y310581D01*
X91020Y310172D01*
X90742Y309755D01*
X90742Y309755D01*
X90742Y309755D01*
X90355Y308821D01*
X90355Y308821D01*
X90355Y308821D01*
X90262Y308354D01*
X90161Y307846D01*
X90161Y307845D01*
X90161Y307845D01*
X90161Y307340D01*
Y287020D01*
X90161Y286515D01*
X90161Y286515D01*
X90161Y286515D01*
X90355Y285539D01*
X90355Y285539D01*
X90355Y285539D01*
X90742Y284606D01*
X91294Y283779D01*
X92009Y283064D01*
X92836Y282512D01*
X93769Y282125D01*
X93769Y282125D01*
X93769Y282125D01*
X94745Y281931D01*
X95250Y281931D01*
X128270Y281931D01*
X128775Y281931D01*
X128775Y281931D01*
X128775Y281931D01*
X129750Y282125D01*
X129750Y282125D01*
X129751Y282125D01*
X130684Y282512D01*
X131511Y283064D01*
X132226Y283779D01*
X132778Y284606D01*
X133165Y285539D01*
X133165Y285539D01*
X133165Y285539D01*
X133359Y286515D01*
X133359Y287020D01*
X133359Y287020D01*
Y417821D01*
X243613D01*
X247120Y416630D01*
X247120Y413821D01*
Y393630D01*
X251111D01*
X252661Y390039D01*
X252631Y389630D01*
X250418Y387932D01*
X248575Y385530D01*
X247416Y382732D01*
X247072Y380118D01*
X245566Y379094D01*
X244742Y378734D01*
X243179Y378265D01*
X241670Y379136D01*
X240030Y379576D01*
Y379304D01*
X241099Y378862D01*
X242347Y378029D01*
X243409Y376967D01*
X244243Y375719D01*
X244817Y374333D01*
X245110Y372860D01*
X245110Y372110D01*
X245110Y368028D01*
X245786Y369200D01*
X246143Y370530D01*
X247949Y371350D01*
X250300Y371682D01*
X250418Y371528D01*
X252820Y369685D01*
X255618Y368526D01*
X258620Y368131D01*
X264620D01*
X267622Y368526D01*
X270420Y369685D01*
X272822Y371528D01*
X274665Y373930D01*
X275824Y376728D01*
X276219Y379730D01*
X275824Y382732D01*
X274665Y385530D01*
X272822Y387932D01*
X270609Y389630D01*
X270578Y390039D01*
X272129Y393630D01*
X276120D01*
Y415025D01*
X276176Y416303D01*
X276610Y418066D01*
X277317Y420134D01*
X277558Y420496D01*
X277945Y421429D01*
X278139Y422405D01*
Y422909D01*
X278139Y422910D01*
X278139Y439419D01*
X278139Y440177D01*
X278139Y440177D01*
X278139Y440177D01*
X278035Y440701D01*
X277945Y441152D01*
X277945Y441153D01*
X277945Y441153D01*
X277365Y442553D01*
X277365Y442554D01*
X277365Y442554D01*
X277075Y442988D01*
X276813Y443381D01*
X276813Y443381D01*
X276813Y443381D01*
X275741Y444453D01*
X275741Y444453D01*
X275740Y444453D01*
X275330Y444727D01*
X274914Y445005D01*
X274914Y445005D01*
X274913Y445005D01*
X273513Y445585D01*
X273513Y445585D01*
X273512Y445585D01*
X273049Y445677D01*
X272537Y445779D01*
X272537Y445779D01*
X272537Y445779D01*
X271781Y445779D01*
X271780Y445779D01*
X256603D01*
X255981Y445809D01*
X254703Y446064D01*
X253556Y446538D01*
X252525Y447228D01*
X251648Y448105D01*
X250958Y449136D01*
X250484Y450283D01*
X250229Y451561D01*
X250199Y452183D01*
Y470910D01*
X250005Y471886D01*
X249231Y473753D01*
X248679Y474580D01*
X248679Y474580D01*
X247250Y476009D01*
X247250Y476009D01*
X246423Y476562D01*
X244556Y477335D01*
X243580Y477529D01*
X242570D01*
X198121Y477529D01*
X197111Y477529D01*
D02*
G37*
G36*
X86360Y392702D02*
Y389890D01*
X87476D01*
X87036Y391530D01*
X86360Y392702D01*
D02*
G37*
G36*
X87476Y387350D02*
X86360D01*
Y384538D01*
X87036Y385710D01*
X87476Y387350D01*
D02*
G37*
G36*
X295910Y363066D02*
X294270Y362626D01*
X293098Y361950D01*
X295910D01*
Y363066D01*
D02*
G37*
G36*
X285115D02*
Y361950D01*
X287927D01*
X286755Y362626D01*
X285115Y363066D01*
D02*
G37*
G36*
X282575D02*
X280935Y362626D01*
X279763Y361950D01*
X282575D01*
Y363066D01*
D02*
G37*
G36*
X271780D02*
Y361950D01*
X274592D01*
X273420Y362626D01*
X271780Y363066D01*
D02*
G37*
G36*
X269240D02*
X267600Y362626D01*
X266428Y361950D01*
X269240D01*
Y363066D01*
D02*
G37*
G36*
X258445D02*
Y361950D01*
X261257D01*
X260085Y362626D01*
X258445Y363066D01*
D02*
G37*
G36*
X255905D02*
X254265Y362626D01*
X253093Y361950D01*
X255905D01*
Y363066D01*
D02*
G37*
G36*
X298450D02*
Y361950D01*
X300990D01*
X300989Y361948D01*
X301264Y361949D01*
X300090Y362626D01*
X298450Y363066D01*
D02*
G37*
%LPD*%
G36*
X351473Y636010D02*
X351212Y636257D01*
X350936Y636478D01*
X350646Y636673D01*
X350341Y636842D01*
X350023Y636985D01*
X349691Y637102D01*
X349345Y637193D01*
X348985Y637258D01*
X348610Y637297D01*
X348222Y637310D01*
Y640310D01*
X348610Y640323D01*
X348985Y640362D01*
X349345Y640427D01*
X349691Y640518D01*
X350023Y640635D01*
X350341Y640778D01*
X350646Y640947D01*
X350936Y641142D01*
X351212Y641363D01*
X351473Y641610D01*
Y636010D01*
D02*
G37*
G36*
X345059Y641525D02*
X345150Y641270D01*
X345302Y641045D01*
X345514Y640850D01*
X345787Y640685D01*
X346120Y640550D01*
X346514Y640445D01*
X346968Y640370D01*
X347484Y640325D01*
X348060Y640310D01*
Y637310D01*
X347484Y637295D01*
X346968Y637250D01*
X346514Y637175D01*
X346120Y637070D01*
X345787Y636935D01*
X345514Y636770D01*
X345302Y636575D01*
X345150Y636350D01*
X345059Y636095D01*
X345029Y635810D01*
Y641810D01*
X345059Y641525D01*
D02*
G37*
G36*
X371015Y634161D02*
X370760Y634070D01*
X370535Y633918D01*
X370340Y633706D01*
X370175Y633433D01*
X370040Y633100D01*
X369935Y632706D01*
X369860Y632252D01*
X369815Y631736D01*
X369800Y631161D01*
X366800D01*
X366785Y631736D01*
X366740Y632252D01*
X366665Y632706D01*
X366560Y633100D01*
X366425Y633433D01*
X366260Y633706D01*
X366065Y633918D01*
X365840Y634070D01*
X365585Y634161D01*
X365300Y634191D01*
X371300D01*
X371015Y634161D01*
D02*
G37*
G36*
X364790Y594416D02*
X364524Y594132D01*
X364287Y593840D01*
X364078Y593539D01*
X363898Y593230D01*
X363746Y592912D01*
X363622Y592586D01*
X363526Y592252D01*
X363459Y591909D01*
X363420Y591557D01*
X363410Y591197D01*
X359450Y595157D01*
X359810Y595168D01*
X360161Y595206D01*
X360504Y595274D01*
X360839Y595369D01*
X361165Y595493D01*
X361482Y595645D01*
X361792Y595826D01*
X362092Y596035D01*
X362385Y596272D01*
X362668Y596537D01*
X364790Y594416D01*
D02*
G37*
G36*
X289243Y484880D02*
X289164Y484937D01*
X289043Y484988D01*
X288880Y485033D01*
X288676Y485072D01*
X288430Y485105D01*
X287814Y485153D01*
X286577Y485180D01*
Y490180D01*
X287031Y490183D01*
X288676Y490288D01*
X288880Y490327D01*
X289043Y490372D01*
X289164Y490423D01*
X289243Y490480D01*
Y484880D01*
D02*
G37*
G36*
X51196Y490423D02*
X51317Y490372D01*
X51480Y490327D01*
X51684Y490288D01*
X51930Y490255D01*
X52546Y490207D01*
X53783Y490180D01*
Y485180D01*
X53329Y485177D01*
X51684Y485072D01*
X51480Y485033D01*
X51317Y484988D01*
X51196Y484937D01*
X51117Y484880D01*
Y490480D01*
X51196Y490423D01*
D02*
G37*
G36*
X198120Y474980D02*
X242570Y474980D01*
X243580D01*
X245448Y474207D01*
X246877Y472778D01*
X247650Y470910D01*
Y469900D01*
Y452120D01*
Y452120D01*
X247693Y451249D01*
X248033Y449539D01*
X248699Y447929D01*
X249668Y446480D01*
X250900Y445248D01*
X252349Y444279D01*
X253959Y443613D01*
X255669Y443273D01*
X256540Y443230D01*
X271780D01*
X271780Y443230D01*
X272538Y443230D01*
X273938Y442650D01*
X275010Y441578D01*
X275590Y440178D01*
X275590Y439420D01*
X275590Y422910D01*
X275590Y422910D01*
Y422405D01*
X275203Y421471D01*
X274489Y420757D01*
X273555Y420370D01*
X130810D01*
Y287020D01*
X130810Y287020D01*
X130810Y286515D01*
X130423Y285581D01*
X129709Y284867D01*
X128775Y284480D01*
X128270Y284480D01*
X95250Y284480D01*
X95250D01*
X94745Y284480D01*
X93811Y284867D01*
X93097Y285581D01*
X92710Y286515D01*
X92710Y287020D01*
Y307340D01*
X92710Y307846D01*
X93097Y308779D01*
X93811Y309494D01*
X94745Y309880D01*
X95250Y309880D01*
X96520Y309880D01*
X96520D01*
X97015Y309929D01*
X97931Y310308D01*
X98632Y311009D01*
X99011Y311924D01*
X99060Y312420D01*
X99060Y439421D01*
D01*
Y439421D01*
Y439421D01*
X99060Y440684D01*
X100027Y443018D01*
X101813Y444804D01*
X104147Y445770D01*
X105410Y445770D01*
X187960Y445770D01*
X187960D01*
X188951Y445867D01*
X190783Y446625D01*
X192185Y448027D01*
X192943Y449859D01*
X193040Y450850D01*
X193040Y469902D01*
X193040Y470912D01*
X193813Y472779D01*
X195243Y474208D01*
X197110Y474980D01*
X198120Y474980D01*
D02*
G37*
%LPC*%
G36*
X193040Y469902D02*
Y469902D01*
D01*
Y469902D01*
D02*
G37*
G36*
X516770Y331396D02*
X501770D01*
X499160Y331053D01*
X496727Y330045D01*
X494638Y328442D01*
X493035Y326353D01*
X492027Y323921D01*
X491684Y321310D01*
X492027Y318699D01*
X493035Y316267D01*
X494638Y314178D01*
X496727Y312575D01*
X499160Y311567D01*
X501770Y311224D01*
X516770D01*
X519380Y311567D01*
X521813Y312575D01*
X523902Y314178D01*
X525505Y316267D01*
X526513Y318699D01*
X526856Y321310D01*
X526513Y323921D01*
X525505Y326353D01*
X523902Y328442D01*
X521813Y330045D01*
X519380Y331053D01*
X516770Y331396D01*
D02*
G37*
G36*
Y305996D02*
X501770D01*
X499160Y305653D01*
X496727Y304645D01*
X494638Y303042D01*
X493035Y300953D01*
X492027Y298521D01*
X491684Y295910D01*
X492027Y293300D01*
X493035Y290867D01*
X494638Y288778D01*
X496727Y287175D01*
X499160Y286167D01*
X501770Y285824D01*
X516770D01*
X519380Y286167D01*
X521813Y287175D01*
X523902Y288778D01*
X525505Y290867D01*
X526513Y293300D01*
X526856Y295910D01*
X526513Y298521D01*
X525505Y300953D01*
X523902Y303042D01*
X521813Y304645D01*
X519380Y305653D01*
X516770Y305996D01*
D02*
G37*
G36*
Y280596D02*
X501770D01*
X499160Y280253D01*
X496727Y279245D01*
X494638Y277642D01*
X493035Y275553D01*
X492027Y273120D01*
X491684Y270510D01*
X492027Y267899D01*
X493035Y265467D01*
X494638Y263378D01*
X496727Y261775D01*
X499160Y260767D01*
X501770Y260424D01*
X516770D01*
X519380Y260767D01*
X521813Y261775D01*
X523902Y263378D01*
X525505Y265467D01*
X526513Y267899D01*
X526856Y270510D01*
X526513Y273120D01*
X525505Y275553D01*
X523902Y277642D01*
X521813Y279245D01*
X519380Y280253D01*
X516770Y280596D01*
D02*
G37*
G36*
Y239956D02*
X501770D01*
X499160Y239613D01*
X496727Y238605D01*
X494638Y237002D01*
X493035Y234913D01*
X492027Y232481D01*
X491684Y229870D01*
X492027Y227260D01*
X493035Y224827D01*
X494638Y222738D01*
X496727Y221135D01*
X499160Y220127D01*
X501770Y219784D01*
X516770D01*
X519380Y220127D01*
X521813Y221135D01*
X523902Y222738D01*
X525505Y224827D01*
X526513Y227260D01*
X526856Y229870D01*
X526513Y232481D01*
X525505Y234913D01*
X523902Y237002D01*
X521813Y238605D01*
X519380Y239613D01*
X516770Y239956D01*
D02*
G37*
G36*
Y214556D02*
X501770D01*
X499160Y214213D01*
X496727Y213205D01*
X494638Y211602D01*
X493035Y209513D01*
X492027Y207080D01*
X491684Y204470D01*
X492027Y201859D01*
X493035Y199427D01*
X494638Y197338D01*
X496727Y195735D01*
X499160Y194727D01*
X501770Y194384D01*
X516770D01*
X519380Y194727D01*
X521813Y195735D01*
X523902Y197338D01*
X525505Y199427D01*
X526513Y201859D01*
X526856Y204470D01*
X526513Y207080D01*
X525505Y209513D01*
X523902Y211602D01*
X521813Y213205D01*
X519380Y214213D01*
X516770Y214556D01*
D02*
G37*
G36*
Y189156D02*
X501770D01*
X499160Y188813D01*
X496727Y187805D01*
X494638Y186202D01*
X493035Y184113D01*
X492027Y181681D01*
X491684Y179070D01*
X492027Y176460D01*
X493035Y174027D01*
X494638Y171938D01*
X496727Y170335D01*
X499160Y169327D01*
X501770Y168984D01*
X516770D01*
X519380Y169327D01*
X521813Y170335D01*
X523902Y171938D01*
X525505Y174027D01*
X526513Y176460D01*
X526856Y179070D01*
X526513Y181681D01*
X525505Y184113D01*
X523902Y186202D01*
X521813Y187805D01*
X519380Y188813D01*
X516770Y189156D01*
D02*
G37*
G36*
Y163756D02*
X501770D01*
X499160Y163413D01*
X496727Y162405D01*
X494638Y160802D01*
X493035Y158713D01*
X492027Y156280D01*
X491684Y153670D01*
X492027Y151060D01*
X493035Y148627D01*
X494638Y146538D01*
X496727Y144935D01*
X499160Y143927D01*
X501770Y143584D01*
X516770D01*
X519380Y143927D01*
X521813Y144935D01*
X523902Y146538D01*
X525505Y148627D01*
X526513Y151060D01*
X526856Y153670D01*
X526513Y156280D01*
X525505Y158713D01*
X523902Y160802D01*
X521813Y162405D01*
X519380Y163413D01*
X516770Y163756D01*
D02*
G37*
G36*
Y138356D02*
X501770D01*
X499160Y138013D01*
X496727Y137005D01*
X494638Y135402D01*
X493035Y133313D01*
X492027Y130880D01*
X491684Y128270D01*
X492027Y125660D01*
X493035Y123227D01*
X494638Y121138D01*
X496727Y119535D01*
X499160Y118527D01*
X501770Y118184D01*
X516770D01*
X519380Y118527D01*
X521813Y119535D01*
X523902Y121138D01*
X525505Y123227D01*
X526513Y125660D01*
X526856Y128270D01*
X526513Y130880D01*
X525505Y133313D01*
X523902Y135402D01*
X521813Y137005D01*
X519380Y138013D01*
X516770Y138356D01*
D02*
G37*
G36*
Y112956D02*
X501770D01*
X499160Y112613D01*
X496727Y111605D01*
X494638Y110002D01*
X493035Y107913D01*
X492027Y105480D01*
X491684Y102870D01*
X492027Y100260D01*
X493035Y97827D01*
X494638Y95738D01*
X496727Y94135D01*
X499160Y93127D01*
X501770Y92784D01*
X516770D01*
X519380Y93127D01*
X521813Y94135D01*
X523902Y95738D01*
X525505Y97827D01*
X526513Y100260D01*
X526856Y102870D01*
X526513Y105480D01*
X525505Y107913D01*
X523902Y110002D01*
X521813Y111605D01*
X519380Y112613D01*
X516770Y112956D01*
D02*
G37*
G36*
X282670Y80146D02*
Y69310D01*
X292203D01*
X291874Y71812D01*
X290715Y74610D01*
X288872Y77012D01*
X286470Y78855D01*
X283672Y80014D01*
X282670Y80146D01*
D02*
G37*
G36*
X516770Y87556D02*
X501770D01*
X499160Y87213D01*
X496727Y86205D01*
X494638Y84602D01*
X493035Y82513D01*
X492027Y80080D01*
X491684Y77470D01*
X492027Y74859D01*
X493035Y72427D01*
X494638Y70338D01*
X496727Y68735D01*
X499160Y67727D01*
X501770Y67384D01*
X516770D01*
X519380Y67727D01*
X521813Y68735D01*
X523902Y70338D01*
X525505Y72427D01*
X526513Y74859D01*
X526856Y77470D01*
X526513Y80080D01*
X525505Y82513D01*
X523902Y84602D01*
X521813Y86205D01*
X519380Y87213D01*
X516770Y87556D01*
D02*
G37*
G36*
Y62156D02*
X501770D01*
X499160Y61813D01*
X496727Y60805D01*
X494638Y59202D01*
X493035Y57113D01*
X492027Y54681D01*
X491684Y52070D01*
X492027Y49460D01*
X493035Y47027D01*
X494638Y44938D01*
X496727Y43335D01*
X499160Y42327D01*
X501770Y41984D01*
X516770D01*
X519380Y42327D01*
X521813Y43335D01*
X523902Y44938D01*
X525505Y47027D01*
X526513Y49460D01*
X526856Y52070D01*
X526513Y54681D01*
X525505Y57113D01*
X523902Y59202D01*
X521813Y60805D01*
X519380Y61813D01*
X516770Y62156D01*
D02*
G37*
G36*
X358741Y45672D02*
X354999D01*
X351327Y44942D01*
X347869Y43509D01*
X344757Y41430D01*
X342110Y38783D01*
X340031Y35671D01*
X338598Y32213D01*
X337868Y28542D01*
Y24799D01*
X338598Y21127D01*
X340031Y17669D01*
X342110Y14557D01*
X344757Y11910D01*
X347869Y9831D01*
X351327Y8398D01*
X354999Y7668D01*
X358741D01*
X362413Y8398D01*
X365871Y9831D01*
X368983Y11910D01*
X371630Y14557D01*
X373709Y17669D01*
X375142Y21127D01*
X375872Y24799D01*
Y28542D01*
X375142Y32213D01*
X373709Y35671D01*
X371630Y38783D01*
X368983Y41430D01*
X365871Y43509D01*
X362413Y44942D01*
X358741Y45672D01*
D02*
G37*
%LPD*%
D20*
X339090Y640130D02*
D03*
Y661130D02*
D03*
X368300Y640130D02*
D03*
Y661130D02*
D03*
D66*
X341630Y321264D02*
Y499110D01*
X355600Y513080D02*
X526661D01*
X341630Y499110D02*
X355600Y513080D01*
X232149Y310500D02*
X340765D01*
X227330Y305681D02*
X232149Y310500D01*
X340765D02*
X351036Y320771D01*
X227330Y145169D02*
Y305681D01*
X237490Y300600D02*
X288451D01*
X289331Y299720D01*
X526661Y475623D02*
X529590Y478552D01*
X526661Y513080D02*
X529590Y510151D01*
X511183Y475623D02*
X526661D01*
X529590Y478552D02*
Y510151D01*
X289331Y299720D02*
X345440D01*
X360680Y314960D02*
Y483870D01*
X345440Y299720D02*
X360680Y314960D01*
X349250Y292100D02*
X370840Y313690D01*
X269629Y292100D02*
X349250D01*
X370840Y313690D02*
Y435221D01*
X378460Y308610D02*
Y426331D01*
X353060Y283210D02*
X378460Y308610D01*
X282329Y283210D02*
X353060D01*
X279400Y238191D02*
Y280281D01*
X271653Y230444D02*
X279400Y238191D01*
X267970Y229870D02*
X268544Y230444D01*
X271653D01*
X279400Y280281D02*
X282329Y283210D01*
X181610Y129517D02*
X183500Y131407D01*
Y132439D02*
X191411Y140350D01*
X222511D01*
X227330Y145169D01*
X183500Y131407D02*
Y132439D01*
X173990Y138430D02*
X185809Y150249D01*
X215511D02*
X218440Y153178D01*
X185809Y150249D02*
X215511D01*
X218440Y153178D02*
Y312420D01*
X173990Y80399D02*
Y138430D01*
X465209Y346710D02*
X509270D01*
X462280Y343781D02*
X465209Y346710D01*
X462280Y101989D02*
Y343781D01*
X459351Y99060D02*
X462280Y101989D01*
X258199Y99060D02*
X459351D01*
X255270Y96131D02*
X258199Y99060D01*
X255270Y67310D02*
Y96131D01*
Y39370D02*
Y41910D01*
X447040Y397510D02*
X509270D01*
X435610Y386080D02*
X447040Y397510D01*
X435610Y136279D02*
Y386080D01*
X432681Y133350D02*
X435610Y136279D01*
X194310Y133350D02*
X432681D01*
X190500Y129540D02*
X194310Y133350D01*
X190500Y24130D02*
Y129540D01*
Y24130D02*
X198120Y16510D01*
X252341D01*
X255270Y19439D01*
Y39370D01*
X208669D02*
X227330D01*
X229870Y41910D01*
X453390Y372110D02*
X509270D01*
X448310Y367030D02*
X453390Y372110D01*
X448310Y118499D02*
Y367030D01*
X445381Y115570D02*
X448310Y118499D01*
X208669Y115570D02*
X445381D01*
X205740Y112641D02*
X208669Y115570D01*
X205740Y42299D02*
Y112641D01*
Y42299D02*
X208669Y39370D01*
X311080Y665480D02*
X397580D01*
X339090Y669130D02*
X368300D01*
X397580Y623780D02*
Y665480D01*
X443170Y429260D02*
X452214Y438304D01*
X381389Y429260D02*
X443170D01*
X378460Y426331D02*
X381389Y429260D01*
X84879Y95250D02*
X154940D01*
X223520Y317500D02*
X337866D01*
X341630Y321264D01*
X218440Y312420D02*
X223520Y317500D01*
X48260Y487680D02*
X292100D01*
X79798Y90170D02*
X84879Y95250D01*
X9279Y90170D02*
X79798D01*
X26670Y77470D02*
X171061D01*
X173990Y80399D01*
X181610Y54999D02*
Y129517D01*
X26670Y52070D02*
X178681D01*
X181610Y54999D01*
X26281Y331081D02*
X26670Y331470D01*
X350520Y494053D02*
X355577Y499110D01*
X350520Y321287D02*
Y494053D01*
X364490Y487680D02*
X480941D01*
X360680Y483870D02*
X364490Y487680D01*
X480941D02*
X483870Y484751D01*
Y452509D02*
Y484751D01*
Y452509D02*
X486799Y449580D01*
X508000D01*
X509270Y448310D01*
X355577Y499110D02*
X509270D01*
Y473710D02*
X511183Y475623D01*
X266700Y254419D02*
X267008Y254112D01*
X266700Y254419D02*
Y289171D01*
X269629Y292100D01*
X370840Y435221D02*
X373769Y438150D01*
X396240D01*
X311080Y623780D02*
Y665480D01*
X339090Y669130D02*
X339090Y669130D01*
D68*
X359410Y591157D02*
X368300Y600047D01*
Y640130D01*
X339090Y640130D02*
X340410Y638810D01*
X354330D01*
X17661Y525661D02*
X50322Y525914D01*
X52070Y527661D02*
Y537210D01*
X50322Y525914D02*
X52070Y527661D01*
X12700Y520700D02*
X17661Y525661D01*
X14457Y422910D02*
X43963D01*
X45720Y421153D01*
X27848Y307248D02*
X43963D01*
X45720Y309005D01*
X26670Y306070D02*
X27848Y307248D01*
X45720Y309005D02*
Y421153D01*
X12700Y424667D02*
Y520700D01*
X5950Y562854D02*
X6147Y331081D01*
X5950Y562854D02*
Y564083D01*
X6897Y565030D02*
X7049Y565164D01*
X5950Y564083D02*
X6897Y565030D01*
X6563Y92886D02*
X9279Y90170D01*
X6147Y331081D02*
X6350Y93098D01*
X6447Y331081D02*
X26281D01*
X12700Y424667D02*
X14457Y422910D01*
D69*
X26670Y547370D02*
D03*
X509270Y534670D02*
D03*
X77470Y26670D02*
D03*
X356870D02*
D03*
D70*
X26670Y407670D02*
D03*
Y382270D02*
D03*
Y356870D02*
D03*
Y331470D02*
D03*
Y306070D02*
D03*
Y280670D02*
D03*
Y255270D02*
D03*
Y229870D02*
D03*
Y179070D02*
D03*
Y153670D02*
D03*
Y128270D02*
D03*
Y102870D02*
D03*
Y77470D02*
D03*
Y52070D02*
D03*
X509270Y270510D02*
D03*
Y295910D02*
D03*
Y321310D02*
D03*
Y346710D02*
D03*
Y372110D02*
D03*
Y397510D02*
D03*
Y422910D02*
D03*
Y448310D02*
D03*
Y473710D02*
D03*
Y499110D02*
D03*
Y52070D02*
D03*
Y77470D02*
D03*
Y102870D02*
D03*
Y128270D02*
D03*
Y153670D02*
D03*
Y179070D02*
D03*
Y204470D02*
D03*
Y229870D02*
D03*
D71*
X95240Y611710D02*
D03*
D72*
X142240Y642710D02*
D03*
Y582710D02*
D03*
D73*
X261620Y430530D02*
D03*
Y379730D02*
D03*
D74*
Y405130D02*
D03*
D75*
X311080Y665480D02*
D03*
X397580D02*
D03*
D76*
X311080Y623780D02*
D03*
X397580D02*
D03*
D77*
X325430Y628680D02*
D03*
X383230D02*
D03*
D78*
X280670Y67310D02*
D03*
X280670Y41910D02*
D03*
X255270Y67310D02*
D03*
X229870Y41910D02*
D03*
X255270D02*
D03*
X229870Y67310D02*
D03*
D79*
X517941Y666001D02*
D03*
Y646001D02*
D03*
Y626001D02*
D03*
Y606001D02*
D03*
Y586001D02*
D03*
Y566000D02*
D03*
Y246000D02*
D03*
Y26000D02*
D03*
X497941Y666001D02*
D03*
Y646001D02*
D03*
Y626001D02*
D03*
Y606001D02*
D03*
Y586001D02*
D03*
Y566000D02*
D03*
Y246000D02*
D03*
Y26000D02*
D03*
X477941Y666001D02*
D03*
Y646001D02*
D03*
Y626001D02*
D03*
Y606001D02*
D03*
Y586001D02*
D03*
Y566000D02*
D03*
Y546000D02*
D03*
Y526000D02*
D03*
Y386000D02*
D03*
Y306000D02*
D03*
Y286000D02*
D03*
Y246000D02*
D03*
Y166000D02*
D03*
Y26000D02*
D03*
X457941Y606001D02*
D03*
Y586001D02*
D03*
Y26000D02*
D03*
X437941Y666001D02*
D03*
Y646001D02*
D03*
Y606001D02*
D03*
Y586001D02*
D03*
Y546000D02*
D03*
Y526000D02*
D03*
Y26000D02*
D03*
X417941Y666001D02*
D03*
Y166000D02*
D03*
Y146000D02*
D03*
Y26000D02*
D03*
X397941Y646001D02*
D03*
Y606001D02*
D03*
Y546000D02*
D03*
Y346000D02*
D03*
Y186000D02*
D03*
Y166000D02*
D03*
Y146000D02*
D03*
Y26000D02*
D03*
X377941Y186000D02*
D03*
Y146000D02*
D03*
X337941Y166000D02*
D03*
X317941Y186000D02*
D03*
Y26000D02*
D03*
X297941Y666001D02*
D03*
Y626001D02*
D03*
Y606001D02*
D03*
Y46000D02*
D03*
Y26000D02*
D03*
X277941Y666001D02*
D03*
X257941D02*
D03*
X237941Y626001D02*
D03*
Y526000D02*
D03*
Y146000D02*
D03*
X217941Y626001D02*
D03*
Y606001D02*
D03*
Y526000D02*
D03*
X197941Y626001D02*
D03*
Y606001D02*
D03*
Y526000D02*
D03*
Y386000D02*
D03*
X177941Y646001D02*
D03*
Y626001D02*
D03*
Y606001D02*
D03*
Y526000D02*
D03*
X157941Y606001D02*
D03*
X137941D02*
D03*
Y466000D02*
D03*
Y346000D02*
D03*
X117941Y626001D02*
D03*
Y606001D02*
D03*
Y466000D02*
D03*
X97941Y666001D02*
D03*
Y646001D02*
D03*
Y526000D02*
D03*
X77941Y666001D02*
D03*
Y646001D02*
D03*
Y526000D02*
D03*
Y426000D02*
D03*
Y406000D02*
D03*
Y286000D02*
D03*
Y266000D02*
D03*
X57941Y506000D02*
D03*
Y426000D02*
D03*
Y406000D02*
D03*
Y286000D02*
D03*
Y266000D02*
D03*
Y246000D02*
D03*
X37941Y506000D02*
D03*
X359410Y591157D02*
D03*
X354330Y638810D02*
D03*
X237490Y300600D02*
D03*
X7270Y565150D02*
D03*
X452214Y438304D02*
D03*
X267970Y229870D02*
D03*
X154940Y95250D02*
D03*
X52070Y537210D02*
D03*
X48260Y487680D02*
D03*
X267008Y254112D02*
D03*
X396240Y438150D02*
D03*
X292100Y487680D02*
D03*
D80*
X289560Y219710D02*
D03*
Y228600D02*
D03*
Y237490D02*
D03*
Y246380D02*
D03*
Y255270D02*
D03*
D81*
X297180Y342900D02*
D03*
X283845D02*
D03*
X270510D02*
D03*
X257175D02*
D03*
X243840D02*
D03*
X58420Y349250D02*
D03*
Y375920D02*
D03*
Y388620D02*
D03*
X80010D02*
D03*
X243840Y355600D02*
D03*
X238760Y372110D02*
D03*
X257175Y355600D02*
D03*
X270510D02*
D03*
X283845D02*
D03*
X297180D02*
D03*
X198120Y675640D02*
D03*
Y657542D02*
D03*
Y639445D02*
D03*
X177800Y675640D02*
D03*
X135255Y657542D02*
D03*
X215900Y639445D02*
D03*
X114300Y657542D02*
D03*
X157480D02*
D03*
X215900D02*
D03*
X114300Y675640D02*
D03*
X135255D02*
D03*
X157480D02*
D03*
X215900D02*
D03*
X236220D02*
D03*
Y657542D02*
D03*
Y639445D02*
D03*
Y613727D02*
D03*
Y593090D02*
D03*
X297180D02*
D03*
X309880D02*
D03*
X322580D02*
D03*
X335280D02*
D03*
X73660Y452120D02*
D03*
Y436880D02*
D03*
X56727D02*
D03*
Y452120D02*
D03*
Y467360D02*
D03*
X39793D02*
D03*
Y452120D02*
D03*
Y436880D02*
D03*
X22860D02*
D03*
Y452120D02*
D03*
Y467360D02*
D03*
X100330Y303530D02*
D03*
Y292100D02*
D03*
X124460D02*
D03*
X113030Y303530D02*
D03*
Y292100D02*
D03*
X124460Y303530D02*
D03*
X116840Y556260D02*
D03*
X181610D02*
D03*
Y543103D02*
D03*
X160020Y556260D02*
D03*
X138430D02*
D03*
D82*
X201930Y459740D02*
D03*
X219075D02*
D03*
X236220D02*
D03*
X201930Y443865D02*
D03*
X219075D02*
D03*
X236220D02*
D03*
Y427990D02*
D03*
X219075D02*
D03*
X201930D02*
D03*
M02*
