G04*
G04 #@! TF.GenerationSoftware,Altium Limited,Altium Designer,24.2.2 (26)*
G04*
G04 Layer_Physical_Order=2*
G04 Layer_Color=16711680*
%FSLAX44Y44*%
%MOMM*%
G71*
G04*
G04 #@! TF.SameCoordinates,B43C7C8D-B24C-4B8E-A4ED-51BAA9CAD299*
G04*
G04*
G04 #@! TF.FilePolarity,Positive*
G04*
G01*
G75*
%ADD20R,1.2000X1.2000*%
%ADD66C,0.5000*%
%ADD68C,0.3000*%
%ADD69C,3.2004*%
%ADD70O,3.0000X1.5000*%
%AMCUSTOMSHAPE71*
4,1,8,-1.0000,-1.5250,-0.5000,-2.0250,0.5000,-2.0250,1.0000,-1.5250,1.0000,1.5250,0.5000,2.0250,-0.5000,2.0250,-1.0000,1.5250,-1.0000,-1.5250,0.0*%
%ADD71CUSTOMSHAPE71*%

%AMCUSTOMSHAPE72*
4,1,8,-1.5250,1.0000,-2.0250,0.5000,-2.0250,-0.5000,-1.5250,-1.0000,1.5250,-1.0000,2.0250,-0.5000,2.0250,0.5000,1.5250,1.0000,-1.5250,1.0000,0.0*%
%ADD72CUSTOMSHAPE72*%

%ADD73O,2.4000X1.8000*%
%ADD74R,2.4000X1.8000*%
%ADD75O,0.9000X1.7000*%
%ADD76O,0.9000X2.0000*%
%ADD77C,0.6000*%
%ADD78O,1.5000X1.8000*%
%ADD79C,0.8000*%
%ADD80C,0.7000*%
%ADD81C,1.0000*%
%ADD82C,1.2000*%
G36*
X1251032Y815530D02*
X1250743Y815374D01*
X1250485Y815190D01*
X1250257Y814980D01*
X1250059Y814743D01*
X1249892Y814479D01*
X1249756Y814188D01*
X1249650Y813870D01*
X1249574Y813525D01*
X1249529Y813153D01*
X1249514Y812754D01*
X1246513Y813913D01*
X1246505Y814292D01*
X1246443Y815029D01*
X1246389Y815386D01*
X1246235Y816079D01*
X1246136Y816414D01*
X1245890Y817063D01*
X1245745Y817376D01*
X1251032Y815530D01*
D02*
G37*
G36*
X1296683Y788092D02*
X1296462Y787816D01*
X1296267Y787526D01*
X1296098Y787222D01*
X1295955Y786903D01*
X1295838Y786571D01*
X1295747Y786225D01*
X1295682Y785865D01*
X1295643Y785490D01*
X1295630Y785102D01*
X1292630D01*
X1292617Y785490D01*
X1292578Y785865D01*
X1292513Y786225D01*
X1292422Y786571D01*
X1292305Y786903D01*
X1292162Y787222D01*
X1291993Y787526D01*
X1291798Y787816D01*
X1291577Y788092D01*
X1291330Y788353D01*
X1296930D01*
X1296683Y788092D01*
D02*
G37*
G36*
X1484629Y937259D02*
X1485640Y937260D01*
X1486725Y936810D01*
X1487068Y937172D01*
X1774431D01*
Y774089D01*
X1771063Y772029D01*
X1767453Y772899D01*
X1766439Y775620D01*
X1766119Y776600D01*
X1768169Y779669D01*
X1769602Y783127D01*
X1770332Y786798D01*
Y790542D01*
X1769602Y794213D01*
X1768169Y797671D01*
X1766090Y800783D01*
X1763443Y803430D01*
X1760331Y805509D01*
X1756873Y806942D01*
X1753201Y807672D01*
X1749458D01*
X1745787Y806942D01*
X1742329Y805509D01*
X1739217Y803430D01*
X1736570Y800783D01*
X1734491Y797671D01*
X1733058Y794213D01*
X1732328Y790542D01*
Y786798D01*
X1733058Y783127D01*
X1734491Y779669D01*
X1736570Y776557D01*
X1736949Y776178D01*
X1735292Y772178D01*
X1597660D01*
X1595709Y771790D01*
X1594055Y770685D01*
X1582619Y759249D01*
X1578619Y760905D01*
X1578619Y811529D01*
X1578619Y812540D01*
X1578619Y812540D01*
X1578619Y812540D01*
X1578514Y813071D01*
X1578426Y813515D01*
X1578425Y813515D01*
X1578425Y813516D01*
X1577652Y815383D01*
X1577652Y815383D01*
X1577652Y815384D01*
X1577353Y815831D01*
X1577100Y816210D01*
X1577100Y816210D01*
X1577099Y816210D01*
X1575670Y817640D01*
X1575670Y817640D01*
X1575670Y817640D01*
X1575227Y817936D01*
X1574843Y818192D01*
X1574843Y818192D01*
X1574843Y818192D01*
X1572975Y818965D01*
X1572975Y818965D01*
X1572975Y818966D01*
X1572519Y819056D01*
X1572000Y819159D01*
X1572000Y819159D01*
X1571999Y819159D01*
X1570992Y819159D01*
X1570990Y819159D01*
X1357631Y819159D01*
X1356873Y819159D01*
X1356873Y819159D01*
X1356873Y819159D01*
X1356378Y819061D01*
X1355898Y818966D01*
X1355897Y818965D01*
X1355897Y818965D01*
X1354496Y818385D01*
X1354496Y818385D01*
X1354496Y818385D01*
X1354051Y818088D01*
X1353669Y817833D01*
X1353669Y817833D01*
X1353669Y817833D01*
X1352597Y816761D01*
X1352597Y816760D01*
X1352597Y816760D01*
X1352332Y816364D01*
X1352044Y815934D01*
X1352044Y815934D01*
X1352044Y815933D01*
X1351464Y814533D01*
X1351464Y814532D01*
X1351464Y814532D01*
X1351375Y814083D01*
X1351271Y813557D01*
X1351271Y813557D01*
X1351271Y813557D01*
X1351271Y812798D01*
Y807720D01*
X1351271Y806963D01*
X1351271Y806962D01*
X1351271Y806962D01*
X1351377Y806429D01*
X1351465Y805987D01*
X1351465Y805987D01*
X1351465Y805987D01*
X1352045Y804586D01*
X1352045Y804586D01*
Y804586D01*
X1352597Y803760D01*
X1352597Y803759D01*
X1353669Y802688D01*
X1353669Y802687D01*
X1353669Y802687D01*
X1354079Y802413D01*
X1354496Y802135D01*
X1354496Y802135D01*
X1354496Y802135D01*
X1355897Y801555D01*
X1355897Y801555D01*
X1355897Y801555D01*
X1356326Y801469D01*
X1356872Y801361D01*
X1356872Y801361D01*
X1356872Y801361D01*
X1357630Y801361D01*
X1384175D01*
X1384418Y801337D01*
X1384973Y801107D01*
X1385307Y800773D01*
X1385537Y800218D01*
X1385561Y799972D01*
Y783591D01*
X1385561Y782833D01*
X1385561Y782832D01*
X1385561Y782832D01*
X1385654Y782364D01*
X1385755Y781857D01*
X1385755Y781857D01*
X1385755Y781857D01*
X1386335Y780456D01*
X1386335Y780456D01*
X1386335Y780456D01*
X1386674Y779949D01*
X1386887Y779629D01*
X1386887Y779629D01*
X1386887Y779629D01*
X1387959Y778557D01*
X1387959Y778557D01*
X1387959Y778557D01*
X1388275Y778346D01*
X1388786Y778005D01*
X1388786Y778005D01*
X1388786Y778005D01*
X1390186Y777425D01*
X1390187Y777425D01*
X1390187Y777425D01*
X1390662Y777330D01*
X1391162Y777231D01*
X1391162Y777231D01*
X1391162Y777231D01*
X1391920Y777231D01*
X1405890D01*
X1406395Y777231D01*
X1406395Y777231D01*
X1406395Y777231D01*
X1407370Y777425D01*
X1407370Y777425D01*
X1407371Y777425D01*
X1408304Y777812D01*
X1409131Y778364D01*
X1409845Y779079D01*
X1410398Y779906D01*
X1410785Y780839D01*
X1410785Y780839D01*
X1410785Y780839D01*
X1410979Y781814D01*
X1410979Y781815D01*
X1410979Y781815D01*
X1410979Y782318D01*
X1410979Y782320D01*
Y784735D01*
X1411027Y785225D01*
X1411447Y786238D01*
X1412131Y786923D01*
X1413145Y787343D01*
X1413638Y787391D01*
X1455420D01*
X1455925Y787391D01*
X1456901Y787585D01*
X1457834Y787972D01*
X1458661Y788524D01*
X1459375Y789239D01*
X1459626Y789614D01*
X1459928Y790066D01*
X1460315Y790999D01*
X1460509Y791974D01*
Y792479D01*
X1460509Y792480D01*
X1460509Y797411D01*
X1464459Y801361D01*
X1548005Y801361D01*
X1548496Y801313D01*
X1549509Y800893D01*
X1550193Y800209D01*
X1550612Y799196D01*
X1550661Y798702D01*
X1550661Y610880D01*
X1546780Y610593D01*
X1546266Y612510D01*
X1545590Y613682D01*
X1545590Y613410D01*
X1545590Y603250D01*
X1545590Y594360D01*
X1545590Y594360D01*
Y593855D01*
X1545203Y592921D01*
X1544489Y592207D01*
X1543555Y591820D01*
X1480820D01*
Y591820D01*
X1480315Y591820D01*
X1479381Y592207D01*
X1478667Y592921D01*
X1478280Y593855D01*
Y594360D01*
Y595630D01*
X1478256D01*
X1476123Y592227D01*
X1475502Y591829D01*
X1442720Y591829D01*
X1441457D01*
X1440481Y591635D01*
X1438147Y590668D01*
X1437321Y590116D01*
X1435534Y588329D01*
X1434982Y587502D01*
X1434015Y585168D01*
X1433821Y584193D01*
X1433821Y582930D01*
X1433821Y582930D01*
Y501713D01*
X1433790Y501091D01*
X1433536Y499813D01*
X1433061Y498667D01*
X1432372Y497635D01*
X1431495Y496758D01*
X1430463Y496069D01*
X1429317Y495594D01*
X1428038Y495340D01*
X1427417Y495309D01*
X1283028Y495309D01*
X1282099Y498951D01*
X1282139Y499309D01*
X1284432Y501068D01*
X1286275Y503470D01*
X1286573Y504190D01*
X1257300D01*
X1257300D01*
X1256542Y504190D01*
X1255142Y504770D01*
X1254070Y505842D01*
X1253490Y507242D01*
X1253490Y508000D01*
Y538480D01*
X1253490Y539238D01*
X1254070Y540638D01*
X1255142Y541710D01*
X1256542Y542290D01*
X1257300Y542290D01*
X1283969D01*
X1284716Y542327D01*
X1284833Y542350D01*
X1284432Y542872D01*
X1282030Y544715D01*
X1279232Y545874D01*
X1277445Y546109D01*
Y550144D01*
X1278840Y550327D01*
X1281273Y551335D01*
X1283362Y552938D01*
X1284965Y555027D01*
X1285853Y557169D01*
X1286022D01*
X1286023Y557169D01*
X1287583Y557480D01*
X1288907Y558364D01*
X1290664Y560121D01*
X1290664Y560121D01*
X1291548Y561445D01*
X1291590Y561656D01*
X1291590Y676502D01*
X1291548Y676713D01*
X1290664Y678036D01*
X1290664Y678036D01*
X1288907Y679794D01*
X1288367Y680154D01*
X1287855Y683016D01*
X1287501Y683162D01*
X1286510Y683260D01*
X1264920Y683260D01*
X1264920Y683260D01*
X1263657D01*
X1261323Y684227D01*
X1259537Y686013D01*
X1258570Y688347D01*
Y689610D01*
Y764540D01*
X1258570Y765415D01*
X1258838Y766765D01*
Y773011D01*
X1261424Y775596D01*
X1292414Y775835D01*
X1293176Y775993D01*
X1293943Y776146D01*
X1293956Y776155D01*
X1293972Y776158D01*
X1294618Y776597D01*
X1295266Y777030D01*
X1297014Y778777D01*
X1297014Y778778D01*
X1297898Y780101D01*
X1298208Y781661D01*
Y785511D01*
X1298238Y785674D01*
X1298277Y785823D01*
X1298324Y785956D01*
X1298378Y786078D01*
X1298443Y786193D01*
X1298518Y786305D01*
X1298608Y786418D01*
X1298784Y786605D01*
X1298898Y786785D01*
X1299331Y787219D01*
X1300187Y788701D01*
X1300630Y790354D01*
Y792066D01*
X1300187Y793719D01*
X1299331Y795201D01*
X1298121Y796411D01*
X1296639Y797267D01*
X1294986Y797710D01*
X1293274D01*
X1291621Y797267D01*
X1291333Y797101D01*
X1287917Y799155D01*
X1287714Y799407D01*
X1287732Y799499D01*
Y803242D01*
X1287002Y806913D01*
X1285569Y810371D01*
X1283490Y813483D01*
X1280843Y816130D01*
X1277731Y818209D01*
X1274273Y819642D01*
X1270602Y820372D01*
X1266859D01*
X1263187Y819642D01*
X1259729Y818209D01*
X1256192Y819839D01*
X1255737Y820353D01*
X1255387Y821659D01*
X1254531Y823141D01*
X1253321Y824351D01*
X1251839Y825207D01*
X1250186Y825650D01*
X1248474D01*
X1245629Y828950D01*
Y937172D01*
X1330753D01*
X1330967Y937260D01*
X1484630D01*
X1484629Y937259D01*
D02*
G37*
G36*
X1738294Y748129D02*
X1738229Y748601D01*
X1738034Y749022D01*
X1737708Y749395D01*
X1737252Y749717D01*
X1736666Y749990D01*
X1735950Y750213D01*
X1735103Y750387D01*
X1734127Y750511D01*
X1733020Y750585D01*
X1731783Y750610D01*
Y755610D01*
X1733020Y755635D01*
X1735103Y755833D01*
X1735950Y756007D01*
X1736666Y756230D01*
X1737252Y756503D01*
X1737708Y756825D01*
X1738034Y757198D01*
X1738229Y757619D01*
X1738294Y758091D01*
Y748129D01*
D02*
G37*
G36*
X1764759Y732242D02*
X1764885Y732217D01*
X1765090Y732195D01*
X1765735Y732160D01*
X1768721Y732123D01*
Y727123D01*
X1768240Y727122D01*
X1766248Y726992D01*
X1766231Y726961D01*
X1764711Y732270D01*
X1764759Y732242D01*
D02*
G37*
G36*
X1737381Y698594D02*
X1737424Y699067D01*
X1737326Y699489D01*
X1737086Y699862D01*
X1736704Y700185D01*
X1736182Y700459D01*
X1735517Y700682D01*
X1734712Y700856D01*
X1733764Y700981D01*
X1732676Y701055D01*
X1731445Y701080D01*
X1732375Y706080D01*
X1733218Y706105D01*
X1734035Y706179D01*
X1734826Y706302D01*
X1735592Y706475D01*
X1736334Y706698D01*
X1737050Y706970D01*
X1737740Y707291D01*
X1738405Y707661D01*
X1739045Y708081D01*
X1739660Y708551D01*
X1737381Y698594D01*
D02*
G37*
G36*
X1635443Y689350D02*
X1635364Y689407D01*
X1635243Y689458D01*
X1635080Y689503D01*
X1634876Y689542D01*
X1634630Y689575D01*
X1634014Y689623D01*
X1632778Y689650D01*
Y694650D01*
X1633231Y694653D01*
X1634876Y694758D01*
X1635080Y694797D01*
X1635243Y694842D01*
X1635364Y694893D01*
X1635443Y694950D01*
Y689350D01*
D02*
G37*
G36*
X1694234Y688304D02*
X1694137Y688288D01*
X1694016Y688239D01*
X1693869Y688155D01*
X1693697Y688039D01*
X1693500Y687888D01*
X1693030Y687486D01*
X1692137Y686631D01*
X1688601Y690167D01*
X1688920Y690490D01*
X1690009Y691727D01*
X1690125Y691899D01*
X1690209Y692046D01*
X1690258Y692167D01*
X1690274Y692264D01*
X1694234Y688304D01*
D02*
G37*
G36*
X1738294Y646529D02*
X1738229Y647001D01*
X1738034Y647422D01*
X1737708Y647794D01*
X1737252Y648117D01*
X1736666Y648390D01*
X1735950Y648613D01*
X1735103Y648787D01*
X1734127Y648911D01*
X1733020Y648985D01*
X1731783Y649010D01*
Y654010D01*
X1733020Y654035D01*
X1735103Y654233D01*
X1735950Y654407D01*
X1736666Y654630D01*
X1737252Y654903D01*
X1737708Y655226D01*
X1738034Y655598D01*
X1738229Y656019D01*
X1738294Y656491D01*
Y646529D01*
D02*
G37*
G36*
X1720832Y706509D02*
X1721220Y704558D01*
X1722325Y702904D01*
X1725254Y699975D01*
X1726908Y698870D01*
X1728859Y698482D01*
X1732941D01*
X1733512Y698443D01*
X1734276Y698343D01*
X1734686Y698254D01*
X1735095Y697267D01*
X1736698Y695178D01*
X1738787Y693575D01*
X1741219Y692567D01*
X1742615Y692384D01*
Y688349D01*
X1740828Y688114D01*
X1738030Y686955D01*
X1735628Y685112D01*
X1733785Y682710D01*
X1732626Y679912D01*
X1732494Y678910D01*
X1751330D01*
X1770166D01*
X1770034Y679912D01*
X1768875Y682710D01*
X1767032Y685112D01*
X1764630Y686955D01*
X1761832Y688114D01*
X1760045Y688349D01*
Y692384D01*
X1761440Y692567D01*
X1763873Y693575D01*
X1765962Y695178D01*
X1767565Y697267D01*
X1768573Y699699D01*
X1768916Y702310D01*
X1768573Y704921D01*
X1767565Y707353D01*
X1765962Y709442D01*
X1763873Y711045D01*
X1761440Y712053D01*
X1758830Y712396D01*
X1743830D01*
X1741219Y712053D01*
X1738787Y711045D01*
X1738394Y710744D01*
X1738305Y710710D01*
X1738219Y710629D01*
X1738113Y710577D01*
X1737571Y710162D01*
X1737084Y709843D01*
X1736581Y709563D01*
X1736058Y709320D01*
X1735514Y709113D01*
X1734945Y708942D01*
X1732616Y710158D01*
X1731780Y710809D01*
X1731028Y711622D01*
Y722033D01*
X1735028Y722829D01*
X1735095Y722667D01*
X1736698Y720578D01*
X1738787Y718975D01*
X1741219Y717967D01*
X1743830Y717624D01*
X1758830D01*
X1761440Y717967D01*
X1763873Y718975D01*
X1765962Y720578D01*
X1767565Y722667D01*
X1767643Y722855D01*
X1770910Y723769D01*
X1774431Y721270D01*
Y257569D01*
X1245629D01*
Y334041D01*
X1249265Y336683D01*
X1251487Y334081D01*
X1251144Y331470D01*
X1251487Y328859D01*
X1252495Y326427D01*
X1254098Y324338D01*
X1256187Y322735D01*
X1258620Y321727D01*
X1261230Y321384D01*
X1276230D01*
X1278840Y321727D01*
X1281273Y322735D01*
X1283362Y324338D01*
X1284706Y326089D01*
X1284747Y326102D01*
X1285334Y326222D01*
X1286907Y326372D01*
X1413121D01*
X1414572Y326661D01*
X1415719Y326303D01*
X1418572Y324288D01*
Y311168D01*
X1286766D01*
X1286180Y311207D01*
X1285374Y311310D01*
X1284747Y311438D01*
X1284706Y311451D01*
X1283362Y313202D01*
X1281273Y314805D01*
X1278840Y315813D01*
X1276230Y316156D01*
X1261230D01*
X1258620Y315813D01*
X1256187Y314805D01*
X1254098Y313202D01*
X1252495Y311113D01*
X1251487Y308680D01*
X1251144Y306070D01*
X1251487Y303459D01*
X1252495Y301027D01*
X1254098Y298938D01*
X1256187Y297335D01*
X1258620Y296327D01*
X1261230Y295984D01*
X1276230D01*
X1278840Y296327D01*
X1281273Y297335D01*
X1283362Y298938D01*
X1284706Y300689D01*
X1284747Y300702D01*
X1285334Y300822D01*
X1286907Y300972D01*
X1308766D01*
X1309123Y300271D01*
X1309725Y296972D01*
X1307417Y295430D01*
X1304770Y292783D01*
X1302691Y289671D01*
X1301258Y286213D01*
X1300528Y282542D01*
Y278799D01*
X1301258Y275127D01*
X1302691Y271669D01*
X1304770Y268557D01*
X1307417Y265910D01*
X1310529Y263831D01*
X1313987Y262398D01*
X1317659Y261668D01*
X1321402D01*
X1325073Y262398D01*
X1328531Y263831D01*
X1331643Y265910D01*
X1334290Y268557D01*
X1336369Y271669D01*
X1337802Y275127D01*
X1338532Y278799D01*
Y282542D01*
X1337802Y286213D01*
X1336369Y289671D01*
X1334290Y292783D01*
X1331643Y295430D01*
X1329335Y296972D01*
X1329937Y300271D01*
X1330294Y300972D01*
X1420741D01*
X1422692Y301360D01*
X1423462Y301875D01*
X1426276Y300891D01*
X1427462Y299925D01*
Y278130D01*
X1427850Y276179D01*
X1428955Y274525D01*
X1436575Y266905D01*
X1438229Y265800D01*
X1440180Y265412D01*
X1494401D01*
X1496352Y265800D01*
X1498006Y266905D01*
X1500935Y269834D01*
X1502040Y271488D01*
X1502428Y273439D01*
Y283874D01*
X1502467Y284460D01*
X1502570Y285266D01*
X1502698Y285893D01*
X1502711Y285935D01*
X1504462Y287278D01*
X1506065Y289367D01*
X1507073Y291800D01*
X1507416Y294410D01*
Y297410D01*
X1507073Y300021D01*
X1506065Y302453D01*
X1504462Y304542D01*
X1502373Y306145D01*
X1501648Y306445D01*
Y310775D01*
X1502373Y311075D01*
X1504462Y312678D01*
X1506065Y314767D01*
X1507073Y317199D01*
X1507256Y318595D01*
X1511291D01*
X1511526Y316808D01*
X1512685Y314010D01*
X1514528Y311608D01*
X1516595Y310022D01*
X1516909Y308909D01*
X1516821Y305481D01*
X1515598Y304542D01*
X1513995Y302453D01*
X1512987Y300021D01*
X1512644Y297410D01*
Y294410D01*
X1512987Y291800D01*
X1513995Y289367D01*
X1515598Y287278D01*
X1517687Y285675D01*
X1520119Y284667D01*
X1522730Y284324D01*
X1525341Y284667D01*
X1527773Y285675D01*
X1529862Y287278D01*
X1531465Y289367D01*
X1532473Y291800D01*
X1532816Y294410D01*
Y297410D01*
X1532473Y300021D01*
X1531465Y302453D01*
X1529862Y304542D01*
X1528639Y305480D01*
X1528551Y308909D01*
X1528865Y310022D01*
X1530932Y311608D01*
X1532775Y314010D01*
X1533934Y316808D01*
X1534263Y319310D01*
X1522730D01*
Y321310D01*
X1520730D01*
Y334146D01*
X1519728Y334014D01*
X1516930Y332855D01*
X1514528Y331012D01*
X1512685Y328610D01*
X1511526Y325812D01*
X1511291Y324025D01*
X1507256D01*
X1507073Y325420D01*
X1506065Y327853D01*
X1504462Y329942D01*
X1502711Y331286D01*
X1502698Y331327D01*
X1502578Y331914D01*
X1502428Y333487D01*
Y347962D01*
X1701411D01*
X1703362Y348350D01*
X1705016Y349455D01*
X1707945Y352384D01*
X1709050Y354038D01*
X1709438Y355989D01*
Y595612D01*
X1733294D01*
X1733880Y595573D01*
X1734686Y595470D01*
X1735313Y595342D01*
X1735354Y595329D01*
X1736698Y593578D01*
X1738787Y591975D01*
X1741219Y590967D01*
X1743830Y590624D01*
X1758830D01*
X1761440Y590967D01*
X1763873Y591975D01*
X1765962Y593578D01*
X1767565Y595667D01*
X1768573Y598100D01*
X1768916Y600710D01*
X1768573Y603321D01*
X1767565Y605753D01*
X1765962Y607842D01*
X1763873Y609445D01*
X1761440Y610453D01*
X1758830Y610796D01*
X1743830D01*
X1741219Y610453D01*
X1738787Y609445D01*
X1736698Y607842D01*
X1735354Y606091D01*
X1735313Y606078D01*
X1734725Y605958D01*
X1733153Y605808D01*
X1707269D01*
X1705318Y605420D01*
X1703664Y604315D01*
X1700735Y601386D01*
X1699630Y599732D01*
X1699468Y598917D01*
X1695468Y599311D01*
Y618918D01*
X1697562Y621012D01*
X1733294D01*
X1733880Y620973D01*
X1734686Y620870D01*
X1735313Y620742D01*
X1735354Y620729D01*
X1736698Y618978D01*
X1738787Y617375D01*
X1741219Y616367D01*
X1743830Y616024D01*
X1758830D01*
X1761440Y616367D01*
X1763873Y617375D01*
X1765962Y618978D01*
X1767565Y621067D01*
X1768573Y623499D01*
X1768916Y626110D01*
X1768573Y628721D01*
X1767565Y631153D01*
X1765962Y633242D01*
X1763873Y634845D01*
X1761440Y635853D01*
X1758830Y636196D01*
X1743830D01*
X1741219Y635853D01*
X1738787Y634845D01*
X1736698Y633242D01*
X1735354Y631491D01*
X1735313Y631478D01*
X1734725Y631358D01*
X1733153Y631208D01*
X1695450D01*
X1693499Y630820D01*
X1691845Y629715D01*
X1686768Y624637D01*
X1686756Y624638D01*
X1682768Y625852D01*
Y637968D01*
X1691212Y646412D01*
X1733294D01*
X1733880Y646373D01*
X1734686Y646270D01*
X1735313Y646142D01*
X1735354Y646129D01*
X1736698Y644378D01*
X1738787Y642775D01*
X1741219Y641767D01*
X1743830Y641424D01*
X1758830D01*
X1761440Y641767D01*
X1763873Y642775D01*
X1765962Y644378D01*
X1767565Y646467D01*
X1768573Y648900D01*
X1768916Y651510D01*
X1768573Y654120D01*
X1767565Y656553D01*
X1765962Y658642D01*
X1763873Y660245D01*
X1761440Y661253D01*
X1760045Y661436D01*
Y665471D01*
X1761832Y665706D01*
X1764630Y666865D01*
X1767032Y668708D01*
X1768875Y671110D01*
X1770034Y673908D01*
X1770166Y674910D01*
X1751330D01*
X1732494D01*
X1732626Y673908D01*
X1733785Y671110D01*
X1735628Y668708D01*
X1738030Y666865D01*
X1740828Y665706D01*
X1742615Y665471D01*
Y661436D01*
X1741219Y661253D01*
X1738787Y660245D01*
X1736698Y658642D01*
X1735354Y656891D01*
X1735313Y656878D01*
X1734725Y656758D01*
X1733153Y656608D01*
X1689100D01*
X1687149Y656220D01*
X1685495Y655115D01*
X1674065Y643685D01*
X1672960Y642031D01*
X1672572Y640080D01*
Y392448D01*
X1474983D01*
X1473585Y396448D01*
X1474100Y397218D01*
X1474488Y399169D01*
Y545398D01*
X1475170Y546238D01*
X1478488Y548155D01*
X1478694Y548100D01*
X1480406D01*
X1482059Y548543D01*
X1483541Y549399D01*
X1483622Y549479D01*
X1483980Y549502D01*
X1502583D01*
X1504304Y545502D01*
X1504050Y545122D01*
X1503662Y543171D01*
Y511749D01*
X1503011Y510620D01*
X1502568Y508967D01*
Y507256D01*
X1503011Y505603D01*
X1503866Y504120D01*
X1505077Y502910D01*
X1506559Y502054D01*
X1508212Y501612D01*
X1509924D01*
X1511577Y502054D01*
X1512362Y502508D01*
X1514780Y501684D01*
X1516362Y500557D01*
Y494303D01*
X1512103Y490044D01*
X1510886Y490370D01*
X1509174D01*
X1507521Y489927D01*
X1506039Y489071D01*
X1504829Y487861D01*
X1503973Y486379D01*
X1503530Y484726D01*
Y483014D01*
X1503973Y481361D01*
X1504829Y479879D01*
X1506039Y478669D01*
X1507521Y477813D01*
X1509174Y477370D01*
X1510886D01*
X1512539Y477813D01*
X1514021Y478669D01*
X1514943Y479591D01*
X1515664Y479734D01*
X1517318Y480839D01*
X1525065Y488586D01*
X1526170Y490240D01*
X1526558Y492191D01*
Y532112D01*
X1595120D01*
X1597071Y532500D01*
X1598725Y533605D01*
X1624125Y559005D01*
X1625230Y560659D01*
X1625618Y562610D01*
Y678162D01*
X1685230D01*
X1687181Y678550D01*
X1688835Y679655D01*
X1694978Y685798D01*
X1694985Y685804D01*
X1695130D01*
X1696783Y686247D01*
X1698265Y687103D01*
X1699475Y688313D01*
X1700331Y689795D01*
X1700774Y691448D01*
Y693160D01*
X1700331Y694813D01*
X1699475Y696295D01*
X1698265Y697505D01*
X1696783Y698361D01*
X1695130Y698804D01*
X1693418D01*
X1691765Y698361D01*
X1690283Y697505D01*
X1689073Y696295D01*
X1688217Y694813D01*
X1687774Y693160D01*
Y693046D01*
X1687537Y692776D01*
X1683118Y688358D01*
X1648031D01*
X1644800Y691294D01*
Y693006D01*
X1644357Y694659D01*
X1643501Y696141D01*
X1642291Y697351D01*
X1640809Y698207D01*
X1639156Y698650D01*
X1637444D01*
X1635791Y698207D01*
X1634309Y697351D01*
X1634229Y697271D01*
X1633870Y697248D01*
X1615829D01*
X1613878Y696860D01*
X1612224Y695755D01*
X1611838Y695369D01*
X1607838Y697026D01*
Y735758D01*
X1608662Y736582D01*
X1720832D01*
Y706509D01*
D02*
G37*
G36*
X1738294Y621129D02*
X1738229Y621601D01*
X1738034Y622022D01*
X1737708Y622394D01*
X1737252Y622717D01*
X1736666Y622990D01*
X1735950Y623213D01*
X1735103Y623387D01*
X1734127Y623511D01*
X1733020Y623585D01*
X1731783Y623610D01*
Y628610D01*
X1733020Y628635D01*
X1735103Y628833D01*
X1735950Y629007D01*
X1736666Y629230D01*
X1737252Y629503D01*
X1737708Y629826D01*
X1738034Y630198D01*
X1738229Y630619D01*
X1738294Y631091D01*
Y621129D01*
D02*
G37*
G36*
Y595729D02*
X1738229Y596201D01*
X1738034Y596622D01*
X1737708Y596995D01*
X1737252Y597317D01*
X1736666Y597590D01*
X1735950Y597813D01*
X1735103Y597987D01*
X1734127Y598111D01*
X1733020Y598185D01*
X1731783Y598210D01*
Y603210D01*
X1733020Y603235D01*
X1735103Y603433D01*
X1735950Y603607D01*
X1736666Y603830D01*
X1737252Y604103D01*
X1737708Y604426D01*
X1738034Y604798D01*
X1738229Y605219D01*
X1738294Y605691D01*
Y595729D01*
D02*
G37*
G36*
X1266574Y583312D02*
X1266474Y583363D01*
X1266279Y583409D01*
X1265990Y583449D01*
X1265132Y583514D01*
X1261341Y583581D01*
Y586581D01*
X1266574Y586850D01*
Y583312D01*
D02*
G37*
G36*
X1357630Y816610D02*
X1570990Y816610D01*
X1570990Y816610D01*
X1572000Y816610D01*
X1573868Y815837D01*
X1575297Y814408D01*
X1576070Y812541D01*
X1576070Y811530D01*
X1576070Y582930D01*
X1576070Y582930D01*
X1576070Y581667D01*
X1575103Y579333D01*
X1573317Y577547D01*
X1570983Y576580D01*
X1457960D01*
X1457960Y576580D01*
X1457217Y576507D01*
X1455843Y575938D01*
X1454792Y574887D01*
X1454223Y573513D01*
X1454150Y572770D01*
X1454150Y481330D01*
X1454148Y481328D01*
X1454148Y480065D01*
X1453182Y477732D01*
X1451396Y475946D01*
X1449063Y474980D01*
X1259082D01*
X1257682Y475560D01*
X1256610Y476632D01*
X1256030Y478032D01*
Y478790D01*
Y487681D01*
X1256029Y488692D01*
X1256802Y490559D01*
X1258232Y491988D01*
X1260099Y492761D01*
X1261110Y492760D01*
X1427480Y492760D01*
X1428351Y492803D01*
X1430061Y493143D01*
X1431671Y493810D01*
X1433120Y494778D01*
X1434352Y496010D01*
X1435320Y497459D01*
X1435987Y499069D01*
X1436327Y500779D01*
X1436370Y501650D01*
Y582930D01*
X1436370Y582930D01*
X1436370Y584193D01*
X1437337Y586527D01*
X1439123Y588313D01*
X1441457Y589280D01*
X1442720D01*
X1548130Y589280D01*
X1548130D01*
X1549121Y589378D01*
X1550952Y590136D01*
X1552354Y591538D01*
X1553112Y593369D01*
X1553210Y594360D01*
X1553210Y798830D01*
X1553210Y798830D01*
X1553112Y799821D01*
X1552354Y801653D01*
X1550953Y803054D01*
X1549121Y803813D01*
X1548130Y803910D01*
X1460500Y803910D01*
X1460500Y803910D01*
X1460004Y803861D01*
X1459089Y803482D01*
X1458388Y802781D01*
X1458009Y801865D01*
X1457960Y801370D01*
X1457960Y792480D01*
X1457960Y792480D01*
Y791974D01*
X1457573Y791041D01*
X1456859Y790327D01*
X1455925Y789940D01*
X1455420Y789940D01*
X1413510D01*
X1413510Y789940D01*
X1412519Y789842D01*
X1410688Y789084D01*
X1409286Y787682D01*
X1408528Y785851D01*
X1408430Y784860D01*
Y782320D01*
X1408430Y782320D01*
X1408430Y781814D01*
X1408043Y780881D01*
X1407329Y780167D01*
X1406395Y779780D01*
X1405890Y779780D01*
X1391920D01*
X1391162Y779780D01*
X1389761Y780360D01*
X1388690Y781432D01*
X1388110Y782832D01*
X1388110Y783590D01*
Y800100D01*
X1388110Y800100D01*
X1388037Y800843D01*
X1387468Y802217D01*
X1386417Y803268D01*
X1385043Y803837D01*
X1384300Y803910D01*
X1357630D01*
X1356872Y803910D01*
X1355471Y804490D01*
X1354400Y805562D01*
X1353820Y806962D01*
X1353820Y807720D01*
Y812800D01*
X1353820Y813558D01*
X1354399Y814958D01*
X1355471Y816030D01*
X1356872Y816610D01*
X1357630Y816610D01*
D02*
G37*
G36*
X1254599Y582095D02*
X1254547Y582378D01*
X1254427Y582630D01*
X1254238Y582853D01*
X1253980Y583046D01*
X1253654Y583210D01*
X1253260Y583343D01*
X1252797Y583447D01*
X1252266Y583522D01*
X1251666Y583566D01*
X1250997Y583581D01*
X1250834Y586581D01*
X1251498Y586596D01*
X1252090Y586641D01*
X1252611Y586715D01*
X1253060Y586820D01*
X1253437Y586954D01*
X1253742Y587118D01*
X1253976Y587312D01*
X1254137Y587535D01*
X1254227Y587789D01*
X1254246Y588072D01*
X1254599Y582095D01*
D02*
G37*
G36*
X1282819Y563468D02*
X1282938Y563317D01*
X1283117Y563183D01*
X1283354Y563068D01*
X1283651Y562970D01*
X1284007Y562890D01*
X1284422Y562828D01*
X1284897Y562783D01*
X1286023Y562748D01*
Y559748D01*
X1285531Y559739D01*
X1284714Y559667D01*
X1284388Y559604D01*
X1284117Y559523D01*
X1283900Y559424D01*
X1283739Y559307D01*
X1283633Y559172D01*
X1283581Y559019D01*
X1283585Y558848D01*
X1282759Y563637D01*
X1282819Y563468D01*
D02*
G37*
G36*
X1482486Y557343D02*
X1482607Y557292D01*
X1482770Y557247D01*
X1482974Y557208D01*
X1483220Y557175D01*
X1483836Y557127D01*
X1485072Y557100D01*
Y552100D01*
X1484619Y552097D01*
X1482974Y551992D01*
X1482770Y551953D01*
X1482607Y551908D01*
X1482486Y551857D01*
X1482407Y551800D01*
Y557400D01*
X1482486Y557343D01*
D02*
G37*
G36*
X1511264Y513405D02*
X1511355Y512005D01*
X1511397Y511757D01*
X1511446Y511550D01*
X1511503Y511384D01*
X1511568Y511259D01*
X1511640Y511175D01*
X1506056Y510744D01*
X1506095Y510812D01*
X1506130Y510924D01*
X1506160Y511078D01*
X1506187Y511275D01*
X1506227Y511798D01*
X1506260Y513360D01*
X1511260Y513857D01*
X1511264Y513405D01*
D02*
G37*
G36*
X1517412Y484608D02*
X1513531Y481935D01*
X1512262Y487190D01*
X1512354Y487156D01*
X1512471Y487161D01*
X1512614Y487205D01*
X1512783Y487288D01*
X1512977Y487410D01*
X1513197Y487570D01*
X1513714Y488008D01*
X1514334Y488601D01*
X1517412Y484608D01*
D02*
G37*
G36*
X1394143Y346450D02*
X1394064Y346507D01*
X1393943Y346558D01*
X1393780Y346603D01*
X1393576Y346642D01*
X1393330Y346675D01*
X1392714Y346723D01*
X1391478Y346750D01*
Y351750D01*
X1391931Y351753D01*
X1393576Y351858D01*
X1393780Y351897D01*
X1393943Y351942D01*
X1394064Y351993D01*
X1394143Y352050D01*
Y346450D01*
D02*
G37*
G36*
X1249917Y347720D02*
X1250573Y347169D01*
X1250777Y347028D01*
X1250974Y346909D01*
X1251163Y346811D01*
X1251345Y346735D01*
X1251519Y346679D01*
X1251686Y346646D01*
X1248863Y343823D01*
X1248830Y343990D01*
X1248774Y344164D01*
X1248698Y344346D01*
X1248600Y344535D01*
X1248481Y344732D01*
X1248340Y344936D01*
X1247994Y345366D01*
X1247789Y345592D01*
X1247562Y345826D01*
X1249683Y347947D01*
X1249917Y347720D01*
D02*
G37*
G36*
X1499855Y333620D02*
X1500053Y331536D01*
X1500227Y330690D01*
X1500450Y329974D01*
X1500723Y329388D01*
X1501046Y328932D01*
X1501418Y328606D01*
X1501839Y328411D01*
X1502311Y328346D01*
X1492349D01*
X1492821Y328411D01*
X1493242Y328606D01*
X1493615Y328932D01*
X1493937Y329388D01*
X1494210Y329974D01*
X1494433Y330690D01*
X1494607Y331536D01*
X1494731Y332513D01*
X1494805Y333620D01*
X1494830Y334857D01*
X1499830D01*
X1499855Y333620D01*
D02*
G37*
G36*
X1281831Y335979D02*
X1282026Y335558D01*
X1282352Y335186D01*
X1282808Y334863D01*
X1283394Y334590D01*
X1284110Y334367D01*
X1284957Y334193D01*
X1285933Y334069D01*
X1287040Y333995D01*
X1288277Y333970D01*
Y328970D01*
X1287040Y328945D01*
X1284957Y328747D01*
X1284110Y328573D01*
X1283394Y328350D01*
X1282808Y328077D01*
X1282352Y327755D01*
X1282026Y327382D01*
X1281831Y326961D01*
X1281766Y326489D01*
Y336451D01*
X1281831Y335979D01*
D02*
G37*
G36*
Y310579D02*
X1282026Y310158D01*
X1282352Y309785D01*
X1282808Y309463D01*
X1283394Y309190D01*
X1284110Y308967D01*
X1284957Y308793D01*
X1285933Y308669D01*
X1287040Y308595D01*
X1288277Y308570D01*
Y303570D01*
X1287040Y303545D01*
X1284957Y303347D01*
X1284110Y303173D01*
X1283394Y302950D01*
X1282808Y302677D01*
X1282352Y302355D01*
X1282026Y301982D01*
X1281831Y301561D01*
X1281766Y301089D01*
Y311051D01*
X1281831Y310579D01*
D02*
G37*
G36*
X1467535Y288394D02*
X1467330Y288864D01*
X1467010Y289285D01*
X1466577Y289657D01*
X1466030Y289979D01*
X1465369Y290251D01*
X1464593Y290474D01*
X1463704Y290647D01*
X1462701Y290771D01*
X1461584Y290845D01*
X1460353Y290870D01*
X1459424Y295870D01*
X1460533Y295895D01*
X1461508Y295970D01*
X1462352Y296095D01*
X1463063Y296269D01*
X1463642Y296494D01*
X1464088Y296769D01*
X1464402Y297094D01*
X1464583Y297468D01*
X1464633Y297893D01*
X1464549Y298367D01*
X1467535Y288394D01*
D02*
G37*
G36*
X1501839Y288809D02*
X1501418Y288614D01*
X1501046Y288288D01*
X1500723Y287832D01*
X1500450Y287246D01*
X1500227Y286530D01*
X1500053Y285683D01*
X1499929Y284707D01*
X1499855Y283600D01*
X1499830Y282363D01*
X1494830D01*
X1494805Y283600D01*
X1494607Y285683D01*
X1494433Y286530D01*
X1494210Y287246D01*
X1493937Y287832D01*
X1493615Y288288D01*
X1493242Y288614D01*
X1492821Y288809D01*
X1492349Y288874D01*
X1502311D01*
X1501839Y288809D01*
D02*
G37*
%LPC*%
G36*
X1555140Y931790D02*
Y921480D01*
X1557486D01*
Y924476D01*
X1557538Y924002D01*
X1557693Y923577D01*
X1557951Y923203D01*
X1558312Y922879D01*
X1558777Y922604D01*
X1559344Y922379D01*
X1560016Y922205D01*
X1560790Y922080D01*
X1561667Y922005D01*
X1561713Y922004D01*
Y923480D01*
X1561421Y925699D01*
X1560565Y927767D01*
X1559202Y929542D01*
X1557427Y930905D01*
X1555359Y931761D01*
X1555140Y931790D01*
D02*
G37*
G36*
X1641640D02*
Y921480D01*
X1648213D01*
Y923480D01*
X1647921Y925699D01*
X1647065Y927767D01*
X1645702Y929542D01*
X1643927Y930905D01*
X1641859Y931761D01*
X1641640Y931790D01*
D02*
G37*
G36*
X1637640D02*
X1637421Y931761D01*
X1635353Y930905D01*
X1633578Y929542D01*
X1632215Y927767D01*
X1631359Y925699D01*
X1631067Y923480D01*
Y922004D01*
X1631113Y922005D01*
X1631990Y922080D01*
X1632764Y922205D01*
X1633436Y922379D01*
X1634003Y922604D01*
X1634468Y922879D01*
X1634829Y923203D01*
X1635087Y923577D01*
X1635242Y924002D01*
X1635294Y924476D01*
Y921480D01*
X1637640D01*
Y931790D01*
D02*
G37*
G36*
X1551140D02*
X1550921Y931761D01*
X1548853Y930905D01*
X1547078Y929542D01*
X1545715Y927767D01*
X1544859Y925699D01*
X1544567Y923480D01*
Y921480D01*
X1551140D01*
Y931790D01*
D02*
G37*
G36*
X1620360Y925130D02*
X1612360D01*
Y917130D01*
X1616311D01*
X1616329Y921099D01*
X1620360Y921809D01*
Y925130D01*
D02*
G37*
G36*
X1608360D02*
X1600360D01*
Y921809D01*
X1604391Y921099D01*
X1604409Y917130D01*
X1608360D01*
Y925130D01*
D02*
G37*
G36*
X1591150Y925130D02*
X1583150D01*
Y917130D01*
X1587101D01*
X1587119Y921099D01*
X1591150Y921809D01*
Y925130D01*
D02*
G37*
G36*
X1579150D02*
X1571150D01*
Y921809D01*
X1575181Y921099D01*
X1575199Y917130D01*
X1579150D01*
Y925130D01*
D02*
G37*
G36*
X1637640Y917480D02*
X1635294D01*
Y914484D01*
X1635242Y914958D01*
X1635087Y915383D01*
X1634829Y915757D01*
X1634468Y916081D01*
X1634003Y916356D01*
X1633436Y916581D01*
X1632764Y916755D01*
X1631990Y916880D01*
X1631113Y916955D01*
X1631067Y916956D01*
Y915480D01*
X1631359Y913261D01*
X1632215Y911193D01*
X1633578Y909418D01*
X1635353Y908055D01*
X1637131Y907319D01*
X1637126Y907663D01*
X1637014Y909291D01*
X1636915Y910022D01*
X1636635Y911314D01*
X1636452Y911876D01*
X1636241Y912382D01*
X1636003Y912832D01*
X1635736Y913226D01*
X1637640D01*
Y917480D01*
D02*
G37*
G36*
X1648213D02*
X1641640D01*
Y913226D01*
X1643544D01*
X1643277Y912832D01*
X1643039Y912382D01*
X1642828Y911876D01*
X1642646Y911314D01*
X1642491Y910696D01*
X1642365Y910022D01*
X1642196Y908505D01*
X1642154Y907663D01*
X1642149Y907319D01*
X1643927Y908055D01*
X1645702Y909418D01*
X1647065Y911193D01*
X1647921Y913261D01*
X1648213Y915480D01*
Y917480D01*
D02*
G37*
G36*
X1557486D02*
X1555140D01*
Y913226D01*
X1557044D01*
X1556777Y912832D01*
X1556539Y912382D01*
X1556328Y911876D01*
X1556145Y911314D01*
X1555991Y910696D01*
X1555865Y910022D01*
X1555696Y908505D01*
X1555654Y907663D01*
X1555649Y907319D01*
X1557427Y908055D01*
X1559202Y909418D01*
X1560565Y911193D01*
X1561421Y913261D01*
X1561713Y915480D01*
Y916956D01*
X1561667Y916955D01*
X1560790Y916880D01*
X1560016Y916755D01*
X1559344Y916581D01*
X1558777Y916356D01*
X1558312Y916081D01*
X1557951Y915757D01*
X1557693Y915383D01*
X1557538Y914958D01*
X1557486Y914484D01*
Y917480D01*
D02*
G37*
G36*
X1551140D02*
X1544567D01*
Y915480D01*
X1544859Y913261D01*
X1545715Y911193D01*
X1547078Y909418D01*
X1548853Y908055D01*
X1550631Y907319D01*
X1550626Y907663D01*
X1550514Y909291D01*
X1550415Y910022D01*
X1550134Y911314D01*
X1549952Y911876D01*
X1549741Y912382D01*
X1549503Y912832D01*
X1549236Y913226D01*
X1551140D01*
Y917480D01*
D02*
G37*
G36*
X1620360Y913130D02*
X1610360D01*
X1600360D01*
Y906009D01*
X1600360Y905130D01*
X1601852Y901769D01*
X1600712Y900648D01*
X1597860Y899145D01*
X1597246Y899310D01*
X1595534D01*
X1593881Y898867D01*
X1591403Y901876D01*
X1590610Y903913D01*
X1591150Y905130D01*
X1591150Y906009D01*
Y913130D01*
X1581150D01*
X1571150D01*
Y906009D01*
X1571150Y905130D01*
X1572650Y901751D01*
X1572650Y901130D01*
Y891248D01*
X1571658Y890210D01*
X1568650Y888581D01*
X1568280Y888680D01*
X1566700D01*
X1565174Y888271D01*
X1564713Y888005D01*
X1562758Y887798D01*
X1559670Y888733D01*
X1559202Y889342D01*
X1557427Y890705D01*
X1555649Y891441D01*
X1555654Y891097D01*
X1555766Y889469D01*
X1555865Y888738D01*
X1556145Y887446D01*
X1556328Y886884D01*
X1556539Y886378D01*
X1556777Y885928D01*
X1557044Y885534D01*
X1555140D01*
Y877780D01*
Y863970D01*
X1555359Y863999D01*
X1557427Y864855D01*
X1559202Y866218D01*
X1560565Y867993D01*
X1561421Y870061D01*
X1561713Y872280D01*
Y874535D01*
X1563729Y876023D01*
X1565713Y876944D01*
X1566700Y876680D01*
X1568280D01*
X1569806Y877089D01*
X1571174Y877879D01*
X1572291Y878996D01*
X1573081Y880364D01*
X1573490Y881890D01*
X1573490Y883470D01*
X1577052Y885630D01*
X1589650D01*
Y885630D01*
X1593650Y886886D01*
X1593881Y886753D01*
X1595534Y886310D01*
X1597246D01*
X1597860Y886475D01*
X1601860Y885630D01*
X1601860Y885630D01*
X1606282D01*
Y855737D01*
X1602616Y852071D01*
X1602480Y851976D01*
X1602347Y851899D01*
X1602220Y851838D01*
X1602095Y851790D01*
X1601968Y851754D01*
X1601836Y851728D01*
X1601692Y851712D01*
X1601436Y851705D01*
X1601228Y851657D01*
X1600614D01*
X1598961Y851214D01*
X1597479Y850359D01*
X1596269Y849148D01*
X1595413Y847666D01*
X1594970Y846013D01*
Y844302D01*
X1595413Y842648D01*
X1596269Y841166D01*
X1597479Y839956D01*
X1598961Y839100D01*
X1600614Y838657D01*
X1602326D01*
X1603979Y839100D01*
X1605461Y839956D01*
X1606671Y841166D01*
X1607527Y842648D01*
X1607970Y844302D01*
Y844915D01*
X1608018Y845123D01*
X1608025Y845379D01*
X1608041Y845523D01*
X1608067Y845656D01*
X1608103Y845782D01*
X1608151Y845907D01*
X1608212Y846034D01*
X1608289Y846168D01*
X1608383Y846303D01*
X1613244Y851163D01*
X1613244Y851163D01*
X1614128Y852487D01*
X1614438Y854047D01*
X1614438Y854047D01*
Y881734D01*
X1615033Y882069D01*
X1616472Y882008D01*
X1619699Y880364D01*
X1620489Y878996D01*
X1621606Y877879D01*
X1622974Y877089D01*
X1624500Y876680D01*
X1626080D01*
X1627067Y876944D01*
X1629051Y876023D01*
X1631067Y874535D01*
Y872280D01*
X1631359Y870061D01*
X1632215Y867993D01*
X1633578Y866218D01*
X1635353Y864855D01*
X1637421Y863999D01*
X1637640Y863970D01*
Y877780D01*
Y885534D01*
X1635736D01*
X1636003Y885928D01*
X1636241Y886378D01*
X1636452Y886884D01*
X1636635Y887446D01*
X1636789Y888064D01*
X1636915Y888738D01*
X1637084Y890255D01*
X1637126Y891097D01*
X1637131Y891441D01*
X1635353Y890705D01*
X1633578Y889342D01*
X1633110Y888733D01*
X1630022Y887798D01*
X1628067Y888005D01*
X1627606Y888271D01*
X1626080Y888680D01*
X1624500D01*
X1622974Y888271D01*
X1622860Y888205D01*
X1619477Y889700D01*
X1618860Y890344D01*
X1618860Y901751D01*
X1620360Y905130D01*
X1620360Y906009D01*
Y913130D01*
D02*
G37*
G36*
X1386300Y883920D02*
Y882632D01*
X1399550D01*
X1399550Y882632D01*
X1401111Y882942D01*
X1402434Y883826D01*
X1402528Y883920D01*
X1386300D01*
D02*
G37*
G36*
X1366072Y883920D02*
X1366166Y883826D01*
X1367489Y882942D01*
X1369050Y882632D01*
X1369050Y882632D01*
X1382300D01*
Y883920D01*
X1366072Y883920D01*
D02*
G37*
G36*
X1642149Y891441D02*
X1642154Y891097D01*
X1642266Y889469D01*
X1642365Y888738D01*
X1642646Y887446D01*
X1642828Y886884D01*
X1643039Y886378D01*
X1643277Y885928D01*
X1643544Y885534D01*
X1641640D01*
Y879780D01*
X1648213D01*
Y883280D01*
X1647921Y885499D01*
X1647065Y887567D01*
X1645702Y889342D01*
X1643927Y890705D01*
X1642149Y891441D01*
D02*
G37*
G36*
X1550631D02*
X1548853Y890705D01*
X1547078Y889342D01*
X1545715Y887567D01*
X1544859Y885499D01*
X1544567Y883280D01*
Y879780D01*
X1551140D01*
Y885534D01*
X1549236D01*
X1549503Y885928D01*
X1549741Y886378D01*
X1549952Y886884D01*
X1550134Y887446D01*
X1550289Y888064D01*
X1550415Y888738D01*
X1550584Y890255D01*
X1550626Y891097D01*
X1550631Y891441D01*
D02*
G37*
G36*
X1350822Y882888D02*
X1349596Y881662D01*
X1348837Y879831D01*
X1348740Y878840D01*
Y867710D01*
X1351378D01*
Y880960D01*
X1351378Y880960D01*
X1351068Y882521D01*
X1350822Y882888D01*
D02*
G37*
G36*
X1325880Y885308D02*
X1324416Y883844D01*
X1323532Y882521D01*
X1323222Y880960D01*
X1323222Y880960D01*
Y867710D01*
X1325880D01*
Y885308D01*
D02*
G37*
G36*
X1648213Y875780D02*
X1641640D01*
Y863970D01*
X1641859Y863999D01*
X1643927Y864855D01*
X1645702Y866218D01*
X1647065Y867993D01*
X1647921Y870061D01*
X1648213Y872280D01*
Y875780D01*
D02*
G37*
G36*
X1551140D02*
X1544567D01*
Y872280D01*
X1544859Y870061D01*
X1545715Y867993D01*
X1547078Y866218D01*
X1548853Y864855D01*
X1550921Y863999D01*
X1551140Y863970D01*
Y875780D01*
D02*
G37*
G36*
X1583690Y851171D02*
X1583690Y850900D01*
X1583690Y848360D01*
X1584806D01*
X1584366Y850000D01*
X1583690Y851171D01*
D02*
G37*
G36*
X1351378Y863710D02*
X1348740D01*
X1348740Y846132D01*
X1350184Y847576D01*
X1351068Y848899D01*
X1351378Y850460D01*
X1351378Y850460D01*
Y863710D01*
D02*
G37*
G36*
X1325880D02*
X1323222D01*
Y850460D01*
X1323222Y850460D01*
X1323532Y848899D01*
X1324416Y847576D01*
X1325880Y846112D01*
Y863710D01*
D02*
G37*
G36*
X1584806Y845820D02*
X1583690D01*
X1583690Y843008D01*
X1584366Y844180D01*
X1584806Y845820D01*
D02*
G37*
G36*
X1399550Y849259D02*
X1369050D01*
X1368074Y849065D01*
X1367248Y848512D01*
X1362248Y843512D01*
X1361695Y842685D01*
X1361501Y841710D01*
Y831710D01*
X1361695Y830734D01*
X1362248Y829908D01*
X1367248Y824908D01*
X1368074Y824355D01*
X1369050Y824161D01*
X1399550D01*
X1400526Y824355D01*
X1401352Y824908D01*
X1406352Y829908D01*
X1406905Y830734D01*
X1407099Y831710D01*
Y841710D01*
X1406905Y842685D01*
X1406352Y843512D01*
X1401352Y848512D01*
X1400526Y849065D01*
X1399550Y849259D01*
D02*
G37*
G36*
X1535016Y748180D02*
X1533304D01*
X1531651Y747737D01*
X1530169Y746881D01*
X1530089Y746801D01*
X1529730Y746778D01*
X1294423D01*
X1294414Y746779D01*
X1294311Y746881D01*
X1292829Y747737D01*
X1291176Y748180D01*
X1289464D01*
X1287811Y747737D01*
X1286329Y746881D01*
X1285119Y745671D01*
X1284263Y744189D01*
X1283820Y742536D01*
Y740824D01*
X1284263Y739171D01*
X1285119Y737689D01*
X1286329Y736479D01*
X1287811Y735623D01*
X1289464Y735180D01*
X1291176D01*
X1292829Y735623D01*
X1294311Y736479D01*
X1294391Y736559D01*
X1294750Y736582D01*
X1530057D01*
X1530066Y736581D01*
X1530169Y736479D01*
X1531651Y735623D01*
X1533304Y735180D01*
X1535016D01*
X1536669Y735623D01*
X1538151Y736479D01*
X1539361Y737689D01*
X1540217Y739171D01*
X1540660Y740824D01*
Y742536D01*
X1540217Y744189D01*
X1539361Y745671D01*
X1538151Y746881D01*
X1536669Y747737D01*
X1535016Y748180D01*
D02*
G37*
G36*
X1439171Y731529D02*
X1439171Y731529D01*
X1439171Y731529D01*
X1438667Y731429D01*
X1438195Y731336D01*
X1438195Y731336D01*
X1438195Y731336D01*
X1436328Y730563D01*
X1436328Y730563D01*
X1436328Y730563D01*
X1435860Y730251D01*
X1435501Y730011D01*
X1435501Y730011D01*
X1435500Y730011D01*
X1434071Y728582D01*
X1434071Y728582D01*
X1434071Y728582D01*
X1433762Y728119D01*
X1433519Y727755D01*
X1433519Y727755D01*
X1433519Y727755D01*
X1432745Y725888D01*
X1432745Y725888D01*
X1432745Y725888D01*
X1432651Y725417D01*
X1432551Y724912D01*
X1432551Y724912D01*
X1432551Y724912D01*
X1432551Y723902D01*
X1432551Y704975D01*
X1432503Y704484D01*
X1432083Y703471D01*
X1431399Y702787D01*
X1430386Y702367D01*
X1429895Y702319D01*
X1347470Y702319D01*
X1346207Y702319D01*
X1345232Y702125D01*
X1345232Y702125D01*
X1345232Y702125D01*
X1342898Y701159D01*
X1342898Y701159D01*
X1342071Y700606D01*
X1342071Y700606D01*
X1340284Y698820D01*
X1340284Y698820D01*
X1340284Y698820D01*
X1340010Y698409D01*
X1339732Y697993D01*
X1339732Y697993D01*
X1339732Y697993D01*
X1338765Y695659D01*
X1338765Y695659D01*
X1338765Y695659D01*
X1338661Y695137D01*
X1338571Y694684D01*
X1338571Y694684D01*
X1338571Y694684D01*
X1338571Y693421D01*
X1338571Y569907D01*
X1336810Y566438D01*
X1336805Y566429D01*
X1336340Y566337D01*
X1335830Y566235D01*
X1335830Y566235D01*
X1335830Y566235D01*
X1334896Y565849D01*
X1334896Y565849D01*
X1334896Y565849D01*
X1334397Y565516D01*
X1334069Y565296D01*
X1334069Y565296D01*
X1334069Y565296D01*
X1333354Y564582D01*
X1333354Y564582D01*
X1333354Y564581D01*
X1333080Y564172D01*
X1332802Y563755D01*
X1332802Y563755D01*
X1332802Y563755D01*
X1332415Y562821D01*
X1332415Y562821D01*
X1332415Y562821D01*
X1332322Y562354D01*
X1332221Y561846D01*
X1332221Y561846D01*
X1332221Y561845D01*
X1332221Y561340D01*
Y541020D01*
X1332221Y540515D01*
X1332221Y540515D01*
X1332221Y540515D01*
X1332415Y539539D01*
X1332415Y539539D01*
X1332415Y539539D01*
X1332802Y538606D01*
X1333354Y537779D01*
X1334069Y537064D01*
X1334896Y536512D01*
X1335829Y536125D01*
X1335829Y536125D01*
X1335829Y536125D01*
X1336805Y535931D01*
X1337310Y535931D01*
X1370330Y535931D01*
X1370835Y535931D01*
X1370835Y535931D01*
X1370835Y535931D01*
X1371810Y536125D01*
X1371810Y536125D01*
X1371811Y536125D01*
X1372744Y536512D01*
X1373571Y537064D01*
X1374286Y537779D01*
X1374838Y538606D01*
X1375225Y539539D01*
X1375225Y539539D01*
X1375225Y539539D01*
X1375419Y540515D01*
X1375419Y541020D01*
X1375419Y541020D01*
Y671821D01*
X1485673D01*
X1489180Y670630D01*
X1489180Y667821D01*
Y647630D01*
X1493171D01*
X1494722Y644039D01*
X1494691Y643630D01*
X1492478Y641932D01*
X1490635Y639530D01*
X1489476Y636732D01*
X1489132Y634118D01*
X1487626Y633094D01*
X1486802Y632734D01*
X1485239Y632265D01*
X1483730Y633136D01*
X1482090Y633576D01*
Y633304D01*
X1483159Y632862D01*
X1484407Y632029D01*
X1485468Y630967D01*
X1486303Y629719D01*
X1486877Y628333D01*
X1487170Y626861D01*
X1487170Y626110D01*
X1487170Y622029D01*
X1487846Y623200D01*
X1488203Y624529D01*
X1490009Y625350D01*
X1492360Y625682D01*
X1492478Y625528D01*
X1494880Y623685D01*
X1497678Y622526D01*
X1500680Y622131D01*
X1506680D01*
X1509682Y622526D01*
X1512480Y623685D01*
X1514882Y625528D01*
X1516725Y627930D01*
X1517884Y630728D01*
X1518279Y633730D01*
X1517884Y636732D01*
X1516725Y639530D01*
X1514882Y641932D01*
X1512669Y643630D01*
X1512639Y644039D01*
X1514189Y647630D01*
X1518180D01*
Y669025D01*
X1518236Y670303D01*
X1518670Y672066D01*
X1519377Y674134D01*
X1519618Y674496D01*
X1520005Y675429D01*
X1520199Y676405D01*
Y676909D01*
X1520199Y676910D01*
X1520199Y693419D01*
X1520199Y694177D01*
X1520199Y694177D01*
X1520199Y694177D01*
X1520095Y694701D01*
X1520005Y695153D01*
X1520005Y695153D01*
X1520005Y695153D01*
X1519425Y696553D01*
X1519425Y696554D01*
X1519425Y696554D01*
X1519135Y696988D01*
X1518873Y697381D01*
X1518873Y697381D01*
X1518873Y697381D01*
X1517801Y698453D01*
X1517800Y698453D01*
X1517800Y698453D01*
X1517390Y698727D01*
X1516974Y699005D01*
X1516974Y699005D01*
X1516973Y699005D01*
X1515573Y699585D01*
X1515573Y699585D01*
X1515572Y699585D01*
X1515109Y699678D01*
X1514597Y699779D01*
X1514597Y699779D01*
X1514597Y699779D01*
X1513841Y699779D01*
X1513840Y699779D01*
X1498663D01*
X1498041Y699809D01*
X1496763Y700064D01*
X1495616Y700538D01*
X1494585Y701228D01*
X1493708Y702105D01*
X1493018Y703136D01*
X1492544Y704283D01*
X1492289Y705561D01*
X1492259Y706182D01*
Y724911D01*
X1492065Y725886D01*
X1491292Y727753D01*
X1490739Y728580D01*
X1490739Y728580D01*
X1489310Y730009D01*
X1489310Y730009D01*
X1488483Y730562D01*
X1486616Y731335D01*
X1485641Y731529D01*
X1484630D01*
X1440181Y731529D01*
X1439171Y731529D01*
D02*
G37*
G36*
X1328420Y646702D02*
Y643890D01*
X1329536D01*
X1329096Y645530D01*
X1328420Y646702D01*
D02*
G37*
G36*
X1329536Y641350D02*
X1328420D01*
Y638538D01*
X1329096Y639710D01*
X1329536Y641350D01*
D02*
G37*
G36*
X1537970Y617066D02*
X1536330Y616626D01*
X1535158Y615950D01*
X1537970D01*
Y617066D01*
D02*
G37*
G36*
X1527175D02*
Y615950D01*
X1529987D01*
X1528815Y616626D01*
X1527175Y617066D01*
D02*
G37*
G36*
X1524635D02*
X1522995Y616626D01*
X1521823Y615950D01*
X1524635D01*
Y617066D01*
D02*
G37*
G36*
X1513840D02*
Y615950D01*
X1516651D01*
X1515480Y616626D01*
X1513840Y617066D01*
D02*
G37*
G36*
X1511300D02*
X1509660Y616626D01*
X1508488Y615950D01*
X1511300D01*
Y617066D01*
D02*
G37*
G36*
X1500505D02*
Y615950D01*
X1503316D01*
X1502145Y616626D01*
X1500505Y617066D01*
D02*
G37*
G36*
X1497965D02*
X1496325Y616626D01*
X1495153Y615950D01*
X1497965D01*
Y617066D01*
D02*
G37*
G36*
X1540510D02*
Y615950D01*
X1543050D01*
X1543049Y615948D01*
X1543324Y615948D01*
X1542150Y616626D01*
X1540510Y617066D01*
D02*
G37*
%LPD*%
G36*
X1593533Y890010D02*
X1593271Y890257D01*
X1592996Y890478D01*
X1592706Y890673D01*
X1592401Y890842D01*
X1592083Y890985D01*
X1591751Y891102D01*
X1591405Y891193D01*
X1591045Y891258D01*
X1590670Y891297D01*
X1590282Y891310D01*
Y894310D01*
X1590670Y894323D01*
X1591045Y894362D01*
X1591405Y894427D01*
X1591751Y894518D01*
X1592083Y894635D01*
X1592401Y894778D01*
X1592706Y894947D01*
X1592996Y895142D01*
X1593271Y895363D01*
X1593533Y895610D01*
Y890010D01*
D02*
G37*
G36*
X1587119Y895525D02*
X1587210Y895270D01*
X1587362Y895045D01*
X1587574Y894850D01*
X1587847Y894685D01*
X1588180Y894550D01*
X1588574Y894445D01*
X1589028Y894370D01*
X1589544Y894325D01*
X1590119Y894310D01*
Y891310D01*
X1589544Y891295D01*
X1589028Y891250D01*
X1588574Y891175D01*
X1588180Y891070D01*
X1587847Y890935D01*
X1587574Y890770D01*
X1587362Y890575D01*
X1587210Y890350D01*
X1587119Y890095D01*
X1587089Y889810D01*
Y895810D01*
X1587119Y895525D01*
D02*
G37*
G36*
X1613075Y888161D02*
X1612820Y888070D01*
X1612595Y887918D01*
X1612400Y887706D01*
X1612235Y887433D01*
X1612100Y887100D01*
X1611995Y886706D01*
X1611920Y886252D01*
X1611875Y885736D01*
X1611860Y885161D01*
X1608860D01*
X1608845Y885736D01*
X1608800Y886252D01*
X1608725Y886706D01*
X1608620Y887100D01*
X1608485Y887433D01*
X1608320Y887706D01*
X1608125Y887918D01*
X1607900Y888070D01*
X1607645Y888161D01*
X1607360Y888191D01*
X1613360D01*
X1613075Y888161D01*
D02*
G37*
G36*
X1606850Y848416D02*
X1606584Y848132D01*
X1606347Y847840D01*
X1606138Y847539D01*
X1605958Y847230D01*
X1605806Y846912D01*
X1605682Y846586D01*
X1605586Y846252D01*
X1605519Y845909D01*
X1605480Y845557D01*
X1605470Y845197D01*
X1601510Y849157D01*
X1601870Y849168D01*
X1602221Y849206D01*
X1602564Y849274D01*
X1602899Y849369D01*
X1603225Y849493D01*
X1603542Y849645D01*
X1603852Y849826D01*
X1604152Y850034D01*
X1604445Y850272D01*
X1604728Y850537D01*
X1606850Y848416D01*
D02*
G37*
G36*
X1531303Y738880D02*
X1531224Y738937D01*
X1531103Y738988D01*
X1530940Y739033D01*
X1530736Y739072D01*
X1530490Y739105D01*
X1529874Y739153D01*
X1528638Y739180D01*
Y744180D01*
X1529091Y744183D01*
X1530736Y744288D01*
X1530940Y744327D01*
X1531103Y744372D01*
X1531224Y744423D01*
X1531303Y744480D01*
Y738880D01*
D02*
G37*
G36*
X1293256Y744423D02*
X1293377Y744372D01*
X1293540Y744327D01*
X1293744Y744288D01*
X1293990Y744255D01*
X1294606Y744207D01*
X1295842Y744180D01*
Y739180D01*
X1295389Y739177D01*
X1293744Y739072D01*
X1293540Y739033D01*
X1293377Y738988D01*
X1293256Y738937D01*
X1293177Y738880D01*
Y744480D01*
X1293256Y744423D01*
D02*
G37*
G36*
X1440180Y728980D02*
X1484630Y728980D01*
X1485641D01*
X1487508Y728207D01*
X1488937Y726778D01*
X1489710Y724911D01*
Y723900D01*
Y706120D01*
Y706120D01*
X1489753Y705248D01*
X1490093Y703539D01*
X1490759Y701929D01*
X1491728Y700480D01*
X1492960Y699248D01*
X1494409Y698279D01*
X1496019Y697613D01*
X1497729Y697273D01*
X1498600Y697230D01*
X1513840D01*
X1513840Y697230D01*
X1514598Y697230D01*
X1515998Y696650D01*
X1517070Y695578D01*
X1517650Y694178D01*
X1517650Y693420D01*
X1517650Y676910D01*
X1517650Y676910D01*
Y676405D01*
X1517263Y675471D01*
X1516549Y674757D01*
X1515615Y674370D01*
X1372870D01*
Y541020D01*
X1372870Y541020D01*
X1372870Y540515D01*
X1372483Y539581D01*
X1371769Y538867D01*
X1370835Y538480D01*
X1370330Y538480D01*
X1337310Y538480D01*
X1337310D01*
X1336805Y538480D01*
X1335871Y538867D01*
X1335157Y539581D01*
X1334770Y540515D01*
X1334770Y541020D01*
Y561340D01*
X1334770Y561846D01*
X1335157Y562779D01*
X1335871Y563494D01*
X1336805Y563880D01*
X1337310Y563880D01*
X1338580Y563880D01*
X1338580D01*
X1339075Y563929D01*
X1339991Y564308D01*
X1340692Y565009D01*
X1341071Y565924D01*
X1341120Y566420D01*
X1341120Y693421D01*
D01*
Y693421D01*
Y693421D01*
X1341120Y694684D01*
X1342087Y697018D01*
X1343873Y698804D01*
X1346207Y699770D01*
X1347470Y699770D01*
X1430020Y699770D01*
X1430020D01*
X1431011Y699867D01*
X1432843Y700625D01*
X1434245Y702027D01*
X1435003Y703859D01*
X1435100Y704850D01*
X1435100Y723902D01*
X1435100Y724912D01*
X1435873Y726779D01*
X1437303Y728208D01*
X1439170Y728980D01*
X1440180Y728980D01*
D02*
G37*
%LPC*%
G36*
X1435100Y723902D02*
Y723902D01*
D01*
Y723902D01*
D02*
G37*
G36*
X1758830Y585396D02*
X1743830D01*
X1741219Y585053D01*
X1738787Y584045D01*
X1736698Y582442D01*
X1735095Y580353D01*
X1734087Y577920D01*
X1733744Y575310D01*
X1734087Y572700D01*
X1735095Y570267D01*
X1736698Y568178D01*
X1738787Y566575D01*
X1741219Y565567D01*
X1743830Y565224D01*
X1758830D01*
X1761440Y565567D01*
X1763873Y566575D01*
X1765962Y568178D01*
X1767565Y570267D01*
X1768573Y572700D01*
X1768916Y575310D01*
X1768573Y577920D01*
X1767565Y580353D01*
X1765962Y582442D01*
X1763873Y584045D01*
X1761440Y585053D01*
X1758830Y585396D01*
D02*
G37*
G36*
Y559996D02*
X1743830D01*
X1741219Y559653D01*
X1738787Y558645D01*
X1736698Y557042D01*
X1735095Y554953D01*
X1734087Y552520D01*
X1733744Y549910D01*
X1734087Y547299D01*
X1735095Y544867D01*
X1736698Y542778D01*
X1738787Y541175D01*
X1741219Y540167D01*
X1743830Y539824D01*
X1758830D01*
X1761440Y540167D01*
X1763873Y541175D01*
X1765962Y542778D01*
X1767565Y544867D01*
X1768573Y547299D01*
X1768916Y549910D01*
X1768573Y552520D01*
X1767565Y554953D01*
X1765962Y557042D01*
X1763873Y558645D01*
X1761440Y559653D01*
X1758830Y559996D01*
D02*
G37*
G36*
Y534596D02*
X1743830D01*
X1741219Y534253D01*
X1738787Y533245D01*
X1736698Y531642D01*
X1735095Y529553D01*
X1734087Y527121D01*
X1733744Y524510D01*
X1734087Y521899D01*
X1735095Y519467D01*
X1736698Y517378D01*
X1738787Y515775D01*
X1741219Y514767D01*
X1743830Y514424D01*
X1758830D01*
X1761440Y514767D01*
X1763873Y515775D01*
X1765962Y517378D01*
X1767565Y519467D01*
X1768573Y521899D01*
X1768916Y524510D01*
X1768573Y527121D01*
X1767565Y529553D01*
X1765962Y531642D01*
X1763873Y533245D01*
X1761440Y534253D01*
X1758830Y534596D01*
D02*
G37*
G36*
Y493956D02*
X1743830D01*
X1741219Y493613D01*
X1738787Y492605D01*
X1736698Y491002D01*
X1735095Y488913D01*
X1734087Y486480D01*
X1733744Y483870D01*
X1734087Y481259D01*
X1735095Y478827D01*
X1736698Y476738D01*
X1738787Y475135D01*
X1741219Y474127D01*
X1743830Y473784D01*
X1758830D01*
X1761440Y474127D01*
X1763873Y475135D01*
X1765962Y476738D01*
X1767565Y478827D01*
X1768573Y481259D01*
X1768916Y483870D01*
X1768573Y486480D01*
X1767565Y488913D01*
X1765962Y491002D01*
X1763873Y492605D01*
X1761440Y493613D01*
X1758830Y493956D01*
D02*
G37*
G36*
Y468556D02*
X1743830D01*
X1741219Y468213D01*
X1738787Y467205D01*
X1736698Y465602D01*
X1735095Y463513D01*
X1734087Y461081D01*
X1733744Y458470D01*
X1734087Y455859D01*
X1735095Y453427D01*
X1736698Y451338D01*
X1738787Y449735D01*
X1741219Y448727D01*
X1743830Y448384D01*
X1758830D01*
X1761440Y448727D01*
X1763873Y449735D01*
X1765962Y451338D01*
X1767565Y453427D01*
X1768573Y455859D01*
X1768916Y458470D01*
X1768573Y461081D01*
X1767565Y463513D01*
X1765962Y465602D01*
X1763873Y467205D01*
X1761440Y468213D01*
X1758830Y468556D01*
D02*
G37*
G36*
Y443156D02*
X1743830D01*
X1741219Y442813D01*
X1738787Y441805D01*
X1736698Y440202D01*
X1735095Y438113D01*
X1734087Y435681D01*
X1733744Y433070D01*
X1734087Y430460D01*
X1735095Y428027D01*
X1736698Y425938D01*
X1738787Y424335D01*
X1741219Y423327D01*
X1743830Y422984D01*
X1758830D01*
X1761440Y423327D01*
X1763873Y424335D01*
X1765962Y425938D01*
X1767565Y428027D01*
X1768573Y430460D01*
X1768916Y433070D01*
X1768573Y435681D01*
X1767565Y438113D01*
X1765962Y440202D01*
X1763873Y441805D01*
X1761440Y442813D01*
X1758830Y443156D01*
D02*
G37*
G36*
Y417756D02*
X1743830D01*
X1741219Y417413D01*
X1738787Y416405D01*
X1736698Y414802D01*
X1735095Y412713D01*
X1734087Y410280D01*
X1733744Y407670D01*
X1734087Y405060D01*
X1735095Y402627D01*
X1736698Y400538D01*
X1738787Y398935D01*
X1741219Y397927D01*
X1743830Y397584D01*
X1758830D01*
X1761440Y397927D01*
X1763873Y398935D01*
X1765962Y400538D01*
X1767565Y402627D01*
X1768573Y405060D01*
X1768916Y407670D01*
X1768573Y410280D01*
X1767565Y412713D01*
X1765962Y414802D01*
X1763873Y416405D01*
X1761440Y417413D01*
X1758830Y417756D01*
D02*
G37*
G36*
Y392356D02*
X1743830D01*
X1741219Y392013D01*
X1738787Y391005D01*
X1736698Y389402D01*
X1735095Y387313D01*
X1734087Y384880D01*
X1733744Y382270D01*
X1734087Y379660D01*
X1735095Y377227D01*
X1736698Y375138D01*
X1738787Y373535D01*
X1741219Y372527D01*
X1743830Y372184D01*
X1758830D01*
X1761440Y372527D01*
X1763873Y373535D01*
X1765962Y375138D01*
X1767565Y377227D01*
X1768573Y379660D01*
X1768916Y382270D01*
X1768573Y384880D01*
X1767565Y387313D01*
X1765962Y389402D01*
X1763873Y391005D01*
X1761440Y392013D01*
X1758830Y392356D01*
D02*
G37*
G36*
Y366956D02*
X1743830D01*
X1741219Y366613D01*
X1738787Y365605D01*
X1736698Y364002D01*
X1735095Y361913D01*
X1734087Y359481D01*
X1733744Y356870D01*
X1734087Y354259D01*
X1735095Y351827D01*
X1736698Y349738D01*
X1738787Y348135D01*
X1741219Y347127D01*
X1743830Y346784D01*
X1758830D01*
X1761440Y347127D01*
X1763873Y348135D01*
X1765962Y349738D01*
X1767565Y351827D01*
X1768573Y354259D01*
X1768916Y356870D01*
X1768573Y359481D01*
X1767565Y361913D01*
X1765962Y364002D01*
X1763873Y365605D01*
X1761440Y366613D01*
X1758830Y366956D01*
D02*
G37*
G36*
X1524730Y334146D02*
Y323310D01*
X1534263D01*
X1533934Y325812D01*
X1532775Y328610D01*
X1530932Y331012D01*
X1528530Y332855D01*
X1525732Y334014D01*
X1524730Y334146D01*
D02*
G37*
G36*
X1758830Y341556D02*
X1743830D01*
X1741219Y341213D01*
X1738787Y340205D01*
X1736698Y338602D01*
X1735095Y336513D01*
X1734087Y334081D01*
X1733744Y331470D01*
X1734087Y328859D01*
X1735095Y326427D01*
X1736698Y324338D01*
X1738787Y322735D01*
X1741219Y321727D01*
X1743830Y321384D01*
X1758830D01*
X1761440Y321727D01*
X1763873Y322735D01*
X1765962Y324338D01*
X1767565Y326427D01*
X1768573Y328859D01*
X1768916Y331470D01*
X1768573Y334081D01*
X1767565Y336513D01*
X1765962Y338602D01*
X1763873Y340205D01*
X1761440Y341213D01*
X1758830Y341556D01*
D02*
G37*
G36*
Y316156D02*
X1743830D01*
X1741219Y315813D01*
X1738787Y314805D01*
X1736698Y313202D01*
X1735095Y311113D01*
X1734087Y308680D01*
X1733744Y306070D01*
X1734087Y303459D01*
X1735095Y301027D01*
X1736698Y298938D01*
X1738787Y297335D01*
X1741219Y296327D01*
X1743830Y295984D01*
X1758830D01*
X1761440Y296327D01*
X1763873Y297335D01*
X1765962Y298938D01*
X1767565Y301027D01*
X1768573Y303459D01*
X1768916Y306070D01*
X1768573Y308680D01*
X1767565Y311113D01*
X1765962Y313202D01*
X1763873Y314805D01*
X1761440Y315813D01*
X1758830Y316156D01*
D02*
G37*
G36*
X1600802Y299672D02*
X1597059D01*
X1593387Y298942D01*
X1589929Y297509D01*
X1586817Y295430D01*
X1584170Y292783D01*
X1582091Y289671D01*
X1580658Y286213D01*
X1579928Y282542D01*
Y278799D01*
X1580658Y275127D01*
X1582091Y271669D01*
X1584170Y268557D01*
X1586817Y265910D01*
X1589929Y263831D01*
X1593387Y262398D01*
X1597059Y261668D01*
X1600802D01*
X1604473Y262398D01*
X1607931Y263831D01*
X1611043Y265910D01*
X1613690Y268557D01*
X1615769Y271669D01*
X1617202Y275127D01*
X1617932Y278799D01*
Y282542D01*
X1617202Y286213D01*
X1615769Y289671D01*
X1613690Y292783D01*
X1611043Y295430D01*
X1607931Y297509D01*
X1604473Y298942D01*
X1600802Y299672D01*
D02*
G37*
%LPD*%
D20*
X1581150Y894130D02*
D03*
Y915130D02*
D03*
X1610360Y894130D02*
D03*
Y915130D02*
D03*
D66*
X1583690Y575264D02*
Y753110D01*
X1597660Y767080D02*
X1768721D01*
X1583690Y753110D02*
X1597660Y767080D01*
X1474209Y564500D02*
X1582825D01*
X1469390Y559681D02*
X1474209Y564500D01*
X1582825D02*
X1593096Y574771D01*
X1469390Y399169D02*
Y559681D01*
X1479550Y554600D02*
X1530511D01*
X1531391Y553720D01*
X1768721Y729623D02*
X1771650Y732552D01*
X1768721Y767080D02*
X1771650Y764151D01*
X1753243Y729623D02*
X1768721D01*
X1771650Y732552D02*
Y764151D01*
X1531391Y553720D02*
X1587500D01*
X1602740Y568960D02*
Y737870D01*
X1587500Y553720D02*
X1602740Y568960D01*
X1591310Y546100D02*
X1612900Y567690D01*
X1511689Y546100D02*
X1591310D01*
X1612900Y567690D02*
Y689221D01*
X1620520Y562610D02*
Y680331D01*
X1595120Y537210D02*
X1620520Y562610D01*
X1524389Y537210D02*
X1595120D01*
X1521460Y492191D02*
Y534281D01*
X1513713Y484444D02*
X1521460Y492191D01*
X1510030Y483870D02*
X1510604Y484444D01*
X1513713D01*
X1521460Y534281D02*
X1524389Y537210D01*
X1423670Y383517D02*
X1425560Y385407D01*
Y386440D02*
X1433470Y394350D01*
X1464571D01*
X1469390Y399169D01*
X1425560Y385407D02*
Y386440D01*
X1416050Y392430D02*
X1427869Y404249D01*
X1457571D02*
X1460500Y407178D01*
X1427869Y404249D02*
X1457571D01*
X1460500Y407178D02*
Y566420D01*
X1416050Y334399D02*
Y392430D01*
X1707269Y600710D02*
X1751330D01*
X1704340Y597781D02*
X1707269Y600710D01*
X1704340Y355989D02*
Y597781D01*
X1701411Y353060D02*
X1704340Y355989D01*
X1500259Y353060D02*
X1701411D01*
X1497330Y350131D02*
X1500259Y353060D01*
X1497330Y321310D02*
Y350131D01*
Y293370D02*
Y295910D01*
X1689100Y651510D02*
X1751330D01*
X1677670Y640080D02*
X1689100Y651510D01*
X1677670Y390279D02*
Y640080D01*
X1674741Y387350D02*
X1677670Y390279D01*
X1436370Y387350D02*
X1674741D01*
X1432560Y383540D02*
X1436370Y387350D01*
X1432560Y278130D02*
Y383540D01*
Y278130D02*
X1440180Y270510D01*
X1494401D01*
X1497330Y273439D01*
Y293370D01*
X1450729D02*
X1469390D01*
X1471930Y295910D01*
X1695450Y626110D02*
X1751330D01*
X1690370Y621030D02*
X1695450Y626110D01*
X1690370Y372499D02*
Y621030D01*
X1687441Y369570D02*
X1690370Y372499D01*
X1450729Y369570D02*
X1687441D01*
X1447800Y366641D02*
X1450729Y369570D01*
X1447800Y296299D02*
Y366641D01*
Y296299D02*
X1450729Y293370D01*
X1553140Y919480D02*
X1639640D01*
X1581150Y923130D02*
X1610360D01*
X1639640Y877780D02*
Y919480D01*
X1685230Y683260D02*
X1694274Y692304D01*
X1623449Y683260D02*
X1685230D01*
X1620520Y680331D02*
X1623449Y683260D01*
X1326938Y349250D02*
X1397000D01*
X1465580Y571500D02*
X1579926D01*
X1583690Y575264D01*
X1460500Y566420D02*
X1465580Y571500D01*
X1290320Y741680D02*
X1534160D01*
X1321859Y344170D02*
X1326938Y349250D01*
X1251339Y344170D02*
X1321859D01*
X1268730Y331470D02*
X1413121D01*
X1416050Y334399D01*
X1423670Y308999D02*
Y383517D01*
X1268730Y306070D02*
X1420741D01*
X1423670Y308999D01*
X1268341Y585081D02*
X1268730Y585470D01*
X1592580Y748053D02*
X1597637Y753110D01*
X1592580Y575287D02*
Y748053D01*
X1606550Y741680D02*
X1723001D01*
X1602740Y737870D02*
X1606550Y741680D01*
X1723001D02*
X1725930Y738751D01*
Y706509D02*
Y738751D01*
Y706509D02*
X1728859Y703580D01*
X1750060D01*
X1751330Y702310D01*
X1597637Y753110D02*
X1751330D01*
Y727710D02*
X1753243Y729623D01*
X1508760Y508419D02*
X1509068Y508112D01*
X1508760Y508419D02*
Y543171D01*
X1511689Y546100D01*
X1612900Y689221D02*
X1615829Y692150D01*
X1638300D01*
X1553140Y877780D02*
Y919480D01*
X1581150Y923130D02*
X1581150Y923130D01*
D68*
X1601470Y845157D02*
X1610360Y854047D01*
Y894130D01*
X1581150Y894130D02*
X1582470Y892810D01*
X1596390D01*
X1259721Y779661D02*
X1292382Y779914D01*
X1294130Y781661D02*
Y791210D01*
X1292382Y779914D02*
X1294130Y781661D01*
X1254760Y774700D02*
X1259721Y779661D01*
X1256517Y676910D02*
X1286023D01*
X1287780Y675153D01*
X1269908Y561248D02*
X1286023D01*
X1287780Y563005D01*
X1268730Y560070D02*
X1269908Y561248D01*
X1287780Y563005D02*
Y675153D01*
X1254760Y678667D02*
Y774700D01*
X1248010Y816854D02*
X1248207Y585081D01*
X1248010Y816854D02*
Y818083D01*
X1248957Y819030D02*
X1249109Y819164D01*
X1248010Y818083D02*
X1248957Y819030D01*
X1248623Y346886D02*
X1251339Y344170D01*
X1248207Y585081D02*
X1248410Y347098D01*
X1248507Y585081D02*
X1268341D01*
X1254760Y678667D02*
X1256517Y676910D01*
D69*
X1268730Y801370D02*
D03*
X1751330Y788670D02*
D03*
X1319530Y280670D02*
D03*
X1598930D02*
D03*
D70*
X1268730Y661670D02*
D03*
Y636270D02*
D03*
Y610870D02*
D03*
Y585470D02*
D03*
Y560070D02*
D03*
Y534670D02*
D03*
Y509270D02*
D03*
Y483870D02*
D03*
Y433070D02*
D03*
Y407670D02*
D03*
Y382270D02*
D03*
Y356870D02*
D03*
Y331470D02*
D03*
Y306070D02*
D03*
X1751330Y524510D02*
D03*
Y549910D02*
D03*
Y575310D02*
D03*
Y600710D02*
D03*
Y626110D02*
D03*
Y651510D02*
D03*
Y676910D02*
D03*
Y702310D02*
D03*
Y727710D02*
D03*
Y753110D02*
D03*
Y306070D02*
D03*
Y331470D02*
D03*
Y356870D02*
D03*
Y382270D02*
D03*
Y407670D02*
D03*
Y433070D02*
D03*
Y458470D02*
D03*
Y483870D02*
D03*
D71*
X1337300Y865710D02*
D03*
D72*
X1384300Y896710D02*
D03*
Y836710D02*
D03*
D73*
X1503680Y684530D02*
D03*
Y633730D02*
D03*
D74*
Y659130D02*
D03*
D75*
X1553140Y919480D02*
D03*
X1639640D02*
D03*
D76*
X1553140Y877780D02*
D03*
X1639640D02*
D03*
D77*
X1567490Y882680D02*
D03*
X1625290D02*
D03*
D78*
X1522730Y321310D02*
D03*
X1522730Y295910D02*
D03*
X1497330Y321310D02*
D03*
X1471930Y295910D02*
D03*
X1497330D02*
D03*
X1471930Y321310D02*
D03*
D79*
X1760001Y920001D02*
D03*
Y900001D02*
D03*
Y880001D02*
D03*
Y860001D02*
D03*
Y840001D02*
D03*
Y820000D02*
D03*
Y500000D02*
D03*
Y280000D02*
D03*
X1740001Y920001D02*
D03*
Y900001D02*
D03*
Y880001D02*
D03*
Y860001D02*
D03*
Y840001D02*
D03*
Y820000D02*
D03*
Y500000D02*
D03*
Y280000D02*
D03*
X1720001Y920001D02*
D03*
Y900001D02*
D03*
Y880001D02*
D03*
Y860001D02*
D03*
Y840001D02*
D03*
Y820000D02*
D03*
Y800000D02*
D03*
Y780000D02*
D03*
Y640000D02*
D03*
Y560000D02*
D03*
Y540000D02*
D03*
Y500000D02*
D03*
Y420000D02*
D03*
Y280000D02*
D03*
X1700001Y860001D02*
D03*
Y840001D02*
D03*
Y280000D02*
D03*
X1680001Y920001D02*
D03*
Y900001D02*
D03*
Y860001D02*
D03*
Y840001D02*
D03*
Y800000D02*
D03*
Y780000D02*
D03*
Y280000D02*
D03*
X1660001Y920001D02*
D03*
Y420000D02*
D03*
Y400000D02*
D03*
Y280000D02*
D03*
X1640001Y900001D02*
D03*
Y860001D02*
D03*
Y800000D02*
D03*
Y600000D02*
D03*
Y440000D02*
D03*
Y420000D02*
D03*
Y400000D02*
D03*
Y280000D02*
D03*
X1620001Y440000D02*
D03*
Y400000D02*
D03*
X1580001Y420000D02*
D03*
X1560001Y440000D02*
D03*
Y280000D02*
D03*
X1540001Y920001D02*
D03*
Y880001D02*
D03*
Y860001D02*
D03*
Y300000D02*
D03*
Y280000D02*
D03*
X1520001Y920001D02*
D03*
X1500001D02*
D03*
X1480001Y880001D02*
D03*
Y780000D02*
D03*
Y400000D02*
D03*
X1460001Y880001D02*
D03*
Y860001D02*
D03*
Y780000D02*
D03*
X1440001Y880001D02*
D03*
Y860001D02*
D03*
Y780000D02*
D03*
Y640000D02*
D03*
X1420001Y900001D02*
D03*
Y880001D02*
D03*
Y860001D02*
D03*
Y780000D02*
D03*
X1400001Y860001D02*
D03*
X1380001D02*
D03*
Y720000D02*
D03*
Y600000D02*
D03*
X1360001Y880001D02*
D03*
Y860001D02*
D03*
Y720000D02*
D03*
X1340001Y920001D02*
D03*
Y900001D02*
D03*
Y780000D02*
D03*
X1320001Y920001D02*
D03*
Y900001D02*
D03*
Y780000D02*
D03*
Y680000D02*
D03*
Y660000D02*
D03*
Y540000D02*
D03*
Y520000D02*
D03*
X1300001Y760000D02*
D03*
Y680000D02*
D03*
Y660000D02*
D03*
Y540000D02*
D03*
Y520000D02*
D03*
Y500000D02*
D03*
X1280001Y760000D02*
D03*
X1601470Y845157D02*
D03*
X1596390Y892810D02*
D03*
X1479550Y554600D02*
D03*
X1249330Y819150D02*
D03*
X1694274Y692304D02*
D03*
X1510030Y483870D02*
D03*
X1397000Y349250D02*
D03*
X1294130Y791210D02*
D03*
X1290320Y741680D02*
D03*
X1509068Y508112D02*
D03*
X1638300Y692150D02*
D03*
X1534160Y741680D02*
D03*
D80*
X1531620Y473710D02*
D03*
Y482600D02*
D03*
Y491490D02*
D03*
Y500380D02*
D03*
Y509270D02*
D03*
D81*
X1539240Y596900D02*
D03*
X1525905D02*
D03*
X1512570D02*
D03*
X1499235D02*
D03*
X1485900D02*
D03*
X1300480Y603250D02*
D03*
Y629920D02*
D03*
Y642620D02*
D03*
X1322070D02*
D03*
X1485900Y609600D02*
D03*
X1480820Y626110D02*
D03*
X1499235Y609600D02*
D03*
X1512570D02*
D03*
X1525905D02*
D03*
X1539240D02*
D03*
X1440180Y929640D02*
D03*
Y911543D02*
D03*
Y893445D02*
D03*
X1419860Y929640D02*
D03*
X1377315Y911543D02*
D03*
X1457960Y893445D02*
D03*
X1356360Y911543D02*
D03*
X1399540D02*
D03*
X1457960D02*
D03*
X1356360Y929640D02*
D03*
X1377315D02*
D03*
X1399540D02*
D03*
X1457960D02*
D03*
X1478280D02*
D03*
Y911543D02*
D03*
Y893445D02*
D03*
Y867728D02*
D03*
Y847090D02*
D03*
X1539240D02*
D03*
X1551940D02*
D03*
X1564640D02*
D03*
X1577340D02*
D03*
X1315720Y706120D02*
D03*
Y690880D02*
D03*
X1298787D02*
D03*
Y706120D02*
D03*
Y721360D02*
D03*
X1281853D02*
D03*
Y706120D02*
D03*
Y690880D02*
D03*
X1264920D02*
D03*
Y706120D02*
D03*
Y721360D02*
D03*
X1342390Y557530D02*
D03*
Y546100D02*
D03*
X1366520D02*
D03*
X1355090Y557530D02*
D03*
Y546100D02*
D03*
X1366520Y557530D02*
D03*
X1358900Y810260D02*
D03*
X1423670D02*
D03*
Y797103D02*
D03*
X1402080Y810260D02*
D03*
X1380490D02*
D03*
D82*
X1443990Y713740D02*
D03*
X1461135D02*
D03*
X1478280D02*
D03*
X1443990Y697865D02*
D03*
X1461135D02*
D03*
X1478280D02*
D03*
Y681990D02*
D03*
X1461135D02*
D03*
X1443990D02*
D03*
M02*
