G04*
G04 #@! TF.GenerationSoftware,Altium Limited,Altium Designer,24.2.2 (26)*
G04*
G04 Layer_Color=32896*
%FSLAX44Y44*%
%MOMM*%
G71*
G04*
G04 #@! TF.SameCoordinates,1D217020-7D60-43C6-8249-C75354DF8CDE*
G04*
G04*
G04 #@! TF.FilePolarity,Positive*
G04*
G01*
G75*
%ADD10C,0.2000*%
G36*
X237490Y198069D02*
Y176530D01*
Y156210D01*
X46583D01*
Y177005D01*
X99060D01*
Y198069D01*
Y216660D01*
X237490D01*
Y198069D01*
D02*
G37*
%LPC*%
G36*
X135366Y214429D02*
X134787D01*
X134533Y214405D01*
X134232Y214359D01*
X133862Y214290D01*
X133445Y214174D01*
X133029Y214035D01*
X132612Y213850D01*
X132589D01*
X132566Y213827D01*
X132427Y213757D01*
X132219Y213619D01*
X131987Y213457D01*
X131710Y213225D01*
X131432Y212971D01*
X131154Y212670D01*
X130923Y212323D01*
X130900Y212276D01*
X130830Y212161D01*
X130738Y211952D01*
X130622Y211698D01*
X130506Y211397D01*
X130414Y211050D01*
X130345Y210657D01*
X130321Y210263D01*
Y210217D01*
Y210078D01*
X130345Y209893D01*
X130391Y209639D01*
X130460Y209338D01*
X130576Y209014D01*
X130715Y208690D01*
X130900Y208366D01*
X130923Y208320D01*
X130992Y208227D01*
X131131Y208065D01*
X131316Y207880D01*
X131548Y207672D01*
X131826Y207440D01*
X132149Y207232D01*
X132543Y207024D01*
X132520D01*
X132473Y207001D01*
X132404Y206978D01*
X132311Y206954D01*
X132057Y206862D01*
X131733Y206723D01*
X131363Y206538D01*
X130992Y206306D01*
X130645Y206006D01*
X130321Y205659D01*
X130298Y205612D01*
X130206Y205473D01*
X130067Y205242D01*
X129928Y204941D01*
X129789Y204571D01*
X129650Y204131D01*
X129558Y203622D01*
X129535Y203067D01*
Y202859D01*
X129558Y202720D01*
X129581Y202535D01*
X129627Y202327D01*
X129674Y202095D01*
X129720Y201841D01*
X129905Y201285D01*
X130044Y200984D01*
X130183Y200707D01*
X130368Y200406D01*
X130576Y200105D01*
X130807Y199804D01*
X131085Y199527D01*
X131108Y199503D01*
X131154Y199457D01*
X131247Y199388D01*
X131363Y199295D01*
X131502Y199180D01*
X131687Y199064D01*
X131895Y198925D01*
X132149Y198809D01*
X132404Y198671D01*
X132705Y198532D01*
X133006Y198416D01*
X133353Y198300D01*
X133723Y198208D01*
X134116Y198138D01*
X134510Y198092D01*
X134949Y198069D01*
X135158D01*
X135296Y198092D01*
X135482Y198115D01*
X135690Y198138D01*
X135921Y198185D01*
X136176Y198231D01*
X136731Y198370D01*
X137310Y198601D01*
X137610Y198740D01*
X137888Y198902D01*
X138166Y199110D01*
X138443Y199318D01*
X138467Y199342D01*
X138513Y199388D01*
X138582Y199457D01*
X138652Y199550D01*
X138767Y199666D01*
X138883Y199827D01*
X139022Y199989D01*
X139161Y200198D01*
X139299Y200429D01*
X139438Y200660D01*
X139693Y201216D01*
X139901Y201864D01*
X139971Y202211D01*
X140017Y202581D01*
X138050Y202836D01*
Y202812D01*
X138027Y202766D01*
X138004Y202674D01*
X137981Y202558D01*
X137957Y202419D01*
X137911Y202257D01*
X137795Y201910D01*
X137633Y201493D01*
X137425Y201100D01*
X137194Y200730D01*
X136916Y200406D01*
X136870Y200383D01*
X136777Y200290D01*
X136592Y200175D01*
X136361Y200059D01*
X136083Y199920D01*
X135736Y199804D01*
X135343Y199712D01*
X134926Y199689D01*
X134787D01*
X134695Y199712D01*
X134440Y199735D01*
X134116Y199804D01*
X133746Y199920D01*
X133353Y200082D01*
X132959Y200313D01*
X132589Y200637D01*
X132543Y200684D01*
X132427Y200823D01*
X132288Y201031D01*
X132103Y201308D01*
X131918Y201656D01*
X131779Y202049D01*
X131664Y202512D01*
X131617Y203021D01*
Y203044D01*
Y203090D01*
Y203160D01*
X131640Y203252D01*
X131664Y203507D01*
X131733Y203808D01*
X131826Y204178D01*
X131987Y204548D01*
X132219Y204918D01*
X132520Y205265D01*
X132566Y205312D01*
X132682Y205404D01*
X132867Y205543D01*
X133121Y205705D01*
X133445Y205867D01*
X133839Y206006D01*
X134278Y206098D01*
X134764Y206145D01*
X134972D01*
X135134Y206121D01*
X135343Y206098D01*
X135574Y206052D01*
X135852Y206006D01*
X136153Y205936D01*
X135921Y207672D01*
X135806D01*
X135713Y207649D01*
X135412D01*
X135158Y207695D01*
X134857Y207741D01*
X134510Y207811D01*
X134116Y207926D01*
X133746Y208088D01*
X133353Y208297D01*
X133330D01*
X133306Y208320D01*
X133191Y208412D01*
X133029Y208574D01*
X132844Y208782D01*
X132659Y209083D01*
X132497Y209430D01*
X132381Y209824D01*
X132335Y210055D01*
Y210310D01*
Y210333D01*
Y210356D01*
Y210495D01*
X132381Y210680D01*
X132427Y210934D01*
X132520Y211212D01*
X132635Y211513D01*
X132821Y211814D01*
X133075Y212091D01*
X133098Y212115D01*
X133214Y212207D01*
X133376Y212323D01*
X133584Y212462D01*
X133862Y212577D01*
X134186Y212693D01*
X134556Y212786D01*
X134972Y212809D01*
X135158D01*
X135366Y212762D01*
X135644Y212716D01*
X135944Y212624D01*
X136245Y212508D01*
X136569Y212323D01*
X136870Y212091D01*
X136893Y212068D01*
X136986Y211952D01*
X137124Y211791D01*
X137286Y211559D01*
X137448Y211258D01*
X137610Y210888D01*
X137749Y210448D01*
X137842Y209939D01*
X139809Y210287D01*
Y210310D01*
X139785Y210379D01*
X139762Y210472D01*
X139739Y210611D01*
X139693Y210772D01*
X139623Y210958D01*
X139485Y211397D01*
X139253Y211906D01*
X138976Y212415D01*
X138629Y212901D01*
X138189Y213341D01*
X138166Y213364D01*
X138119Y213387D01*
X138050Y213433D01*
X137957Y213503D01*
X137842Y213595D01*
X137680Y213688D01*
X137518Y213780D01*
X137310Y213896D01*
X136847Y214081D01*
X136314Y214266D01*
X135690Y214382D01*
X135366Y214429D01*
D02*
G37*
G36*
X122292D02*
X122061D01*
X121899Y214405D01*
X121714Y214382D01*
X121482Y214359D01*
X121228Y214313D01*
X120973Y214266D01*
X120372Y214104D01*
X119770Y213873D01*
X119469Y213734D01*
X119168Y213572D01*
X118891Y213364D01*
X118636Y213133D01*
X118613Y213109D01*
X118567Y213086D01*
X118520Y212994D01*
X118428Y212901D01*
X118312Y212786D01*
X118196Y212624D01*
X118081Y212462D01*
X117942Y212253D01*
X117711Y211814D01*
X117479Y211258D01*
X117387Y210981D01*
X117340Y210657D01*
X117294Y210333D01*
X117271Y209986D01*
Y209939D01*
Y209824D01*
X117294Y209639D01*
X117317Y209384D01*
X117363Y209106D01*
X117456Y208782D01*
X117549Y208435D01*
X117687Y208088D01*
X117711Y208042D01*
X117757Y207926D01*
X117849Y207741D01*
X117988Y207487D01*
X118173Y207209D01*
X118405Y206862D01*
X118682Y206515D01*
X119006Y206121D01*
X119052Y206075D01*
X119168Y205936D01*
X119284Y205821D01*
X119400Y205705D01*
X119538Y205566D01*
X119724Y205381D01*
X119909Y205196D01*
X120140Y204988D01*
X120372Y204756D01*
X120649Y204502D01*
X120950Y204247D01*
X121274Y203946D01*
X121644Y203645D01*
X122014Y203321D01*
X122037Y203298D01*
X122084Y203252D01*
X122176Y203183D01*
X122292Y203090D01*
X122431Y202951D01*
X122593Y202812D01*
X122963Y202512D01*
X123357Y202165D01*
X123727Y201817D01*
X124051Y201517D01*
X124190Y201401D01*
X124305Y201285D01*
X124328Y201262D01*
X124398Y201193D01*
X124490Y201100D01*
X124606Y200961D01*
X124722Y200799D01*
X124860Y200637D01*
X125138Y200244D01*
X117248D01*
Y198347D01*
X127869D01*
Y198601D01*
X127845Y198786D01*
X127822Y198995D01*
X127776Y199226D01*
X127730Y199457D01*
X127637Y199712D01*
Y199735D01*
X127614Y199758D01*
X127568Y199897D01*
X127475Y200105D01*
X127336Y200383D01*
X127151Y200707D01*
X126920Y201077D01*
X126665Y201447D01*
X126341Y201841D01*
Y201864D01*
X126295Y201887D01*
X126180Y202026D01*
X125971Y202234D01*
X125670Y202535D01*
X125323Y202882D01*
X124884Y203298D01*
X124352Y203761D01*
X123773Y204247D01*
X123750Y204270D01*
X123657Y204340D01*
X123518Y204455D01*
X123357Y204594D01*
X123148Y204779D01*
X122894Y204988D01*
X122639Y205219D01*
X122338Y205473D01*
X121760Y206029D01*
X121181Y206584D01*
X120904Y206862D01*
X120649Y207139D01*
X120418Y207394D01*
X120233Y207649D01*
Y207672D01*
X120186Y207695D01*
X120140Y207764D01*
X120094Y207857D01*
X119932Y208111D01*
X119747Y208412D01*
X119585Y208782D01*
X119423Y209176D01*
X119330Y209615D01*
X119284Y210032D01*
Y210055D01*
Y210078D01*
X119307Y210217D01*
X119330Y210448D01*
X119400Y210703D01*
X119492Y211027D01*
X119654Y211351D01*
X119862Y211675D01*
X120140Y211999D01*
X120186Y212045D01*
X120302Y212138D01*
X120464Y212253D01*
X120719Y212415D01*
X121042Y212554D01*
X121413Y212693D01*
X121852Y212786D01*
X122338Y212809D01*
X122477D01*
X122570Y212786D01*
X122847Y212762D01*
X123171Y212693D01*
X123518Y212600D01*
X123912Y212439D01*
X124282Y212230D01*
X124629Y211952D01*
X124675Y211906D01*
X124768Y211791D01*
X124907Y211605D01*
X125046Y211328D01*
X125208Y211004D01*
X125346Y210587D01*
X125439Y210124D01*
X125485Y209592D01*
X127498Y209801D01*
Y209824D01*
X127475Y209893D01*
Y210009D01*
X127452Y210171D01*
X127406Y210356D01*
X127360Y210564D01*
X127290Y210819D01*
X127221Y211073D01*
X127036Y211629D01*
X126758Y212184D01*
X126596Y212462D01*
X126388Y212739D01*
X126180Y212994D01*
X125948Y213225D01*
X125925Y213248D01*
X125879Y213272D01*
X125809Y213341D01*
X125694Y213410D01*
X125555Y213503D01*
X125393Y213595D01*
X125208Y213711D01*
X124976Y213827D01*
X124722Y213943D01*
X124444Y214058D01*
X124143Y214151D01*
X123819Y214243D01*
X123472Y214313D01*
X123102Y214382D01*
X122709Y214405D01*
X122292Y214429D01*
D02*
G37*
G36*
X205201Y214359D02*
X202030D01*
X198236Y202998D01*
Y202974D01*
X198212Y202928D01*
X198189Y202859D01*
X198143Y202743D01*
X198050Y202465D01*
X197935Y202118D01*
X197819Y201725D01*
X197680Y201332D01*
X197565Y200961D01*
X197472Y200637D01*
X197449Y200684D01*
X197426Y200799D01*
X197356Y201008D01*
X197264Y201285D01*
X197148Y201656D01*
X196986Y202095D01*
X196824Y202604D01*
X196616Y203206D01*
X192775Y214359D01*
X189928D01*
Y198347D01*
X191965D01*
Y211744D01*
X196639Y198347D01*
X198536D01*
X203164Y211976D01*
Y198347D01*
X205201D01*
Y214359D01*
D02*
G37*
G36*
X164545Y214637D02*
X163804D01*
X163665Y214614D01*
X163480D01*
X163041Y214567D01*
X162555Y214498D01*
X162045Y214382D01*
X161490Y214243D01*
X160958Y214058D01*
X160935D01*
X160889Y214035D01*
X160819Y214012D01*
X160727Y213966D01*
X160472Y213827D01*
X160148Y213665D01*
X159801Y213433D01*
X159431Y213156D01*
X159084Y212855D01*
X158760Y212485D01*
X158714Y212439D01*
X158621Y212300D01*
X158482Y212091D01*
X158297Y211791D01*
X158112Y211420D01*
X157904Y210958D01*
X157695Y210448D01*
X157533Y209870D01*
X159454Y209361D01*
Y209384D01*
X159477Y209407D01*
X159500Y209477D01*
X159523Y209569D01*
X159593Y209777D01*
X159685Y210055D01*
X159824Y210379D01*
X159986Y210680D01*
X160148Y211004D01*
X160356Y211282D01*
X160380Y211305D01*
X160449Y211397D01*
X160588Y211513D01*
X160750Y211675D01*
X160958Y211860D01*
X161236Y212045D01*
X161537Y212230D01*
X161884Y212392D01*
X161930Y212415D01*
X162045Y212462D01*
X162254Y212531D01*
X162532Y212624D01*
X162855Y212693D01*
X163226Y212762D01*
X163642Y212809D01*
X164082Y212832D01*
X164336D01*
X164452Y212809D01*
X164591D01*
X164938Y212786D01*
X165331Y212716D01*
X165771Y212647D01*
X166187Y212531D01*
X166604Y212369D01*
X166650Y212346D01*
X166789Y212300D01*
X166974Y212184D01*
X167206Y212068D01*
X167483Y211883D01*
X167784Y211698D01*
X168062Y211467D01*
X168316Y211212D01*
X168340Y211189D01*
X168432Y211096D01*
X168548Y210934D01*
X168687Y210749D01*
X168848Y210518D01*
X169011Y210240D01*
X169172Y209939D01*
X169335Y209615D01*
Y209592D01*
X169358Y209546D01*
X169381Y209477D01*
X169427Y209361D01*
X169473Y209222D01*
X169520Y209060D01*
X169589Y208875D01*
X169635Y208667D01*
X169751Y208181D01*
X169844Y207626D01*
X169913Y207047D01*
X169936Y206399D01*
Y206376D01*
Y206306D01*
Y206191D01*
X169913Y206052D01*
Y205867D01*
X169890Y205636D01*
X169867Y205404D01*
X169844Y205150D01*
X169751Y204571D01*
X169635Y203969D01*
X169450Y203368D01*
X169219Y202789D01*
Y202766D01*
X169172Y202720D01*
X169149Y202651D01*
X169080Y202558D01*
X168918Y202303D01*
X168663Y201980D01*
X168363Y201632D01*
X167992Y201285D01*
X167553Y200961D01*
X167067Y200660D01*
X167044D01*
X166997Y200637D01*
X166928Y200591D01*
X166812Y200545D01*
X166697Y200499D01*
X166535Y200452D01*
X166164Y200313D01*
X165702Y200198D01*
X165193Y200082D01*
X164637Y199989D01*
X164059Y199966D01*
X163827D01*
X163688Y199989D01*
X163550D01*
X163202Y200036D01*
X162786Y200082D01*
X162346Y200175D01*
X161860Y200313D01*
X161374Y200475D01*
X161351D01*
X161305Y200499D01*
X161259Y200522D01*
X161166Y200568D01*
X160912Y200684D01*
X160634Y200823D01*
X160310Y200984D01*
X159963Y201170D01*
X159639Y201378D01*
X159361Y201609D01*
Y204617D01*
X164082D01*
Y206515D01*
X157279D01*
Y200568D01*
X157302Y200545D01*
X157348Y200522D01*
X157441Y200452D01*
X157556Y200360D01*
X157695Y200267D01*
X157857Y200151D01*
X158066Y200013D01*
X158274Y199874D01*
X158760Y199573D01*
X159315Y199249D01*
X159894Y198948D01*
X160518Y198694D01*
X160541D01*
X160588Y198671D01*
X160680Y198647D01*
X160796Y198601D01*
X160958Y198555D01*
X161143Y198485D01*
X161351Y198439D01*
X161560Y198393D01*
X162069Y198277D01*
X162647Y198162D01*
X163272Y198092D01*
X163920Y198069D01*
X164151D01*
X164313Y198092D01*
X164522D01*
X164776Y198115D01*
X165054Y198162D01*
X165354Y198185D01*
X166026Y198323D01*
X166743Y198485D01*
X167483Y198740D01*
X167854Y198879D01*
X168224Y199064D01*
X168247Y199087D01*
X168316Y199110D01*
X168409Y199180D01*
X168548Y199249D01*
X168710Y199365D01*
X168872Y199480D01*
X169311Y199804D01*
X169774Y200221D01*
X170260Y200730D01*
X170723Y201308D01*
X171139Y201980D01*
Y202003D01*
X171186Y202072D01*
X171232Y202165D01*
X171301Y202327D01*
X171371Y202488D01*
X171440Y202720D01*
X171533Y202951D01*
X171625Y203229D01*
X171718Y203530D01*
X171810Y203877D01*
X171880Y204224D01*
X171949Y204594D01*
X172065Y205404D01*
X172111Y206260D01*
Y206492D01*
X172088Y206654D01*
Y206862D01*
X172065Y207116D01*
X172019Y207371D01*
X171996Y207672D01*
X171926Y207996D01*
X171880Y208343D01*
X171695Y209083D01*
X171463Y209847D01*
X171139Y210611D01*
X171116Y210634D01*
X171093Y210703D01*
X171047Y210796D01*
X170954Y210934D01*
X170862Y211119D01*
X170746Y211305D01*
X170422Y211744D01*
X170029Y212253D01*
X169543Y212739D01*
X168987Y213225D01*
X168663Y213433D01*
X168340Y213642D01*
X168316Y213665D01*
X168247Y213688D01*
X168154Y213734D01*
X168015Y213804D01*
X167830Y213873D01*
X167622Y213966D01*
X167391Y214058D01*
X167113Y214151D01*
X166812Y214243D01*
X166488Y214313D01*
X166141Y214405D01*
X165771Y214475D01*
X164961Y214590D01*
X164545Y214637D01*
D02*
G37*
G36*
X229381Y214359D02*
X227067D01*
X220519Y198347D01*
X222925D01*
X224800Y203206D01*
X231510D01*
X233246Y198347D01*
X235490D01*
X229381Y214359D01*
D02*
G37*
G36*
X220010D02*
X207329D01*
Y212462D01*
X212605D01*
Y198347D01*
X214734D01*
Y212462D01*
X220010D01*
Y214359D01*
D02*
G37*
G36*
X186458D02*
X174865D01*
Y212462D01*
X184329D01*
Y207579D01*
X175466D01*
Y205682D01*
X184329D01*
Y200244D01*
X174494D01*
Y198347D01*
X186458D01*
Y214359D01*
D02*
G37*
G36*
X149805D02*
X147491D01*
X140942Y198347D01*
X143349D01*
X145223Y203206D01*
X151934D01*
X153669Y198347D01*
X155914D01*
X149805Y214359D01*
D02*
G37*
G36*
X109936Y214429D02*
X109727D01*
X109588Y214405D01*
X109403Y214382D01*
X109195Y214359D01*
X108964Y214336D01*
X108732Y214266D01*
X108177Y214128D01*
X107622Y213919D01*
X107344Y213780D01*
X107066Y213619D01*
X106812Y213410D01*
X106557Y213202D01*
X106534Y213179D01*
X106511Y213156D01*
X106442Y213086D01*
X106349Y212994D01*
X106257Y212855D01*
X106141Y212716D01*
X105909Y212369D01*
X105678Y211929D01*
X105470Y211420D01*
X105308Y210842D01*
X105285Y210541D01*
X105261Y210217D01*
Y210194D01*
Y210171D01*
Y210032D01*
X105285Y209824D01*
X105331Y209569D01*
X105400Y209245D01*
X105516Y208921D01*
X105655Y208597D01*
X105863Y208273D01*
X105886Y208227D01*
X105979Y208134D01*
X106118Y207996D01*
X106303Y207811D01*
X106557Y207602D01*
X106858Y207394D01*
X107205Y207186D01*
X107622Y207001D01*
X107598D01*
X107552Y206978D01*
X107483Y206954D01*
X107390Y206908D01*
X107113Y206792D01*
X106789Y206630D01*
X106442Y206399D01*
X106071Y206145D01*
X105724Y205821D01*
X105400Y205450D01*
Y205427D01*
X105377Y205404D01*
X105285Y205265D01*
X105146Y205034D01*
X105007Y204733D01*
X104868Y204363D01*
X104729Y203923D01*
X104637Y203437D01*
X104614Y202905D01*
Y202697D01*
X104637Y202558D01*
X104660Y202396D01*
X104683Y202188D01*
X104729Y201956D01*
X104799Y201702D01*
X104961Y201170D01*
X105076Y200869D01*
X105238Y200591D01*
X105400Y200290D01*
X105585Y200013D01*
X105817Y199735D01*
X106071Y199457D01*
X106095Y199434D01*
X106141Y199388D01*
X106210Y199318D01*
X106326Y199249D01*
X106488Y199133D01*
X106650Y199018D01*
X106858Y198902D01*
X107090Y198763D01*
X107344Y198624D01*
X107645Y198508D01*
X107969Y198393D01*
X108293Y198277D01*
X108663Y198208D01*
X109056Y198138D01*
X109450Y198092D01*
X109889Y198069D01*
X110121D01*
X110283Y198092D01*
X110491Y198115D01*
X110722Y198138D01*
X110977Y198185D01*
X111255Y198254D01*
X111879Y198416D01*
X112203Y198532D01*
X112504Y198647D01*
X112828Y198809D01*
X113152Y198995D01*
X113453Y199203D01*
X113730Y199457D01*
X113754Y199480D01*
X113800Y199527D01*
X113869Y199596D01*
X113962Y199712D01*
X114054Y199851D01*
X114193Y200013D01*
X114309Y200198D01*
X114448Y200429D01*
X114587Y200660D01*
X114702Y200938D01*
X114934Y201517D01*
X115026Y201864D01*
X115096Y202211D01*
X115142Y202581D01*
X115165Y202951D01*
Y203113D01*
X115142Y203206D01*
Y203345D01*
X115119Y203507D01*
X115073Y203877D01*
X114980Y204293D01*
X114841Y204710D01*
X114633Y205150D01*
X114378Y205566D01*
Y205589D01*
X114332Y205612D01*
X114240Y205728D01*
X114054Y205913D01*
X113800Y206145D01*
X113476Y206376D01*
X113083Y206630D01*
X112643Y206839D01*
X112111Y207001D01*
X112134D01*
X112157Y207024D01*
X112226Y207047D01*
X112319Y207093D01*
X112527Y207186D01*
X112805Y207325D01*
X113106Y207510D01*
X113406Y207741D01*
X113684Y207996D01*
X113939Y208273D01*
X113962Y208320D01*
X114031Y208412D01*
X114124Y208597D01*
X114216Y208829D01*
X114332Y209130D01*
X114425Y209477D01*
X114494Y209870D01*
X114517Y210287D01*
Y210310D01*
Y210356D01*
Y210448D01*
X114494Y210587D01*
X114471Y210726D01*
X114448Y210911D01*
X114355Y211305D01*
X114216Y211767D01*
X113985Y212253D01*
X113846Y212508D01*
X113684Y212762D01*
X113476Y212994D01*
X113268Y213225D01*
X113245Y213248D01*
X113198Y213272D01*
X113129Y213341D01*
X113036Y213410D01*
X112921Y213503D01*
X112759Y213595D01*
X112573Y213711D01*
X112388Y213827D01*
X112157Y213943D01*
X111903Y214058D01*
X111625Y214151D01*
X111324Y214243D01*
X110676Y214382D01*
X110306Y214405D01*
X109936Y214429D01*
D02*
G37*
G36*
X135921Y194866D02*
X134649D01*
Y178785D01*
X136615D01*
Y191303D01*
X136638Y191280D01*
X136754Y191187D01*
X136893Y191048D01*
X137124Y190886D01*
X137379Y190678D01*
X137703Y190447D01*
X138073Y190192D01*
X138490Y189938D01*
X138513D01*
X138536Y189915D01*
X138675Y189822D01*
X138906Y189706D01*
X139184Y189568D01*
X139508Y189405D01*
X139855Y189244D01*
X140202Y189082D01*
X140549Y188943D01*
Y190840D01*
X140526D01*
X140480Y190886D01*
X140387Y190910D01*
X140271Y190979D01*
X140133Y191048D01*
X139971Y191141D01*
X139577Y191372D01*
X139114Y191627D01*
X138652Y191951D01*
X138166Y192321D01*
X137680Y192714D01*
X137657Y192738D01*
X137633Y192761D01*
X137564Y192830D01*
X137472Y192900D01*
X137263Y193131D01*
X136986Y193409D01*
X136708Y193733D01*
X136407Y194103D01*
X136153Y194473D01*
X135921Y194866D01*
D02*
G37*
G36*
X117248D02*
X115975D01*
Y178785D01*
X117942D01*
Y191303D01*
X117965Y191280D01*
X118081Y191187D01*
X118219Y191048D01*
X118451Y190886D01*
X118706Y190678D01*
X119029Y190447D01*
X119400Y190192D01*
X119816Y189938D01*
X119839D01*
X119862Y189915D01*
X120001Y189822D01*
X120233Y189706D01*
X120510Y189568D01*
X120834Y189405D01*
X121181Y189244D01*
X121529Y189082D01*
X121875Y188943D01*
Y190840D01*
X121852D01*
X121806Y190886D01*
X121714Y190910D01*
X121598Y190979D01*
X121459Y191048D01*
X121297Y191141D01*
X120904Y191372D01*
X120441Y191627D01*
X119978Y191951D01*
X119492Y192321D01*
X119006Y192714D01*
X118983Y192738D01*
X118960Y192761D01*
X118891Y192830D01*
X118798Y192900D01*
X118590Y193131D01*
X118312Y193409D01*
X118034Y193733D01*
X117734Y194103D01*
X117479Y194473D01*
X117248Y194866D01*
D02*
G37*
G36*
X190091Y190655D02*
X189836D01*
X189581Y190632D01*
X189234Y190609D01*
X188841Y190562D01*
X188448Y190493D01*
X188054Y190401D01*
X187684Y190285D01*
X187638Y190262D01*
X187522Y190215D01*
X187360Y190146D01*
X187152Y190053D01*
X186920Y189915D01*
X186689Y189776D01*
X186481Y189591D01*
X186296Y189405D01*
X186273Y189382D01*
X186226Y189313D01*
X186157Y189197D01*
X186064Y189058D01*
X185949Y188850D01*
X185856Y188642D01*
X185763Y188387D01*
X185694Y188087D01*
Y188063D01*
X185671Y187994D01*
X185648Y187855D01*
X185625Y187670D01*
Y187416D01*
X185602Y187115D01*
X185578Y186721D01*
Y186282D01*
Y183644D01*
Y183621D01*
Y183528D01*
Y183389D01*
Y183204D01*
Y182996D01*
Y182741D01*
X185555Y182186D01*
Y181607D01*
X185532Y181029D01*
X185509Y180774D01*
Y180543D01*
X185486Y180335D01*
X185463Y180173D01*
Y180150D01*
X185439Y180057D01*
X185416Y179918D01*
X185347Y179733D01*
X185301Y179525D01*
X185208Y179294D01*
X185092Y179039D01*
X184977Y178785D01*
X187036D01*
X187059Y178808D01*
X187082Y178900D01*
X187129Y179016D01*
X187198Y179201D01*
X187267Y179409D01*
X187314Y179664D01*
X187360Y179942D01*
X187406Y180242D01*
X187430D01*
X187453Y180196D01*
X187591Y180080D01*
X187800Y179918D01*
X188077Y179710D01*
X188424Y179502D01*
X188772Y179270D01*
X189142Y179062D01*
X189535Y178900D01*
X189581Y178877D01*
X189720Y178854D01*
X189928Y178785D01*
X190183Y178715D01*
X190507Y178646D01*
X190877Y178599D01*
X191294Y178553D01*
X191710Y178530D01*
X191895D01*
X192034Y178553D01*
X192196D01*
X192381Y178576D01*
X192798Y178646D01*
X193261Y178761D01*
X193770Y178923D01*
X194233Y179155D01*
X194649Y179456D01*
X194695Y179502D01*
X194811Y179618D01*
X194973Y179826D01*
X195158Y180103D01*
X195343Y180451D01*
X195505Y180844D01*
X195621Y181330D01*
X195644Y181561D01*
X195667Y181839D01*
Y181978D01*
X195644Y182140D01*
X195621Y182348D01*
X195574Y182603D01*
X195505Y182857D01*
X195413Y183135D01*
X195297Y183389D01*
X195274Y183412D01*
X195227Y183505D01*
X195135Y183644D01*
X195019Y183806D01*
X194880Y183991D01*
X194695Y184176D01*
X194510Y184361D01*
X194279Y184523D01*
X194256Y184546D01*
X194163Y184592D01*
X194047Y184685D01*
X193862Y184778D01*
X193654Y184870D01*
X193399Y184986D01*
X193145Y185078D01*
X192844Y185171D01*
X192821D01*
X192728Y185194D01*
X192590Y185240D01*
X192404Y185264D01*
X192173Y185310D01*
X191872Y185356D01*
X191525Y185425D01*
X191109Y185472D01*
X191085D01*
X190993Y185495D01*
X190877D01*
X190715Y185518D01*
X190530Y185541D01*
X190299Y185588D01*
X190044Y185611D01*
X189767Y185657D01*
X189211Y185773D01*
X188610Y185888D01*
X188077Y186027D01*
X187823Y186097D01*
X187591Y186166D01*
Y186189D01*
Y186235D01*
X187568Y186374D01*
Y186536D01*
Y186629D01*
Y186675D01*
Y186698D01*
Y186721D01*
Y186860D01*
X187591Y187092D01*
X187638Y187346D01*
X187707Y187624D01*
X187823Y187901D01*
X187962Y188156D01*
X188147Y188364D01*
X188170Y188387D01*
X188286Y188480D01*
X188471Y188573D01*
X188702Y188711D01*
X189026Y188827D01*
X189396Y188943D01*
X189859Y189012D01*
X190391Y189035D01*
X190623D01*
X190854Y189012D01*
X191178Y188966D01*
X191502Y188920D01*
X191849Y188827D01*
X192173Y188711D01*
X192451Y188549D01*
X192474Y188526D01*
X192566Y188457D01*
X192682Y188341D01*
X192821Y188156D01*
X192960Y187925D01*
X193122Y187624D01*
X193261Y187253D01*
X193399Y186837D01*
X195320Y187092D01*
Y187115D01*
X195297Y187138D01*
Y187207D01*
X195274Y187300D01*
X195204Y187508D01*
X195112Y187809D01*
X194996Y188110D01*
X194857Y188434D01*
X194672Y188758D01*
X194464Y189058D01*
X194441Y189082D01*
X194348Y189174D01*
X194209Y189313D01*
X194024Y189498D01*
X193770Y189683D01*
X193469Y189868D01*
X193122Y190077D01*
X192728Y190238D01*
X192705D01*
X192682Y190262D01*
X192613Y190285D01*
X192520Y190308D01*
X192289Y190377D01*
X191965Y190447D01*
X191595Y190516D01*
X191132Y190586D01*
X190646Y190632D01*
X190091Y190655D01*
D02*
G37*
G36*
X157834Y194797D02*
X155520D01*
X151355Y183158D01*
Y183135D01*
X151332Y183088D01*
X151309Y183019D01*
X151263Y182927D01*
X151239Y182788D01*
X151193Y182649D01*
X151077Y182302D01*
X150939Y181908D01*
X150800Y181469D01*
X150522Y180543D01*
Y180566D01*
X150499Y180613D01*
X150476Y180682D01*
X150453Y180774D01*
X150383Y181029D01*
X150268Y181376D01*
X150152Y181770D01*
X150013Y182209D01*
X149851Y182672D01*
X149666Y183158D01*
X145316Y194797D01*
X143164D01*
X149411Y178785D01*
X151633D01*
X157834Y194797D01*
D02*
G37*
G36*
X230075Y190655D02*
X229844D01*
X229682Y190632D01*
X229497Y190609D01*
X229265Y190562D01*
X229011Y190516D01*
X228710Y190447D01*
X228433Y190377D01*
X228109Y190262D01*
X227808Y190146D01*
X227484Y189984D01*
X227160Y189799D01*
X226836Y189591D01*
X226535Y189336D01*
X226257Y189058D01*
X226234Y189035D01*
X226188Y188989D01*
X226119Y188896D01*
X226026Y188758D01*
X225910Y188596D01*
X225795Y188410D01*
X225656Y188179D01*
X225517Y187901D01*
X225378Y187601D01*
X225239Y187277D01*
X225124Y186907D01*
X225008Y186513D01*
X224915Y186073D01*
X224846Y185611D01*
X224800Y185125D01*
X224776Y184592D01*
Y184315D01*
X224800Y184083D01*
X233477D01*
Y184060D01*
Y183991D01*
X233454Y183898D01*
Y183759D01*
X233431Y183598D01*
X233384Y183412D01*
X233315Y182996D01*
X233176Y182533D01*
X232991Y182024D01*
X232736Y181561D01*
X232412Y181145D01*
X232389D01*
X232366Y181098D01*
X232227Y180983D01*
X232019Y180821D01*
X231741Y180659D01*
X231371Y180474D01*
X230955Y180312D01*
X230492Y180196D01*
X230237Y180173D01*
X229960Y180150D01*
X229775D01*
X229566Y180173D01*
X229312Y180219D01*
X229034Y180289D01*
X228710Y180381D01*
X228409Y180520D01*
X228109Y180705D01*
X228085Y180728D01*
X227970Y180821D01*
X227831Y180960D01*
X227669Y181145D01*
X227484Y181399D01*
X227276Y181723D01*
X227067Y182094D01*
X226882Y182533D01*
X224846Y182279D01*
Y182255D01*
X224869Y182209D01*
X224892Y182117D01*
X224938Y181978D01*
X225008Y181839D01*
X225077Y181654D01*
X225262Y181260D01*
X225494Y180821D01*
X225818Y180358D01*
X226188Y179918D01*
X226651Y179502D01*
X226674D01*
X226720Y179456D01*
X226790Y179409D01*
X226882Y179340D01*
X227021Y179270D01*
X227160Y179201D01*
X227345Y179109D01*
X227553Y179016D01*
X227785Y178923D01*
X228016Y178831D01*
X228594Y178692D01*
X229242Y178576D01*
X229960Y178530D01*
X230214D01*
X230376Y178553D01*
X230585Y178576D01*
X230839Y178623D01*
X231117Y178669D01*
X231418Y178715D01*
X232065Y178900D01*
X232412Y179039D01*
X232736Y179178D01*
X233083Y179363D01*
X233407Y179571D01*
X233708Y179803D01*
X234009Y180080D01*
X234032Y180103D01*
X234079Y180150D01*
X234148Y180242D01*
X234240Y180381D01*
X234356Y180543D01*
X234472Y180728D01*
X234611Y180960D01*
X234750Y181214D01*
X234888Y181515D01*
X235027Y181839D01*
X235143Y182209D01*
X235259Y182603D01*
X235351Y183019D01*
X235421Y183482D01*
X235467Y183968D01*
X235490Y184477D01*
Y184755D01*
X235467Y184963D01*
X235444Y185217D01*
X235421Y185495D01*
X235374Y185819D01*
X235305Y186143D01*
X235120Y186883D01*
X235004Y187253D01*
X234865Y187647D01*
X234680Y188017D01*
X234472Y188364D01*
X234240Y188711D01*
X233986Y189035D01*
X233963Y189058D01*
X233916Y189105D01*
X233824Y189174D01*
X233708Y189290D01*
X233569Y189405D01*
X233384Y189544D01*
X233176Y189706D01*
X232922Y189845D01*
X232667Y190007D01*
X232366Y190146D01*
X232042Y190285D01*
X231695Y190401D01*
X231325Y190516D01*
X230931Y190586D01*
X230515Y190632D01*
X230075Y190655D01*
D02*
G37*
G36*
X222208Y194797D02*
X215914D01*
X215752Y194774D01*
X215567D01*
X215151Y194728D01*
X214688Y194681D01*
X214202Y194589D01*
X213716Y194473D01*
X213276Y194311D01*
X213253D01*
X213230Y194288D01*
X213091Y194219D01*
X212883Y194103D01*
X212651Y193941D01*
X212374Y193733D01*
X212073Y193478D01*
X211795Y193154D01*
X211541Y192807D01*
X211518Y192761D01*
X211448Y192622D01*
X211332Y192437D01*
X211217Y192159D01*
X211101Y191835D01*
X210985Y191488D01*
X210916Y191095D01*
X210893Y190701D01*
Y190655D01*
Y190539D01*
X210916Y190331D01*
X210962Y190077D01*
X211032Y189776D01*
X211147Y189452D01*
X211286Y189128D01*
X211471Y188781D01*
X211494Y188734D01*
X211564Y188642D01*
X211703Y188457D01*
X211888Y188272D01*
X212119Y188040D01*
X212397Y187786D01*
X212744Y187554D01*
X213137Y187323D01*
X213114D01*
X213068Y187300D01*
X212999Y187277D01*
X212906Y187230D01*
X212628Y187138D01*
X212304Y186976D01*
X211957Y186768D01*
X211564Y186513D01*
X211217Y186212D01*
X210893Y185842D01*
X210870Y185796D01*
X210777Y185657D01*
X210638Y185449D01*
X210499Y185171D01*
X210361Y184801D01*
X210222Y184407D01*
X210129Y183945D01*
X210106Y183435D01*
Y183250D01*
X210129Y183019D01*
X210175Y182741D01*
X210222Y182417D01*
X210314Y182070D01*
X210430Y181700D01*
X210592Y181330D01*
X210615Y181284D01*
X210685Y181168D01*
X210777Y181006D01*
X210916Y180774D01*
X211101Y180543D01*
X211286Y180289D01*
X211518Y180034D01*
X211772Y179826D01*
X211795Y179803D01*
X211888Y179733D01*
X212050Y179641D01*
X212258Y179548D01*
X212513Y179409D01*
X212813Y179270D01*
X213137Y179155D01*
X213531Y179039D01*
X213577D01*
X213716Y178993D01*
X213947Y178970D01*
X214248Y178923D01*
X214618Y178877D01*
X215058Y178831D01*
X215544Y178808D01*
X216099Y178785D01*
X222208D01*
Y194797D01*
D02*
G37*
G36*
X178289Y190655D02*
X178127D01*
X177919Y190632D01*
X177665Y190586D01*
X177364Y190493D01*
X177040Y190377D01*
X176670Y190215D01*
X176276Y190007D01*
X176994Y188202D01*
X177017Y188225D01*
X177109Y188272D01*
X177248Y188341D01*
X177433Y188410D01*
X177642Y188480D01*
X177896Y188549D01*
X178151Y188596D01*
X178405Y188619D01*
X178521D01*
X178636Y188596D01*
X178799Y188573D01*
X178960Y188526D01*
X179169Y188457D01*
X179377Y188364D01*
X179562Y188225D01*
X179585Y188202D01*
X179655Y188156D01*
X179724Y188063D01*
X179840Y187948D01*
X179955Y187786D01*
X180071Y187601D01*
X180187Y187392D01*
X180279Y187138D01*
X180303Y187092D01*
X180326Y186953D01*
X180372Y186744D01*
X180441Y186467D01*
X180511Y186120D01*
X180557Y185726D01*
X180580Y185310D01*
X180603Y184847D01*
Y178785D01*
X182570D01*
Y190401D01*
X180788D01*
Y188642D01*
X180765Y188665D01*
X180673Y188827D01*
X180557Y189035D01*
X180372Y189290D01*
X180187Y189544D01*
X179979Y189822D01*
X179770Y190053D01*
X179562Y190238D01*
X179539Y190262D01*
X179470Y190308D01*
X179331Y190377D01*
X179192Y190447D01*
X179007Y190516D01*
X178775Y190586D01*
X178544Y190632D01*
X178289Y190655D01*
D02*
G37*
G36*
X128493Y181029D02*
X126249D01*
Y178785D01*
X128493D01*
Y181029D01*
D02*
G37*
G36*
X202748Y190655D02*
X202516D01*
X202354Y190632D01*
X202146Y190609D01*
X201915Y190562D01*
X201660Y190516D01*
X201359Y190470D01*
X200735Y190262D01*
X200411Y190146D01*
X200087Y189984D01*
X199763Y189822D01*
X199439Y189591D01*
X199138Y189359D01*
X198837Y189082D01*
X198814Y189058D01*
X198768Y189012D01*
X198698Y188920D01*
X198606Y188804D01*
X198490Y188642D01*
X198351Y188434D01*
X198212Y188202D01*
X198074Y187948D01*
X197935Y187670D01*
X197796Y187323D01*
X197657Y186976D01*
X197541Y186583D01*
X197449Y186166D01*
X197379Y185726D01*
X197333Y185264D01*
X197310Y184755D01*
Y184384D01*
X197333Y184199D01*
X197356Y183968D01*
Y183736D01*
X197403Y183482D01*
X197472Y182903D01*
X197611Y182325D01*
X197773Y181746D01*
X198004Y181214D01*
Y181191D01*
X198027Y181168D01*
X198074Y181098D01*
X198120Y181006D01*
X198282Y180774D01*
X198490Y180497D01*
X198768Y180173D01*
X199115Y179849D01*
X199508Y179525D01*
X199971Y179224D01*
X199994D01*
X200017Y179201D01*
X200087Y179155D01*
X200202Y179109D01*
X200318Y179062D01*
X200457Y179016D01*
X200804Y178877D01*
X201197Y178761D01*
X201683Y178646D01*
X202192Y178553D01*
X202748Y178530D01*
X202979D01*
X203164Y178553D01*
X203372Y178576D01*
X203604Y178623D01*
X203882Y178669D01*
X204159Y178715D01*
X204784Y178900D01*
X205131Y179039D01*
X205455Y179178D01*
X205779Y179363D01*
X206103Y179571D01*
X206404Y179803D01*
X206705Y180080D01*
X206728Y180103D01*
X206774Y180150D01*
X206843Y180242D01*
X206936Y180381D01*
X207052Y180543D01*
X207167Y180728D01*
X207306Y180960D01*
X207445Y181237D01*
X207584Y181538D01*
X207723Y181885D01*
X207838Y182255D01*
X207954Y182649D01*
X208047Y183088D01*
X208116Y183551D01*
X208162Y184060D01*
X208186Y184592D01*
Y184731D01*
X208162Y184893D01*
Y185125D01*
X208139Y185379D01*
X208093Y185703D01*
X208047Y186027D01*
X207954Y186397D01*
X207862Y186768D01*
X207746Y187161D01*
X207607Y187577D01*
X207422Y187971D01*
X207237Y188341D01*
X206982Y188711D01*
X206728Y189058D01*
X206404Y189359D01*
X206381Y189382D01*
X206334Y189405D01*
X206242Y189475D01*
X206126Y189568D01*
X205987Y189660D01*
X205802Y189776D01*
X205617Y189891D01*
X205386Y190007D01*
X205131Y190123D01*
X204853Y190238D01*
X204229Y190447D01*
X203511Y190609D01*
X203141Y190632D01*
X202748Y190655D01*
D02*
G37*
G36*
X167738Y194797D02*
X165771D01*
Y178785D01*
X167599D01*
Y180242D01*
X167622Y180219D01*
X167645Y180173D01*
X167715Y180080D01*
X167807Y179965D01*
X167923Y179849D01*
X168062Y179710D01*
X168224Y179548D01*
X168432Y179386D01*
X168640Y179224D01*
X168872Y179062D01*
X169149Y178923D01*
X169450Y178808D01*
X169751Y178692D01*
X170098Y178599D01*
X170468Y178553D01*
X170862Y178530D01*
X171000D01*
X171093Y178553D01*
X171371Y178576D01*
X171695Y178623D01*
X172088Y178715D01*
X172528Y178854D01*
X172967Y179039D01*
X173407Y179294D01*
X173430D01*
X173453Y179340D01*
X173592Y179432D01*
X173800Y179618D01*
X174055Y179849D01*
X174356Y180150D01*
X174657Y180520D01*
X174957Y180937D01*
X175212Y181422D01*
Y181446D01*
X175235Y181492D01*
X175258Y181561D01*
X175304Y181654D01*
X175351Y181793D01*
X175420Y181955D01*
X175466Y182117D01*
X175513Y182325D01*
X175628Y182788D01*
X175744Y183320D01*
X175814Y183922D01*
X175837Y184569D01*
Y184870D01*
X175814Y185009D01*
Y185194D01*
X175767Y185611D01*
X175698Y186097D01*
X175582Y186629D01*
X175443Y187184D01*
X175258Y187716D01*
Y187740D01*
X175235Y187786D01*
X175189Y187855D01*
X175142Y187948D01*
X175004Y188202D01*
X174818Y188526D01*
X174587Y188873D01*
X174286Y189220D01*
X173939Y189591D01*
X173523Y189891D01*
X173500D01*
X173476Y189915D01*
X173407Y189961D01*
X173314Y190007D01*
X173083Y190123D01*
X172759Y190285D01*
X172389Y190424D01*
X171949Y190539D01*
X171463Y190632D01*
X170954Y190655D01*
X170769D01*
X170584Y190632D01*
X170329Y190609D01*
X170029Y190539D01*
X169705Y190470D01*
X169381Y190354D01*
X169080Y190192D01*
X169034Y190169D01*
X168941Y190123D01*
X168802Y190007D01*
X168617Y189891D01*
X168386Y189729D01*
X168178Y189521D01*
X167946Y189313D01*
X167738Y189058D01*
Y194797D01*
D02*
G37*
G36*
X224917Y174782D02*
X223343D01*
Y172986D01*
X224917D01*
Y174782D01*
D02*
G37*
G36*
X196068D02*
X194494D01*
Y170209D01*
X194476Y170227D01*
X194457Y170264D01*
X194402Y170320D01*
X194309Y170412D01*
X194216Y170505D01*
X194105Y170616D01*
X193957Y170727D01*
X193809Y170838D01*
X193439Y171079D01*
X193013Y171264D01*
X192772Y171357D01*
X192513Y171412D01*
X192235Y171449D01*
X191957Y171468D01*
X191809D01*
X191643Y171449D01*
X191439Y171431D01*
X191198Y171375D01*
X190921Y171320D01*
X190624Y171227D01*
X190347Y171116D01*
X190310Y171098D01*
X190217Y171061D01*
X190069Y170968D01*
X189902Y170857D01*
X189699Y170727D01*
X189495Y170561D01*
X189273Y170357D01*
X189087Y170135D01*
X189069Y170116D01*
X189013Y170024D01*
X188921Y169894D01*
X188810Y169727D01*
X188680Y169505D01*
X188550Y169246D01*
X188421Y168950D01*
X188310Y168635D01*
Y168616D01*
X188291Y168598D01*
X188273Y168542D01*
X188254Y168487D01*
X188217Y168302D01*
X188162Y168061D01*
X188106Y167783D01*
X188050Y167468D01*
X188032Y167117D01*
X188013Y166746D01*
Y166524D01*
X188032Y166357D01*
X188050Y166154D01*
X188069Y165931D01*
X188106Y165672D01*
X188162Y165394D01*
X188310Y164802D01*
X188402Y164487D01*
X188513Y164191D01*
X188643Y163876D01*
X188810Y163598D01*
X188995Y163321D01*
X189198Y163061D01*
X189217Y163043D01*
X189254Y163006D01*
X189310Y162950D01*
X189402Y162858D01*
X189532Y162765D01*
X189661Y162654D01*
X189810Y162543D01*
X189995Y162413D01*
X190198Y162302D01*
X190402Y162173D01*
X190902Y161969D01*
X191161Y161876D01*
X191439Y161821D01*
X191735Y161784D01*
X192031Y161765D01*
X192106D01*
X192198Y161784D01*
X192309D01*
X192439Y161802D01*
X192606Y161839D01*
X192976Y161932D01*
X193180Y162006D01*
X193383Y162099D01*
X193605Y162210D01*
X193809Y162339D01*
X194031Y162506D01*
X194235Y162691D01*
X194420Y162895D01*
X194605Y163135D01*
Y161969D01*
X196068D01*
Y174782D01*
D02*
G37*
G36*
X215955D02*
X214381D01*
Y170190D01*
X214363Y170209D01*
X214326Y170246D01*
X214270Y170301D01*
X214177Y170394D01*
X214085Y170487D01*
X213955Y170598D01*
X213789Y170709D01*
X213622Y170838D01*
X213437Y170949D01*
X213233Y171061D01*
X212752Y171264D01*
X212492Y171357D01*
X212215Y171412D01*
X211918Y171449D01*
X211622Y171468D01*
X211455D01*
X211252Y171449D01*
X211011Y171412D01*
X210733Y171375D01*
X210437Y171301D01*
X210141Y171190D01*
X209844Y171061D01*
X209807Y171042D01*
X209715Y170986D01*
X209585Y170894D01*
X209419Y170764D01*
X209252Y170598D01*
X209067Y170412D01*
X208900Y170190D01*
X208752Y169931D01*
X208734Y169894D01*
X208696Y169801D01*
X208641Y169635D01*
X208585Y169394D01*
X208530Y169098D01*
X208474Y168746D01*
X208437Y168320D01*
X208419Y167839D01*
Y161969D01*
X209993D01*
Y167857D01*
Y167876D01*
Y167913D01*
Y167968D01*
Y168042D01*
X210011Y168246D01*
X210048Y168505D01*
X210122Y168783D01*
X210215Y169061D01*
X210345Y169338D01*
X210511Y169561D01*
X210530Y169579D01*
X210604Y169653D01*
X210715Y169746D01*
X210881Y169838D01*
X211085Y169949D01*
X211326Y170024D01*
X211622Y170098D01*
X211955Y170116D01*
X212066D01*
X212196Y170098D01*
X212381Y170079D01*
X212567Y170024D01*
X212789Y169968D01*
X213011Y169876D01*
X213252Y169746D01*
X213270Y169727D01*
X213344Y169672D01*
X213455Y169598D01*
X213585Y169487D01*
X213733Y169338D01*
X213881Y169172D01*
X214011Y168968D01*
X214122Y168746D01*
X214140Y168709D01*
X214159Y168635D01*
X214196Y168487D01*
X214251Y168302D01*
X214307Y168061D01*
X214344Y167765D01*
X214363Y167431D01*
X214381Y167042D01*
Y161969D01*
X215955D01*
Y174782D01*
D02*
G37*
G36*
X231472Y171468D02*
X231305D01*
X231194Y171449D01*
X231064Y171431D01*
X230898Y171394D01*
X230713Y171357D01*
X230509Y171301D01*
X230305Y171227D01*
X230083Y171135D01*
X229861Y171024D01*
X229620Y170894D01*
X229398Y170746D01*
X229176Y170561D01*
X228954Y170357D01*
X228750Y170116D01*
Y171264D01*
X227306D01*
Y162876D01*
X227324Y162710D01*
Y162506D01*
X227343Y162284D01*
X227361Y162043D01*
X227417Y161543D01*
X227491Y161024D01*
X227546Y160784D01*
X227602Y160562D01*
X227676Y160358D01*
X227750Y160173D01*
Y160154D01*
X227769Y160136D01*
X227843Y160025D01*
X227935Y159858D01*
X228083Y159654D01*
X228287Y159432D01*
X228528Y159191D01*
X228824Y158951D01*
X229157Y158747D01*
X229176D01*
X229194Y158729D01*
X229250Y158691D01*
X229324Y158673D01*
X229417Y158617D01*
X229528Y158580D01*
X229805Y158488D01*
X230139Y158377D01*
X230546Y158303D01*
X231009Y158229D01*
X231509Y158210D01*
X231676D01*
X231787Y158229D01*
X231935D01*
X232083Y158247D01*
X232268Y158265D01*
X232472Y158303D01*
X232898Y158395D01*
X233342Y158525D01*
X233787Y158710D01*
X234194Y158969D01*
X234212Y158988D01*
X234231Y159006D01*
X234361Y159117D01*
X234509Y159284D01*
X234694Y159525D01*
X234879Y159839D01*
X235046Y160228D01*
X235101Y160450D01*
X235138Y160691D01*
X235175Y160932D01*
Y161210D01*
X233638Y161006D01*
Y160969D01*
X233620Y160895D01*
X233583Y160765D01*
X233546Y160599D01*
X233472Y160432D01*
X233379Y160265D01*
X233268Y160099D01*
X233120Y159969D01*
X233083Y159951D01*
X233009Y159895D01*
X232879Y159821D01*
X232694Y159747D01*
X232472Y159654D01*
X232194Y159580D01*
X231861Y159525D01*
X231509Y159506D01*
X231324D01*
X231139Y159525D01*
X230879Y159562D01*
X230620Y159617D01*
X230342Y159691D01*
X230065Y159802D01*
X229824Y159951D01*
X229805Y159969D01*
X229731Y160025D01*
X229620Y160136D01*
X229491Y160265D01*
X229361Y160450D01*
X229231Y160654D01*
X229102Y160895D01*
X229009Y161173D01*
Y161191D01*
X228991Y161265D01*
X228972Y161413D01*
X228954Y161598D01*
X228935Y161728D01*
Y161876D01*
X228917Y162043D01*
Y162228D01*
Y162432D01*
X228898Y162673D01*
Y162913D01*
Y163191D01*
X228917Y163172D01*
X228954Y163135D01*
X229009Y163080D01*
X229083Y163006D01*
X229176Y162913D01*
X229305Y162802D01*
X229454Y162691D01*
X229602Y162580D01*
X229991Y162358D01*
X230417Y162154D01*
X230657Y162080D01*
X230916Y162024D01*
X231194Y161987D01*
X231472Y161969D01*
X231565D01*
X231657Y161987D01*
X231787D01*
X231953Y162006D01*
X232139Y162043D01*
X232342Y162080D01*
X232564Y162136D01*
X232805Y162210D01*
X233046Y162302D01*
X233286Y162413D01*
X233546Y162543D01*
X233787Y162710D01*
X234027Y162895D01*
X234249Y163098D01*
X234453Y163339D01*
X234472Y163358D01*
X234490Y163395D01*
X234546Y163487D01*
X234620Y163580D01*
X234694Y163728D01*
X234786Y163876D01*
X234879Y164061D01*
X234972Y164283D01*
X235064Y164506D01*
X235157Y164765D01*
X235249Y165024D01*
X235323Y165320D01*
X235453Y165950D01*
X235471Y166302D01*
X235490Y166654D01*
Y166876D01*
X235471Y167005D01*
Y167135D01*
X235434Y167468D01*
X235379Y167839D01*
X235286Y168246D01*
X235175Y168672D01*
X235009Y169098D01*
Y169116D01*
X234990Y169153D01*
X234953Y169209D01*
X234916Y169283D01*
X234805Y169487D01*
X234657Y169746D01*
X234453Y170024D01*
X234212Y170301D01*
X233935Y170598D01*
X233620Y170838D01*
X233601D01*
X233583Y170857D01*
X233527Y170894D01*
X233453Y170931D01*
X233268Y171042D01*
X233009Y171153D01*
X232694Y171264D01*
X232324Y171375D01*
X231916Y171449D01*
X231472Y171468D01*
D02*
G37*
G36*
X157961D02*
X157794D01*
X157591Y171449D01*
X157368Y171412D01*
X157091Y171357D01*
X156813Y171283D01*
X156535Y171172D01*
X156276Y171024D01*
X156239Y171005D01*
X156165Y170949D01*
X156054Y170857D01*
X155906Y170709D01*
X155758Y170542D01*
X155591Y170338D01*
X155443Y170098D01*
X155332Y169820D01*
X155313Y169838D01*
X155276Y169894D01*
X155220Y169968D01*
X155128Y170079D01*
X155017Y170209D01*
X154887Y170338D01*
X154739Y170487D01*
X154554Y170653D01*
X154350Y170801D01*
X154147Y170949D01*
X153906Y171079D01*
X153647Y171209D01*
X153369Y171320D01*
X153073Y171394D01*
X152776Y171449D01*
X152443Y171468D01*
X152313D01*
X152221Y171449D01*
X152091D01*
X151962Y171431D01*
X151647Y171375D01*
X151313Y171283D01*
X150962Y171135D01*
X150610Y170949D01*
X150314Y170690D01*
X150277Y170653D01*
X150203Y170542D01*
X150073Y170375D01*
X150017Y170246D01*
X149943Y170116D01*
X149869Y169949D01*
X149814Y169783D01*
X149740Y169598D01*
X149684Y169375D01*
X149647Y169153D01*
X149610Y168894D01*
X149573Y168635D01*
Y161969D01*
X151147D01*
Y167802D01*
Y167820D01*
Y167839D01*
Y167950D01*
Y168116D01*
X151165Y168320D01*
X151184Y168542D01*
X151202Y168764D01*
X151240Y168987D01*
X151295Y169153D01*
Y169172D01*
X151332Y169227D01*
X151369Y169301D01*
X151425Y169394D01*
X151499Y169505D01*
X151591Y169616D01*
X151702Y169727D01*
X151851Y169838D01*
X151869Y169857D01*
X151925Y169876D01*
X151999Y169912D01*
X152128Y169968D01*
X152258Y170024D01*
X152424Y170061D01*
X152591Y170079D01*
X152795Y170098D01*
X152887D01*
X152962Y170079D01*
X153147Y170061D01*
X153369Y170024D01*
X153628Y169931D01*
X153906Y169820D01*
X154184Y169653D01*
X154443Y169431D01*
X154461Y169394D01*
X154535Y169301D01*
X154647Y169153D01*
X154758Y168931D01*
X154887Y168635D01*
X154980Y168283D01*
X155054Y167857D01*
X155091Y167357D01*
Y161969D01*
X156665D01*
Y167987D01*
Y168005D01*
Y168042D01*
Y168079D01*
Y168153D01*
X156683Y168357D01*
X156720Y168579D01*
X156757Y168839D01*
X156832Y169098D01*
X156924Y169338D01*
X157054Y169561D01*
X157072Y169579D01*
X157128Y169653D01*
X157220Y169727D01*
X157350Y169838D01*
X157517Y169931D01*
X157739Y170024D01*
X157998Y170079D01*
X158313Y170098D01*
X158424D01*
X158553Y170079D01*
X158702Y170061D01*
X158887Y170005D01*
X159109Y169949D01*
X159313Y169857D01*
X159535Y169746D01*
X159553Y169727D01*
X159628Y169672D01*
X159720Y169598D01*
X159850Y169487D01*
X159979Y169338D01*
X160109Y169153D01*
X160238Y168950D01*
X160350Y168709D01*
X160368Y168672D01*
X160387Y168579D01*
X160424Y168431D01*
X160479Y168228D01*
X160535Y167950D01*
X160572Y167616D01*
X160590Y167228D01*
X160609Y166783D01*
Y161969D01*
X162183D01*
Y171264D01*
X160776D01*
Y169931D01*
X160757Y169968D01*
X160702Y170042D01*
X160590Y170172D01*
X160461Y170320D01*
X160294Y170505D01*
X160090Y170690D01*
X159868Y170875D01*
X159609Y171042D01*
X159572Y171061D01*
X159479Y171116D01*
X159331Y171172D01*
X159128Y171264D01*
X158887Y171338D01*
X158609Y171394D01*
X158294Y171449D01*
X157961Y171468D01*
D02*
G37*
G36*
X55564Y174616D02*
X49194D01*
Y173116D01*
X54324D01*
X55009Y169653D01*
X54990Y169672D01*
X54953Y169690D01*
X54898Y169727D01*
X54805Y169783D01*
X54694Y169838D01*
X54564Y169912D01*
X54268Y170061D01*
X53898Y170209D01*
X53490Y170338D01*
X53046Y170431D01*
X52824Y170468D01*
X52416D01*
X52305Y170450D01*
X52157Y170431D01*
X51990Y170412D01*
X51805Y170375D01*
X51602Y170320D01*
X51157Y170190D01*
X50917Y170098D01*
X50676Y169968D01*
X50435Y169838D01*
X50194Y169690D01*
X49972Y169505D01*
X49750Y169301D01*
X49731Y169283D01*
X49694Y169246D01*
X49639Y169190D01*
X49565Y169098D01*
X49472Y168968D01*
X49380Y168839D01*
X49269Y168672D01*
X49158Y168487D01*
X49065Y168283D01*
X48954Y168061D01*
X48861Y167802D01*
X48769Y167542D01*
X48695Y167265D01*
X48639Y166950D01*
X48602Y166635D01*
X48583Y166302D01*
Y166135D01*
X48602Y166005D01*
X48621Y165857D01*
X48639Y165691D01*
X48676Y165487D01*
X48713Y165283D01*
X48824Y164802D01*
X49009Y164302D01*
X49120Y164043D01*
X49269Y163802D01*
X49417Y163543D01*
X49602Y163302D01*
X49620Y163284D01*
X49657Y163228D01*
X49731Y163154D01*
X49824Y163061D01*
X49954Y162950D01*
X50102Y162802D01*
X50287Y162673D01*
X50491Y162524D01*
X50713Y162376D01*
X50972Y162247D01*
X51250Y162117D01*
X51546Y161987D01*
X51861Y161895D01*
X52213Y161821D01*
X52583Y161765D01*
X52972Y161747D01*
X53138D01*
X53268Y161765D01*
X53416Y161784D01*
X53583Y161802D01*
X53787Y161821D01*
X53990Y161876D01*
X54453Y161987D01*
X54916Y162154D01*
X55157Y162265D01*
X55398Y162395D01*
X55620Y162543D01*
X55842Y162710D01*
X55861Y162728D01*
X55897Y162747D01*
X55935Y162821D01*
X56009Y162895D01*
X56101Y162987D01*
X56194Y163098D01*
X56305Y163246D01*
X56397Y163413D01*
X56508Y163580D01*
X56620Y163783D01*
X56823Y164228D01*
X56990Y164746D01*
X57045Y165024D01*
X57083Y165320D01*
X55435Y165450D01*
Y165431D01*
Y165394D01*
X55416Y165339D01*
X55398Y165246D01*
X55342Y165043D01*
X55268Y164765D01*
X55157Y164487D01*
X55009Y164172D01*
X54823Y163895D01*
X54601Y163635D01*
X54564Y163617D01*
X54490Y163543D01*
X54342Y163450D01*
X54138Y163339D01*
X53916Y163228D01*
X53639Y163135D01*
X53324Y163061D01*
X52972Y163043D01*
X52861D01*
X52787Y163061D01*
X52565Y163080D01*
X52305Y163154D01*
X51990Y163246D01*
X51676Y163395D01*
X51342Y163617D01*
X51194Y163746D01*
X51046Y163895D01*
X51028Y163913D01*
X51009Y163932D01*
X50972Y163987D01*
X50917Y164043D01*
X50787Y164246D01*
X50639Y164506D01*
X50509Y164820D01*
X50380Y165209D01*
X50287Y165672D01*
X50250Y165913D01*
Y166172D01*
Y166191D01*
Y166228D01*
Y166302D01*
X50269Y166394D01*
Y166505D01*
X50287Y166635D01*
X50342Y166931D01*
X50435Y167283D01*
X50565Y167635D01*
X50750Y167968D01*
X51009Y168283D01*
Y168302D01*
X51046Y168320D01*
X51139Y168413D01*
X51305Y168542D01*
X51528Y168690D01*
X51824Y168820D01*
X52157Y168950D01*
X52546Y169042D01*
X52768Y169079D01*
X53120D01*
X53268Y169061D01*
X53453Y169042D01*
X53675Y168987D01*
X53898Y168931D01*
X54138Y168839D01*
X54379Y168727D01*
X54398Y168709D01*
X54472Y168672D01*
X54583Y168579D01*
X54731Y168487D01*
X54879Y168357D01*
X55027Y168190D01*
X55194Y168024D01*
X55324Y167820D01*
X56805Y168024D01*
X55564Y174616D01*
D02*
G37*
G36*
X138333Y171468D02*
X138130D01*
X137926Y171449D01*
X137648Y171431D01*
X137333Y171394D01*
X137019Y171338D01*
X136704Y171264D01*
X136408Y171172D01*
X136371Y171153D01*
X136278Y171116D01*
X136148Y171061D01*
X135982Y170986D01*
X135797Y170875D01*
X135611Y170764D01*
X135445Y170616D01*
X135297Y170468D01*
X135278Y170450D01*
X135241Y170394D01*
X135186Y170301D01*
X135112Y170190D01*
X135019Y170024D01*
X134945Y169857D01*
X134871Y169653D01*
X134815Y169412D01*
Y169394D01*
X134797Y169338D01*
X134778Y169227D01*
X134760Y169079D01*
Y168876D01*
X134741Y168635D01*
X134723Y168320D01*
Y167968D01*
Y165857D01*
Y165839D01*
Y165765D01*
Y165654D01*
Y165506D01*
Y165339D01*
Y165135D01*
X134704Y164691D01*
Y164228D01*
X134686Y163765D01*
X134667Y163561D01*
Y163376D01*
X134649Y163209D01*
X134630Y163080D01*
Y163061D01*
X134612Y162987D01*
X134593Y162876D01*
X134537Y162728D01*
X134501Y162561D01*
X134426Y162376D01*
X134334Y162173D01*
X134241Y161969D01*
X135889D01*
X135908Y161987D01*
X135926Y162061D01*
X135963Y162154D01*
X136019Y162302D01*
X136074Y162469D01*
X136111Y162673D01*
X136148Y162895D01*
X136186Y163135D01*
X136204D01*
X136222Y163098D01*
X136334Y163006D01*
X136500Y162876D01*
X136722Y162710D01*
X137000Y162543D01*
X137278Y162358D01*
X137574Y162191D01*
X137889Y162061D01*
X137926Y162043D01*
X138037Y162024D01*
X138204Y161969D01*
X138407Y161913D01*
X138667Y161858D01*
X138963Y161821D01*
X139296Y161784D01*
X139630Y161765D01*
X139778D01*
X139889Y161784D01*
X140018D01*
X140167Y161802D01*
X140500Y161858D01*
X140870Y161950D01*
X141278Y162080D01*
X141648Y162265D01*
X141981Y162506D01*
X142018Y162543D01*
X142111Y162635D01*
X142240Y162802D01*
X142388Y163024D01*
X142537Y163302D01*
X142666Y163617D01*
X142759Y164006D01*
X142777Y164191D01*
X142796Y164413D01*
Y164524D01*
X142777Y164654D01*
X142759Y164820D01*
X142722Y165024D01*
X142666Y165228D01*
X142592Y165450D01*
X142500Y165654D01*
X142481Y165672D01*
X142444Y165746D01*
X142370Y165857D01*
X142277Y165987D01*
X142166Y166135D01*
X142018Y166283D01*
X141870Y166431D01*
X141685Y166561D01*
X141666Y166579D01*
X141592Y166616D01*
X141500Y166691D01*
X141352Y166765D01*
X141185Y166839D01*
X140981Y166931D01*
X140778Y167005D01*
X140537Y167079D01*
X140518D01*
X140444Y167098D01*
X140333Y167135D01*
X140185Y167153D01*
X140000Y167190D01*
X139759Y167228D01*
X139481Y167283D01*
X139148Y167320D01*
X139130D01*
X139056Y167339D01*
X138963D01*
X138833Y167357D01*
X138685Y167376D01*
X138500Y167413D01*
X138296Y167431D01*
X138074Y167468D01*
X137630Y167561D01*
X137148Y167654D01*
X136722Y167765D01*
X136519Y167820D01*
X136334Y167876D01*
Y167894D01*
Y167931D01*
X136315Y168042D01*
Y168172D01*
Y168246D01*
Y168283D01*
Y168302D01*
Y168320D01*
Y168431D01*
X136334Y168616D01*
X136371Y168820D01*
X136426Y169042D01*
X136519Y169264D01*
X136630Y169468D01*
X136778Y169635D01*
X136797Y169653D01*
X136889Y169727D01*
X137037Y169801D01*
X137222Y169912D01*
X137482Y170005D01*
X137778Y170098D01*
X138148Y170153D01*
X138574Y170172D01*
X138759D01*
X138945Y170153D01*
X139204Y170116D01*
X139463Y170079D01*
X139741Y170005D01*
X140000Y169912D01*
X140222Y169783D01*
X140241Y169764D01*
X140315Y169709D01*
X140407Y169616D01*
X140518Y169468D01*
X140630Y169283D01*
X140759Y169042D01*
X140870Y168746D01*
X140981Y168413D01*
X142518Y168616D01*
Y168635D01*
X142500Y168653D01*
Y168709D01*
X142481Y168783D01*
X142426Y168950D01*
X142352Y169190D01*
X142259Y169431D01*
X142148Y169690D01*
X142000Y169949D01*
X141833Y170190D01*
X141814Y170209D01*
X141741Y170283D01*
X141629Y170394D01*
X141481Y170542D01*
X141278Y170690D01*
X141037Y170838D01*
X140759Y171005D01*
X140444Y171135D01*
X140426D01*
X140407Y171153D01*
X140352Y171172D01*
X140278Y171190D01*
X140092Y171246D01*
X139833Y171301D01*
X139537Y171357D01*
X139167Y171412D01*
X138778Y171449D01*
X138333Y171468D01*
D02*
G37*
G36*
X132167Y174782D02*
X130464D01*
Y168413D01*
X124131Y174782D01*
X121817D01*
X127186Y169579D01*
X121576Y161969D01*
X123816D01*
X128371Y168431D01*
X130464Y166413D01*
Y161969D01*
X132167D01*
Y174782D01*
D02*
G37*
G36*
X116428Y171468D02*
X116225D01*
X116021Y171449D01*
X115743Y171431D01*
X115428Y171394D01*
X115114Y171338D01*
X114799Y171264D01*
X114502Y171172D01*
X114466Y171153D01*
X114373Y171116D01*
X114243Y171061D01*
X114077Y170986D01*
X113891Y170875D01*
X113706Y170764D01*
X113540Y170616D01*
X113392Y170468D01*
X113373Y170450D01*
X113336Y170394D01*
X113280Y170301D01*
X113206Y170190D01*
X113114Y170024D01*
X113040Y169857D01*
X112966Y169653D01*
X112910Y169412D01*
Y169394D01*
X112892Y169338D01*
X112873Y169227D01*
X112855Y169079D01*
Y168876D01*
X112836Y168635D01*
X112817Y168320D01*
Y167968D01*
Y165857D01*
Y165839D01*
Y165765D01*
Y165654D01*
Y165506D01*
Y165339D01*
Y165135D01*
X112799Y164691D01*
Y164228D01*
X112781Y163765D01*
X112762Y163561D01*
Y163376D01*
X112744Y163209D01*
X112725Y163080D01*
Y163061D01*
X112706Y162987D01*
X112688Y162876D01*
X112632Y162728D01*
X112595Y162561D01*
X112521Y162376D01*
X112429Y162173D01*
X112336Y161969D01*
X113984D01*
X114003Y161987D01*
X114021Y162061D01*
X114058Y162154D01*
X114114Y162302D01*
X114169Y162469D01*
X114206Y162673D01*
X114243Y162895D01*
X114280Y163135D01*
X114299D01*
X114317Y163098D01*
X114429Y163006D01*
X114595Y162876D01*
X114817Y162710D01*
X115095Y162543D01*
X115373Y162358D01*
X115669Y162191D01*
X115984Y162061D01*
X116021Y162043D01*
X116132Y162024D01*
X116299Y161969D01*
X116502Y161913D01*
X116762Y161858D01*
X117058Y161821D01*
X117391Y161784D01*
X117724Y161765D01*
X117873D01*
X117984Y161784D01*
X118113D01*
X118261Y161802D01*
X118595Y161858D01*
X118965Y161950D01*
X119372Y162080D01*
X119743Y162265D01*
X120076Y162506D01*
X120113Y162543D01*
X120206Y162635D01*
X120335Y162802D01*
X120483Y163024D01*
X120632Y163302D01*
X120761Y163617D01*
X120854Y164006D01*
X120872Y164191D01*
X120891Y164413D01*
Y164524D01*
X120872Y164654D01*
X120854Y164820D01*
X120817Y165024D01*
X120761Y165228D01*
X120687Y165450D01*
X120595Y165654D01*
X120576Y165672D01*
X120539Y165746D01*
X120465Y165857D01*
X120372Y165987D01*
X120261Y166135D01*
X120113Y166283D01*
X119965Y166431D01*
X119780Y166561D01*
X119761Y166579D01*
X119687Y166616D01*
X119595Y166691D01*
X119446Y166765D01*
X119280Y166839D01*
X119076Y166931D01*
X118872Y167005D01*
X118632Y167079D01*
X118613D01*
X118539Y167098D01*
X118428Y167135D01*
X118280Y167153D01*
X118095Y167190D01*
X117854Y167228D01*
X117576Y167283D01*
X117243Y167320D01*
X117225D01*
X117150Y167339D01*
X117058D01*
X116928Y167357D01*
X116780Y167376D01*
X116595Y167413D01*
X116391Y167431D01*
X116169Y167468D01*
X115725Y167561D01*
X115243Y167654D01*
X114817Y167765D01*
X114614Y167820D01*
X114429Y167876D01*
Y167894D01*
Y167931D01*
X114410Y168042D01*
Y168172D01*
Y168246D01*
Y168283D01*
Y168302D01*
Y168320D01*
Y168431D01*
X114429Y168616D01*
X114466Y168820D01*
X114521Y169042D01*
X114614Y169264D01*
X114725Y169468D01*
X114873Y169635D01*
X114891Y169653D01*
X114984Y169727D01*
X115132Y169801D01*
X115317Y169912D01*
X115576Y170005D01*
X115873Y170098D01*
X116243Y170153D01*
X116669Y170172D01*
X116854D01*
X117039Y170153D01*
X117298Y170116D01*
X117558Y170079D01*
X117836Y170005D01*
X118095Y169912D01*
X118317Y169783D01*
X118336Y169764D01*
X118410Y169709D01*
X118502Y169616D01*
X118613Y169468D01*
X118724Y169283D01*
X118854Y169042D01*
X118965Y168746D01*
X119076Y168413D01*
X120613Y168616D01*
Y168635D01*
X120595Y168653D01*
Y168709D01*
X120576Y168783D01*
X120520Y168950D01*
X120446Y169190D01*
X120354Y169431D01*
X120243Y169690D01*
X120095Y169949D01*
X119928Y170190D01*
X119909Y170209D01*
X119835Y170283D01*
X119724Y170394D01*
X119576Y170542D01*
X119372Y170690D01*
X119132Y170838D01*
X118854Y171005D01*
X118539Y171135D01*
X118521D01*
X118502Y171153D01*
X118447Y171172D01*
X118372Y171190D01*
X118187Y171246D01*
X117928Y171301D01*
X117632Y171357D01*
X117261Y171412D01*
X116873Y171449D01*
X116428Y171468D01*
D02*
G37*
G36*
X72636D02*
X72433D01*
X72229Y171449D01*
X71951Y171431D01*
X71637Y171394D01*
X71322Y171338D01*
X71007Y171264D01*
X70711Y171172D01*
X70674Y171153D01*
X70581Y171116D01*
X70451Y171061D01*
X70285Y170986D01*
X70100Y170875D01*
X69915Y170764D01*
X69748Y170616D01*
X69600Y170468D01*
X69581Y170450D01*
X69544Y170394D01*
X69489Y170301D01*
X69415Y170190D01*
X69322Y170024D01*
X69248Y169857D01*
X69174Y169653D01*
X69118Y169412D01*
Y169394D01*
X69100Y169338D01*
X69081Y169227D01*
X69063Y169079D01*
Y168876D01*
X69044Y168635D01*
X69026Y168320D01*
Y167968D01*
Y165857D01*
Y165839D01*
Y165765D01*
Y165654D01*
Y165506D01*
Y165339D01*
Y165135D01*
X69007Y164691D01*
Y164228D01*
X68989Y163765D01*
X68970Y163561D01*
Y163376D01*
X68952Y163209D01*
X68933Y163080D01*
Y163061D01*
X68915Y162987D01*
X68896Y162876D01*
X68841Y162728D01*
X68804Y162561D01*
X68730Y162376D01*
X68637Y162173D01*
X68544Y161969D01*
X70192D01*
X70211Y161987D01*
X70229Y162061D01*
X70266Y162154D01*
X70322Y162302D01*
X70377Y162469D01*
X70415Y162673D01*
X70451Y162895D01*
X70489Y163135D01*
X70507D01*
X70526Y163098D01*
X70637Y163006D01*
X70803Y162876D01*
X71026Y162710D01*
X71303Y162543D01*
X71581Y162358D01*
X71877Y162191D01*
X72192Y162061D01*
X72229Y162043D01*
X72340Y162024D01*
X72507Y161969D01*
X72711Y161913D01*
X72970Y161858D01*
X73266Y161821D01*
X73599Y161784D01*
X73933Y161765D01*
X74081D01*
X74192Y161784D01*
X74321D01*
X74470Y161802D01*
X74803Y161858D01*
X75173Y161950D01*
X75581Y162080D01*
X75951Y162265D01*
X76284Y162506D01*
X76321Y162543D01*
X76414Y162635D01*
X76543Y162802D01*
X76692Y163024D01*
X76840Y163302D01*
X76969Y163617D01*
X77062Y164006D01*
X77080Y164191D01*
X77099Y164413D01*
Y164524D01*
X77080Y164654D01*
X77062Y164820D01*
X77025Y165024D01*
X76969Y165228D01*
X76895Y165450D01*
X76803Y165654D01*
X76784Y165672D01*
X76747Y165746D01*
X76673Y165857D01*
X76581Y165987D01*
X76469Y166135D01*
X76321Y166283D01*
X76173Y166431D01*
X75988Y166561D01*
X75970Y166579D01*
X75895Y166616D01*
X75803Y166691D01*
X75655Y166765D01*
X75488Y166839D01*
X75284Y166931D01*
X75081Y167005D01*
X74840Y167079D01*
X74822D01*
X74747Y167098D01*
X74636Y167135D01*
X74488Y167153D01*
X74303Y167190D01*
X74062Y167228D01*
X73784Y167283D01*
X73451Y167320D01*
X73433D01*
X73359Y167339D01*
X73266D01*
X73137Y167357D01*
X72988Y167376D01*
X72803Y167413D01*
X72600Y167431D01*
X72377Y167468D01*
X71933Y167561D01*
X71451Y167654D01*
X71026Y167765D01*
X70822Y167820D01*
X70637Y167876D01*
Y167894D01*
Y167931D01*
X70618Y168042D01*
Y168172D01*
Y168246D01*
Y168283D01*
Y168302D01*
Y168320D01*
Y168431D01*
X70637Y168616D01*
X70674Y168820D01*
X70729Y169042D01*
X70822Y169264D01*
X70933Y169468D01*
X71081Y169635D01*
X71100Y169653D01*
X71192Y169727D01*
X71340Y169801D01*
X71526Y169912D01*
X71785Y170005D01*
X72081Y170098D01*
X72451Y170153D01*
X72877Y170172D01*
X73062D01*
X73248Y170153D01*
X73507Y170116D01*
X73766Y170079D01*
X74044Y170005D01*
X74303Y169912D01*
X74525Y169783D01*
X74544Y169764D01*
X74618Y169709D01*
X74710Y169616D01*
X74822Y169468D01*
X74933Y169283D01*
X75062Y169042D01*
X75173Y168746D01*
X75284Y168413D01*
X76821Y168616D01*
Y168635D01*
X76803Y168653D01*
Y168709D01*
X76784Y168783D01*
X76729Y168950D01*
X76655Y169190D01*
X76562Y169431D01*
X76451Y169690D01*
X76303Y169949D01*
X76136Y170190D01*
X76118Y170209D01*
X76044Y170283D01*
X75932Y170394D01*
X75784Y170542D01*
X75581Y170690D01*
X75340Y170838D01*
X75062Y171005D01*
X74747Y171135D01*
X74729D01*
X74710Y171153D01*
X74655Y171172D01*
X74581Y171190D01*
X74396Y171246D01*
X74136Y171301D01*
X73840Y171357D01*
X73470Y171412D01*
X73081Y171449D01*
X72636Y171468D01*
D02*
G37*
G36*
X219103Y174505D02*
Y171264D01*
X217510D01*
Y170042D01*
X219103D01*
Y164580D01*
Y164543D01*
Y164469D01*
Y164357D01*
X219084Y164228D01*
X219066Y163932D01*
X219047Y163802D01*
X219029Y163709D01*
X219010Y163672D01*
X218955Y163598D01*
X218881Y163506D01*
X218751Y163413D01*
X218714Y163395D01*
X218621Y163358D01*
X218455Y163321D01*
X218214Y163302D01*
X218029D01*
X217936Y163321D01*
X217807D01*
X217659Y163339D01*
X217510Y163358D01*
X217307Y161969D01*
X217344D01*
X217418Y161950D01*
X217547Y161932D01*
X217714Y161913D01*
X217899Y161876D01*
X218103Y161858D01*
X218510Y161839D01*
X218658D01*
X218806Y161858D01*
X218992Y161876D01*
X219214Y161895D01*
X219436Y161950D01*
X219640Y162006D01*
X219844Y162099D01*
X219862Y162117D01*
X219918Y162154D01*
X219992Y162210D01*
X220103Y162302D01*
X220195Y162395D01*
X220306Y162524D01*
X220417Y162654D01*
X220492Y162821D01*
Y162839D01*
X220529Y162913D01*
X220547Y163043D01*
X220584Y163228D01*
X220621Y163469D01*
X220640Y163617D01*
Y163783D01*
X220658Y163987D01*
X220677Y164191D01*
Y164413D01*
Y164672D01*
Y170042D01*
X221843D01*
Y171264D01*
X220677D01*
Y173560D01*
X219103Y174505D01*
D02*
G37*
G36*
X206030Y171264D02*
X204456D01*
Y166098D01*
Y166080D01*
Y166042D01*
Y165987D01*
Y165894D01*
Y165691D01*
X204438Y165431D01*
Y165154D01*
X204419Y164876D01*
X204401Y164635D01*
X204364Y164432D01*
Y164413D01*
X204327Y164339D01*
X204289Y164228D01*
X204234Y164080D01*
X204141Y163932D01*
X204030Y163765D01*
X203901Y163617D01*
X203734Y163469D01*
X203715Y163450D01*
X203641Y163413D01*
X203549Y163358D01*
X203401Y163302D01*
X203234Y163228D01*
X203030Y163172D01*
X202808Y163135D01*
X202549Y163117D01*
X202419D01*
X202290Y163135D01*
X202123Y163154D01*
X201919Y163209D01*
X201697Y163265D01*
X201457Y163358D01*
X201216Y163469D01*
X201179Y163487D01*
X201105Y163543D01*
X200994Y163617D01*
X200864Y163728D01*
X200716Y163876D01*
X200568Y164043D01*
X200438Y164228D01*
X200327Y164450D01*
X200308Y164487D01*
X200290Y164561D01*
X200253Y164709D01*
X200197Y164913D01*
X200142Y165172D01*
X200105Y165487D01*
X200086Y165857D01*
X200068Y166283D01*
Y171264D01*
X198494D01*
Y161969D01*
X199901D01*
Y163321D01*
X199920Y163302D01*
X199957Y163246D01*
X200012Y163172D01*
X200105Y163080D01*
X200216Y162969D01*
X200345Y162821D01*
X200494Y162691D01*
X200679Y162543D01*
X200882Y162395D01*
X201105Y162265D01*
X201345Y162136D01*
X201605Y162006D01*
X201901Y161913D01*
X202197Y161839D01*
X202530Y161784D01*
X202864Y161765D01*
X202993D01*
X203160Y161784D01*
X203364Y161802D01*
X203604Y161839D01*
X203864Y161895D01*
X204123Y161969D01*
X204401Y162080D01*
X204438Y162099D01*
X204512Y162136D01*
X204641Y162210D01*
X204790Y162302D01*
X204975Y162413D01*
X205141Y162543D01*
X205308Y162691D01*
X205456Y162858D01*
X205475Y162876D01*
X205512Y162950D01*
X205567Y163043D01*
X205641Y163191D01*
X205734Y163358D01*
X205808Y163561D01*
X205882Y163783D01*
X205938Y164024D01*
Y164043D01*
X205956Y164117D01*
X205975Y164228D01*
Y164376D01*
X205993Y164598D01*
X206012Y164839D01*
X206030Y165154D01*
Y171264D01*
D02*
G37*
G36*
X177329Y171468D02*
X177181D01*
X177070Y171449D01*
X176959D01*
X176811Y171431D01*
X176459Y171375D01*
X176070Y171283D01*
X175663Y171135D01*
X175256Y170949D01*
X174867Y170690D01*
X174848D01*
X174830Y170653D01*
X174718Y170542D01*
X174552Y170375D01*
X174348Y170135D01*
X174144Y169838D01*
X173941Y169468D01*
X173756Y169042D01*
X173626Y168542D01*
X175163Y168302D01*
Y168320D01*
X175181Y168339D01*
X175200Y168450D01*
X175256Y168616D01*
X175348Y168820D01*
X175441Y169042D01*
X175589Y169283D01*
X175756Y169505D01*
X175941Y169690D01*
X175959Y169709D01*
X176033Y169764D01*
X176163Y169838D01*
X176311Y169931D01*
X176515Y170024D01*
X176737Y170098D01*
X176996Y170153D01*
X177274Y170172D01*
X177385D01*
X177477Y170153D01*
X177681Y170135D01*
X177959Y170061D01*
X178255Y169968D01*
X178589Y169820D01*
X178903Y169598D01*
X179051Y169468D01*
X179200Y169320D01*
Y169301D01*
X179237Y169283D01*
X179274Y169227D01*
X179311Y169153D01*
X179366Y169061D01*
X179440Y168950D01*
X179496Y168820D01*
X179570Y168672D01*
X179644Y168487D01*
X179699Y168283D01*
X179774Y168061D01*
X179829Y167820D01*
X179866Y167561D01*
X179903Y167265D01*
X179940Y166950D01*
Y166616D01*
Y166598D01*
Y166542D01*
Y166431D01*
X179922Y166320D01*
Y166154D01*
X179903Y165987D01*
X179848Y165580D01*
X179774Y165135D01*
X179644Y164672D01*
X179477Y164265D01*
X179366Y164061D01*
X179237Y163895D01*
X179200Y163858D01*
X179107Y163765D01*
X178940Y163635D01*
X178737Y163487D01*
X178459Y163321D01*
X178144Y163191D01*
X177774Y163098D01*
X177570Y163080D01*
X177366Y163061D01*
X177329D01*
X177218Y163080D01*
X177033Y163098D01*
X176829Y163135D01*
X176589Y163191D01*
X176329Y163302D01*
X176070Y163432D01*
X175830Y163617D01*
X175793Y163635D01*
X175737Y163728D01*
X175626Y163858D01*
X175496Y164061D01*
X175367Y164302D01*
X175219Y164598D01*
X175107Y164969D01*
X175033Y165376D01*
X173478Y165172D01*
Y165154D01*
X173496Y165098D01*
X173515Y165024D01*
X173533Y164913D01*
X173570Y164765D01*
X173608Y164617D01*
X173737Y164246D01*
X173904Y163858D01*
X174144Y163432D01*
X174441Y163024D01*
X174607Y162839D01*
X174793Y162654D01*
X174811Y162635D01*
X174848Y162617D01*
X174904Y162580D01*
X174978Y162524D01*
X175070Y162450D01*
X175200Y162376D01*
X175348Y162302D01*
X175496Y162210D01*
X175867Y162043D01*
X176311Y161913D01*
X176792Y161802D01*
X177070Y161784D01*
X177348Y161765D01*
X177533D01*
X177663Y161784D01*
X177829Y161802D01*
X178015Y161839D01*
X178218Y161876D01*
X178440Y161913D01*
X178940Y162061D01*
X179181Y162173D01*
X179440Y162284D01*
X179699Y162432D01*
X179940Y162598D01*
X180181Y162784D01*
X180403Y163006D01*
X180422Y163024D01*
X180459Y163061D01*
X180514Y163135D01*
X180588Y163228D01*
X180662Y163358D01*
X180774Y163524D01*
X180866Y163709D01*
X180977Y163913D01*
X181088Y164154D01*
X181181Y164432D01*
X181292Y164709D01*
X181366Y165043D01*
X181440Y165376D01*
X181496Y165765D01*
X181533Y166154D01*
X181551Y166579D01*
Y166839D01*
X181533Y166968D01*
Y167117D01*
X181514Y167283D01*
X181496Y167468D01*
X181440Y167876D01*
X181348Y168320D01*
X181236Y168764D01*
X181070Y169209D01*
Y169227D01*
X181051Y169264D01*
X181014Y169320D01*
X180977Y169394D01*
X180866Y169598D01*
X180699Y169838D01*
X180477Y170116D01*
X180218Y170394D01*
X179903Y170672D01*
X179551Y170894D01*
X179533D01*
X179496Y170912D01*
X179440Y170949D01*
X179366Y170986D01*
X179274Y171024D01*
X179163Y171079D01*
X178885Y171190D01*
X178570Y171283D01*
X178181Y171375D01*
X177774Y171449D01*
X177329Y171468D01*
D02*
G37*
G36*
X93671D02*
X93486D01*
X93357Y171449D01*
X93208Y171431D01*
X93023Y171394D01*
X92820Y171357D01*
X92579Y171301D01*
X92357Y171246D01*
X92098Y171153D01*
X91857Y171061D01*
X91597Y170931D01*
X91338Y170783D01*
X91079Y170616D01*
X90838Y170412D01*
X90616Y170190D01*
X90598Y170172D01*
X90561Y170135D01*
X90505Y170061D01*
X90431Y169949D01*
X90338Y169820D01*
X90246Y169672D01*
X90135Y169487D01*
X90024Y169264D01*
X89913Y169024D01*
X89801Y168764D01*
X89709Y168468D01*
X89616Y168153D01*
X89542Y167802D01*
X89487Y167431D01*
X89450Y167042D01*
X89431Y166616D01*
Y166394D01*
X89450Y166209D01*
X96393D01*
Y166191D01*
Y166135D01*
X96375Y166061D01*
Y165950D01*
X96356Y165820D01*
X96319Y165672D01*
X96264Y165339D01*
X96153Y164969D01*
X96004Y164561D01*
X95801Y164191D01*
X95541Y163858D01*
X95523D01*
X95505Y163820D01*
X95393Y163728D01*
X95227Y163598D01*
X95005Y163469D01*
X94708Y163321D01*
X94375Y163191D01*
X94005Y163098D01*
X93801Y163080D01*
X93579Y163061D01*
X93431D01*
X93264Y163080D01*
X93060Y163117D01*
X92838Y163172D01*
X92579Y163246D01*
X92338Y163358D01*
X92098Y163506D01*
X92079Y163524D01*
X91986Y163598D01*
X91875Y163709D01*
X91746Y163858D01*
X91597Y164061D01*
X91431Y164321D01*
X91264Y164617D01*
X91116Y164969D01*
X89487Y164765D01*
Y164746D01*
X89505Y164709D01*
X89524Y164635D01*
X89561Y164524D01*
X89616Y164413D01*
X89672Y164265D01*
X89820Y163950D01*
X90005Y163598D01*
X90264Y163228D01*
X90561Y162876D01*
X90931Y162543D01*
X90949D01*
X90986Y162506D01*
X91042Y162469D01*
X91116Y162413D01*
X91227Y162358D01*
X91338Y162302D01*
X91486Y162228D01*
X91653Y162154D01*
X91838Y162080D01*
X92023Y162006D01*
X92486Y161895D01*
X93005Y161802D01*
X93579Y161765D01*
X93783D01*
X93912Y161784D01*
X94079Y161802D01*
X94282Y161839D01*
X94505Y161876D01*
X94745Y161913D01*
X95264Y162061D01*
X95541Y162173D01*
X95801Y162284D01*
X96079Y162432D01*
X96338Y162598D01*
X96579Y162784D01*
X96819Y163006D01*
X96838Y163024D01*
X96875Y163061D01*
X96930Y163135D01*
X97004Y163246D01*
X97097Y163376D01*
X97190Y163524D01*
X97301Y163709D01*
X97412Y163913D01*
X97523Y164154D01*
X97634Y164413D01*
X97726Y164709D01*
X97819Y165024D01*
X97893Y165357D01*
X97949Y165728D01*
X97986Y166117D01*
X98004Y166524D01*
Y166746D01*
X97986Y166913D01*
X97967Y167117D01*
X97949Y167339D01*
X97912Y167598D01*
X97856Y167857D01*
X97708Y168450D01*
X97615Y168746D01*
X97504Y169061D01*
X97356Y169357D01*
X97190Y169635D01*
X97004Y169912D01*
X96801Y170172D01*
X96782Y170190D01*
X96745Y170227D01*
X96671Y170283D01*
X96579Y170375D01*
X96467Y170468D01*
X96319Y170579D01*
X96153Y170709D01*
X95949Y170820D01*
X95745Y170949D01*
X95505Y171061D01*
X95245Y171172D01*
X94967Y171264D01*
X94671Y171357D01*
X94356Y171412D01*
X94023Y171449D01*
X93671Y171468D01*
D02*
G37*
G36*
X224917Y171264D02*
X223343D01*
Y161969D01*
X224917D01*
Y171264D01*
D02*
G37*
G36*
X185625Y163765D02*
X183829D01*
Y161969D01*
X185625D01*
Y163765D01*
D02*
G37*
G36*
X110170Y174782D02*
X104226D01*
X104078Y174764D01*
X103911D01*
X103522Y174745D01*
X103115Y174690D01*
X102670Y174634D01*
X102263Y174542D01*
X102059Y174486D01*
X101893Y174431D01*
X101874D01*
X101856Y174412D01*
X101745Y174356D01*
X101578Y174282D01*
X101374Y174153D01*
X101152Y173986D01*
X100911Y173764D01*
X100689Y173505D01*
X100467Y173208D01*
Y173190D01*
X100448Y173171D01*
X100374Y173060D01*
X100300Y172875D01*
X100189Y172634D01*
X100097Y172357D01*
X100004Y172023D01*
X99949Y171672D01*
X99930Y171283D01*
Y171264D01*
Y171227D01*
Y171153D01*
X99949Y171061D01*
Y170931D01*
X99967Y170801D01*
X100041Y170487D01*
X100152Y170116D01*
X100300Y169727D01*
X100522Y169338D01*
X100671Y169153D01*
X100819Y168968D01*
X100837Y168950D01*
X100856Y168931D01*
X100911Y168876D01*
X100985Y168820D01*
X101078Y168746D01*
X101189Y168672D01*
X101337Y168579D01*
X101485Y168468D01*
X101671Y168376D01*
X101874Y168283D01*
X102096Y168172D01*
X102337Y168079D01*
X102615Y168005D01*
X102893Y167913D01*
X103207Y167857D01*
X103541Y167802D01*
X103504Y167783D01*
X103430Y167746D01*
X103319Y167672D01*
X103170Y167598D01*
X102837Y167394D01*
X102670Y167265D01*
X102522Y167153D01*
X102485Y167117D01*
X102393Y167024D01*
X102245Y166876D01*
X102059Y166691D01*
X101856Y166431D01*
X101615Y166154D01*
X101374Y165820D01*
X101115Y165450D01*
X98912Y161969D01*
X101023D01*
X102708Y164635D01*
Y164654D01*
X102745Y164691D01*
X102781Y164746D01*
X102837Y164820D01*
X102967Y165024D01*
X103133Y165283D01*
X103337Y165561D01*
X103541Y165857D01*
X103744Y166135D01*
X103930Y166394D01*
X103948Y166413D01*
X104004Y166487D01*
X104096Y166598D01*
X104226Y166728D01*
X104504Y167005D01*
X104652Y167135D01*
X104800Y167246D01*
X104818Y167265D01*
X104855Y167283D01*
X104930Y167320D01*
X105041Y167376D01*
X105152Y167431D01*
X105281Y167487D01*
X105577Y167579D01*
X105596D01*
X105633Y167598D01*
X105707D01*
X105800Y167616D01*
X105929Y167635D01*
X106077D01*
X106281Y167654D01*
X108466D01*
Y161969D01*
X110170D01*
Y174782D01*
D02*
G37*
G36*
X87598D02*
X78395D01*
Y173264D01*
X85635Y164394D01*
X86394Y163487D01*
X78191D01*
Y161969D01*
X88339D01*
Y163543D01*
X81765Y171727D01*
Y171746D01*
X81728Y171764D01*
X81636Y171875D01*
X81506Y172042D01*
X81339Y172246D01*
X81136Y172486D01*
X80913Y172745D01*
X80673Y173005D01*
X80432Y173264D01*
X87598D01*
Y174782D01*
D02*
G37*
G36*
X66933Y174616D02*
X58638D01*
Y173375D01*
X58657Y173357D01*
X58693Y173319D01*
X58768Y173246D01*
X58842Y173134D01*
X58953Y173005D01*
X59101Y172857D01*
X59249Y172672D01*
X59416Y172449D01*
X59582Y172227D01*
X59786Y171968D01*
X59990Y171672D01*
X60193Y171375D01*
X60416Y171042D01*
X60638Y170690D01*
X60860Y170301D01*
X61082Y169912D01*
X61101Y169894D01*
X61138Y169820D01*
X61193Y169709D01*
X61286Y169542D01*
X61378Y169338D01*
X61490Y169116D01*
X61619Y168857D01*
X61749Y168561D01*
X61897Y168228D01*
X62063Y167894D01*
X62212Y167524D01*
X62360Y167135D01*
X62656Y166339D01*
X62934Y165487D01*
Y165469D01*
X62952Y165413D01*
X62971Y165320D01*
X63008Y165209D01*
X63045Y165061D01*
X63082Y164876D01*
X63137Y164672D01*
X63175Y164450D01*
X63230Y164191D01*
X63286Y163913D01*
X63378Y163321D01*
X63471Y162673D01*
X63526Y161969D01*
X65137D01*
Y161987D01*
Y162043D01*
Y162117D01*
X65119Y162228D01*
Y162376D01*
X65100Y162561D01*
X65082Y162765D01*
X65063Y162987D01*
X65026Y163246D01*
X64989Y163506D01*
X64934Y163820D01*
X64878Y164135D01*
X64823Y164469D01*
X64748Y164839D01*
X64563Y165598D01*
Y165617D01*
X64545Y165691D01*
X64508Y165802D01*
X64452Y165968D01*
X64397Y166154D01*
X64323Y166376D01*
X64248Y166635D01*
X64137Y166913D01*
X64026Y167228D01*
X63915Y167542D01*
X63637Y168246D01*
X63304Y168987D01*
X62934Y169727D01*
X62915Y169746D01*
X62878Y169820D01*
X62823Y169912D01*
X62749Y170061D01*
X62656Y170227D01*
X62526Y170431D01*
X62397Y170653D01*
X62249Y170894D01*
X61897Y171431D01*
X61526Y171986D01*
X61101Y172560D01*
X60656Y173097D01*
X66933D01*
Y174616D01*
D02*
G37*
G36*
X168367Y171468D02*
X168182D01*
X168053Y171449D01*
X167886Y171431D01*
X167701Y171394D01*
X167497Y171357D01*
X167256Y171320D01*
X166756Y171153D01*
X166497Y171061D01*
X166238Y170931D01*
X165979Y170801D01*
X165720Y170616D01*
X165479Y170431D01*
X165238Y170209D01*
X165219Y170190D01*
X165182Y170153D01*
X165127Y170079D01*
X165053Y169987D01*
X164960Y169857D01*
X164849Y169690D01*
X164738Y169505D01*
X164627Y169301D01*
X164516Y169079D01*
X164405Y168801D01*
X164294Y168524D01*
X164201Y168209D01*
X164127Y167876D01*
X164072Y167524D01*
X164034Y167153D01*
X164016Y166746D01*
Y166450D01*
X164034Y166302D01*
X164053Y166117D01*
Y165931D01*
X164090Y165728D01*
X164146Y165265D01*
X164257Y164802D01*
X164386Y164339D01*
X164571Y163913D01*
Y163895D01*
X164590Y163876D01*
X164627Y163820D01*
X164664Y163746D01*
X164794Y163561D01*
X164960Y163339D01*
X165182Y163080D01*
X165460Y162821D01*
X165775Y162561D01*
X166145Y162321D01*
X166164D01*
X166182Y162302D01*
X166238Y162265D01*
X166331Y162228D01*
X166423Y162191D01*
X166534Y162154D01*
X166812Y162043D01*
X167127Y161950D01*
X167516Y161858D01*
X167923Y161784D01*
X168367Y161765D01*
X168552D01*
X168701Y161784D01*
X168867Y161802D01*
X169052Y161839D01*
X169275Y161876D01*
X169497Y161913D01*
X169997Y162061D01*
X170275Y162173D01*
X170534Y162284D01*
X170793Y162432D01*
X171052Y162598D01*
X171293Y162784D01*
X171534Y163006D01*
X171552Y163024D01*
X171589Y163061D01*
X171645Y163135D01*
X171719Y163246D01*
X171811Y163376D01*
X171904Y163524D01*
X172015Y163709D01*
X172126Y163932D01*
X172237Y164172D01*
X172348Y164450D01*
X172441Y164746D01*
X172534Y165061D01*
X172608Y165413D01*
X172663Y165783D01*
X172700Y166191D01*
X172719Y166616D01*
Y166728D01*
X172700Y166857D01*
Y167042D01*
X172682Y167246D01*
X172645Y167505D01*
X172608Y167765D01*
X172534Y168061D01*
X172460Y168357D01*
X172367Y168672D01*
X172256Y169005D01*
X172108Y169320D01*
X171959Y169616D01*
X171756Y169912D01*
X171552Y170190D01*
X171293Y170431D01*
X171274Y170450D01*
X171237Y170468D01*
X171163Y170523D01*
X171071Y170598D01*
X170960Y170672D01*
X170812Y170764D01*
X170663Y170857D01*
X170478Y170949D01*
X170275Y171042D01*
X170052Y171135D01*
X169552Y171301D01*
X168978Y171431D01*
X168682Y171449D01*
X168367Y171468D01*
D02*
G37*
G36*
X144703Y175005D02*
X143444D01*
X147166Y161747D01*
X148425D01*
X144703Y175005D01*
D02*
G37*
%LPD*%
G36*
X228270Y212670D02*
X228294Y212624D01*
Y212531D01*
X228340Y212439D01*
X228363Y212276D01*
X228409Y212115D01*
X228502Y211721D01*
X228618Y211258D01*
X228780Y210749D01*
X228942Y210194D01*
X229150Y209615D01*
X230885Y204941D01*
X225471D01*
X227137Y209338D01*
Y209361D01*
X227160Y209430D01*
X227206Y209546D01*
X227252Y209685D01*
X227322Y209847D01*
X227391Y210055D01*
X227461Y210287D01*
X227553Y210518D01*
X227738Y211050D01*
X227923Y211605D01*
X228109Y212161D01*
X228270Y212693D01*
Y212670D01*
D02*
G37*
G36*
X148694D02*
X148717Y212624D01*
Y212531D01*
X148764Y212439D01*
X148787Y212276D01*
X148833Y212115D01*
X148926Y211721D01*
X149041Y211258D01*
X149203Y210749D01*
X149365Y210194D01*
X149573Y209615D01*
X151309Y204941D01*
X145894D01*
X147560Y209338D01*
Y209361D01*
X147583Y209430D01*
X147630Y209546D01*
X147676Y209685D01*
X147745Y209847D01*
X147815Y210055D01*
X147884Y210287D01*
X147977Y210518D01*
X148162Y211050D01*
X148347Y211605D01*
X148532Y212161D01*
X148694Y212693D01*
Y212670D01*
D02*
G37*
G36*
X110283Y212762D02*
X110560Y212716D01*
X110861Y212624D01*
X111185Y212508D01*
X111486Y212323D01*
X111787Y212068D01*
X111810Y212045D01*
X111903Y211952D01*
X112018Y211791D01*
X112134Y211582D01*
X112273Y211328D01*
X112388Y211027D01*
X112481Y210703D01*
X112504Y210333D01*
Y210310D01*
Y210287D01*
X112481Y210148D01*
X112458Y209939D01*
X112411Y209685D01*
X112319Y209384D01*
X112203Y209083D01*
X112018Y208759D01*
X111787Y208482D01*
X111764Y208458D01*
X111648Y208366D01*
X111486Y208250D01*
X111278Y208134D01*
X111000Y207996D01*
X110676Y207880D01*
X110306Y207787D01*
X109889Y207764D01*
X109843D01*
X109704Y207787D01*
X109496Y207811D01*
X109218Y207857D01*
X108918Y207949D01*
X108617Y208065D01*
X108293Y208250D01*
X108015Y208482D01*
X107992Y208505D01*
X107899Y208620D01*
X107784Y208759D01*
X107645Y208968D01*
X107506Y209222D01*
X107390Y209523D01*
X107298Y209870D01*
X107275Y210240D01*
Y210263D01*
Y210287D01*
Y210425D01*
X107321Y210634D01*
X107367Y210888D01*
X107460Y211166D01*
X107598Y211467D01*
X107784Y211767D01*
X108038Y212068D01*
X108061Y212091D01*
X108177Y212184D01*
X108339Y212300D01*
X108547Y212439D01*
X108825Y212577D01*
X109126Y212693D01*
X109496Y212786D01*
X109889Y212809D01*
X110075D01*
X110283Y212762D01*
D02*
G37*
G36*
X110190Y206145D02*
X110445Y206121D01*
X110769Y206052D01*
X111139Y205936D01*
X111509Y205774D01*
X111903Y205543D01*
X112250Y205242D01*
X112296Y205196D01*
X112388Y205080D01*
X112527Y204872D01*
X112689Y204617D01*
X112874Y204270D01*
X113013Y203877D01*
X113106Y203437D01*
X113152Y202951D01*
Y202905D01*
Y202812D01*
X113129Y202651D01*
X113106Y202442D01*
X113059Y202188D01*
X112990Y201910D01*
X112898Y201632D01*
X112782Y201332D01*
X112759Y201308D01*
X112712Y201193D01*
X112620Y201054D01*
X112481Y200892D01*
X112319Y200684D01*
X112111Y200475D01*
X111879Y200290D01*
X111602Y200105D01*
X111555Y200082D01*
X111463Y200036D01*
X111301Y199966D01*
X111093Y199897D01*
X110838Y199827D01*
X110537Y199758D01*
X110213Y199712D01*
X109889Y199689D01*
X109750D01*
X109658Y199712D01*
X109380Y199735D01*
X109056Y199804D01*
X108686Y199920D01*
X108293Y200059D01*
X107922Y200290D01*
X107552Y200591D01*
X107506Y200637D01*
X107413Y200753D01*
X107251Y200961D01*
X107090Y201216D01*
X106927Y201540D01*
X106765Y201933D01*
X106673Y202396D01*
X106627Y202882D01*
Y202905D01*
Y202951D01*
Y203021D01*
X106650Y203113D01*
X106673Y203368D01*
X106742Y203715D01*
X106858Y204062D01*
X107020Y204455D01*
X107251Y204849D01*
X107575Y205219D01*
X107622Y205265D01*
X107737Y205358D01*
X107946Y205520D01*
X108223Y205705D01*
X108570Y205867D01*
X108987Y206029D01*
X109450Y206121D01*
X109959Y206168D01*
X110098D01*
X110190Y206145D01*
D02*
G37*
G36*
X187615Y184592D02*
X187684Y184569D01*
X187777Y184546D01*
X187892Y184500D01*
X188031Y184454D01*
X188193Y184407D01*
X188378Y184361D01*
X188586Y184292D01*
X188841Y184245D01*
X189095Y184176D01*
X189396Y184107D01*
X189720Y184037D01*
X190044Y183968D01*
X190415Y183922D01*
X190808Y183852D01*
X190854D01*
X190993Y183829D01*
X191224Y183783D01*
X191479Y183736D01*
X191756Y183690D01*
X192034Y183621D01*
X192289Y183551D01*
X192520Y183459D01*
X192543D01*
X192613Y183412D01*
X192705Y183366D01*
X192798Y183297D01*
X193076Y183112D01*
X193307Y182834D01*
Y182811D01*
X193353Y182764D01*
X193376Y182672D01*
X193423Y182556D01*
X193469Y182417D01*
X193515Y182279D01*
X193538Y182094D01*
X193561Y181908D01*
Y181885D01*
Y181770D01*
X193538Y181631D01*
X193492Y181446D01*
X193423Y181237D01*
X193307Y181029D01*
X193168Y180798D01*
X192983Y180589D01*
X192960Y180566D01*
X192867Y180520D01*
X192728Y180427D01*
X192543Y180335D01*
X192289Y180242D01*
X191988Y180150D01*
X191641Y180103D01*
X191224Y180080D01*
X191039D01*
X190808Y180103D01*
X190553Y180150D01*
X190229Y180196D01*
X189905Y180289D01*
X189558Y180404D01*
X189211Y180566D01*
X189165Y180589D01*
X189072Y180659D01*
X188910Y180774D01*
X188725Y180937D01*
X188517Y181122D01*
X188286Y181353D01*
X188100Y181631D01*
X187915Y181931D01*
X187892Y181955D01*
X187869Y182047D01*
X187823Y182209D01*
X187753Y182417D01*
X187684Y182695D01*
X187638Y183019D01*
X187615Y183412D01*
X187591Y183875D01*
X187568Y184616D01*
X187591D01*
X187615Y184592D01*
D02*
G37*
G36*
X230284Y189012D02*
X230538Y188989D01*
X230839Y188920D01*
X231209Y188804D01*
X231603Y188642D01*
X231973Y188410D01*
X232343Y188110D01*
X232389Y188063D01*
X232482Y187948D01*
X232644Y187740D01*
X232806Y187462D01*
X232991Y187138D01*
X233153Y186721D01*
X233292Y186235D01*
X233361Y185703D01*
X226859D01*
Y185726D01*
Y185773D01*
X226882Y185842D01*
Y185935D01*
X226928Y186212D01*
X226998Y186513D01*
X227113Y186883D01*
X227229Y187230D01*
X227414Y187577D01*
X227623Y187878D01*
Y187901D01*
X227669Y187925D01*
X227785Y188063D01*
X227993Y188249D01*
X228270Y188457D01*
X228618Y188665D01*
X229034Y188850D01*
X229520Y188989D01*
X229775Y189012D01*
X230052Y189035D01*
X230191D01*
X230284Y189012D01*
D02*
G37*
G36*
X220079Y188087D02*
X216145D01*
X215845Y188110D01*
X215521Y188133D01*
X215197Y188156D01*
X214873Y188202D01*
X214618Y188249D01*
X214572Y188272D01*
X214479Y188295D01*
X214341Y188364D01*
X214156Y188457D01*
X213970Y188549D01*
X213762Y188688D01*
X213554Y188873D01*
X213392Y189058D01*
X213369Y189082D01*
X213323Y189151D01*
X213253Y189290D01*
X213184Y189452D01*
X213114Y189637D01*
X213045Y189868D01*
X212999Y190146D01*
X212975Y190447D01*
Y190493D01*
Y190586D01*
X212999Y190725D01*
X213022Y190910D01*
X213068Y191141D01*
X213137Y191372D01*
X213230Y191604D01*
X213369Y191835D01*
X213392Y191858D01*
X213438Y191928D01*
X213531Y192043D01*
X213646Y192159D01*
X213808Y192298D01*
X213993Y192437D01*
X214225Y192576D01*
X214479Y192668D01*
X214503D01*
X214618Y192714D01*
X214780Y192738D01*
X215035Y192784D01*
X215382Y192830D01*
X215775Y192853D01*
X216284Y192900D01*
X220079D01*
Y188087D01*
D02*
G37*
G36*
Y180682D02*
X215521D01*
X215035Y180705D01*
X214827Y180728D01*
X214641Y180751D01*
X214618D01*
X214526Y180774D01*
X214387Y180798D01*
X214225Y180844D01*
X213832Y180983D01*
X213438Y181168D01*
X213415Y181191D01*
X213346Y181237D01*
X213253Y181307D01*
X213137Y181399D01*
X213022Y181538D01*
X212860Y181677D01*
X212744Y181862D01*
X212605Y182070D01*
X212582Y182094D01*
X212559Y182163D01*
X212513Y182302D01*
X212443Y182464D01*
X212374Y182649D01*
X212327Y182880D01*
X212304Y183158D01*
X212281Y183435D01*
Y183482D01*
Y183574D01*
X212304Y183759D01*
X212351Y183968D01*
X212397Y184199D01*
X212489Y184454D01*
X212605Y184708D01*
X212767Y184963D01*
X212790Y184986D01*
X212860Y185078D01*
X212952Y185194D01*
X213091Y185333D01*
X213276Y185495D01*
X213508Y185657D01*
X213762Y185796D01*
X214063Y185912D01*
X214109Y185935D01*
X214202Y185958D01*
X214410Y186004D01*
X214664Y186050D01*
X214988Y186097D01*
X215382Y186143D01*
X215868Y186189D01*
X220079D01*
Y180682D01*
D02*
G37*
G36*
X203002Y189012D02*
X203257Y188989D01*
X203604Y188896D01*
X203997Y188758D01*
X204414Y188573D01*
X204807Y188295D01*
X205015Y188110D01*
X205201Y187925D01*
Y187901D01*
X205247Y187878D01*
X205293Y187809D01*
X205362Y187716D01*
X205432Y187601D01*
X205501Y187462D01*
X205594Y187277D01*
X205686Y187092D01*
X205779Y186860D01*
X205872Y186629D01*
X205941Y186351D01*
X206010Y186050D01*
X206080Y185726D01*
X206126Y185379D01*
X206149Y184986D01*
X206172Y184592D01*
Y184569D01*
Y184500D01*
Y184384D01*
X206149Y184222D01*
Y184037D01*
X206126Y183829D01*
X206057Y183343D01*
X205941Y182788D01*
X205756Y182232D01*
X205525Y181700D01*
X205362Y181469D01*
X205201Y181237D01*
X205177D01*
X205154Y181191D01*
X205015Y181075D01*
X204807Y180890D01*
X204529Y180705D01*
X204182Y180497D01*
X203766Y180312D01*
X203280Y180196D01*
X203025Y180173D01*
X202748Y180150D01*
X202609D01*
X202493Y180173D01*
X202239Y180219D01*
X201892Y180289D01*
X201521Y180427D01*
X201105Y180613D01*
X200711Y180890D01*
X200503Y181075D01*
X200318Y181260D01*
X200295Y181284D01*
X200272Y181307D01*
X200226Y181376D01*
X200156Y181469D01*
X200087Y181584D01*
X199994Y181723D01*
X199902Y181908D01*
X199809Y182094D01*
X199716Y182325D01*
X199647Y182579D01*
X199555Y182857D01*
X199485Y183158D01*
X199416Y183505D01*
X199369Y183852D01*
X199323Y184245D01*
Y184662D01*
Y184685D01*
Y184755D01*
Y184870D01*
X199346Y185009D01*
Y185194D01*
X199369Y185402D01*
X199439Y185888D01*
X199555Y186397D01*
X199740Y186953D01*
X199994Y187462D01*
X200133Y187716D01*
X200318Y187925D01*
Y187948D01*
X200364Y187971D01*
X200503Y188110D01*
X200711Y188272D01*
X200989Y188480D01*
X201336Y188688D01*
X201753Y188873D01*
X202215Y188989D01*
X202470Y189012D01*
X202748Y189035D01*
X202887D01*
X203002Y189012D01*
D02*
G37*
G36*
X170954D02*
X171209Y188989D01*
X171510Y188896D01*
X171857Y188781D01*
X172227Y188573D01*
X172597Y188318D01*
X172782Y188133D01*
X172944Y187948D01*
Y187925D01*
X172990Y187901D01*
X173014Y187832D01*
X173083Y187740D01*
X173153Y187624D01*
X173222Y187485D01*
X173291Y187323D01*
X173384Y187138D01*
X173476Y186907D01*
X173546Y186652D01*
X173615Y186374D01*
X173685Y186073D01*
X173731Y185749D01*
X173777Y185379D01*
X173824Y184986D01*
Y184569D01*
Y184546D01*
Y184477D01*
Y184361D01*
X173800Y184199D01*
Y184014D01*
X173777Y183806D01*
X173708Y183320D01*
X173592Y182788D01*
X173430Y182232D01*
X173199Y181700D01*
X173060Y181469D01*
X172898Y181237D01*
X172875D01*
X172852Y181191D01*
X172736Y181075D01*
X172528Y180890D01*
X172273Y180705D01*
X171949Y180497D01*
X171556Y180312D01*
X171139Y180196D01*
X170908Y180173D01*
X170676Y180150D01*
X170561D01*
X170468Y180173D01*
X170214Y180196D01*
X169913Y180289D01*
X169566Y180404D01*
X169196Y180589D01*
X168825Y180844D01*
X168640Y181006D01*
X168478Y181191D01*
Y181214D01*
X168432Y181237D01*
X168386Y181307D01*
X168340Y181399D01*
X168270Y181515D01*
X168178Y181631D01*
X168108Y181816D01*
X168015Y182001D01*
X167923Y182209D01*
X167854Y182441D01*
X167761Y182718D01*
X167692Y182996D01*
X167645Y183320D01*
X167599Y183644D01*
X167553Y184014D01*
Y184407D01*
Y184431D01*
Y184523D01*
Y184639D01*
X167576Y184801D01*
Y184986D01*
X167599Y185217D01*
X167622Y185472D01*
X167668Y185749D01*
X167784Y186305D01*
X167946Y186883D01*
X168178Y187439D01*
X168316Y187670D01*
X168478Y187901D01*
Y187925D01*
X168525Y187948D01*
X168640Y188087D01*
X168848Y188272D01*
X169103Y188480D01*
X169427Y188688D01*
X169820Y188850D01*
X170260Y188989D01*
X170491Y189012D01*
X170746Y189035D01*
X170862D01*
X170954Y189012D01*
D02*
G37*
G36*
X192272Y170153D02*
X192476Y170116D01*
X192717Y170061D01*
X192994Y169949D01*
X193291Y169783D01*
X193439Y169690D01*
X193587Y169561D01*
X193735Y169431D01*
X193883Y169264D01*
Y169246D01*
X193920Y169227D01*
X193957Y169172D01*
X193994Y169098D01*
X194050Y169005D01*
X194124Y168894D01*
X194179Y168764D01*
X194254Y168616D01*
X194328Y168431D01*
X194383Y168246D01*
X194457Y168024D01*
X194513Y167802D01*
X194550Y167542D01*
X194587Y167265D01*
X194624Y166987D01*
Y166672D01*
Y166654D01*
Y166598D01*
Y166505D01*
Y166394D01*
X194605Y166265D01*
Y166098D01*
X194568Y165746D01*
X194513Y165357D01*
X194439Y164950D01*
X194328Y164580D01*
X194254Y164413D01*
X194179Y164265D01*
Y164246D01*
X194142Y164209D01*
X194105Y164154D01*
X194050Y164080D01*
X193883Y163876D01*
X193643Y163672D01*
X193365Y163450D01*
X193013Y163246D01*
X192828Y163172D01*
X192606Y163117D01*
X192402Y163080D01*
X192161Y163061D01*
X192069D01*
X191994Y163080D01*
X191791Y163117D01*
X191550Y163172D01*
X191272Y163284D01*
X190976Y163432D01*
X190680Y163654D01*
X190532Y163802D01*
X190384Y163950D01*
Y163969D01*
X190347Y163987D01*
X190310Y164043D01*
X190273Y164117D01*
X190198Y164209D01*
X190143Y164321D01*
X190069Y164469D01*
X189995Y164617D01*
X189939Y164802D01*
X189865Y164987D01*
X189791Y165209D01*
X189736Y165450D01*
X189699Y165709D01*
X189661Y165987D01*
X189624Y166302D01*
Y166616D01*
Y166635D01*
Y166691D01*
Y166783D01*
X189643Y166913D01*
Y167061D01*
X189661Y167246D01*
X189717Y167635D01*
X189791Y168061D01*
X189921Y168524D01*
X190106Y168931D01*
X190217Y169135D01*
X190347Y169301D01*
Y169320D01*
X190384Y169338D01*
X190476Y169431D01*
X190624Y169579D01*
X190828Y169746D01*
X191087Y169894D01*
X191383Y170042D01*
X191735Y170135D01*
X191920Y170172D01*
X192198D01*
X192272Y170153D01*
D02*
G37*
G36*
X231528D02*
X231731Y170135D01*
X231972Y170061D01*
X232268Y169968D01*
X232564Y169801D01*
X232861Y169598D01*
X233009Y169450D01*
X233157Y169301D01*
Y169283D01*
X233194Y169264D01*
X233231Y169209D01*
X233268Y169135D01*
X233324Y169061D01*
X233379Y168950D01*
X233453Y168820D01*
X233509Y168672D01*
X233583Y168505D01*
X233657Y168302D01*
X233712Y168098D01*
X233768Y167876D01*
X233805Y167616D01*
X233842Y167357D01*
X233879Y167079D01*
Y166765D01*
Y166746D01*
Y166691D01*
Y166598D01*
X233860Y166468D01*
Y166320D01*
X233842Y166135D01*
X233787Y165746D01*
X233694Y165302D01*
X233583Y164876D01*
X233398Y164450D01*
X233286Y164265D01*
X233157Y164098D01*
X233120Y164061D01*
X233027Y163969D01*
X232879Y163839D01*
X232657Y163691D01*
X232398Y163524D01*
X232083Y163395D01*
X231731Y163302D01*
X231546Y163284D01*
X231342Y163265D01*
X231231D01*
X231157Y163284D01*
X230953Y163302D01*
X230694Y163376D01*
X230417Y163469D01*
X230102Y163617D01*
X229805Y163820D01*
X229657Y163950D01*
X229509Y164098D01*
Y164117D01*
X229472Y164135D01*
X229435Y164191D01*
X229398Y164265D01*
X229342Y164339D01*
X229268Y164450D01*
X229213Y164580D01*
X229139Y164746D01*
X229065Y164913D01*
X229009Y165098D01*
X228935Y165320D01*
X228880Y165561D01*
X228843Y165802D01*
X228806Y166080D01*
X228769Y166394D01*
Y166709D01*
Y166728D01*
Y166783D01*
Y166876D01*
X228787Y166987D01*
Y167135D01*
X228806Y167302D01*
X228861Y167672D01*
X228954Y168098D01*
X229083Y168524D01*
X229268Y168950D01*
X229398Y169135D01*
X229528Y169301D01*
Y169320D01*
X229565Y169338D01*
X229657Y169431D01*
X229824Y169579D01*
X230046Y169746D01*
X230305Y169894D01*
X230620Y170042D01*
X230972Y170135D01*
X231157Y170172D01*
X231453D01*
X231528Y170153D01*
D02*
G37*
G36*
X136352Y166616D02*
X136408Y166598D01*
X136482Y166579D01*
X136574Y166542D01*
X136685Y166505D01*
X136815Y166468D01*
X136963Y166431D01*
X137130Y166376D01*
X137333Y166339D01*
X137537Y166283D01*
X137778Y166228D01*
X138037Y166172D01*
X138296Y166117D01*
X138593Y166080D01*
X138907Y166024D01*
X138945D01*
X139056Y166005D01*
X139241Y165968D01*
X139444Y165931D01*
X139667Y165894D01*
X139889Y165839D01*
X140092Y165783D01*
X140278Y165709D01*
X140296D01*
X140352Y165672D01*
X140426Y165635D01*
X140500Y165580D01*
X140722Y165431D01*
X140907Y165209D01*
Y165191D01*
X140944Y165154D01*
X140963Y165080D01*
X141000Y164987D01*
X141037Y164876D01*
X141074Y164765D01*
X141092Y164617D01*
X141111Y164469D01*
Y164450D01*
Y164357D01*
X141092Y164246D01*
X141055Y164098D01*
X141000Y163932D01*
X140907Y163765D01*
X140796Y163580D01*
X140648Y163413D01*
X140630Y163395D01*
X140555Y163358D01*
X140444Y163284D01*
X140296Y163209D01*
X140092Y163135D01*
X139852Y163061D01*
X139574Y163024D01*
X139241Y163006D01*
X139093D01*
X138907Y163024D01*
X138704Y163061D01*
X138444Y163098D01*
X138185Y163172D01*
X137907Y163265D01*
X137630Y163395D01*
X137593Y163413D01*
X137519Y163469D01*
X137389Y163561D01*
X137241Y163691D01*
X137074Y163839D01*
X136889Y164024D01*
X136741Y164246D01*
X136593Y164487D01*
X136574Y164506D01*
X136556Y164580D01*
X136519Y164709D01*
X136463Y164876D01*
X136408Y165098D01*
X136371Y165357D01*
X136352Y165672D01*
X136334Y166042D01*
X136315Y166635D01*
X136334D01*
X136352Y166616D01*
D02*
G37*
G36*
X114447D02*
X114502Y166598D01*
X114577Y166579D01*
X114669Y166542D01*
X114780Y166505D01*
X114910Y166468D01*
X115058Y166431D01*
X115225Y166376D01*
X115428Y166339D01*
X115632Y166283D01*
X115873Y166228D01*
X116132Y166172D01*
X116391Y166117D01*
X116687Y166080D01*
X117002Y166024D01*
X117039D01*
X117150Y166005D01*
X117336Y165968D01*
X117539Y165931D01*
X117761Y165894D01*
X117984Y165839D01*
X118187Y165783D01*
X118372Y165709D01*
X118391D01*
X118447Y165672D01*
X118521Y165635D01*
X118595Y165580D01*
X118817Y165431D01*
X119002Y165209D01*
Y165191D01*
X119039Y165154D01*
X119058Y165080D01*
X119095Y164987D01*
X119132Y164876D01*
X119169Y164765D01*
X119187Y164617D01*
X119206Y164469D01*
Y164450D01*
Y164357D01*
X119187Y164246D01*
X119150Y164098D01*
X119095Y163932D01*
X119002Y163765D01*
X118891Y163580D01*
X118743Y163413D01*
X118724Y163395D01*
X118650Y163358D01*
X118539Y163284D01*
X118391Y163209D01*
X118187Y163135D01*
X117947Y163061D01*
X117669Y163024D01*
X117336Y163006D01*
X117187D01*
X117002Y163024D01*
X116799Y163061D01*
X116539Y163098D01*
X116280Y163172D01*
X116002Y163265D01*
X115725Y163395D01*
X115688Y163413D01*
X115613Y163469D01*
X115484Y163561D01*
X115336Y163691D01*
X115169Y163839D01*
X114984Y164024D01*
X114836Y164246D01*
X114688Y164487D01*
X114669Y164506D01*
X114651Y164580D01*
X114614Y164709D01*
X114558Y164876D01*
X114502Y165098D01*
X114466Y165357D01*
X114447Y165672D01*
X114429Y166042D01*
X114410Y166635D01*
X114429D01*
X114447Y166616D01*
D02*
G37*
G36*
X70655D02*
X70711Y166598D01*
X70785Y166579D01*
X70877Y166542D01*
X70988Y166505D01*
X71118Y166468D01*
X71266Y166431D01*
X71433Y166376D01*
X71637Y166339D01*
X71840Y166283D01*
X72081Y166228D01*
X72340Y166172D01*
X72600Y166117D01*
X72896Y166080D01*
X73211Y166024D01*
X73248D01*
X73359Y166005D01*
X73544Y165968D01*
X73748Y165931D01*
X73970Y165894D01*
X74192Y165839D01*
X74396Y165783D01*
X74581Y165709D01*
X74599D01*
X74655Y165672D01*
X74729Y165635D01*
X74803Y165580D01*
X75025Y165431D01*
X75210Y165209D01*
Y165191D01*
X75247Y165154D01*
X75266Y165080D01*
X75303Y164987D01*
X75340Y164876D01*
X75377Y164765D01*
X75395Y164617D01*
X75414Y164469D01*
Y164450D01*
Y164357D01*
X75395Y164246D01*
X75358Y164098D01*
X75303Y163932D01*
X75210Y163765D01*
X75099Y163580D01*
X74951Y163413D01*
X74933Y163395D01*
X74858Y163358D01*
X74747Y163284D01*
X74599Y163209D01*
X74396Y163135D01*
X74155Y163061D01*
X73877Y163024D01*
X73544Y163006D01*
X73396D01*
X73211Y163024D01*
X73007Y163061D01*
X72748Y163098D01*
X72488Y163172D01*
X72211Y163265D01*
X71933Y163395D01*
X71896Y163413D01*
X71822Y163469D01*
X71692Y163561D01*
X71544Y163691D01*
X71377Y163839D01*
X71192Y164024D01*
X71044Y164246D01*
X70896Y164487D01*
X70877Y164506D01*
X70859Y164580D01*
X70822Y164709D01*
X70766Y164876D01*
X70711Y165098D01*
X70674Y165357D01*
X70655Y165672D01*
X70637Y166042D01*
X70618Y166635D01*
X70637D01*
X70655Y166616D01*
D02*
G37*
G36*
X93838Y170153D02*
X94042Y170135D01*
X94282Y170079D01*
X94579Y169987D01*
X94894Y169857D01*
X95190Y169672D01*
X95486Y169431D01*
X95523Y169394D01*
X95597Y169301D01*
X95727Y169135D01*
X95856Y168913D01*
X96004Y168653D01*
X96134Y168320D01*
X96245Y167931D01*
X96301Y167505D01*
X91098D01*
Y167524D01*
Y167561D01*
X91116Y167616D01*
Y167691D01*
X91153Y167913D01*
X91209Y168153D01*
X91301Y168450D01*
X91394Y168727D01*
X91542Y169005D01*
X91709Y169246D01*
Y169264D01*
X91746Y169283D01*
X91838Y169394D01*
X92005Y169542D01*
X92227Y169709D01*
X92505Y169876D01*
X92838Y170024D01*
X93227Y170135D01*
X93431Y170153D01*
X93653Y170172D01*
X93764D01*
X93838Y170153D01*
D02*
G37*
G36*
X108466Y169116D02*
X104652D01*
X104430Y169135D01*
X104170Y169153D01*
X103874Y169172D01*
X103578Y169209D01*
X103281Y169264D01*
X103022Y169338D01*
X102985Y169357D01*
X102911Y169394D01*
X102800Y169450D01*
X102652Y169524D01*
X102485Y169635D01*
X102319Y169764D01*
X102152Y169931D01*
X102022Y170116D01*
X102004Y170135D01*
X101967Y170209D01*
X101911Y170320D01*
X101837Y170468D01*
X101782Y170635D01*
X101726Y170820D01*
X101689Y171042D01*
X101671Y171264D01*
Y171283D01*
Y171301D01*
X101689Y171412D01*
X101708Y171579D01*
X101745Y171801D01*
X101837Y172023D01*
X101948Y172283D01*
X102115Y172523D01*
X102337Y172764D01*
X102374Y172783D01*
X102467Y172857D01*
X102615Y172949D01*
X102856Y173060D01*
X103133Y173171D01*
X103504Y173264D01*
X103930Y173338D01*
X104430Y173357D01*
X108466D01*
Y169116D01*
D02*
G37*
G36*
X168571Y170153D02*
X168775Y170135D01*
X169052Y170061D01*
X169367Y169949D01*
X169701Y169801D01*
X170015Y169579D01*
X170182Y169431D01*
X170330Y169283D01*
Y169264D01*
X170367Y169246D01*
X170404Y169190D01*
X170460Y169116D01*
X170515Y169024D01*
X170571Y168913D01*
X170645Y168764D01*
X170719Y168616D01*
X170793Y168431D01*
X170867Y168246D01*
X170923Y168024D01*
X170978Y167783D01*
X171034Y167524D01*
X171071Y167246D01*
X171089Y166931D01*
X171108Y166616D01*
Y166598D01*
Y166542D01*
Y166450D01*
X171089Y166320D01*
Y166172D01*
X171071Y166005D01*
X171015Y165617D01*
X170923Y165172D01*
X170774Y164728D01*
X170589Y164302D01*
X170460Y164117D01*
X170330Y163932D01*
X170312D01*
X170293Y163895D01*
X170182Y163802D01*
X170015Y163654D01*
X169793Y163506D01*
X169515Y163339D01*
X169182Y163191D01*
X168793Y163098D01*
X168589Y163080D01*
X168367Y163061D01*
X168256D01*
X168164Y163080D01*
X167960Y163117D01*
X167682Y163172D01*
X167386Y163284D01*
X167053Y163432D01*
X166738Y163654D01*
X166571Y163802D01*
X166423Y163950D01*
X166405Y163969D01*
X166386Y163987D01*
X166349Y164043D01*
X166294Y164117D01*
X166238Y164209D01*
X166164Y164321D01*
X166090Y164469D01*
X166016Y164617D01*
X165942Y164802D01*
X165886Y165006D01*
X165812Y165228D01*
X165756Y165469D01*
X165701Y165746D01*
X165664Y166024D01*
X165627Y166339D01*
Y166672D01*
Y166691D01*
Y166746D01*
Y166839D01*
X165645Y166950D01*
Y167098D01*
X165664Y167265D01*
X165720Y167654D01*
X165812Y168061D01*
X165960Y168505D01*
X166164Y168913D01*
X166275Y169116D01*
X166423Y169283D01*
Y169301D01*
X166460Y169320D01*
X166571Y169431D01*
X166738Y169561D01*
X166960Y169727D01*
X167238Y169894D01*
X167571Y170042D01*
X167941Y170135D01*
X168145Y170153D01*
X168367Y170172D01*
X168478D01*
X168571Y170153D01*
D02*
G37*
D10*
X344590Y649380D02*
Y652380D01*
X373800Y649380D02*
Y652380D01*
X362800Y649380D02*
Y652380D01*
X333590Y649380D02*
Y652380D01*
M02*
