G04*
G04 #@! TF.GenerationSoftware,Altium Limited,Altium Designer,24.2.2 (26)*
G04*
G04 Layer_Color=8388736*
%FSLAX44Y44*%
%MOMM*%
G71*
G04*
G04 #@! TF.SameCoordinates,B43C7C8D-B24C-4B8E-A4ED-51BAA9CAD299*
G04*
G04*
G04 #@! TF.FilePolarity,Negative*
G04*
G01*
G75*
%ADD39R,1.4032X1.4032*%
%ADD40R,2.1032X1.7032*%
%ADD41R,1.7032X2.1032*%
%ADD42P,1.9844X4X90.0*%
%ADD43R,1.4032X1.4032*%
%ADD44R,2.0032X1.5032*%
%ADD45R,1.4032X2.2032*%
%ADD46R,1.2032X2.9032*%
%ADD47R,3.5032X2.9032*%
%ADD48R,0.7000X1.9000*%
%ADD49R,0.4000X1.9000*%
%ADD50R,2.7032X1.4032*%
%ADD51O,2.7032X0.9032*%
%ADD52O,1.7032X0.7032*%
%ADD53O,0.7032X1.7032*%
%ADD54R,1.7032X4.7032*%
G04:AMPARAMS|DCode=55|XSize=4.7032mm|YSize=1.7032mm|CornerRadius=0mm|HoleSize=0mm|Usage=FLASHONLY|Rotation=135.000|XOffset=0mm|YOffset=0mm|HoleType=Round|Shape=Rectangle|*
%AMROTATEDRECTD55*
4,1,4,2.2650,-1.0607,1.0607,-2.2650,-2.2650,1.0607,-1.0607,2.2650,2.2650,-1.0607,0.0*
%
%ADD55ROTATEDRECTD55*%

%ADD56O,1.8000X2.4000*%
%ADD57R,1.5732X1.0732*%
%ADD58C,3.4036*%
%ADD59O,3.2032X1.7032*%
%ADD60O,2.6032X2.0032*%
%ADD61R,2.6032X2.0032*%
%ADD62O,1.1032X1.9032*%
%ADD63O,1.1032X2.2032*%
%ADD64C,0.8032*%
%ADD65O,1.7000X2.0000*%
G36*
X1399683Y907719D02*
X1399814Y907693D01*
X1399940Y907651D01*
X1400059Y907592D01*
X1400170Y907518D01*
X1400270Y907430D01*
X1405270Y902430D01*
X1405358Y902330D01*
X1405432Y902219D01*
X1405491Y902100D01*
X1405533Y901974D01*
X1405560Y901843D01*
X1405568Y901710D01*
Y891710D01*
X1405560Y891577D01*
X1405533Y891447D01*
X1405491Y891320D01*
X1405432Y891201D01*
X1405358Y891090D01*
X1405270Y890990D01*
X1400270Y885990D01*
X1400170Y885902D01*
X1400059Y885828D01*
X1399940Y885769D01*
X1399814Y885726D01*
X1399683Y885701D01*
X1399550Y885692D01*
X1369050D01*
X1368917Y885701D01*
X1368786Y885726D01*
X1368660Y885769D01*
X1368541Y885828D01*
X1368430Y885902D01*
X1368330Y885990D01*
X1363330Y890990D01*
X1363242Y891090D01*
X1363168Y891201D01*
X1363109Y891320D01*
X1363067Y891447D01*
X1363040Y891577D01*
X1363032Y891710D01*
Y901710D01*
X1363040Y901843D01*
X1363067Y901974D01*
X1363109Y902100D01*
X1363168Y902219D01*
X1363242Y902330D01*
X1363330Y902430D01*
X1368330Y907430D01*
X1368430Y907518D01*
X1368541Y907592D01*
X1368660Y907651D01*
X1368786Y907693D01*
X1368917Y907719D01*
X1369050Y907728D01*
X1399550D01*
X1399683Y907719D01*
D02*
G37*
G36*
X1342433Y886970D02*
X1342563Y886944D01*
X1342690Y886901D01*
X1342809Y886842D01*
X1342920Y886768D01*
X1343020Y886680D01*
X1348020Y881680D01*
X1348108Y881580D01*
X1348182Y881469D01*
X1348241Y881350D01*
X1348284Y881224D01*
X1348309Y881093D01*
X1348318Y880960D01*
Y850460D01*
X1348309Y850327D01*
X1348284Y850197D01*
X1348241Y850070D01*
X1348182Y849951D01*
X1348108Y849840D01*
X1348020Y849740D01*
X1343020Y844740D01*
X1342920Y844652D01*
X1342809Y844578D01*
X1342690Y844519D01*
X1342563Y844476D01*
X1342433Y844451D01*
X1342300Y844442D01*
X1332300D01*
X1332167Y844451D01*
X1332036Y844476D01*
X1331910Y844519D01*
X1331791Y844578D01*
X1331680Y844652D01*
X1331580Y844740D01*
X1326580Y849740D01*
X1326492Y849840D01*
X1326418Y849951D01*
X1326359Y850070D01*
X1326317Y850197D01*
X1326290Y850327D01*
X1326282Y850460D01*
Y880960D01*
X1326290Y881093D01*
X1326317Y881224D01*
X1326359Y881350D01*
X1326418Y881469D01*
X1326492Y881580D01*
X1326580Y881680D01*
X1331580Y886680D01*
X1331680Y886768D01*
X1331791Y886842D01*
X1331910Y886901D01*
X1332036Y886944D01*
X1332167Y886970D01*
X1332300Y886978D01*
X1342300D01*
X1342433Y886970D01*
D02*
G37*
G36*
X1399683Y847719D02*
X1399814Y847693D01*
X1399940Y847651D01*
X1400059Y847592D01*
X1400170Y847518D01*
X1400270Y847430D01*
X1405270Y842430D01*
X1405358Y842330D01*
X1405432Y842219D01*
X1405491Y842100D01*
X1405533Y841974D01*
X1405560Y841843D01*
X1405568Y841710D01*
Y831710D01*
X1405560Y831577D01*
X1405533Y831447D01*
X1405491Y831320D01*
X1405432Y831201D01*
X1405358Y831090D01*
X1405270Y830990D01*
X1400270Y825990D01*
X1400170Y825902D01*
X1400059Y825828D01*
X1399940Y825769D01*
X1399814Y825726D01*
X1399683Y825701D01*
X1399550Y825692D01*
X1369050D01*
X1368917Y825701D01*
X1368786Y825726D01*
X1368660Y825769D01*
X1368541Y825828D01*
X1368430Y825902D01*
X1368330Y825990D01*
X1363330Y830990D01*
X1363242Y831090D01*
X1363168Y831201D01*
X1363109Y831320D01*
X1363067Y831447D01*
X1363040Y831577D01*
X1363032Y831710D01*
Y841710D01*
X1363040Y841843D01*
X1363067Y841974D01*
X1363109Y842100D01*
X1363168Y842219D01*
X1363242Y842330D01*
X1363330Y842430D01*
X1368330Y847430D01*
X1368430Y847518D01*
X1368541Y847592D01*
X1368660Y847651D01*
X1368786Y847693D01*
X1368917Y847719D01*
X1369050Y847728D01*
X1399550D01*
X1399683Y847719D01*
D02*
G37*
D39*
X1534160Y798910D02*
D03*
Y819910D02*
D03*
X1629410Y706010D02*
D03*
Y727010D02*
D03*
X1258570Y834050D02*
D03*
Y855050D02*
D03*
X1683597Y681060D02*
D03*
Y660060D02*
D03*
X1656503Y681060D02*
D03*
Y660060D02*
D03*
X1309370Y834050D02*
D03*
Y855050D02*
D03*
X1501140Y558206D02*
D03*
Y579206D02*
D03*
X1663700Y824824D02*
D03*
Y803824D02*
D03*
X1666240Y875620D02*
D03*
Y896620D02*
D03*
X1541780Y558206D02*
D03*
Y579206D02*
D03*
X1530350Y406914D02*
D03*
Y385914D02*
D03*
X1506220Y406994D02*
D03*
Y385994D02*
D03*
X1534160Y779024D02*
D03*
Y758024D02*
D03*
X1629410Y679560D02*
D03*
Y658560D02*
D03*
X1283970Y855050D02*
D03*
Y834050D02*
D03*
X1710690Y660060D02*
D03*
Y681060D02*
D03*
X1670050Y704994D02*
D03*
Y725994D02*
D03*
X1649730Y704994D02*
D03*
Y725994D02*
D03*
X1690370Y706010D02*
D03*
Y727010D02*
D03*
X1663700Y762676D02*
D03*
Y783676D02*
D03*
X1398270Y336660D02*
D03*
Y315660D02*
D03*
Y296504D02*
D03*
Y275504D02*
D03*
X1710690Y703630D02*
D03*
Y724630D02*
D03*
D40*
X1445260Y837190D02*
D03*
Y806190D02*
D03*
X1511300Y896880D02*
D03*
Y865880D02*
D03*
D41*
X1408690Y657860D02*
D03*
X1377690D02*
D03*
X1401070Y791210D02*
D03*
X1370070D02*
D03*
D42*
X1586246Y389874D02*
D03*
X1601095Y375025D02*
D03*
X1630664Y346726D02*
D03*
X1615815Y361575D02*
D03*
D43*
X1575476Y712470D02*
D03*
X1596476D02*
D03*
X1307480Y908050D02*
D03*
X1286480D02*
D03*
X1307480Y887730D02*
D03*
X1286480D02*
D03*
X1307480Y928370D02*
D03*
X1286480D02*
D03*
D44*
X1445260Y622830D02*
D03*
Y593830D02*
D03*
X1329690Y621560D02*
D03*
Y592560D02*
D03*
X1445260Y757450D02*
D03*
Y728450D02*
D03*
X1319530Y754910D02*
D03*
Y725910D02*
D03*
D45*
X1466850Y628680D02*
D03*
Y600680D02*
D03*
X1352550Y593060D02*
D03*
Y621060D02*
D03*
X1469390Y759490D02*
D03*
Y731490D02*
D03*
X1343660Y730220D02*
D03*
Y758220D02*
D03*
D46*
X1417460Y752130D02*
D03*
X1394460D02*
D03*
X1371460D02*
D03*
X1421270Y627670D02*
D03*
X1398270D02*
D03*
X1375270D02*
D03*
D47*
X1394460Y693130D02*
D03*
X1398270Y568670D02*
D03*
D48*
X1628390Y866836D02*
D03*
X1620390D02*
D03*
X1572390D02*
D03*
X1564390D02*
D03*
D49*
X1598890D02*
D03*
X1603890D02*
D03*
X1608890D02*
D03*
X1593890D02*
D03*
X1588890D02*
D03*
X1578890D02*
D03*
D50*
X1603340Y675640D02*
D03*
X1555340D02*
D03*
D51*
X1609460Y792480D02*
D03*
Y779780D02*
D03*
Y805180D02*
D03*
Y754380D02*
D03*
Y767080D02*
D03*
Y830580D02*
D03*
Y817880D02*
D03*
Y741680D02*
D03*
X1560460Y767080D02*
D03*
Y779780D02*
D03*
Y817880D02*
D03*
Y830580D02*
D03*
Y792480D02*
D03*
Y805180D02*
D03*
Y741680D02*
D03*
Y754380D02*
D03*
D52*
X1479532Y516130D02*
D03*
Y508130D02*
D03*
Y500130D02*
D03*
Y492130D02*
D03*
Y484130D02*
D03*
Y476130D02*
D03*
Y468130D02*
D03*
Y460130D02*
D03*
X1565548Y516130D02*
D03*
Y508130D02*
D03*
Y500130D02*
D03*
Y492130D02*
D03*
Y484130D02*
D03*
Y476130D02*
D03*
Y468130D02*
D03*
Y460130D02*
D03*
D53*
X1550540Y531138D02*
D03*
X1542540D02*
D03*
X1534540D02*
D03*
X1526540D02*
D03*
X1518540D02*
D03*
X1510540D02*
D03*
X1502540D02*
D03*
X1494540D02*
D03*
Y445122D02*
D03*
X1502540D02*
D03*
X1510540D02*
D03*
X1518540D02*
D03*
X1526540D02*
D03*
X1534540D02*
D03*
X1542540D02*
D03*
X1550540D02*
D03*
D54*
X1700530Y892810D02*
D03*
Y807810D02*
D03*
D55*
X1662002Y367458D02*
D03*
X1601898Y427562D02*
D03*
D56*
X1367790Y272340D02*
D03*
Y342340D02*
D03*
D57*
X1521351Y578684D02*
D03*
Y559284D02*
D03*
D58*
X1268730Y801370D02*
D03*
X1751330Y788670D02*
D03*
X1319530Y280670D02*
D03*
X1598930D02*
D03*
D59*
X1268730Y661670D02*
D03*
Y636270D02*
D03*
Y610870D02*
D03*
Y585470D02*
D03*
Y560070D02*
D03*
Y534670D02*
D03*
Y509270D02*
D03*
Y483870D02*
D03*
Y433070D02*
D03*
Y407670D02*
D03*
Y382270D02*
D03*
Y356870D02*
D03*
Y331470D02*
D03*
Y306070D02*
D03*
X1751330Y524510D02*
D03*
Y549910D02*
D03*
Y575310D02*
D03*
Y600710D02*
D03*
Y626110D02*
D03*
Y651510D02*
D03*
Y676910D02*
D03*
Y702310D02*
D03*
Y727710D02*
D03*
Y753110D02*
D03*
Y306070D02*
D03*
Y331470D02*
D03*
Y356870D02*
D03*
Y382270D02*
D03*
Y407670D02*
D03*
Y433070D02*
D03*
Y458470D02*
D03*
Y483870D02*
D03*
D60*
X1503680Y684530D02*
D03*
Y633730D02*
D03*
D61*
Y659130D02*
D03*
D62*
X1553140Y919480D02*
D03*
X1639640D02*
D03*
D63*
X1553140Y877780D02*
D03*
X1639640D02*
D03*
D64*
X1567490Y882680D02*
D03*
X1625290D02*
D03*
D65*
X1522730Y321310D02*
D03*
X1522730Y295910D02*
D03*
X1497330Y321310D02*
D03*
X1471930Y295910D02*
D03*
X1497330D02*
D03*
X1471930Y321310D02*
D03*
M02*
