G04*
G04 #@! TF.GenerationSoftware,Altium Limited,Altium Designer,24.2.2 (26)*
G04*
G04 Layer_Physical_Order=1*
G04 Layer_Color=255*
%FSLAX44Y44*%
%MOMM*%
G71*
G04*
G04 #@! TF.SameCoordinates,1D217020-7D60-43C6-8249-C75354DF8CDE*
G04*
G04*
G04 #@! TF.FilePolarity,Positive*
G04*
G01*
G75*
%ADD10C,0.2000*%
%ADD20R,2.0000X1.2000*%
%ADD21R,1.2000X1.2000*%
%ADD22R,1.9000X1.5000*%
%ADD23R,1.5000X1.9000*%
%ADD24P,1.6971X4X90.0*%
%ADD25R,1.2000X1.2000*%
%ADD26R,1.8000X1.3000*%
%ADD27R,1.2000X2.0000*%
%ADD28R,1.0000X2.7000*%
%ADD29R,3.3000X2.7000*%
%ADD30R,0.6000X1.8000*%
%ADD31R,0.3000X1.8000*%
%ADD32O,2.5000X0.7000*%
%ADD33O,1.5000X0.5000*%
%ADD34O,0.5000X1.5000*%
%ADD35R,1.5000X4.5000*%
G04:AMPARAMS|DCode=36|XSize=4.5mm|YSize=1.5mm|CornerRadius=0mm|HoleSize=0mm|Usage=FLASHONLY|Rotation=135.000|XOffset=0mm|YOffset=0mm|HoleType=Round|Shape=Rectangle|*
%AMROTATEDRECTD36*
4,1,4,2.1213,-1.0607,1.0607,-2.1213,-2.1213,1.0607,-1.0607,2.1213,2.1213,-1.0607,0.0*
%
%ADD36ROTATEDRECTD36*%

%ADD37O,1.6000X2.2000*%
%ADD38R,1.3700X0.8700*%
%ADD66C,0.5000*%
%ADD67C,0.4000*%
%ADD68C,0.3000*%
%ADD69C,3.2004*%
%ADD70O,3.0000X1.5000*%
%AMCUSTOMSHAPE71*
4,1,8,-1.0000,-1.5250,-0.5000,-2.0250,0.5000,-2.0250,1.0000,-1.5250,1.0000,1.5250,0.5000,2.0250,-0.5000,2.0250,-1.0000,1.5250,-1.0000,-1.5250,0.0*%
%ADD71CUSTOMSHAPE71*%

%AMCUSTOMSHAPE72*
4,1,8,-1.5250,1.0000,-2.0250,0.5000,-2.0250,-0.5000,-1.5250,-1.0000,1.5250,-1.0000,2.0250,-0.5000,2.0250,0.5000,1.5250,1.0000,-1.5250,1.0000,0.0*%
%ADD72CUSTOMSHAPE72*%

%ADD73O,2.4000X1.8000*%
%ADD74R,2.4000X1.8000*%
%ADD75O,0.9000X1.7000*%
%ADD76O,0.9000X2.0000*%
%ADD77C,0.6000*%
%ADD78O,1.5000X1.8000*%
%ADD79C,0.8000*%
%ADD80C,1.0000*%
%ADD81C,0.7000*%
G36*
X532371Y3569D02*
X136607D01*
X135642Y4901D01*
X134876Y7569D01*
X135756Y8641D01*
X136870Y10726D01*
X137556Y12988D01*
X137710Y14547D01*
X137614Y14545D01*
X136672Y14471D01*
X135838Y14346D01*
X135110Y14172D01*
X134490Y13949D01*
X133976Y13675D01*
X133569Y13352D01*
X133270Y12979D01*
X133077Y12557D01*
X132992Y12084D01*
X133266Y16340D01*
X125730D01*
X113672D01*
Y15340D01*
X113904Y12988D01*
X114590Y10726D01*
X115704Y8641D01*
X116584Y7569D01*
X115818Y4901D01*
X114853Y3569D01*
X3569D01*
Y25819D01*
X6493Y27918D01*
X7287Y28217D01*
X7569Y28205D01*
X8990Y27922D01*
X52070D01*
X54021Y28310D01*
X54507Y28635D01*
X57839Y27212D01*
X58468Y26572D01*
Y24799D01*
X59198Y21127D01*
X60631Y17669D01*
X62710Y14557D01*
X65357Y11910D01*
X68469Y9831D01*
X71927Y8398D01*
X75599Y7668D01*
X79342D01*
X83013Y8398D01*
X86471Y9831D01*
X89583Y11910D01*
X92230Y14557D01*
X94309Y17669D01*
X95742Y21127D01*
X96472Y24799D01*
Y28542D01*
X95742Y32213D01*
X94309Y35671D01*
X92230Y38783D01*
X89583Y41430D01*
X86471Y43509D01*
X83013Y44942D01*
X80146Y45512D01*
X80540Y49512D01*
X147710D01*
X147710Y34883D01*
X146210Y31504D01*
X146210Y30625D01*
Y23504D01*
X156210D01*
Y21504D01*
X158210D01*
Y15534D01*
X159925D01*
X159695Y15497D01*
X159488Y15386D01*
X159306Y15200D01*
X159148Y14940D01*
X159014Y14606D01*
X158904Y14197D01*
X158819Y13714D01*
X158759Y13156D01*
X158710Y11819D01*
X158210D01*
Y11504D01*
X166210D01*
Y16153D01*
X170210Y17366D01*
X170385Y17104D01*
X173314Y14175D01*
X174968Y13070D01*
X176919Y12682D01*
X277741D01*
X279692Y13070D01*
X281346Y14175D01*
X284275Y17104D01*
X285380Y18758D01*
X285768Y20709D01*
Y29874D01*
X285807Y30460D01*
X285910Y31266D01*
X286038Y31893D01*
X286051Y31934D01*
X287802Y33278D01*
X289405Y35367D01*
X290413Y37799D01*
X290756Y40410D01*
Y43410D01*
X290413Y46020D01*
X289405Y48453D01*
X287802Y50542D01*
X286579Y51480D01*
X286492Y54909D01*
X286805Y56022D01*
X288872Y57608D01*
X290715Y60010D01*
X291646Y62258D01*
X291016Y62245D01*
X288896Y62047D01*
X288007Y61874D01*
X287231Y61651D01*
X286570Y61378D01*
X286023Y61056D01*
X285590Y60685D01*
X285271Y60264D01*
X285065Y59794D01*
X286717Y65310D01*
X280670D01*
Y69310D01*
X287914D01*
X288051Y69767D01*
X287971Y69310D01*
X292203D01*
X291874Y71812D01*
X291721Y72182D01*
X294369Y76182D01*
X300972D01*
Y57150D01*
X301360Y55199D01*
X302465Y53545D01*
X310085Y45925D01*
X311739Y44820D01*
X313690Y44432D01*
X342318D01*
X342371Y44367D01*
X343759Y40432D01*
X342110Y38783D01*
X340031Y35671D01*
X338598Y32213D01*
X337868Y28542D01*
Y24799D01*
X338598Y21127D01*
X340031Y17669D01*
X342110Y14557D01*
X344757Y11910D01*
X347869Y9831D01*
X351327Y8398D01*
X354999Y7668D01*
X358741D01*
X362413Y8398D01*
X365871Y9831D01*
X368983Y11910D01*
X371630Y14557D01*
X373709Y17669D01*
X375142Y21127D01*
X375872Y24799D01*
Y28542D01*
X375142Y32213D01*
X373709Y35671D01*
X371630Y38783D01*
X369981Y40432D01*
X371369Y44367D01*
X371422Y44432D01*
X493841D01*
X494997Y44662D01*
X496727Y43335D01*
X499160Y42327D01*
X501770Y41984D01*
X516770D01*
X519380Y42327D01*
X521813Y43335D01*
X523902Y44938D01*
X525505Y47027D01*
X526513Y49460D01*
X526856Y52070D01*
X526513Y54681D01*
X525505Y57113D01*
X523902Y59202D01*
X521813Y60805D01*
X519380Y61813D01*
X516770Y62156D01*
X501770D01*
X499160Y61813D01*
X496727Y60805D01*
X494638Y59202D01*
X493035Y57113D01*
X492027Y54681D01*
X492020Y54628D01*
X479814D01*
X478283Y58323D01*
X489972Y70012D01*
X494638Y70338D01*
X496727Y68735D01*
X499160Y67727D01*
X501770Y67384D01*
X516770D01*
X519380Y67727D01*
X521813Y68735D01*
X523902Y70338D01*
X525505Y72427D01*
X526513Y74859D01*
X526856Y77470D01*
X526513Y80080D01*
X525505Y82513D01*
X523902Y84602D01*
X521813Y86205D01*
X519380Y87213D01*
X516770Y87556D01*
X501770D01*
X499160Y87213D01*
X496727Y86205D01*
X495637Y85369D01*
X495331Y85343D01*
X493715Y88828D01*
X493767Y89436D01*
X496787Y92456D01*
X497218Y92832D01*
X497831Y93303D01*
X498185Y93531D01*
X499160Y93127D01*
X501770Y92784D01*
X516770D01*
X519380Y93127D01*
X521813Y94135D01*
X523902Y95738D01*
X525505Y97827D01*
X526513Y100260D01*
X526856Y102870D01*
X526513Y105480D01*
X525505Y107913D01*
X523902Y110002D01*
X521813Y111605D01*
X519380Y112613D01*
X516770Y112956D01*
X501770D01*
X499160Y112613D01*
X496727Y111605D01*
X494638Y110002D01*
X493035Y107913D01*
X492027Y105480D01*
X491698Y105341D01*
X487717Y107975D01*
X487698Y108033D01*
Y122093D01*
X491698Y123141D01*
X491820Y123133D01*
X492626Y123030D01*
X493253Y122902D01*
X493294Y122889D01*
X494638Y121138D01*
X496727Y119535D01*
X499160Y118527D01*
X501770Y118184D01*
X516770D01*
X519380Y118527D01*
X521813Y119535D01*
X523902Y121138D01*
X525505Y123227D01*
X526513Y125660D01*
X526856Y128270D01*
X526513Y130880D01*
X525505Y133313D01*
X523902Y135402D01*
X521813Y137005D01*
X519380Y138013D01*
X516770Y138356D01*
X501770D01*
X499160Y138013D01*
X496727Y137005D01*
X494638Y135402D01*
X493294Y133651D01*
X493253Y133638D01*
X492665Y133518D01*
X491093Y133368D01*
X485529D01*
X483578Y132980D01*
X481924Y131875D01*
X478998Y128949D01*
X478986Y128949D01*
X474998Y130163D01*
Y140128D01*
X483442Y148572D01*
X491234D01*
X491820Y148533D01*
X492626Y148430D01*
X493253Y148302D01*
X493294Y148289D01*
X494638Y146538D01*
X496727Y144935D01*
X499160Y143927D01*
X501770Y143584D01*
X516770D01*
X519380Y143927D01*
X521813Y144935D01*
X523902Y146538D01*
X525505Y148627D01*
X526513Y151060D01*
X526856Y153670D01*
X526513Y156280D01*
X525505Y158713D01*
X523902Y160802D01*
X521813Y162405D01*
X519380Y163413D01*
X516770Y163756D01*
X501770D01*
X499160Y163413D01*
X496727Y162405D01*
X494638Y160802D01*
X493294Y159051D01*
X493253Y159038D01*
X492665Y158918D01*
X491093Y158768D01*
X481330D01*
X479379Y158380D01*
X477725Y157275D01*
X466295Y145845D01*
X465190Y144191D01*
X464802Y142240D01*
Y106252D01*
X442388Y83838D01*
X396963D01*
X395433Y87534D01*
X400625Y92726D01*
Y92726D01*
X401531Y94914D01*
X407725D01*
X409676Y95302D01*
X411330Y96407D01*
X416135Y101212D01*
X416422Y101452D01*
X416863Y101768D01*
X417204Y101965D01*
X417266Y101992D01*
X430549Y88709D01*
X444691Y102851D01*
X409335Y138207D01*
X395193Y124065D01*
X409705Y109553D01*
X409679Y109490D01*
X409482Y109150D01*
X409166Y108708D01*
X408925Y108421D01*
X405614Y105110D01*
X394549D01*
X392599Y104722D01*
X388459Y106440D01*
X387897Y107575D01*
Y107575D01*
X382240Y113232D01*
X375169Y106161D01*
X372341Y108989D01*
X379412Y116060D01*
X373755Y121717D01*
X373120Y121082D01*
X367520Y126682D01*
X360449Y119611D01*
X357621Y122439D01*
X364692Y129510D01*
X359035Y135167D01*
X359035D01*
X356308Y136407D01*
X357090Y140502D01*
X366967Y150379D01*
X367254Y150620D01*
X367695Y150936D01*
X368036Y151133D01*
X368099Y151159D01*
X370444Y148813D01*
X384587Y162955D01*
X351648Y195894D01*
X350510Y197032D01*
X351396Y199171D01*
X354625Y201032D01*
X389928D01*
X415495Y175465D01*
X417149Y174360D01*
X419100Y173972D01*
X491234D01*
X491820Y173933D01*
X492626Y173830D01*
X493253Y173702D01*
X493294Y173689D01*
X494638Y171938D01*
X496727Y170335D01*
X499160Y169327D01*
X501770Y168984D01*
X516770D01*
X519380Y169327D01*
X521813Y170335D01*
X523902Y171938D01*
X525505Y174027D01*
X526513Y176460D01*
X526856Y179070D01*
X526513Y181681D01*
X525505Y184113D01*
X523902Y186202D01*
X521813Y187805D01*
X519380Y188813D01*
X516770Y189156D01*
X501770D01*
X499160Y188813D01*
X496727Y187805D01*
X494638Y186202D01*
X493294Y184451D01*
X493253Y184438D01*
X492665Y184318D01*
X491093Y184168D01*
X421212D01*
X410008Y195372D01*
X411664Y199372D01*
X491234D01*
X491820Y199333D01*
X492626Y199230D01*
X493253Y199102D01*
X493294Y199089D01*
X494638Y197338D01*
X496727Y195735D01*
X499160Y194727D01*
X501770Y194384D01*
X516770D01*
X519380Y194727D01*
X521813Y195735D01*
X523902Y197338D01*
X525505Y199427D01*
X526513Y201859D01*
X526856Y204470D01*
X526513Y207080D01*
X525505Y209513D01*
X523902Y211602D01*
X521813Y213205D01*
X519380Y214213D01*
X516770Y214556D01*
X501770D01*
X499160Y214213D01*
X496727Y213205D01*
X494638Y211602D01*
X493294Y209851D01*
X493253Y209838D01*
X492665Y209718D01*
X491093Y209568D01*
X411052D01*
X404373Y216247D01*
X403818Y221348D01*
X407242Y224772D01*
X491234D01*
X491820Y224733D01*
X492626Y224630D01*
X493253Y224502D01*
X493294Y224489D01*
X494638Y222738D01*
X496727Y221135D01*
X499160Y220127D01*
X501770Y219784D01*
X516770D01*
X519380Y220127D01*
X521813Y221135D01*
X523902Y222738D01*
X525505Y224827D01*
X526513Y227260D01*
X526856Y229870D01*
X526513Y232481D01*
X525505Y234913D01*
X523902Y237002D01*
X521813Y238605D01*
X519380Y239613D01*
X516770Y239956D01*
X501770D01*
X499160Y239613D01*
X496727Y238605D01*
X494638Y237002D01*
X493294Y235251D01*
X493253Y235238D01*
X492665Y235118D01*
X491093Y234968D01*
X410649D01*
X409118Y238664D01*
X435867Y265412D01*
X491234D01*
X491820Y265373D01*
X492626Y265270D01*
X493253Y265142D01*
X493294Y265129D01*
X494638Y263378D01*
X496727Y261775D01*
X499160Y260767D01*
X501770Y260424D01*
X516770D01*
X519380Y260767D01*
X521813Y261775D01*
X523902Y263378D01*
X525505Y265467D01*
X526513Y267899D01*
X526856Y270510D01*
X526513Y273120D01*
X525505Y275553D01*
X523902Y277642D01*
X521813Y279245D01*
X519380Y280253D01*
X516770Y280596D01*
X501770D01*
X499160Y280253D01*
X496727Y279245D01*
X494638Y277642D01*
X493294Y275891D01*
X493253Y275878D01*
X492665Y275758D01*
X491093Y275608D01*
X434906D01*
X433294Y278521D01*
X433139Y279498D01*
X444453Y290812D01*
X491234D01*
X491820Y290773D01*
X492626Y290670D01*
X493253Y290542D01*
X493294Y290529D01*
X494638Y288778D01*
X496727Y287175D01*
X499160Y286167D01*
X501770Y285824D01*
X516770D01*
X519380Y286167D01*
X521813Y287175D01*
X523902Y288778D01*
X525505Y290867D01*
X526513Y293300D01*
X526856Y295910D01*
X526513Y298521D01*
X525505Y300953D01*
X523902Y303042D01*
X521813Y304645D01*
X519380Y305653D01*
X516770Y305996D01*
X501770D01*
X499160Y305653D01*
X496727Y304645D01*
X494638Y303042D01*
X493294Y301291D01*
X493253Y301278D01*
X492665Y301158D01*
X491093Y301008D01*
X443720D01*
X441937Y304665D01*
X441916Y304861D01*
X453267Y316212D01*
X491234D01*
X491820Y316173D01*
X492626Y316070D01*
X493253Y315942D01*
X493294Y315929D01*
X494638Y314178D01*
X496727Y312575D01*
X499160Y311567D01*
X501770Y311224D01*
X516770D01*
X519380Y311567D01*
X521813Y312575D01*
X523902Y314178D01*
X525505Y316267D01*
X526513Y318699D01*
X526856Y321310D01*
X526513Y323921D01*
X525505Y326353D01*
X523902Y328442D01*
X521813Y330045D01*
X519380Y331053D01*
X516770Y331396D01*
X501770D01*
X499160Y331053D01*
X496727Y330045D01*
X494638Y328442D01*
X493294Y326691D01*
X493253Y326678D01*
X492665Y326558D01*
X491093Y326408D01*
X454844D01*
X453188Y330408D01*
X464392Y341612D01*
X491234D01*
X491820Y341573D01*
X492626Y341470D01*
X493253Y341342D01*
X493294Y341329D01*
X494638Y339578D01*
X496727Y337975D01*
X499160Y336967D01*
X501770Y336624D01*
X516770D01*
X519380Y336967D01*
X521813Y337975D01*
X523902Y339578D01*
X525505Y341667D01*
X526513Y344100D01*
X526856Y346710D01*
X526513Y349320D01*
X525505Y351753D01*
X523902Y353842D01*
X521813Y355445D01*
X519380Y356453D01*
X516770Y356796D01*
X501770D01*
X499160Y356453D01*
X496727Y355445D01*
X494638Y353842D01*
X493294Y352091D01*
X493253Y352078D01*
X492665Y351958D01*
X491093Y351808D01*
X468384D01*
X466853Y355504D01*
X478362Y367012D01*
X491234D01*
X491820Y366973D01*
X492626Y366870D01*
X493253Y366742D01*
X493294Y366729D01*
X494638Y364978D01*
X496727Y363375D01*
X499160Y362367D01*
X501770Y362024D01*
X516770D01*
X519380Y362367D01*
X521813Y363375D01*
X523902Y364978D01*
X525505Y367067D01*
X526513Y369500D01*
X526856Y372110D01*
X526513Y374720D01*
X525505Y377153D01*
X523902Y379242D01*
X521813Y380845D01*
X519380Y381853D01*
X516770Y382196D01*
X501770D01*
X499160Y381853D01*
X496727Y380845D01*
X494638Y379242D01*
X493294Y377491D01*
X493253Y377478D01*
X492665Y377358D01*
X491093Y377208D01*
X476250D01*
X474299Y376820D01*
X472645Y375715D01*
X364158Y267228D01*
X318488D01*
X316537Y266840D01*
X314883Y265735D01*
X313778Y264081D01*
X313390Y262130D01*
X313778Y260179D01*
X314704Y258130D01*
X313778Y256081D01*
X313390Y254130D01*
X313778Y252179D01*
X314704Y250130D01*
X313778Y248081D01*
X313390Y246130D01*
X313778Y244179D01*
X314704Y242130D01*
X313778Y240081D01*
X313390Y238130D01*
X313778Y236179D01*
X314704Y234130D01*
X313778Y232081D01*
X313390Y230130D01*
X313778Y228179D01*
X314704Y226130D01*
X313778Y224081D01*
X313390Y222130D01*
X313778Y220179D01*
X314704Y218130D01*
X313778Y216081D01*
X313390Y214130D01*
X313778Y212179D01*
X314704Y210130D01*
X313778Y208081D01*
X313390Y206130D01*
X313778Y204179D01*
X314883Y202525D01*
X316537Y201420D01*
X318488Y201032D01*
X328488D01*
X328488Y201032D01*
X343837D01*
X347066Y199171D01*
X347953Y197032D01*
X346933Y196012D01*
X335089Y184169D01*
X360537Y158721D01*
X360511Y158658D01*
X360314Y158317D01*
X359998Y157876D01*
X359757Y157589D01*
X349880Y147712D01*
X344692Y147389D01*
X344186Y147895D01*
X341956Y145665D01*
X341894Y145692D01*
X341553Y145889D01*
X341111Y146205D01*
X340824Y146445D01*
X313578Y173692D01*
Y190130D01*
X313578Y190130D01*
Y196122D01*
X313190Y198073D01*
X312085Y199727D01*
X310431Y200832D01*
X308480Y201220D01*
X306529Y200832D01*
X304480Y199905D01*
X302431Y200832D01*
X300480Y201220D01*
X297578Y204641D01*
Y205345D01*
X304085Y211852D01*
X305190Y213506D01*
X305578Y215457D01*
Y263619D01*
X308480Y267040D01*
X310431Y267428D01*
X312085Y268533D01*
X313190Y270187D01*
X313578Y272138D01*
Y272812D01*
X313947Y272910D01*
X314488Y272999D01*
X314868Y273032D01*
X352179D01*
X354130Y273420D01*
X355784Y274525D01*
X471580Y390321D01*
X472047Y390695D01*
X472660Y391112D01*
X473289Y391469D01*
X473937Y391769D01*
X474607Y392015D01*
X475305Y392207D01*
X476033Y392346D01*
X476627Y392412D01*
X491234D01*
X491820Y392373D01*
X492626Y392270D01*
X493253Y392142D01*
X493294Y392129D01*
X494638Y390378D01*
X496727Y388775D01*
X499160Y387767D01*
X501770Y387424D01*
X516770D01*
X519380Y387767D01*
X521813Y388775D01*
X523902Y390378D01*
X525505Y392467D01*
X526513Y394899D01*
X526856Y397510D01*
X526513Y400121D01*
X525505Y402553D01*
X523902Y404642D01*
X521813Y406245D01*
X519380Y407253D01*
X517985Y407436D01*
Y411471D01*
X519772Y411706D01*
X522570Y412865D01*
X524972Y414708D01*
X526815Y417110D01*
X527974Y419908D01*
X528106Y420910D01*
X525780D01*
Y419100D01*
X525780Y419100D01*
Y418089D01*
X525007Y416222D01*
X523578Y414793D01*
X521711Y414020D01*
X494465D01*
X495970Y412865D01*
X498768Y411706D01*
X500555Y411471D01*
Y407436D01*
X499160Y407253D01*
X496727Y406245D01*
X494638Y404642D01*
X493294Y402891D01*
X493253Y402878D01*
X492665Y402758D01*
X491093Y402608D01*
X478231D01*
X477773Y402673D01*
X477355Y402786D01*
X477130Y402884D01*
Y414560D01*
X460130D01*
Y397560D01*
X460130D01*
X460399Y393560D01*
X350067Y283228D01*
X314833D01*
X314437Y283261D01*
X313867Y283352D01*
X313453Y283458D01*
X313304Y283516D01*
X313190Y284089D01*
X312085Y285743D01*
X310431Y286848D01*
X308480Y287236D01*
X305578Y290657D01*
Y295706D01*
X308220D01*
Y311827D01*
X309720Y315206D01*
X309720Y315206D01*
X309720Y315206D01*
Y323206D01*
X299720D01*
Y327206D01*
X309720D01*
Y335206D01*
X305806D01*
X304862Y336322D01*
X303754Y339206D01*
X304206Y339990D01*
X304646Y341630D01*
X303530D01*
X303530Y335280D01*
X303510D01*
X303512Y335214D01*
X303578Y334366D01*
X303688Y333618D01*
X303842Y332970D01*
X304040Y332422D01*
X304282Y331973D01*
X304568Y331624D01*
X304898Y331375D01*
X305272Y331225D01*
X305690Y331175D01*
X296005D01*
X296477Y331225D01*
X296899Y331375D01*
X297272Y331624D01*
X297595Y331973D01*
X297869Y332422D01*
X298092Y332970D01*
X298266Y333618D01*
X298391Y334366D01*
X298459Y335146D01*
X298323Y335280D01*
X261603D01*
X261605Y335214D01*
X261679Y334366D01*
X261804Y333618D01*
X261978Y332970D01*
X262201Y332422D01*
X262475Y331973D01*
X262798Y331624D01*
X263171Y331375D01*
X263593Y331225D01*
X264065Y331175D01*
X254095D01*
X254567Y331225D01*
X254989Y331375D01*
X255362Y331624D01*
X255685Y331973D01*
X255959Y332422D01*
X256182Y332970D01*
X256356Y333618D01*
X256481Y334366D01*
X256555Y335214D01*
X256557Y335280D01*
X245459D01*
X248561Y333330D01*
X249080Y332600D01*
Y327206D01*
X259080D01*
Y323206D01*
X249080D01*
Y318794D01*
X231377D01*
X229622Y318445D01*
X228133Y317450D01*
X226902Y316219D01*
X226687Y316177D01*
X225033Y315072D01*
X219860Y309898D01*
X175210D01*
Y328921D01*
X229105D01*
X230081Y329115D01*
X231014Y329502D01*
X231841Y330054D01*
X232556Y330769D01*
X233108Y331596D01*
X233495Y332529D01*
X233689Y333505D01*
Y334010D01*
X233689Y334010D01*
Y337402D01*
X236693Y338207D01*
X236220Y339350D01*
X236220Y340360D01*
Y355600D01*
X236220Y355600D01*
X236122Y356591D01*
X235364Y358422D01*
X233962Y359824D01*
X232131Y360582D01*
X231140Y360680D01*
X198120Y360680D01*
X198610Y361170D01*
X181210D01*
Y356170D01*
X187095D01*
X188210Y356170D01*
X189590Y355764D01*
X190775Y351244D01*
X190080Y350529D01*
X165229D01*
X165144Y350564D01*
X165109Y350649D01*
X165109Y386929D01*
X166699Y388413D01*
X168460Y389025D01*
X170210Y387770D01*
Y386658D01*
X170566Y387519D01*
X171281Y388233D01*
X172215Y388620D01*
X172720Y388620D01*
X185420Y388620D01*
X185420Y388620D01*
X185925Y388620D01*
X186859Y388233D01*
X187573Y387519D01*
X187960Y386585D01*
X187960Y386080D01*
X187960Y382270D01*
X188009Y381774D01*
X188388Y380859D01*
X189089Y380158D01*
X189889Y379827D01*
X188210Y382506D01*
X188210Y391170D01*
X191692Y392421D01*
X214165D01*
X214790Y388680D01*
X214790D01*
Y379730D01*
X237490D01*
X237490Y379730D01*
X238240Y379730D01*
X239713Y379437D01*
X241099Y378863D01*
X242347Y378029D01*
X243409Y376968D01*
X244243Y375719D01*
X244817Y374333D01*
X245110Y372861D01*
X245110Y372110D01*
X245110Y367030D01*
Y367030D01*
X245208Y366039D01*
X245966Y364208D01*
X247368Y362806D01*
X249199Y362048D01*
X250190Y361950D01*
X300990D01*
X300990Y361950D01*
X301262Y361950D01*
X300090Y362626D01*
X298173Y363140D01*
X298460Y367021D01*
X415283D01*
X416259Y367215D01*
X418592Y368182D01*
X419419Y368734D01*
X421206Y370521D01*
X421758Y371348D01*
X422725Y373681D01*
X422919Y374657D01*
Y375920D01*
X422919Y375920D01*
Y397560D01*
X422943D01*
Y401213D01*
X423006Y401239D01*
X423386Y401341D01*
X423922Y401429D01*
X424295Y401462D01*
X431685D01*
X432058Y401429D01*
X432594Y401341D01*
X432974Y401239D01*
X433037Y401213D01*
Y397560D01*
X450037D01*
Y414560D01*
X433037D01*
Y411907D01*
X432974Y411881D01*
X432594Y411779D01*
X432058Y411691D01*
X431685Y411658D01*
X424295D01*
X423922Y411691D01*
X423386Y411779D01*
X423006Y411881D01*
X422943Y411907D01*
Y414560D01*
X405943D01*
Y413413D01*
X405868Y413362D01*
X405315Y412535D01*
X405121Y411560D01*
X405121Y383665D01*
X405097Y383423D01*
X404867Y382867D01*
X404533Y382533D01*
X403977Y382303D01*
X403735Y382279D01*
X304925D01*
X304683Y382303D01*
X304127Y382533D01*
X303793Y382867D01*
X303563Y383423D01*
X303539Y383665D01*
X303539Y405506D01*
X306965Y408931D01*
X339595D01*
X340571Y409125D01*
X341504Y409512D01*
X342331Y410064D01*
X342331Y410064D01*
X343046Y410779D01*
X343383Y411284D01*
X345349Y412245D01*
X346936Y412824D01*
X347826Y412910D01*
X347980Y412910D01*
Y419100D01*
Y432910D01*
X346710D01*
X343331Y431410D01*
X340613D01*
X339852Y431918D01*
X339852Y431918D01*
X337518Y432885D01*
X336543Y433079D01*
X335281Y433079D01*
X335280Y433079D01*
X306439D01*
X303539Y435979D01*
X303539Y439357D01*
X303563Y439854D01*
X303769Y440888D01*
X304149Y441805D01*
X304699Y442629D01*
X305401Y443330D01*
X306225Y443881D01*
X307141Y444261D01*
X308176Y444466D01*
X308679Y444491D01*
X341235Y444491D01*
X341630Y444491D01*
X341630Y444491D01*
X342605Y444685D01*
X343432Y445238D01*
X343433Y445238D01*
X343985Y446064D01*
X345833Y447631D01*
X347980Y448399D01*
X347980Y468470D01*
X344416Y468470D01*
X344179Y472372D01*
Y472439D01*
X344179Y473450D01*
X344179Y473450D01*
X344179Y473450D01*
X344077Y473965D01*
X343985Y474425D01*
X343985Y474425D01*
X343985Y474426D01*
X343212Y476293D01*
X343212Y476293D01*
X343212Y476293D01*
X342922Y476727D01*
X342660Y477120D01*
X342659Y477120D01*
X342659Y477120D01*
X341230Y478549D01*
X341230Y478549D01*
X341230Y478550D01*
X340799Y478838D01*
X340403Y479102D01*
X340403Y479102D01*
X340403Y479102D01*
X338535Y479875D01*
X338535Y479875D01*
X338535Y479875D01*
X338017Y479978D01*
X337560Y480069D01*
X337560Y480069D01*
X337560Y480069D01*
X336552Y480069D01*
X336550Y480069D01*
X334135D01*
X333934Y480089D01*
X333170Y481212D01*
X332482Y484446D01*
X332641Y484654D01*
X333246Y486114D01*
X333452Y487680D01*
X333246Y489246D01*
X332641Y490706D01*
X332024Y491511D01*
X331679Y492293D01*
Y495768D01*
X332024Y496549D01*
X332641Y497354D01*
X333246Y498814D01*
X333452Y500380D01*
X333246Y501946D01*
X332641Y503406D01*
X332024Y504211D01*
X331679Y504992D01*
Y508467D01*
X332024Y509249D01*
X332641Y510054D01*
X333246Y511514D01*
X333452Y513080D01*
X333246Y514646D01*
X332641Y516106D01*
X332024Y516911D01*
X331679Y517692D01*
Y521167D01*
X332024Y521950D01*
X332641Y522754D01*
X333246Y524214D01*
X333452Y525780D01*
X333246Y527346D01*
X332641Y528806D01*
X332024Y529610D01*
X331679Y530392D01*
Y533867D01*
X332024Y534650D01*
X332641Y535454D01*
X333246Y536914D01*
X333452Y538480D01*
X333246Y540046D01*
X332641Y541506D01*
X332024Y542310D01*
X331679Y543092D01*
Y546567D01*
X332024Y547350D01*
X332641Y548154D01*
X333246Y549614D01*
X333452Y551180D01*
X333246Y552746D01*
X332641Y554206D01*
X332024Y555010D01*
X331679Y555793D01*
Y559268D01*
X332024Y560050D01*
X332641Y560854D01*
X333246Y562314D01*
X333452Y563880D01*
X333246Y565446D01*
X332641Y566906D01*
X332024Y567710D01*
X331679Y568493D01*
Y571968D01*
X332024Y572749D01*
X332641Y573554D01*
X333246Y575014D01*
X333452Y576580D01*
X333246Y578146D01*
X332641Y579606D01*
X331679Y580859D01*
X330426Y581821D01*
X329951Y582018D01*
X329180Y584948D01*
X329224Y585470D01*
X307341Y585470D01*
X307340Y585470D01*
X306937Y585430D01*
X306757Y581980D01*
X306374Y581821D01*
X305121Y580859D01*
X304159Y579606D01*
X303965Y579137D01*
X303269Y577933D01*
X300990Y576228D01*
Y559910D01*
X284480D01*
Y575910D01*
X282100Y575910D01*
X280679Y579321D01*
X280679Y601880D01*
X281240D01*
Y621880D01*
X279734D01*
X279670Y621976D01*
X279353Y622450D01*
X279353Y622451D01*
X279352Y622451D01*
X278281Y623523D01*
X278280Y623523D01*
X278280Y623523D01*
X277849Y623811D01*
X277454Y624075D01*
X277453Y624075D01*
X277453Y624075D01*
X276053Y624655D01*
X276052Y624655D01*
X276052Y624655D01*
X275588Y624747D01*
X275077Y624849D01*
X275077Y624849D01*
X275077Y624849D01*
X274322Y624849D01*
X274320Y624849D01*
X262161Y624849D01*
X261296Y624849D01*
X261296Y624849D01*
X261296Y624849D01*
X260779Y624747D01*
X260320Y624656D01*
X260320Y624656D01*
X260320Y624656D01*
X258721Y623994D01*
X258721Y623994D01*
X258721Y623994D01*
X258306Y623717D01*
X257894Y623442D01*
X257894Y623442D01*
X257894Y623441D01*
X256670Y622218D01*
X256670Y622218D01*
X256670Y622218D01*
X256426Y621853D01*
X256117Y621391D01*
X256117Y621391D01*
X256117Y621391D01*
X255455Y619792D01*
X255455Y619792D01*
X255455Y619792D01*
X255375Y619392D01*
X255261Y618817D01*
X255261Y618817D01*
X255261Y618816D01*
X255261Y617951D01*
Y457199D01*
X255261Y456189D01*
X255349Y455748D01*
X255455Y455213D01*
X255455Y455213D01*
X256228Y453346D01*
X256228Y453346D01*
X256228Y453346D01*
X256506Y452931D01*
X256781Y452519D01*
X256781Y452519D01*
X256781Y452519D01*
X258210Y451090D01*
X258632Y450809D01*
X258812Y449264D01*
X258325Y446504D01*
X256555Y445929D01*
X255604Y446119D01*
X254228Y446688D01*
X252989Y447516D01*
X251936Y448569D01*
X251108Y449808D01*
X250539Y451184D01*
X250236Y452707D01*
X250199Y453452D01*
X250199Y481399D01*
X250199Y482052D01*
X250149Y482302D01*
X250148Y482558D01*
X249889Y483838D01*
X249790Y484074D01*
X249739Y484324D01*
X249231Y485527D01*
X249087Y485739D01*
X248987Y485974D01*
X248250Y487052D01*
X248068Y487231D01*
X247923Y487441D01*
X246987Y488353D01*
X246772Y488492D01*
X246589Y488669D01*
X245490Y489376D01*
X245253Y489470D01*
X245037Y489607D01*
X243820Y490082D01*
X243569Y490127D01*
X243331Y490219D01*
X242789Y490313D01*
X242563Y490220D01*
X190665D01*
X190882Y488950D01*
X190685Y488655D01*
X190491Y487680D01*
Y483436D01*
X187675Y482319D01*
X184400Y484969D01*
Y490220D01*
X168910D01*
X168152Y490220D01*
X166751Y490800D01*
X166400Y491151D01*
Y486668D01*
X164291Y484307D01*
X162400Y483886D01*
X161299Y485102D01*
Y514350D01*
X161105Y515325D01*
X160552Y516152D01*
X159725Y516705D01*
X158750Y516899D01*
X147762D01*
X144453Y520155D01*
Y521563D01*
X144890Y522510D01*
X146050Y523231D01*
X166370D01*
X167345Y523425D01*
X168172Y523978D01*
X168725Y524805D01*
X168806Y525210D01*
X169010D01*
Y531328D01*
X169387Y532238D01*
X170072Y532923D01*
X171085Y533343D01*
X171576Y533391D01*
X211830D01*
X212806Y533585D01*
X214673Y534358D01*
X215500Y534911D01*
X216929Y536340D01*
X217481Y537167D01*
X218255Y539034D01*
X218449Y540009D01*
Y541019D01*
X218449Y541020D01*
X218449Y562215D01*
X218449Y562610D01*
X218449Y562610D01*
X218255Y563585D01*
X217702Y564412D01*
X216861Y567690D01*
X216861Y568761D01*
X216861Y594677D01*
X216861Y595372D01*
X216667Y596348D01*
X216136Y597631D01*
X215583Y598458D01*
X215583Y598458D01*
X214601Y599441D01*
X213774Y599993D01*
X212490Y600525D01*
X211515Y600719D01*
X210820Y600719D01*
X210820Y600719D01*
X119380Y600719D01*
X118306Y600719D01*
X117331Y600525D01*
X115347Y599703D01*
X114520Y599151D01*
X113318Y597949D01*
X111985Y598098D01*
X109318Y599319D01*
Y609710D01*
X106680D01*
X106680Y594360D01*
X106680Y594360D01*
X106680Y593602D01*
X106100Y592201D01*
X105028Y591130D01*
X103628Y590550D01*
X102870Y590550D01*
X97240D01*
Y587382D01*
X100240D01*
X100240Y587382D01*
X101801Y587692D01*
X103124Y588576D01*
X107434Y592886D01*
X107855Y592874D01*
X110035Y592286D01*
X111433Y591343D01*
X111433Y577215D01*
X111433Y576277D01*
X111482Y576031D01*
Y575780D01*
X111848Y573939D01*
X111945Y573708D01*
X111994Y573461D01*
X112711Y571728D01*
X112851Y571519D01*
X112947Y571287D01*
X113989Y569727D01*
X114167Y569549D01*
X114306Y569341D01*
X114488Y569159D01*
X112869Y565159D01*
X79109D01*
X76209Y568059D01*
Y585550D01*
X76015Y586525D01*
X75810Y586832D01*
Y588550D01*
X58810Y588550D01*
X58295Y587625D01*
X57888Y587352D01*
X57335Y586525D01*
X57141Y585550D01*
X57141Y585550D01*
X57141Y585241D01*
X57141Y557533D01*
X53141Y555877D01*
X45988Y563029D01*
Y571550D01*
X50410D01*
Y588550D01*
X33410D01*
Y571550D01*
X37832D01*
Y567275D01*
X33832Y564971D01*
X32213Y565642D01*
X28542Y566372D01*
X24799D01*
X21127Y565642D01*
X17669Y564209D01*
X14132Y565839D01*
X13677Y566353D01*
X13327Y567659D01*
X13220Y567844D01*
X14195Y570142D01*
X14710Y570905D01*
X14803Y570993D01*
X14931Y571097D01*
X15051Y571183D01*
X15258Y571311D01*
X15478Y571428D01*
X15736Y571550D01*
X25010D01*
Y588550D01*
X8010D01*
Y580825D01*
X7940Y580654D01*
X7569Y580431D01*
X3568Y582697D01*
Y661462D01*
X4139Y662274D01*
X7569Y663586D01*
X8010Y663175D01*
Y648140D01*
X11412D01*
Y609550D01*
X8010D01*
Y592550D01*
X25010D01*
Y609550D01*
X21608D01*
Y645312D01*
X24436Y648140D01*
X30462Y648140D01*
Y607400D01*
X30850Y605449D01*
X31955Y603795D01*
X33410Y602340D01*
Y592550D01*
X50410D01*
Y609550D01*
X40658D01*
Y645312D01*
X43486Y648140D01*
X49822Y648140D01*
Y625800D01*
X50210Y623849D01*
X51315Y622195D01*
X59960Y613550D01*
X58810Y609550D01*
X58810D01*
Y592550D01*
X75810D01*
Y609550D01*
X72408D01*
Y613410D01*
X72020Y615361D01*
X70915Y617015D01*
X60018Y627912D01*
Y648140D01*
X63110D01*
X63110Y664261D01*
X64610Y667640D01*
X64610Y668519D01*
Y675640D01*
X54610D01*
Y679640D01*
X64610D01*
Y683260D01*
X105600D01*
X105600D01*
X143955Y683260D01*
X143955Y683260D01*
X148780D01*
X148780Y683260D01*
X244920Y683260D01*
X244920Y683260D01*
X532371D01*
Y3569D01*
D02*
G37*
G36*
X210820Y598170D02*
X211515Y598170D01*
X212798Y597638D01*
X213781Y596656D01*
X214312Y595372D01*
X214312Y594678D01*
X214312Y567690D01*
X123507Y567690D01*
X123507D01*
X122569Y567690D01*
X120729Y568056D01*
X118996Y568774D01*
X117436Y569816D01*
X116109Y571143D01*
X115066Y572703D01*
X114348Y574437D01*
X113982Y576277D01*
X113982Y577215D01*
X113982Y592772D01*
X113982Y592772D01*
X113982Y593846D01*
X114804Y595830D01*
X116322Y597348D01*
X118306Y598170D01*
X119380Y598170D01*
X210820Y598170D01*
X210820Y598170D01*
D02*
G37*
G36*
X14783Y574111D02*
X14553Y574278D01*
X14279Y574359D01*
X13962Y574356D01*
X13602Y574268D01*
X13200Y574096D01*
X12754Y573838D01*
X12265Y573496D01*
X11733Y573068D01*
X10540Y571959D01*
X8419Y574081D01*
X9016Y574698D01*
X9956Y575805D01*
X10298Y576294D01*
X10556Y576740D01*
X10728Y577142D01*
X10816Y577502D01*
X10819Y577819D01*
X10738Y578092D01*
X10571Y578323D01*
X14783Y574111D01*
D02*
G37*
G36*
X9727Y570707D02*
X9736Y570326D01*
X9812Y569588D01*
X9878Y569231D01*
X9963Y568881D01*
X10067Y568540D01*
X10190Y568207D01*
X10332Y567881D01*
X10492Y567564D01*
X10672Y567254D01*
X5234Y568593D01*
X5518Y568781D01*
X5772Y568992D01*
X5995Y569227D01*
X6189Y569484D01*
X6353Y569764D01*
X6488Y570068D01*
X6592Y570394D01*
X6667Y570744D01*
X6712Y571117D01*
X6727Y571513D01*
X9727Y570707D01*
D02*
G37*
G36*
X296625Y538890D02*
X296200Y538741D01*
X295825Y538490D01*
X295500Y538140D01*
X295225Y537691D01*
X295000Y537141D01*
X294825Y536491D01*
X294700Y535741D01*
X294632Y534964D01*
X294700Y534183D01*
X294825Y533428D01*
X295000Y532774D01*
X295225Y532221D01*
X295500Y531768D01*
X295825Y531416D01*
X296200Y531164D01*
X296625Y531013D01*
X297100Y530963D01*
X287100D01*
X287575Y531013D01*
X288000Y531164D01*
X288375Y531416D01*
X288700Y531768D01*
X288975Y532221D01*
X289200Y532774D01*
X289375Y533428D01*
X289500Y534183D01*
X289569Y534964D01*
X289500Y535741D01*
X289375Y536491D01*
X289200Y537141D01*
X288975Y537691D01*
X288700Y538140D01*
X288375Y538490D01*
X288000Y538741D01*
X287575Y538890D01*
X287100Y538941D01*
X297100D01*
X296625Y538890D01*
D02*
G37*
G36*
X73660Y567690D02*
Y567690D01*
X73758Y566699D01*
X74516Y564868D01*
X75918Y563466D01*
X77749Y562707D01*
X78740Y562610D01*
X151390Y562610D01*
X151376Y562506D01*
X151376Y562505D01*
X151502Y562532D01*
X151757Y562571D01*
X152013Y562597D01*
X152271Y562610D01*
X152400Y562610D01*
X215900Y562610D01*
X215900Y541020D01*
X215900Y541020D01*
Y540009D01*
X215126Y538142D01*
X213697Y536713D01*
X211830Y535940D01*
X171450D01*
X171450Y535940D01*
X170459Y535842D01*
X168628Y535084D01*
X167226Y533682D01*
X166468Y531851D01*
X166370Y530860D01*
Y525780D01*
X146050D01*
X146050Y551180D01*
X62230D01*
X62230Y551180D01*
X61725D01*
X60791Y551567D01*
X60077Y552281D01*
X59690Y553215D01*
Y553720D01*
X59690Y585550D01*
X73660D01*
Y567690D01*
D02*
G37*
G36*
X298089Y529927D02*
X298240Y529502D01*
X298492Y529127D01*
X298844Y528802D01*
X299297Y528527D01*
X299850Y528302D01*
X300504Y528127D01*
X301259Y528002D01*
X302114Y527927D01*
X302618Y527914D01*
X305559Y528129D01*
X306123Y528229D01*
X306613Y528347D01*
X307031Y528484D01*
X307377Y528638D01*
X307650Y528811D01*
X308494Y522400D01*
X308216Y522495D01*
X307864Y522581D01*
X307441Y522656D01*
X306377Y522776D01*
X305024Y522857D01*
X302821Y522896D01*
X302114Y522877D01*
X301259Y522802D01*
X300504Y522677D01*
X299850Y522502D01*
X299297Y522277D01*
X298844Y522002D01*
X298492Y521677D01*
X298240Y521302D01*
X298089Y520877D01*
X298039Y520402D01*
Y530402D01*
X298089Y529927D01*
D02*
G37*
G36*
X7997Y553316D02*
X8372Y552781D01*
X7668Y549241D01*
Y545499D01*
X8398Y541827D01*
X9831Y538369D01*
X11910Y535257D01*
X14557Y532610D01*
X17669Y530531D01*
X21127Y529098D01*
X24799Y528368D01*
X28542D01*
X32213Y529098D01*
X35671Y530531D01*
X38783Y532610D01*
X41430Y535257D01*
X41764Y535757D01*
X45972Y534855D01*
X46013Y534701D01*
X46869Y533219D01*
X48079Y532009D01*
X49561Y531153D01*
X51214Y530710D01*
X52926D01*
X54579Y531153D01*
X56061Y532009D01*
X57271Y533219D01*
X58127Y534701D01*
X58570Y536354D01*
Y538066D01*
X58127Y539719D01*
X57271Y541201D01*
X56148Y542324D01*
Y546948D01*
X57256Y548047D01*
X60148Y549074D01*
X60749Y548825D01*
X61725Y548631D01*
X62230D01*
X62230Y548631D01*
X103833D01*
X105242Y547044D01*
X106144Y544631D01*
X105847Y543916D01*
X105798Y543669D01*
X105701Y543437D01*
X105450Y542181D01*
X105450Y541929D01*
X105401Y541682D01*
Y523304D01*
X105378Y522824D01*
X105179Y521825D01*
X104813Y520942D01*
X104282Y520148D01*
X103607Y519472D01*
X102812Y518941D01*
X101929Y518576D01*
X100930Y518377D01*
X100452Y518353D01*
X75114D01*
X75114Y518353D01*
X74067Y518353D01*
X73092Y518159D01*
X71157Y517358D01*
X70330Y516805D01*
X68849Y515324D01*
X68296Y514497D01*
X67495Y512563D01*
X67301Y511587D01*
Y509910D01*
X65970D01*
Y491910D01*
X67301D01*
Y491674D01*
X67495Y490699D01*
X68048Y489872D01*
X68875Y489319D01*
X69850Y489125D01*
X87600D01*
X88900Y489125D01*
X90943Y486781D01*
X90977Y486814D01*
X92873Y487600D01*
X93900Y487600D01*
X93900Y487600D01*
X109220Y487600D01*
Y478220D01*
X111600D01*
Y488341D01*
X111600Y490220D01*
X111604Y490624D01*
X112916Y491366D01*
X113985Y491326D01*
X117605Y489811D01*
X118158Y488984D01*
X119229Y487912D01*
X120056Y487359D01*
X121457Y486779D01*
X121900Y486691D01*
Y482130D01*
X136900D01*
Y485034D01*
X139975Y487051D01*
X143501Y485181D01*
Y455130D01*
X133400D01*
Y423130D01*
X171400D01*
Y452111D01*
X187835D01*
X188325Y452063D01*
X189338Y451643D01*
X190023Y450958D01*
X190443Y449945D01*
X190491Y449454D01*
Y434340D01*
X190491Y432964D01*
X190540Y432718D01*
Y432467D01*
X191077Y429768D01*
X191173Y429536D01*
X191222Y429290D01*
X192275Y426747D01*
X192414Y426539D01*
X192510Y426307D01*
X194039Y424019D01*
X194217Y423841D01*
X194356Y423632D01*
X196149Y421839D01*
X196062Y420215D01*
X194772Y417839D01*
X160560Y417839D01*
X159695Y417839D01*
X158719Y417645D01*
X157120Y416983D01*
X156293Y416430D01*
X155070Y415206D01*
X154517Y414380D01*
X153855Y412781D01*
X153661Y411805D01*
X153661Y410940D01*
Y398780D01*
X153661Y398022D01*
X153855Y397047D01*
X151361Y393958D01*
X151033Y393868D01*
X147528Y396711D01*
X147815Y413817D01*
X147815Y413817D01*
X147811Y413839D01*
X147815Y413860D01*
X147815Y413860D01*
X147722Y414327D01*
X147637Y414796D01*
X147637Y414796D01*
X147625Y414814D01*
X147621Y414835D01*
X147356Y415232D01*
X147098Y415632D01*
X147081Y415644D01*
X147069Y415662D01*
X146672Y415927D01*
X146281Y416198D01*
X146260Y416203D01*
X146242Y416215D01*
X146242Y416215D01*
X145774Y416308D01*
X145309Y416409D01*
X145309Y416409D01*
X145287Y416405D01*
X145266Y416409D01*
X145266Y416409D01*
X144911Y416409D01*
X128110Y416409D01*
X127132Y416409D01*
X127131Y416409D01*
X127131Y416409D01*
X126602Y416304D01*
X126156Y416215D01*
X126156Y416215D01*
X126156Y416215D01*
X124347Y415466D01*
X124347Y415466D01*
X124347Y415466D01*
X123520Y414913D01*
X122136Y413529D01*
X121584Y412702D01*
X120835Y410894D01*
X120835Y410894D01*
X120835Y410894D01*
X120764Y410536D01*
X120641Y409918D01*
X120641Y409918D01*
X120641Y409918D01*
X120641Y408939D01*
Y382395D01*
X120593Y381905D01*
X120173Y380891D01*
X119488Y380207D01*
X118475Y379787D01*
X117985Y379739D01*
X87422Y379739D01*
X86360Y382345D01*
Y382270D01*
X86360Y382270D01*
X86360Y381765D01*
X85973Y380831D01*
X85259Y380117D01*
X84325Y379730D01*
X83820Y379730D01*
X76310D01*
X76333Y378619D01*
X76101Y377720D01*
X75171Y376790D01*
X74618Y375963D01*
X73845Y374096D01*
X73651Y373120D01*
X73651Y372110D01*
Y354330D01*
X73845Y353355D01*
X74169Y352869D01*
X74448Y350567D01*
X74930Y350520D01*
X101600Y350520D01*
D01*
X101600D01*
X101600D01*
X101866Y350546D01*
X102358Y350750D01*
X102735Y351127D01*
X102939Y351619D01*
X102965Y351885D01*
X102965Y351885D01*
X102965Y352135D01*
X103156Y352596D01*
X103509Y352949D01*
X103970Y353140D01*
X104220Y353140D01*
X112950Y353140D01*
X112950Y353140D01*
X113471Y353140D01*
X114434Y352741D01*
X115171Y352004D01*
X115570Y351041D01*
X115570Y350520D01*
X115570Y342900D01*
Y342900D01*
Y342395D01*
X115183Y341461D01*
X114782Y341060D01*
X120490D01*
Y353060D01*
X120490D01*
X119419Y354131D01*
X120026Y358131D01*
X125710D01*
Y357670D01*
X140710D01*
Y357670D01*
X143862Y359150D01*
X147311Y357168D01*
X147311Y330670D01*
X137210D01*
Y327669D01*
X120490D01*
Y337060D01*
X110490D01*
Y340360D01*
X100330D01*
X100330Y340360D01*
X99587Y340287D01*
X98213Y339718D01*
X97162Y338667D01*
X96593Y337293D01*
X96520Y336550D01*
X96520Y331470D01*
Y330965D01*
X96133Y330031D01*
X95419Y329317D01*
X94485Y328930D01*
X74630D01*
Y328060D01*
X70792Y327669D01*
X61085D01*
X60842Y327693D01*
X60287Y327923D01*
X59953Y328257D01*
X59723Y328812D01*
X59699Y329055D01*
X59699Y335280D01*
X59699Y336290D01*
X59699Y336291D01*
X59699Y336291D01*
X59602Y336776D01*
X59505Y337266D01*
X59505Y337266D01*
X59505Y337266D01*
X59321Y337710D01*
X59335Y338335D01*
X60669Y341437D01*
X61330Y342224D01*
X62173Y342710D01*
X61951Y342802D01*
X60960Y342900D01*
X52070Y342900D01*
X52070Y342900D01*
X51059Y342900D01*
X49307Y343626D01*
X48756Y342909D01*
X35383Y342909D01*
X35121Y346909D01*
X36781Y347127D01*
X39213Y348135D01*
X41302Y349738D01*
X42905Y351827D01*
X43913Y354259D01*
X44256Y356870D01*
X43913Y359481D01*
X42905Y361913D01*
X41302Y364002D01*
X39213Y365605D01*
X36781Y366613D01*
X34170Y366956D01*
X19170D01*
X16559Y366613D01*
X16005Y366383D01*
X13355Y367560D01*
X12227Y368327D01*
Y370813D01*
X13355Y371580D01*
X16005Y372757D01*
X16559Y372527D01*
X19170Y372184D01*
X34170D01*
X36781Y372527D01*
X39213Y373535D01*
X41302Y375138D01*
X42905Y377227D01*
X43913Y379660D01*
X44256Y382270D01*
X43913Y384880D01*
X42905Y387313D01*
X41302Y389402D01*
X39213Y391005D01*
X36781Y392013D01*
X34170Y392356D01*
X19170D01*
X16559Y392013D01*
X16005Y391783D01*
X13355Y392960D01*
X12227Y393727D01*
Y396213D01*
X13355Y396980D01*
X16005Y398157D01*
X16559Y397927D01*
X19170Y397584D01*
X34170D01*
X36781Y397927D01*
X39213Y398935D01*
X41302Y400538D01*
X42905Y402627D01*
X43913Y405060D01*
X44256Y407670D01*
X43913Y410280D01*
X42905Y412713D01*
X41302Y414802D01*
X39213Y416405D01*
X36781Y417413D01*
X34170Y417756D01*
X19170D01*
X16559Y417413D01*
X15159Y416833D01*
X12227Y418175D01*
X11159Y419170D01*
Y482582D01*
X44157D01*
X44166Y482581D01*
X44269Y482479D01*
X45751Y481623D01*
X47404Y481180D01*
X49116D01*
X50769Y481623D01*
X52251Y482479D01*
X53461Y483689D01*
X54317Y485171D01*
X54760Y486824D01*
Y488536D01*
X54317Y490189D01*
X53461Y491671D01*
X52251Y492881D01*
X50769Y493737D01*
X49116Y494180D01*
X47404D01*
X45751Y493737D01*
X44269Y492881D01*
X44188Y492801D01*
X43830Y492778D01*
X8990D01*
X7569Y492495D01*
X7287Y492483D01*
X6493Y492782D01*
X3568Y494882D01*
Y553945D01*
X5915Y555410D01*
X7997Y553316D01*
D02*
G37*
G36*
X114462Y547517D02*
X114462Y547517D01*
X135883Y547392D01*
X136643Y547388D01*
X138047Y546799D01*
X139120Y545720D01*
X139700Y544313D01*
X139700Y543552D01*
X139700Y543553D01*
X139700Y492944D01*
X139700Y492186D01*
X139120Y490786D01*
X138048Y489714D01*
X136648Y489134D01*
X135890Y489134D01*
X122432D01*
X121032Y489714D01*
X119960Y490786D01*
X119380Y492186D01*
Y492944D01*
X119380Y492944D01*
X119307Y493688D01*
X118738Y495061D01*
X117687Y496112D01*
X116313Y496681D01*
X115570Y496754D01*
X115570Y496754D01*
X107964Y496754D01*
X107740Y496420D01*
X107589Y495995D01*
X107539Y495520D01*
Y496754D01*
X95631Y496754D01*
Y495910D01*
X95581Y496385D01*
X95450Y496754D01*
X92902D01*
X92121Y496677D01*
X90679Y496080D01*
X89574Y494976D01*
X88977Y493533D01*
X88900Y492753D01*
Y491674D01*
X69850D01*
Y510540D01*
Y511587D01*
X70651Y513522D01*
X72132Y515003D01*
X74067Y515804D01*
X75114Y515804D01*
X75114Y515804D01*
X100514D01*
X101243Y515840D01*
X102673Y516124D01*
X104019Y516682D01*
X105231Y517492D01*
X106262Y518523D01*
X107072Y519735D01*
X107630Y521082D01*
X107914Y522511D01*
X107950Y523240D01*
X107950Y523240D01*
Y541042D01*
Y541682D01*
X108201Y542937D01*
X108692Y544119D01*
X109406Y545182D01*
X110314Y546085D01*
X111381Y546792D01*
X112565Y547277D01*
X113822Y547520D01*
X114462Y547517D01*
D02*
G37*
G36*
X296625Y498004D02*
X296200Y497854D01*
X295825Y497604D01*
X295500Y497254D01*
X295225Y496805D01*
X295000Y496255D01*
X294825Y495605D01*
X294700Y494855D01*
X294625Y494005D01*
X294601Y493084D01*
X294603Y492749D01*
X294708Y491104D01*
X294747Y490900D01*
X294792Y490737D01*
X294843Y490616D01*
X294900Y490537D01*
X289300D01*
X289357Y490616D01*
X289408Y490737D01*
X289453Y490900D01*
X289492Y491104D01*
X289525Y491350D01*
X289573Y491966D01*
X289598Y493122D01*
X289575Y494005D01*
X289500Y494855D01*
X289375Y495605D01*
X289200Y496255D01*
X288975Y496805D01*
X288700Y497254D01*
X288375Y497604D01*
X288000Y497854D01*
X287575Y498004D01*
X287100Y498055D01*
X297100D01*
X296625Y498004D01*
D02*
G37*
G36*
X45403Y484880D02*
X45324Y484937D01*
X45203Y484988D01*
X45040Y485033D01*
X44836Y485072D01*
X44590Y485105D01*
X43974Y485153D01*
X42737Y485180D01*
Y490180D01*
X43191Y490183D01*
X44836Y490288D01*
X45040Y490327D01*
X45203Y490372D01*
X45324Y490423D01*
X45403Y490480D01*
Y484880D01*
D02*
G37*
G36*
X158750Y483870D02*
Y483870D01*
X158872Y482631D01*
X159820Y480342D01*
X161572Y478590D01*
X163861Y477642D01*
X165100Y477520D01*
X191770Y477520D01*
X193040Y477893D01*
Y487680D01*
X232410D01*
X240954Y487914D01*
X240954Y487914D01*
X241607Y487932D01*
X242894Y487708D01*
X244111Y487233D01*
X245209Y486526D01*
X246145Y485615D01*
X246882Y484536D01*
X247391Y483332D01*
X247650Y482052D01*
X247650Y481399D01*
X247650Y453390D01*
X247650D01*
X247699Y452394D01*
X248088Y450440D01*
X248850Y448600D01*
X249956Y446944D01*
X251364Y445536D01*
X253020Y444430D01*
X254860Y443667D01*
X256814Y443279D01*
X257810Y443230D01*
X269240Y443230D01*
Y443230D01*
X270503D01*
X272837Y442263D01*
X274623Y440477D01*
X275590Y438143D01*
Y436880D01*
Y425450D01*
X275590Y425449D01*
X275590Y424439D01*
X274816Y422572D01*
X273388Y421143D01*
X271521Y420370D01*
X207010D01*
X205634Y420370D01*
X202935Y420907D01*
X200392Y421960D01*
X198104Y423489D01*
X196159Y425435D01*
X194630Y427723D01*
X193577Y430265D01*
X193040Y432964D01*
X193040Y434340D01*
Y449580D01*
X193040D01*
X192942Y450571D01*
X192184Y452402D01*
X190782Y453804D01*
X188951Y454562D01*
X187960Y454660D01*
X162560D01*
X161817Y454587D01*
X160443Y454018D01*
X159392Y452967D01*
X158823Y451593D01*
X158750Y450850D01*
Y438150D01*
X146050D01*
Y454660D01*
Y514350D01*
X158750D01*
Y483870D01*
D02*
G37*
G36*
X274320Y394970D02*
X160020D01*
X159262Y394970D01*
X157862Y395550D01*
X156790Y396622D01*
X156210Y398022D01*
X156210Y398780D01*
Y410940D01*
X156210Y411805D01*
X156872Y413404D01*
X158096Y414628D01*
X159695Y415290D01*
X160560Y415290D01*
X274320Y415290D01*
Y394970D01*
D02*
G37*
G36*
X435598Y401560D02*
X435547Y402035D01*
X435396Y402460D01*
X435145Y402835D01*
X434793Y403160D01*
X434340Y403435D01*
X433787Y403660D01*
X433133Y403835D01*
X432378Y403960D01*
X431523Y404035D01*
X430567Y404060D01*
Y409060D01*
X431523Y409085D01*
X432378Y409160D01*
X433133Y409285D01*
X433787Y409460D01*
X434340Y409685D01*
X434793Y409960D01*
X435145Y410285D01*
X435396Y410660D01*
X435547Y411085D01*
X435598Y411560D01*
Y401560D01*
D02*
G37*
G36*
X420433Y411085D02*
X420584Y410660D01*
X420835Y410285D01*
X421187Y409960D01*
X421640Y409685D01*
X422193Y409460D01*
X422847Y409285D01*
X423602Y409160D01*
X424457Y409085D01*
X425413Y409060D01*
Y404060D01*
X424457Y404035D01*
X423602Y403960D01*
X422847Y403835D01*
X422193Y403660D01*
X421640Y403435D01*
X421187Y403160D01*
X420835Y402835D01*
X420584Y402460D01*
X420433Y402035D01*
X420382Y401560D01*
Y411560D01*
X420433Y411085D01*
D02*
G37*
G36*
X496234Y392529D02*
X496169Y393001D01*
X495974Y393422D01*
X495648Y393795D01*
X495192Y394117D01*
X494606Y394390D01*
X493890Y394613D01*
X493044Y394787D01*
X492067Y394911D01*
X490960Y394985D01*
X489723Y395010D01*
Y400010D01*
X490960Y400035D01*
X493044Y400233D01*
X493890Y400407D01*
X494606Y400630D01*
X495192Y400903D01*
X495648Y401226D01*
X495974Y401598D01*
X496169Y402019D01*
X496234Y402491D01*
Y392529D01*
D02*
G37*
G36*
X474109Y403290D02*
X474259Y402602D01*
X474509Y401995D01*
X474859Y401468D01*
X475309Y401022D01*
X475859Y400658D01*
X476509Y400374D01*
X477259Y400172D01*
X478109Y400051D01*
X479059Y400010D01*
X477594Y395010D01*
X476609Y394975D01*
X475653Y394869D01*
X474726Y394692D01*
X473829Y394444D01*
X472961Y394126D01*
X472122Y393737D01*
X471312Y393278D01*
X470532Y392747D01*
X469781Y392146D01*
X469059Y391474D01*
X465523Y395010D01*
X466195Y395732D01*
X466796Y396483D01*
X467327Y397263D01*
X467786Y398073D01*
X468175Y398912D01*
X468493Y399780D01*
X468741Y400677D01*
X468918Y401604D01*
X469024Y402560D01*
X469059Y403545D01*
X474059Y404060D01*
X474109Y403290D01*
D02*
G37*
G36*
X262160Y622300D02*
X274320Y622300D01*
X274320Y622300D01*
X275078Y622300D01*
X276478Y621720D01*
X277550Y620648D01*
X278130Y619248D01*
X278130Y618490D01*
X278130Y482599D01*
Y482599D01*
X278228Y481608D01*
X278986Y479777D01*
X280388Y478376D01*
X282219Y477617D01*
X283210Y477520D01*
X302260Y477520D01*
X302260D01*
X303003Y477593D01*
X304377Y478161D01*
X305429Y479213D01*
X305997Y480587D01*
X306070Y481330D01*
X306070Y488951D01*
X306070Y489456D01*
X306457Y490390D01*
X307171Y491104D01*
X308105Y491490D01*
X308610Y491490D01*
X325120Y491490D01*
X325120Y491490D01*
X325625Y491490D01*
X326559Y491104D01*
X327274Y490389D01*
X327660Y489455D01*
X327660Y488950D01*
X327660Y483870D01*
Y483870D01*
X327782Y482631D01*
X328730Y480342D01*
X330482Y478590D01*
X332771Y477642D01*
X334010Y477520D01*
X336550D01*
X336550Y477520D01*
X337560Y477520D01*
X339428Y476747D01*
X340857Y475318D01*
X341630Y473451D01*
X341630Y472440D01*
X341630Y447040D01*
X308610Y447040D01*
X308610Y447040D01*
X307863Y447003D01*
X306398Y446712D01*
X305018Y446140D01*
X303776Y445310D01*
X302720Y444254D01*
X301890Y443012D01*
X301318Y441632D01*
X301027Y440167D01*
X300990Y439420D01*
X300990Y435610D01*
Y435610D01*
X301087Y434619D01*
X301846Y432788D01*
X303248Y431386D01*
X305079Y430628D01*
X306070Y430530D01*
X335280D01*
X335280Y430530D01*
X336543Y430530D01*
X338877Y429563D01*
X340663Y427777D01*
X341630Y425443D01*
X341630Y424180D01*
X341630Y414020D01*
X341630Y414020D01*
X341630Y413515D01*
X341243Y412581D01*
X340529Y411867D01*
X339595Y411480D01*
X304800D01*
X304800Y411480D01*
X304057Y411407D01*
X302683Y410838D01*
X301632Y409787D01*
X301063Y408413D01*
X300990Y407670D01*
X300990Y383540D01*
X300990Y383540D01*
X301063Y382797D01*
X301632Y381423D01*
X302683Y380372D01*
X304057Y379803D01*
X304800Y379730D01*
X403860D01*
X403860Y379730D01*
X404603Y379803D01*
X405977Y380372D01*
X407028Y381423D01*
X407597Y382797D01*
X407670Y383540D01*
X407670Y411560D01*
X420370D01*
Y375920D01*
X420370Y375920D01*
Y374657D01*
X419403Y372323D01*
X417617Y370537D01*
X415283Y369570D01*
X294640D01*
X251460Y369570D01*
X251460Y369570D01*
X250702D01*
X249301Y370150D01*
X248230Y371222D01*
X247650Y372622D01*
X247650Y373380D01*
X247650Y386081D01*
D01*
Y386081D01*
Y386081D01*
X247650Y387091D01*
X248423Y388958D01*
X249852Y390387D01*
X251719Y391160D01*
X252730Y391160D01*
X279400Y391160D01*
X279400D01*
X280391Y391257D01*
X282222Y392016D01*
X283624Y393418D01*
X284382Y395249D01*
X284480Y396240D01*
X284480Y447040D01*
X284480Y447040D01*
X284382Y448031D01*
X283624Y449863D01*
X282221Y451265D01*
X280389Y452023D01*
X279398Y452120D01*
X262890Y452120D01*
X262890Y452120D01*
X261880Y452120D01*
X260012Y452893D01*
X258583Y454322D01*
X257810Y456189D01*
X257810Y457199D01*
Y617952D01*
X257810Y618817D01*
X258472Y620415D01*
X259696Y621639D01*
X261295Y622300D01*
X262160Y622300D01*
D02*
G37*
G36*
X128110Y413860D02*
X145266Y413860D01*
X144476Y366668D01*
X144476Y366668D01*
X144456Y365470D01*
X143511Y363268D01*
X141803Y361588D01*
X139585Y360680D01*
X138387Y360680D01*
X100330D01*
X100330Y360680D01*
X99587Y360607D01*
X98213Y360038D01*
X97162Y358987D01*
X96593Y357613D01*
X96520Y356870D01*
X96520Y354330D01*
X76200D01*
Y372110D01*
X76200Y373120D01*
X76973Y374987D01*
X78402Y376417D01*
X80269Y377190D01*
X81280Y377190D01*
X118110Y377190D01*
X119101Y377288D01*
X120932Y378046D01*
X122334Y379448D01*
X123092Y381279D01*
X123190Y382270D01*
Y408940D01*
X123190Y409918D01*
X123939Y411727D01*
X125323Y413111D01*
X127131Y413860D01*
X128110Y413860D01*
D02*
G37*
G36*
X496234Y367129D02*
X496169Y367601D01*
X495974Y368022D01*
X495648Y368395D01*
X495192Y368717D01*
X494606Y368990D01*
X493890Y369213D01*
X493044Y369387D01*
X492067Y369511D01*
X490960Y369585D01*
X489723Y369610D01*
Y374610D01*
X490960Y374635D01*
X493044Y374833D01*
X493890Y375007D01*
X494606Y375230D01*
X495192Y375503D01*
X495648Y375826D01*
X495974Y376198D01*
X496169Y376619D01*
X496234Y377091D01*
Y367129D01*
D02*
G37*
G36*
X12902Y352815D02*
X12853Y352869D01*
X12729Y352918D01*
X12528Y352961D01*
X12251Y352998D01*
X11468Y353054D01*
X8990Y353100D01*
Y358100D01*
X9545Y358103D01*
X11622Y358242D01*
X11760Y358286D01*
X11839Y358335D01*
X11857Y358390D01*
X12902Y352815D01*
D02*
G37*
G36*
X496234Y341729D02*
X496169Y342201D01*
X495974Y342622D01*
X495648Y342994D01*
X495192Y343317D01*
X494606Y343590D01*
X493890Y343813D01*
X493044Y343987D01*
X492067Y344111D01*
X490960Y344185D01*
X489723Y344210D01*
Y349210D01*
X490960Y349235D01*
X493044Y349433D01*
X493890Y349607D01*
X494606Y349830D01*
X495192Y350103D01*
X495648Y350425D01*
X495974Y350798D01*
X496169Y351219D01*
X496234Y351691D01*
Y341729D01*
D02*
G37*
G36*
X152400Y389890D02*
X160020Y389890D01*
X160020Y389889D01*
X160525Y389890D01*
X161459Y389503D01*
X162173Y388789D01*
X162560Y387855D01*
X162560Y387350D01*
X162560Y350520D01*
X162560D01*
X162609Y350024D01*
X162988Y349109D01*
X163689Y348408D01*
X164604Y348029D01*
X165100Y347980D01*
X193040D01*
X193535Y348029D01*
X194451Y348408D01*
X195152Y349109D01*
X195531Y350024D01*
X195580Y350520D01*
X195580Y353060D01*
X195580Y353060D01*
X195580Y353565D01*
X195967Y354499D01*
X196681Y355213D01*
X197615Y355600D01*
X198120Y355600D01*
X228600Y355600D01*
X228600Y355600D01*
X229105Y355600D01*
X230039Y355213D01*
X230753Y354499D01*
X231140Y353565D01*
X231140Y353060D01*
X231140Y334010D01*
X231140Y334010D01*
Y333505D01*
X230753Y332571D01*
X230039Y331857D01*
X229105Y331470D01*
X168910D01*
X168910Y331470D01*
X168414Y331421D01*
X167499Y331042D01*
X166798Y330341D01*
X166419Y329426D01*
X166370Y328930D01*
Y325120D01*
X172254D01*
Y313690D01*
X54610Y313690D01*
X54610D01*
X53600Y313690D01*
X51732Y314463D01*
X50303Y315892D01*
X49530Y317759D01*
X49530Y318770D01*
X49529Y318770D01*
X49456Y319513D01*
X48888Y320886D01*
X47837Y321938D01*
X46463Y322507D01*
X45720Y322580D01*
X16510Y322580D01*
X16509D01*
X15499Y322580D01*
X13632Y323353D01*
X12203Y324782D01*
X11430Y326650D01*
X11430Y327660D01*
X11430Y336549D01*
D01*
Y336550D01*
Y336549D01*
X11430Y337308D01*
X12010Y338708D01*
X13082Y339780D01*
X14482Y340360D01*
X15240Y340360D01*
X52070Y340360D01*
X52070Y340359D01*
X53080Y340360D01*
X54947Y339586D01*
X56377Y338158D01*
X57150Y336290D01*
X57150Y335280D01*
X57150Y328929D01*
Y328929D01*
X57223Y328186D01*
X57792Y326813D01*
X58843Y325762D01*
X60217Y325193D01*
X60960Y325120D01*
X149860D01*
X149860Y387350D01*
Y387350D01*
X149860Y387855D01*
X150246Y388789D01*
X150961Y389504D01*
X151895Y389890D01*
X152400Y389890D01*
D02*
G37*
G36*
X496234Y316329D02*
X496169Y316801D01*
X495974Y317222D01*
X495648Y317595D01*
X495192Y317917D01*
X494606Y318190D01*
X493890Y318413D01*
X493044Y318587D01*
X492067Y318711D01*
X490960Y318785D01*
X489723Y318810D01*
Y323810D01*
X490960Y323835D01*
X493044Y324033D01*
X493890Y324207D01*
X494606Y324430D01*
X495192Y324703D01*
X495648Y325025D01*
X495974Y325398D01*
X496169Y325819D01*
X496234Y326291D01*
Y316329D01*
D02*
G37*
G36*
X265069Y309485D02*
X265220Y309060D01*
X265472Y308685D01*
X265824Y308360D01*
X266277Y308085D01*
X266830Y307860D01*
X267484Y307685D01*
X268239Y307560D01*
X268804Y307510D01*
X269272Y307546D01*
X270022Y307653D01*
X270672Y307803D01*
X271222Y307996D01*
X271672Y308232D01*
X272022Y308510D01*
X272272Y308832D01*
X272422Y309196D01*
X272472Y309604D01*
Y300965D01*
X272422Y301249D01*
X272272Y301503D01*
X272022Y301727D01*
X271672Y301922D01*
X271222Y302086D01*
X270672Y302221D01*
X270022Y302325D01*
X269272Y302400D01*
X268855Y302414D01*
X268239Y302360D01*
X267484Y302235D01*
X266830Y302060D01*
X266277Y301835D01*
X265824Y301560D01*
X265472Y301235D01*
X265220Y300860D01*
X265069Y300435D01*
X265019Y299960D01*
Y309960D01*
X265069Y309485D01*
D02*
G37*
G36*
X243171Y301933D02*
X241454Y300066D01*
X238104Y304553D01*
X238221Y304554D01*
X238362Y304590D01*
X238525Y304661D01*
X238711Y304767D01*
X238920Y304908D01*
X239151Y305084D01*
X239682Y305541D01*
X240304Y306138D01*
X243171Y301933D01*
D02*
G37*
G36*
X253141Y299880D02*
X253091Y300355D01*
X252940Y300780D01*
X252688Y301155D01*
X252336Y301480D01*
X251883Y301755D01*
X251330Y301980D01*
X250676Y302155D01*
X249921Y302280D01*
X249066Y302355D01*
X248111Y302380D01*
Y307380D01*
X249066Y307405D01*
X249921Y307480D01*
X250676Y307605D01*
X251330Y307780D01*
X251883Y308005D01*
X252336Y308280D01*
X252688Y308605D01*
X252940Y308980D01*
X253091Y309405D01*
X253141Y309880D01*
Y299880D01*
D02*
G37*
G36*
X283925Y300915D02*
X283500Y300765D01*
X283125Y300515D01*
X282800Y300165D01*
X282525Y299715D01*
X282300Y299165D01*
X282125Y298515D01*
X282000Y297765D01*
X281925Y296915D01*
X281900Y295965D01*
X276900D01*
X276875Y296915D01*
X276800Y297765D01*
X276675Y298515D01*
X276500Y299165D01*
X276275Y299715D01*
X276000Y300165D01*
X275675Y300515D01*
X275300Y300765D01*
X274875Y300915D01*
X274400Y300965D01*
X284400D01*
X283925Y300915D01*
D02*
G37*
G36*
X496234Y290929D02*
X496169Y291401D01*
X495974Y291822D01*
X495648Y292194D01*
X495192Y292517D01*
X494606Y292790D01*
X493890Y293013D01*
X493044Y293187D01*
X492067Y293311D01*
X490960Y293385D01*
X489723Y293410D01*
Y298410D01*
X490960Y298435D01*
X493044Y298633D01*
X493890Y298807D01*
X494606Y299030D01*
X495192Y299303D01*
X495648Y299625D01*
X495974Y299998D01*
X496169Y300419D01*
X496234Y300891D01*
Y290929D01*
D02*
G37*
G36*
X13970Y316230D02*
X40640Y316230D01*
X40640Y316230D01*
X41145Y316230D01*
X42079Y315843D01*
X42793Y315129D01*
X43180Y314195D01*
X43180Y313690D01*
X43180Y312420D01*
X43229Y311924D01*
X43608Y311009D01*
X44309Y310308D01*
X45224Y309929D01*
X45720Y309880D01*
X125730D01*
X125730Y309880D01*
X126740Y309880D01*
X128608Y309107D01*
X130037Y307677D01*
X130810Y305810D01*
X130810Y304800D01*
X130810Y287020D01*
X130810Y287020D01*
X130810Y286515D01*
X130423Y285581D01*
X129709Y284867D01*
X128775Y284480D01*
X128270Y284480D01*
X95250D01*
X95250Y284480D01*
X94745Y284480D01*
X93811Y284867D01*
X93097Y285581D01*
X92710Y286515D01*
X92710Y287020D01*
Y290451D01*
X92729Y290451D01*
X92724Y290498D01*
X92717Y290592D01*
X92712Y290687D01*
X92710Y290782D01*
X92710Y290830D01*
X92710Y290830D01*
X92661Y291325D01*
X92282Y292241D01*
X91581Y292942D01*
X90666Y293321D01*
X90170Y293370D01*
X13970Y293370D01*
X13465D01*
X12531Y293757D01*
X11817Y294471D01*
X11430Y295405D01*
Y295910D01*
Y313690D01*
X11430Y314196D01*
X11817Y315129D01*
X12531Y315844D01*
X13465Y316230D01*
X13970Y316230D01*
D02*
G37*
G36*
X310823Y282641D02*
X310988Y282219D01*
X311255Y281847D01*
X311624Y281524D01*
X312097Y281251D01*
X312671Y281027D01*
X313349Y280854D01*
X314129Y280729D01*
X315012Y280655D01*
X315998Y280630D01*
Y275630D01*
X315033Y275605D01*
X314170Y275530D01*
X313411Y275405D01*
X312754Y275230D01*
X312199Y275005D01*
X311748Y274730D01*
X311399Y274405D01*
X311152Y274030D01*
X311008Y273605D01*
X310967Y273130D01*
X310762Y283113D01*
X310823Y282641D01*
D02*
G37*
G36*
X249993Y273130D02*
X249951Y273605D01*
X249808Y274030D01*
X249562Y274405D01*
X249212Y274730D01*
X248761Y275005D01*
X248206Y275230D01*
X247549Y275405D01*
X246789Y275530D01*
X245927Y275605D01*
X244962Y275630D01*
Y280630D01*
X245948Y280655D01*
X246831Y280729D01*
X247611Y280854D01*
X248289Y281027D01*
X248864Y281251D01*
X249336Y281524D01*
X249705Y281847D01*
X249972Y282219D01*
X250137Y282641D01*
X250198Y283113D01*
X249993Y273130D01*
D02*
G37*
G36*
X278480Y265931D02*
X279758Y266460D01*
X281116Y267502D01*
X281557Y268078D01*
X282529Y267428D01*
X284480Y267040D01*
X286431Y267428D01*
X288480Y268354D01*
X290529Y267428D01*
X292191Y267098D01*
X292780Y264284D01*
X292011Y263341D01*
X290830Y262226D01*
Y255270D01*
X289560D01*
Y254000D01*
X283647D01*
X283932Y252939D01*
X284727Y251561D01*
X285463Y250825D01*
X284727Y250089D01*
X283932Y248711D01*
X283647Y247650D01*
X289560D01*
Y245110D01*
X283647D01*
X283932Y244049D01*
X284727Y242671D01*
X285463Y241935D01*
X284727Y241199D01*
X283932Y239821D01*
X283647Y238760D01*
X289560D01*
Y236220D01*
X283647D01*
X283932Y235159D01*
X284727Y233781D01*
X285463Y233045D01*
X284727Y232309D01*
X283932Y230931D01*
X283647Y229870D01*
X289560D01*
Y227330D01*
X283647D01*
X283932Y226269D01*
X284727Y224891D01*
X285463Y224155D01*
X284727Y223419D01*
X283932Y222041D01*
X283647Y220980D01*
X289560D01*
Y218440D01*
X283647D01*
X283932Y217379D01*
X284407Y216555D01*
X283757Y214489D01*
X282516Y212555D01*
X279409D01*
X277458Y212167D01*
X275804Y211062D01*
X272875Y208133D01*
X271770Y206479D01*
X271705Y206150D01*
X270910Y204227D01*
X270480Y203953D01*
Y191122D01*
X266480D01*
Y202329D01*
X265202Y201800D01*
X263844Y200758D01*
X263403Y200182D01*
X262431Y200832D01*
X260480Y201220D01*
X258529Y200832D01*
X256480Y199905D01*
X254431Y200832D01*
X252480Y201220D01*
X250529Y200832D01*
X248875Y199727D01*
X247770Y198073D01*
X247382Y196122D01*
Y195448D01*
X247013Y195350D01*
X246472Y195261D01*
X246092Y195228D01*
X221369D01*
X219418Y194840D01*
X218648Y194325D01*
X215834Y195308D01*
X215020Y195972D01*
X214975Y197399D01*
X218507Y201032D01*
X236480D01*
X236480Y201032D01*
X242472D01*
X244423Y201420D01*
X246077Y202525D01*
X247182Y204179D01*
X247570Y206130D01*
X250991Y209032D01*
X256040D01*
X257991Y209420D01*
X259645Y210525D01*
X262685Y213565D01*
X263790Y215219D01*
X264178Y217170D01*
Y218868D01*
X268673Y223364D01*
X268681Y223370D01*
X268826D01*
X270479Y223813D01*
X271961Y224669D01*
X273171Y225879D01*
X274027Y227361D01*
X274470Y229014D01*
Y230726D01*
X274027Y232379D01*
X273171Y233861D01*
X271961Y235071D01*
X270479Y235927D01*
X268826Y236370D01*
X267114D01*
X266908Y236315D01*
X263590Y238232D01*
X262908Y239072D01*
Y242802D01*
X267711Y247605D01*
X267718Y247612D01*
X267864D01*
X269517Y248055D01*
X270999Y248910D01*
X272209Y250121D01*
X273065Y251603D01*
X273508Y253256D01*
Y254967D01*
X273065Y256621D01*
X272209Y258103D01*
X270999Y259313D01*
X269517Y260169D01*
X267864Y260611D01*
X266152D01*
X264499Y260169D01*
X263017Y259313D01*
X261807Y258103D01*
X260951Y256621D01*
X260508Y254967D01*
Y254853D01*
X260271Y254584D01*
X254205Y248519D01*
X253100Y246865D01*
X252712Y244914D01*
Y235272D01*
X252425Y234934D01*
X247764Y235117D01*
X247182Y236179D01*
X247570Y238130D01*
X247182Y240081D01*
X246255Y242130D01*
X247182Y244179D01*
X247570Y246130D01*
X247182Y248081D01*
X246255Y250130D01*
X247182Y252179D01*
X247570Y254130D01*
X247182Y256081D01*
X246255Y258130D01*
X247182Y260179D01*
X247570Y262130D01*
X247182Y264081D01*
X246077Y265735D01*
X244423Y266840D01*
X242472Y267228D01*
X241148D01*
X239201Y271228D01*
X240611Y273032D01*
X246092D01*
X246472Y272999D01*
X247013Y272910D01*
X247382Y272812D01*
Y272138D01*
X247770Y270187D01*
X248875Y268533D01*
X250529Y267428D01*
X252480Y267040D01*
X254431Y267428D01*
X256480Y268354D01*
X258529Y267428D01*
X260480Y267040D01*
X262431Y267428D01*
X264480Y268354D01*
X266529Y267428D01*
X268480Y267040D01*
X270431Y267428D01*
X271403Y268078D01*
X271844Y267502D01*
X273202Y266460D01*
X274480Y265931D01*
Y277138D01*
X278480D01*
Y265931D01*
D02*
G37*
G36*
X496234Y265529D02*
X496169Y266001D01*
X495974Y266422D01*
X495648Y266794D01*
X495192Y267117D01*
X494606Y267390D01*
X493890Y267613D01*
X493044Y267787D01*
X492067Y267911D01*
X490960Y267985D01*
X489723Y268010D01*
Y273010D01*
X490960Y273035D01*
X493044Y273233D01*
X493890Y273407D01*
X494606Y273630D01*
X495192Y273903D01*
X495648Y274226D01*
X495974Y274598D01*
X496169Y275019D01*
X496234Y275491D01*
Y265529D01*
D02*
G37*
G36*
X266968Y250112D02*
X266871Y250096D01*
X266749Y250046D01*
X266603Y249963D01*
X266431Y249846D01*
X266233Y249696D01*
X265764Y249294D01*
X264870Y248439D01*
X261335Y251974D01*
X261654Y252297D01*
X262742Y253534D01*
X262859Y253706D01*
X262942Y253853D01*
X262992Y253975D01*
X263008Y254072D01*
X266968Y250112D01*
D02*
G37*
G36*
X496234Y224889D02*
X496169Y225361D01*
X495974Y225782D01*
X495648Y226154D01*
X495192Y226477D01*
X494606Y226750D01*
X493890Y226973D01*
X493044Y227147D01*
X492067Y227271D01*
X490960Y227345D01*
X489723Y227370D01*
Y232370D01*
X490960Y232395D01*
X493044Y232593D01*
X493890Y232767D01*
X494606Y232990D01*
X495192Y233263D01*
X495648Y233585D01*
X495974Y233958D01*
X496169Y234379D01*
X496234Y234851D01*
Y224889D01*
D02*
G37*
G36*
X267930Y225870D02*
X267833Y225854D01*
X267712Y225805D01*
X267565Y225721D01*
X267393Y225604D01*
X267196Y225454D01*
X266726Y225052D01*
X265833Y224197D01*
X262297Y227733D01*
X262616Y228056D01*
X263704Y229293D01*
X263821Y229465D01*
X263905Y229612D01*
X263954Y229733D01*
X263970Y229830D01*
X267930Y225870D01*
D02*
G37*
G36*
X86290Y290821D02*
X86387Y290814D01*
X89720Y290494D01*
X90161Y286871D01*
X90161Y286515D01*
X90161Y286515D01*
X90161Y286515D01*
X90355Y285539D01*
X90355Y285539D01*
X90355Y285539D01*
X90742Y284606D01*
X91294Y283779D01*
X92009Y283064D01*
X92836Y282512D01*
X93769Y282125D01*
X93769Y282125D01*
X93769Y282125D01*
X94745Y281931D01*
X95250Y281931D01*
X95250Y281931D01*
X97614D01*
X99271Y277931D01*
X73865Y252525D01*
X72760Y250871D01*
X72372Y248920D01*
Y184168D01*
X44706D01*
X44120Y184207D01*
X43314Y184310D01*
X42687Y184438D01*
X42646Y184451D01*
X41302Y186202D01*
X39213Y187805D01*
X36781Y188813D01*
X34170Y189156D01*
X19170D01*
X16559Y188813D01*
X15159Y188233D01*
X12227Y189575D01*
X11159Y190570D01*
Y218370D01*
X12227Y219365D01*
X15159Y220707D01*
X16559Y220127D01*
X19170Y219784D01*
X34170D01*
X36781Y220127D01*
X39213Y221135D01*
X41302Y222738D01*
X42905Y224827D01*
X43913Y227260D01*
X44256Y229870D01*
X43913Y232481D01*
X42905Y234913D01*
X41302Y237002D01*
X39213Y238605D01*
X36781Y239613D01*
X35385Y239796D01*
Y243831D01*
X37172Y244066D01*
X39970Y245225D01*
X42372Y247068D01*
X44215Y249470D01*
X45374Y252268D01*
X45506Y253270D01*
X26670D01*
Y257270D01*
X45506D01*
X45374Y258272D01*
X44215Y261070D01*
X42372Y263472D01*
X39970Y265315D01*
X38787Y265805D01*
Y270135D01*
X39970Y270625D01*
X42372Y272468D01*
X44215Y274870D01*
X45374Y277668D01*
X45506Y278670D01*
X26670D01*
Y282670D01*
X45506D01*
X45374Y283672D01*
X44215Y286470D01*
X43946Y286821D01*
X45918Y290821D01*
X86290Y290821D01*
D02*
G37*
G36*
X496234Y199489D02*
X496169Y199961D01*
X495974Y200382D01*
X495648Y200755D01*
X495192Y201077D01*
X494606Y201350D01*
X493890Y201573D01*
X493044Y201747D01*
X492067Y201871D01*
X490960Y201945D01*
X489723Y201970D01*
Y206970D01*
X490960Y206995D01*
X493044Y207193D01*
X493890Y207367D01*
X494606Y207590D01*
X495192Y207863D01*
X495648Y208186D01*
X495974Y208558D01*
X496169Y208979D01*
X496234Y209451D01*
Y199489D01*
D02*
G37*
G36*
X250198Y185147D02*
X250137Y185619D01*
X249972Y186041D01*
X249705Y186413D01*
X249336Y186736D01*
X248864Y187009D01*
X248289Y187233D01*
X247611Y187407D01*
X246831Y187531D01*
X245948Y187605D01*
X244962Y187630D01*
Y192630D01*
X245927Y192655D01*
X246789Y192730D01*
X247549Y192855D01*
X248206Y193030D01*
X248761Y193255D01*
X249212Y193530D01*
X249562Y193855D01*
X249808Y194230D01*
X249951Y194655D01*
X249993Y195130D01*
X250198Y185147D01*
D02*
G37*
G36*
X496234Y174089D02*
X496169Y174561D01*
X495974Y174982D01*
X495648Y175354D01*
X495192Y175677D01*
X494606Y175950D01*
X493890Y176173D01*
X493044Y176347D01*
X492067Y176471D01*
X490960Y176545D01*
X489723Y176570D01*
Y181570D01*
X490960Y181595D01*
X493044Y181793D01*
X493890Y181967D01*
X494606Y182190D01*
X495192Y182463D01*
X495648Y182785D01*
X495974Y183158D01*
X496169Y183579D01*
X496234Y184051D01*
Y174089D01*
D02*
G37*
G36*
X39771Y183579D02*
X39966Y183158D01*
X40292Y182785D01*
X40748Y182463D01*
X41334Y182190D01*
X42050Y181967D01*
X42896Y181793D01*
X43873Y181669D01*
X44980Y181595D01*
X46217Y181570D01*
Y176570D01*
X44980Y176545D01*
X42896Y176347D01*
X42050Y176173D01*
X41334Y175950D01*
X40748Y175677D01*
X40292Y175354D01*
X39966Y174982D01*
X39771Y174561D01*
X39706Y174089D01*
Y184051D01*
X39771Y183579D01*
D02*
G37*
G36*
X268828Y162594D02*
X268934Y161160D01*
X269026Y160577D01*
X269144Y160084D01*
X269288Y159681D01*
X269459Y159367D01*
X269656Y159143D01*
X269880Y159008D01*
X270130Y158963D01*
X261833Y158933D01*
X262210Y158980D01*
X262547Y159116D01*
X262844Y159342D01*
X263102Y159658D01*
X263320Y160065D01*
X263498Y160561D01*
X263637Y161147D01*
X263736Y161823D01*
X263796Y162589D01*
X263815Y163445D01*
X268815D01*
X268828Y162594D01*
D02*
G37*
G36*
X369664Y153215D02*
X369293Y153516D01*
X368886Y153709D01*
X368443Y153797D01*
X367964Y153778D01*
X367449Y153652D01*
X366899Y153420D01*
X366313Y153081D01*
X365691Y152636D01*
X365033Y152084D01*
X364339Y151426D01*
X360804Y154962D01*
X361462Y155655D01*
X362014Y156313D01*
X362459Y156935D01*
X362798Y157521D01*
X363030Y158071D01*
X363156Y158586D01*
X363175Y159065D01*
X363087Y159508D01*
X362893Y159915D01*
X362593Y160286D01*
X369664Y153215D01*
D02*
G37*
G36*
X496234Y148689D02*
X496169Y149161D01*
X495974Y149582D01*
X495648Y149955D01*
X495192Y150277D01*
X494606Y150550D01*
X493890Y150773D01*
X493044Y150947D01*
X492067Y151071D01*
X490960Y151145D01*
X489723Y151170D01*
Y156170D01*
X490960Y156195D01*
X493044Y156393D01*
X493890Y156567D01*
X494606Y156790D01*
X495192Y157063D01*
X495648Y157386D01*
X495974Y157758D01*
X496169Y158179D01*
X496234Y158651D01*
Y148689D01*
D02*
G37*
G36*
X39771Y158179D02*
X39966Y157758D01*
X40292Y157386D01*
X40748Y157063D01*
X41334Y156790D01*
X42050Y156567D01*
X42896Y156393D01*
X43873Y156269D01*
X44980Y156195D01*
X46217Y156170D01*
Y151170D01*
X44980Y151145D01*
X42896Y150947D01*
X42050Y150773D01*
X41334Y150550D01*
X40748Y150277D01*
X40292Y149955D01*
X39966Y149582D01*
X39771Y149161D01*
X39706Y148689D01*
Y158651D01*
X39771Y158179D01*
D02*
G37*
G36*
X354243Y141330D02*
X353585Y140636D01*
X353033Y139979D01*
X352588Y139357D01*
X352250Y138771D01*
X352017Y138220D01*
X351892Y137706D01*
X351873Y137227D01*
X351960Y136784D01*
X352154Y136376D01*
X352454Y136005D01*
X345383Y143076D01*
X345754Y142776D01*
X346162Y142582D01*
X346605Y142495D01*
X347083Y142514D01*
X347598Y142640D01*
X348148Y142872D01*
X348735Y143210D01*
X349356Y143656D01*
X350014Y144207D01*
X350708Y144865D01*
X354243Y141330D01*
D02*
G37*
G36*
X338890Y144740D02*
X339548Y144189D01*
X340170Y143744D01*
X340756Y143405D01*
X341307Y143173D01*
X341821Y143047D01*
X342300Y143028D01*
X342743Y143115D01*
X343150Y143309D01*
X343522Y143609D01*
X336451Y136538D01*
X336751Y136910D01*
X336945Y137317D01*
X337032Y137760D01*
X337013Y138239D01*
X336887Y138753D01*
X336655Y139304D01*
X336316Y139890D01*
X335871Y140512D01*
X335320Y141170D01*
X334661Y141863D01*
X338197Y145399D01*
X338890Y144740D01*
D02*
G37*
G36*
X496234Y123289D02*
X496169Y123761D01*
X495974Y124182D01*
X495648Y124555D01*
X495192Y124877D01*
X494606Y125150D01*
X493890Y125373D01*
X493044Y125547D01*
X492067Y125671D01*
X490960Y125745D01*
X489723Y125770D01*
Y130770D01*
X490960Y130795D01*
X493044Y130993D01*
X493890Y131167D01*
X494606Y131390D01*
X495192Y131663D01*
X495648Y131986D01*
X495974Y132358D01*
X496169Y132779D01*
X496234Y133251D01*
Y123289D01*
D02*
G37*
G36*
X39771Y132779D02*
X39966Y132358D01*
X40292Y131986D01*
X40748Y131663D01*
X41334Y131390D01*
X42050Y131167D01*
X42896Y130993D01*
X43873Y130869D01*
X44980Y130795D01*
X46217Y130770D01*
Y125770D01*
X44980Y125745D01*
X42896Y125547D01*
X42050Y125373D01*
X41334Y125150D01*
X40748Y124877D01*
X40292Y124555D01*
X39966Y124182D01*
X39771Y123761D01*
X39706Y123289D01*
Y133251D01*
X39771Y132779D01*
D02*
G37*
G36*
X366491Y119968D02*
X366297Y119562D01*
X366208Y119120D01*
X366226Y118642D01*
X366350Y118130D01*
X366580Y117582D01*
X366915Y116998D01*
X367357Y116380D01*
X367867Y115772D01*
X368475Y115262D01*
X369093Y114820D01*
X369677Y114485D01*
X370225Y114255D01*
X370737Y114131D01*
X371215Y114113D01*
X371657Y114202D01*
X372063Y114396D01*
X372434Y114697D01*
X365363Y107626D01*
X365664Y107997D01*
X365858Y108403D01*
X365947Y108845D01*
X365929Y109323D01*
X365805Y109835D01*
X365575Y110383D01*
X365240Y110967D01*
X364798Y111585D01*
X364288Y112193D01*
X363680Y112703D01*
X363062Y113145D01*
X362478Y113481D01*
X361930Y113710D01*
X361418Y113834D01*
X360940Y113852D01*
X360498Y113763D01*
X360092Y113569D01*
X359721Y113268D01*
X366792Y120339D01*
X366491Y119968D01*
D02*
G37*
G36*
X418832Y104048D02*
X418461Y104348D01*
X418053Y104542D01*
X417610Y104629D01*
X417132Y104610D01*
X416617Y104484D01*
X416067Y104252D01*
X415480Y103913D01*
X414859Y103468D01*
X414201Y102916D01*
X413507Y102258D01*
X409972Y105794D01*
X410630Y106487D01*
X411181Y107145D01*
X411627Y107767D01*
X411965Y108353D01*
X412197Y108904D01*
X412323Y109418D01*
X412342Y109897D01*
X412255Y110340D01*
X412061Y110747D01*
X411761Y111119D01*
X418832Y104048D01*
D02*
G37*
G36*
X396317Y98244D02*
X395864Y97779D01*
X394871Y96597D01*
X394662Y96275D01*
X394513Y95989D01*
X394426Y95738D01*
X394399Y95523D01*
X394433Y95344D01*
X394528Y95201D01*
X389739Y99990D01*
X389882Y99895D01*
X390061Y99861D01*
X390276Y99888D01*
X390527Y99976D01*
X390813Y100124D01*
X391135Y100333D01*
X391493Y100604D01*
X391887Y100935D01*
X392782Y101779D01*
X396317Y98244D01*
D02*
G37*
G36*
X39771Y107379D02*
X39966Y106958D01*
X40292Y106586D01*
X40748Y106263D01*
X41334Y105990D01*
X42050Y105767D01*
X42896Y105593D01*
X43873Y105469D01*
X44980Y105395D01*
X46217Y105370D01*
Y100370D01*
X44980Y100345D01*
X42896Y100147D01*
X42050Y99973D01*
X41334Y99750D01*
X40748Y99477D01*
X40292Y99155D01*
X39966Y98782D01*
X39771Y98361D01*
X39706Y97889D01*
Y107851D01*
X39771Y107379D01*
D02*
G37*
G36*
X499850Y95679D02*
X499547Y96043D01*
X499178Y96271D01*
X498744Y96365D01*
X498246Y96324D01*
X497682Y96147D01*
X497054Y95835D01*
X496361Y95388D01*
X495603Y94806D01*
X494780Y94088D01*
X493892Y93235D01*
X491009Y97423D01*
X491586Y98035D01*
X492110Y98665D01*
X492581Y99312D01*
X493000Y99977D01*
X493367Y100659D01*
X493680Y101359D01*
X493941Y102076D01*
X494150Y102811D01*
X494305Y103564D01*
X494409Y104334D01*
X499850Y95679D01*
D02*
G37*
G36*
X158035Y92812D02*
X158121Y92825D01*
X158101Y92774D01*
X158083Y92679D01*
X158066Y92538D01*
X158061Y92431D01*
X158114Y91830D01*
X158239Y91080D01*
X158414Y90429D01*
X158639Y89880D01*
X158914Y89430D01*
X159239Y89080D01*
X159614Y88829D01*
X160039Y88680D01*
X160514Y88630D01*
X150514D01*
X150989Y88680D01*
X151414Y88829D01*
X151789Y89080D01*
X152114Y89430D01*
X152389Y89880D01*
X152614Y90429D01*
X152789Y91080D01*
X152852Y91459D01*
X152801Y91647D01*
X152736Y91812D01*
X152662Y91937D01*
X152579Y92021D01*
X152935Y92073D01*
X152989Y92680D01*
X153014Y93630D01*
X158014D01*
X158035Y92812D01*
D02*
G37*
G36*
X386686Y86245D02*
X386314Y86544D01*
X385905Y86737D01*
X385462Y86824D01*
X384983Y86804D01*
X384468Y86679D01*
X383918Y86447D01*
X383332Y86108D01*
X382710Y85664D01*
X382054Y85113D01*
X381361Y84456D01*
X377826Y87991D01*
X378485Y88675D01*
X379521Y89902D01*
X379897Y90446D01*
X380177Y90943D01*
X380364Y91393D01*
X380455Y91796D01*
X380452Y92153D01*
X380355Y92463D01*
X380162Y92726D01*
X386686Y86245D01*
D02*
G37*
G36*
X269410Y173749D02*
X262710Y167050D01*
X261605Y165396D01*
X261217Y163445D01*
Y162312D01*
X261201Y162107D01*
X261131Y161626D01*
X261100Y161494D01*
X255660D01*
X255660Y145373D01*
X254160Y141994D01*
X254160Y141115D01*
Y134766D01*
X255002Y134840D01*
X255756Y134965D01*
X256410Y135140D01*
X256963Y135365D01*
X257416Y135640D01*
X257768Y135965D01*
X258020Y136340D01*
X258171Y136765D01*
X258221Y137240D01*
Y133994D01*
X269784D01*
X268725Y134700D01*
X269675Y134750D01*
X270099Y134825D01*
Y137200D01*
X270149Y136725D01*
X270300Y136300D01*
X270552Y135925D01*
X270904Y135600D01*
X271357Y135325D01*
X271495Y135269D01*
X271925Y135500D01*
X272475Y135950D01*
X272925Y136500D01*
X273275Y137150D01*
X273525Y137900D01*
X273675Y138750D01*
X273725Y139700D01*
X274160D01*
Y141115D01*
X274160Y141994D01*
X272660Y145373D01*
X272660Y145994D01*
Y158878D01*
X272679Y158973D01*
X272660Y161494D01*
X272342Y162262D01*
X280085Y170005D01*
X281190Y171659D01*
X281578Y173610D01*
Y176218D01*
X282480Y177259D01*
X283813D01*
X287382Y173632D01*
Y161414D01*
X279790D01*
X279790Y145293D01*
X278290Y141914D01*
X278290Y141035D01*
Y139700D01*
X278725D01*
X278775Y138750D01*
X278925Y137900D01*
X279175Y137150D01*
X279525Y136500D01*
X279975Y135950D01*
X280525Y135500D01*
X280955Y135269D01*
X281093Y135325D01*
X281546Y135600D01*
X281898Y135925D01*
X282150Y136300D01*
X282301Y136725D01*
X282351Y137200D01*
Y134825D01*
X282775Y134750D01*
X283725Y134700D01*
X282546Y133914D01*
X298290D01*
Y141035D01*
X298290Y141914D01*
X296790Y145293D01*
X296790Y145914D01*
Y151354D01*
X300790Y153010D01*
X366267Y87534D01*
X364736Y83838D01*
X345458D01*
Y100330D01*
X345070Y102281D01*
X343965Y103935D01*
X329995Y117905D01*
X328341Y119010D01*
X326390Y119398D01*
X301248D01*
X298290Y121914D01*
X298290Y123398D01*
Y129914D01*
X282351D01*
Y127200D01*
X282301Y127675D01*
X282150Y128100D01*
X281898Y128475D01*
X281546Y128800D01*
X281093Y129075D01*
X280540Y129300D01*
X279886Y129475D01*
X279132Y129600D01*
X278290Y129674D01*
Y125602D01*
X276292Y124245D01*
X274160Y125808D01*
Y129674D01*
X273319Y129600D01*
X272564Y129475D01*
X271910Y129300D01*
X271357Y129075D01*
X270904Y128800D01*
X270552Y128475D01*
X270300Y128100D01*
X270149Y127675D01*
X270099Y127200D01*
Y129994D01*
X258221D01*
Y127240D01*
X258171Y127715D01*
X258020Y128140D01*
X257768Y128515D01*
X257416Y128840D01*
X256963Y129115D01*
X256410Y129340D01*
X255756Y129515D01*
X255002Y129640D01*
X254160Y129714D01*
Y123398D01*
X254160Y121994D01*
X251235Y119398D01*
X232428D01*
Y167622D01*
X254261D01*
X256211Y168010D01*
X257865Y169115D01*
X264085Y175335D01*
X265190Y176989D01*
X265350Y177269D01*
X267550Y177547D01*
X269410Y173749D01*
D02*
G37*
G36*
X129446Y78324D02*
X128973Y78360D01*
X128551Y78258D01*
X128178Y78017D01*
X127855Y77638D01*
X127581Y77120D01*
X127358Y76464D01*
X127184Y75669D01*
X127059Y74735D01*
X126985Y73664D01*
X126960Y72453D01*
X121960Y73319D01*
X121935Y74577D01*
X121737Y76728D01*
X121564Y77622D01*
X121341Y78395D01*
X121068Y79046D01*
X120746Y79576D01*
X120375Y79984D01*
X119954Y80271D01*
X119484Y80437D01*
X129446Y78324D01*
D02*
G37*
G36*
X495489Y73440D02*
X495436Y73731D01*
X495278Y73991D01*
X495015Y74220D01*
X494646Y74419D01*
X494172Y74587D01*
X493592Y74725D01*
X492907Y74832D01*
X492117Y74909D01*
X490220Y74970D01*
Y79970D01*
X491221Y79985D01*
X492907Y80108D01*
X493592Y80215D01*
X494172Y80352D01*
X494646Y80521D01*
X495015Y80720D01*
X495278Y80949D01*
X495436Y81209D01*
X495489Y81500D01*
Y73440D01*
D02*
G37*
G36*
X39771Y81979D02*
X39966Y81558D01*
X40292Y81186D01*
X40748Y80863D01*
X41334Y80590D01*
X42050Y80367D01*
X42896Y80193D01*
X43873Y80069D01*
X44980Y79995D01*
X46217Y79970D01*
Y74970D01*
X44980Y74945D01*
X42896Y74747D01*
X42050Y74573D01*
X41334Y74350D01*
X40748Y74077D01*
X40292Y73755D01*
X39966Y73382D01*
X39771Y72961D01*
X39706Y72489D01*
Y82451D01*
X39771Y81979D01*
D02*
G37*
G36*
X158760Y61160D02*
X158910Y60310D01*
X159160Y59560D01*
X159510Y58910D01*
X159960Y58360D01*
X160510Y57910D01*
X161160Y57560D01*
X161910Y57310D01*
X162760Y57160D01*
X163710Y57110D01*
Y52110D01*
X162760Y52060D01*
X161910Y51910D01*
X161160Y51660D01*
X160510Y51310D01*
X159960Y50860D01*
X159510Y50310D01*
X159269Y49863D01*
X159335Y49701D01*
X159610Y49248D01*
X159935Y48896D01*
X160310Y48644D01*
X160735Y48493D01*
X161210Y48443D01*
X158828D01*
X158760Y48060D01*
X158710Y47110D01*
X153710D01*
X153660Y48060D01*
X153592Y48443D01*
X151210D01*
X151685Y48493D01*
X152110Y48644D01*
X152485Y48896D01*
X152810Y49248D01*
X153085Y49701D01*
X153151Y49863D01*
X152910Y50310D01*
X152460Y50860D01*
X151910Y51310D01*
X151260Y51660D01*
X150510Y51910D01*
X149660Y52060D01*
X148710Y52110D01*
Y57110D01*
X149660Y57160D01*
X150510Y57310D01*
X151260Y57560D01*
X151910Y57910D01*
X152460Y58360D01*
X152910Y58910D01*
X153260Y59560D01*
X153510Y60310D01*
X153660Y61160D01*
X153710Y62110D01*
X158710D01*
X158760Y61160D01*
D02*
G37*
G36*
X39771Y56579D02*
X39966Y56158D01*
X40292Y55785D01*
X40748Y55463D01*
X41334Y55190D01*
X42050Y54967D01*
X42896Y54793D01*
X43873Y54669D01*
X44980Y54595D01*
X46217Y54570D01*
Y49570D01*
X44980Y49545D01*
X42896Y49347D01*
X42050Y49173D01*
X41334Y48950D01*
X40748Y48677D01*
X40292Y48355D01*
X39966Y47982D01*
X39771Y47561D01*
X39706Y47089D01*
Y57051D01*
X39771Y56579D01*
D02*
G37*
G36*
X285179Y34809D02*
X284758Y34614D01*
X284386Y34288D01*
X284063Y33832D01*
X283790Y33246D01*
X283567Y32530D01*
X283393Y31684D01*
X283269Y30707D01*
X283195Y29600D01*
X283170Y28363D01*
X278170D01*
X278145Y29600D01*
X277947Y31684D01*
X277773Y32530D01*
X277550Y33246D01*
X277277Y33832D01*
X276954Y34288D01*
X276582Y34614D01*
X276161Y34809D01*
X275689Y34874D01*
X285651D01*
X285179Y34809D01*
D02*
G37*
%LPC*%
G36*
X392430Y656590D02*
X390618D01*
X391518Y655418D01*
X392430Y654718D01*
Y656590D01*
D02*
G37*
G36*
X160468Y629920D02*
X144240D01*
Y628632D01*
X157490D01*
X157490Y628632D01*
X159051Y628942D01*
X160374Y629826D01*
X160468Y629920D01*
D02*
G37*
G36*
X140240D02*
X124012D01*
X124106Y629826D01*
X125429Y628942D01*
X126990Y628632D01*
X126990Y628632D01*
X140240D01*
Y629920D01*
D02*
G37*
G36*
X468470Y663810D02*
X448470D01*
Y627885D01*
X448383Y627850D01*
X448008Y627749D01*
X447478Y627660D01*
X447110Y627628D01*
X441880D01*
X439929Y627240D01*
X439148Y626718D01*
X436577D01*
X434622Y627984D01*
X433373Y630044D01*
X433334Y630493D01*
X433349Y630749D01*
X434115Y632475D01*
X434081Y632460D01*
X414251D01*
X415680Y629241D01*
X415680Y628620D01*
Y613120D01*
X418833D01*
X418859Y613057D01*
X418961Y612677D01*
X419049Y612141D01*
X419082Y611768D01*
Y591838D01*
X402590D01*
X400639Y591450D01*
X398985Y590345D01*
X390318Y581678D01*
X381636D01*
X380692Y581710D01*
X379708Y581802D01*
X379430Y581845D01*
X379293Y581876D01*
X379204Y581913D01*
X379125Y581966D01*
X379032Y581984D01*
X377966Y582426D01*
X376400Y582632D01*
X365508D01*
X364744Y583837D01*
X364077Y586632D01*
X364611Y587166D01*
X365467Y588648D01*
X365910Y590302D01*
Y590706D01*
X365951Y590857D01*
X365969Y591121D01*
X365992Y591277D01*
X366025Y591424D01*
X366069Y591564D01*
X366125Y591702D01*
X366194Y591841D01*
X366280Y591984D01*
X366380Y592126D01*
X369714Y595460D01*
X369714Y595460D01*
X370598Y596783D01*
X370869Y598148D01*
X372830Y601336D01*
X379330D01*
Y599836D01*
X384330D01*
Y603250D01*
X383540D01*
Y622300D01*
X389890D01*
Y622300D01*
X390386Y622349D01*
X391301Y622728D01*
X392002Y623429D01*
X392381Y624344D01*
X392430Y624840D01*
Y636042D01*
X391518Y635342D01*
X391050Y634733D01*
X387962Y633798D01*
X386007Y634005D01*
X385546Y634271D01*
X384020Y634680D01*
X382440D01*
X379739Y638027D01*
X379739Y650240D01*
X379739Y650997D01*
X379739Y650998D01*
X379739Y650998D01*
X379629Y651552D01*
X379545Y651973D01*
X379545Y651973D01*
X379545Y651973D01*
X378965Y653374D01*
X378965Y653374D01*
X378413Y654201D01*
X378412Y654201D01*
X378412Y654201D01*
X377340Y655273D01*
X377340Y655273D01*
X377340Y655273D01*
X376816Y655623D01*
X376513Y655825D01*
X376513Y655825D01*
X376513Y655825D01*
X375113Y656405D01*
X375113Y656405D01*
X375112Y656405D01*
X374743Y656478D01*
X374182Y656590D01*
X259035D01*
X258105Y656405D01*
X257278Y655852D01*
X256725Y655025D01*
X256531Y654050D01*
Y637540D01*
X256725Y636565D01*
X257240Y635794D01*
Y632880D01*
X281240D01*
Y634991D01*
X299916D01*
X300957Y633730D01*
X314960Y633730D01*
X315465D01*
X316399Y633343D01*
X317113Y632629D01*
X317500Y631695D01*
Y631190D01*
Y624840D01*
Y624840D01*
X317549Y624344D01*
X317928Y623429D01*
X318629Y622728D01*
X319544Y622349D01*
X320040Y622300D01*
X325120D01*
Y603249D01*
Y603248D01*
X325193Y602505D01*
X325762Y601132D01*
X326813Y600081D01*
X328187Y599513D01*
X328930Y599440D01*
X336550Y599440D01*
X336549Y599439D01*
X337560Y599440D01*
X339427Y598667D01*
X340857Y597238D01*
X341630Y595370D01*
X341630Y594360D01*
X341630Y540601D01*
X341752Y539987D01*
X342636Y538663D01*
X345704Y535596D01*
X345704Y535596D01*
X347027Y534712D01*
X348587Y534402D01*
X353264D01*
X353514Y534387D01*
X353720Y534155D01*
X354121Y533166D01*
Y530392D01*
X353776Y529610D01*
X353159Y528806D01*
X352554Y527346D01*
X352348Y525780D01*
X352554Y524214D01*
X353159Y522754D01*
X353776Y521950D01*
X354121Y521167D01*
Y517692D01*
X353776Y516911D01*
X353159Y516106D01*
X352554Y514646D01*
X352348Y513080D01*
X352554Y511514D01*
X353159Y510054D01*
X353776Y509249D01*
X354121Y508467D01*
Y504992D01*
X353776Y504211D01*
X353159Y503406D01*
X352554Y501946D01*
X352348Y500380D01*
X352554Y498814D01*
X353159Y497354D01*
X353051Y493029D01*
X351870Y491490D01*
X382270D01*
X382269Y491489D01*
X382775Y491489D01*
X383708Y491103D01*
X384423Y490389D01*
X384810Y489455D01*
X384810Y488950D01*
X384810Y485140D01*
X384809Y485139D01*
X384809Y484634D01*
X384422Y483701D01*
X383708Y482986D01*
X382775Y482600D01*
X382270Y482600D01*
X381031Y482478D01*
X378742Y481530D01*
X376990Y479778D01*
X376848Y479436D01*
X378850Y476403D01*
Y464510D01*
X389330D01*
X393313Y460543D01*
X393313Y460510D01*
X378850D01*
Y443510D01*
X381995D01*
X382030Y443424D01*
X382131Y443049D01*
X382220Y442519D01*
X382252Y442150D01*
Y435420D01*
X382220Y435051D01*
X382131Y434521D01*
X382030Y434147D01*
X381995Y434060D01*
X378850D01*
Y421326D01*
X376742Y419709D01*
X375920Y420098D01*
Y419100D01*
X375919Y419099D01*
X375919Y419098D01*
X375920Y419094D01*
X375920Y419091D01*
X375920Y419088D01*
X375920Y419086D01*
X375920Y414020D01*
Y414020D01*
X375967Y413540D01*
X376334Y412653D01*
X377013Y411975D01*
X377900Y411607D01*
X378380Y411560D01*
X391080D01*
X391079Y411559D01*
X391600Y411559D01*
X392564Y411161D01*
X393301Y410424D01*
X393700Y409461D01*
Y408940D01*
X393700Y406560D01*
X397350D01*
Y413681D01*
X397350Y414560D01*
X395850Y417939D01*
X395850Y418560D01*
Y429779D01*
X399844Y431664D01*
X402759Y430501D01*
X403105Y430166D01*
X404065Y428729D01*
X405943Y426850D01*
Y418560D01*
X422943D01*
Y431287D01*
X426943Y432944D01*
X431360Y428527D01*
X431802Y428027D01*
X432380Y427299D01*
X432816Y426666D01*
X433037Y426280D01*
Y418560D01*
X450037D01*
Y430790D01*
X451358Y431804D01*
X453070D01*
X454723Y432247D01*
X456205Y433103D01*
X460130Y431371D01*
Y418560D01*
X477130D01*
Y435560D01*
X473985D01*
X473950Y435647D01*
X473849Y436021D01*
X473760Y436552D01*
X473728Y436920D01*
Y439770D01*
X473760Y440139D01*
X473849Y440668D01*
X473950Y441043D01*
X473985Y441130D01*
X477130D01*
X477130Y457251D01*
X478630Y460630D01*
X478630Y461509D01*
Y468630D01*
X478473D01*
X477789Y468570D01*
X477034Y468445D01*
X476380Y468270D01*
X475827Y468045D01*
X475374Y467770D01*
X475022Y467445D01*
X474770Y467070D01*
X474619Y466645D01*
X474569Y466170D01*
Y468630D01*
X468630D01*
Y470630D01*
X466630D01*
Y476569D01*
X463630D01*
X464105Y476619D01*
X464530Y476770D01*
X464905Y477022D01*
X465230Y477374D01*
X465505Y477827D01*
X465730Y478380D01*
X465905Y479034D01*
X466030Y479789D01*
X466104Y480630D01*
X460445D01*
X456810Y481510D01*
X454995Y481510D01*
X449795D01*
X449520Y482892D01*
X448415Y484546D01*
X445486Y487475D01*
X443832Y488580D01*
X441881Y488968D01*
X412768D01*
Y496330D01*
X413140Y500176D01*
X415313Y500176D01*
X430140D01*
X430140Y516297D01*
X431640Y519676D01*
X431640Y520555D01*
Y527150D01*
X430798Y527076D01*
X430044Y526951D01*
X429390Y526776D01*
X428837Y526551D01*
X428384Y526276D01*
X428032Y525951D01*
X427780Y525576D01*
X427629Y525151D01*
X427579Y524676D01*
Y527676D01*
X421640D01*
X411640D01*
Y524516D01*
X407640Y522860D01*
X401115Y529385D01*
X399461Y530490D01*
X397510Y530878D01*
X382920D01*
X381650Y532761D01*
X381346Y533622D01*
X381212Y534895D01*
X381641Y535454D01*
X382246Y536914D01*
X382452Y538480D01*
X382246Y540046D01*
X381641Y541506D01*
X381024Y542310D01*
X380679Y543092D01*
Y546567D01*
X381024Y547350D01*
X381641Y548154D01*
X382246Y549614D01*
X382452Y551180D01*
X382246Y552746D01*
X381641Y554206D01*
X381257Y554707D01*
X381913Y557289D01*
X382920Y558782D01*
X397510D01*
X399461Y559170D01*
X401115Y560275D01*
X406566Y565726D01*
X409243D01*
X411198Y564460D01*
X412447Y562400D01*
X412486Y561951D01*
X412471Y561695D01*
X411640Y559824D01*
X411640Y558945D01*
Y551824D01*
X431640D01*
Y558945D01*
X431640Y559824D01*
X430809Y561695D01*
X430794Y561951D01*
X430833Y562400D01*
X432082Y564460D01*
X434037Y565726D01*
X447110D01*
X447478Y565694D01*
X448008Y565605D01*
X448383Y565504D01*
X448470Y565469D01*
Y528810D01*
X468470D01*
Y578810D01*
X448470D01*
Y576179D01*
X448383Y576144D01*
X448008Y576043D01*
X447478Y575955D01*
X447110Y575922D01*
X431492D01*
X431119Y575955D01*
X430583Y576043D01*
X430203Y576145D01*
X430140Y576171D01*
Y579324D01*
X426352D01*
X425098Y582517D01*
X425045Y583324D01*
X427785Y586064D01*
X428890Y587718D01*
X429278Y589669D01*
Y611768D01*
X429311Y612141D01*
X429399Y612677D01*
X429501Y613057D01*
X429527Y613120D01*
X432680D01*
Y616273D01*
X432743Y616299D01*
X433123Y616401D01*
X433659Y616489D01*
X434031Y616522D01*
X440970D01*
X442921Y616910D01*
X443702Y617432D01*
X447110D01*
X447478Y617400D01*
X448008Y617311D01*
X448383Y617210D01*
X448470Y617175D01*
Y613810D01*
X468470D01*
Y663810D01*
D02*
G37*
G36*
X108762Y628888D02*
X107536Y627662D01*
X106777Y625831D01*
X106680Y624840D01*
Y613710D01*
X109318D01*
Y626960D01*
X109318Y626960D01*
X109008Y628521D01*
X108762Y628888D01*
D02*
G37*
G36*
X81280Y626110D02*
X81162D01*
Y613710D01*
X81280D01*
Y626110D01*
D02*
G37*
G36*
X393330Y603250D02*
X388330D01*
Y599836D01*
X393330D01*
Y603250D01*
D02*
G37*
G36*
X81280Y609710D02*
X81162D01*
Y596460D01*
X81162Y596460D01*
X81280Y595865D01*
Y609710D01*
D02*
G37*
G36*
X93240Y590550D02*
X86360D01*
X85382Y590550D01*
X87356Y588576D01*
X88679Y587692D01*
X90240Y587382D01*
X90240Y587382D01*
X93240D01*
Y590550D01*
D02*
G37*
G36*
X431640Y547824D02*
X411640D01*
Y543676D01*
X411640Y539824D01*
X411640Y535824D01*
Y531676D01*
X421640D01*
X427579D01*
Y534676D01*
X427629Y534201D01*
X427780Y533776D01*
X428032Y533401D01*
X428384Y533076D01*
X428837Y532801D01*
X429390Y532576D01*
X430044Y532401D01*
X430798Y532276D01*
X431640Y532202D01*
Y535824D01*
X431640Y539676D01*
X431640Y543676D01*
Y547824D01*
D02*
G37*
G36*
X511142Y553672D02*
X507398D01*
X503727Y552942D01*
X500269Y551509D01*
X497157Y549430D01*
X494510Y546783D01*
X492431Y543671D01*
X490998Y540213D01*
X490268Y536541D01*
Y532799D01*
X490998Y529127D01*
X492431Y525669D01*
X494510Y522557D01*
X497157Y519910D01*
X500269Y517831D01*
X503727Y516398D01*
X507398Y515668D01*
X511142D01*
X514813Y516398D01*
X518271Y517831D01*
X521383Y519910D01*
X524030Y522557D01*
X526109Y525669D01*
X527542Y529127D01*
X528272Y532799D01*
Y536541D01*
X527542Y540213D01*
X526109Y543671D01*
X524030Y546783D01*
X521383Y549430D01*
X518271Y551509D01*
X514813Y552942D01*
X511142Y553672D01*
D02*
G37*
G36*
X516770Y509196D02*
X501770D01*
X499160Y508853D01*
X496727Y507845D01*
X494638Y506242D01*
X493035Y504153D01*
X492027Y501721D01*
X491684Y499110D01*
X492027Y496499D01*
X493035Y494067D01*
X494638Y491978D01*
X496727Y490375D01*
X499160Y489367D01*
X501770Y489024D01*
X516770D01*
X519380Y489367D01*
X521813Y490375D01*
X523902Y491978D01*
X525505Y494067D01*
X526513Y496499D01*
X526856Y499110D01*
X526513Y501721D01*
X525505Y504153D01*
X523902Y506242D01*
X521813Y507845D01*
X519380Y508853D01*
X516770Y509196D01*
D02*
G37*
G36*
X471156Y480630D02*
X471230Y479789D01*
X471355Y479034D01*
X471530Y478380D01*
X471755Y477827D01*
X472030Y477374D01*
X472355Y477022D01*
X472730Y476770D01*
X473155Y476619D01*
X473630Y476569D01*
X470630D01*
Y472630D01*
X474569D01*
Y476170D01*
X474619Y475695D01*
X474770Y475270D01*
X475022Y474895D01*
X475374Y474570D01*
X475827Y474295D01*
X476380Y474070D01*
X477034Y473895D01*
X477789Y473770D01*
X478630Y473696D01*
Y480630D01*
X471156D01*
D02*
G37*
G36*
X516770Y483796D02*
X501770D01*
X499160Y483453D01*
X496727Y482445D01*
X494638Y480842D01*
X493035Y478753D01*
X492027Y476320D01*
X491684Y473710D01*
X492027Y471100D01*
X493035Y468667D01*
X494638Y466578D01*
X496727Y464975D01*
X499160Y463967D01*
X501770Y463624D01*
X516770D01*
X519380Y463967D01*
X521813Y464975D01*
X523902Y466578D01*
X525505Y468667D01*
X526513Y471100D01*
X526856Y473710D01*
X526513Y476320D01*
X525505Y478753D01*
X523902Y480842D01*
X521813Y482445D01*
X519380Y483453D01*
X516770Y483796D01*
D02*
G37*
G36*
Y458396D02*
X501770D01*
X499160Y458053D01*
X496727Y457045D01*
X494638Y455442D01*
X493035Y453353D01*
X492027Y450920D01*
X491684Y448310D01*
X492027Y445700D01*
X493035Y443267D01*
X494638Y441178D01*
X496727Y439575D01*
X499160Y438567D01*
X500555Y438384D01*
Y434349D01*
X498768Y434114D01*
X495970Y432955D01*
X494560Y431873D01*
X495300Y431800D01*
X520700D01*
X520700Y431800D01*
X521710Y431800D01*
X523577Y431026D01*
X525006Y429598D01*
X525780Y427730D01*
X525780Y426720D01*
Y424910D01*
X528106D01*
X527974Y425912D01*
X526815Y428710D01*
X524972Y431112D01*
X522570Y432955D01*
X519772Y434114D01*
X517985Y434349D01*
Y438384D01*
X519380Y438567D01*
X521813Y439575D01*
X523902Y441178D01*
X525505Y443267D01*
X526513Y445700D01*
X526856Y448310D01*
X526513Y450920D01*
X525505Y453353D01*
X523902Y455442D01*
X521813Y457045D01*
X519380Y458053D01*
X516770Y458396D01*
D02*
G37*
G36*
X397350Y402560D02*
X393699D01*
X393699Y402084D01*
X393313Y401151D01*
X392598Y400437D01*
X391665Y400050D01*
X391160Y400050D01*
X389350D01*
Y394560D01*
X397350D01*
Y402560D01*
D02*
G37*
G36*
X377350Y400050D02*
Y394560D01*
X385350D01*
Y400050D01*
X377350D01*
D02*
G37*
G36*
X303530Y359682D02*
X303530Y359410D01*
Y356870D01*
X304646D01*
X304206Y358510D01*
X303530Y359682D01*
D02*
G37*
G36*
X170210Y362739D02*
Y356170D01*
X177210D01*
Y361170D01*
X172230D01*
X172230Y361170D01*
X171822Y361170D01*
X171068Y361482D01*
X170492Y362059D01*
X170210Y362739D01*
D02*
G37*
G36*
X304646Y354330D02*
X303530D01*
X303530Y351518D01*
X304206Y352690D01*
X304646Y354330D01*
D02*
G37*
G36*
X303530Y346982D02*
Y344170D01*
X304646D01*
X304206Y345810D01*
X303530Y346982D01*
D02*
G37*
G36*
X127730Y33201D02*
Y20340D01*
X133524D01*
X133636Y22067D01*
X133658Y21593D01*
X133788Y21168D01*
X134027Y20793D01*
X134375Y20469D01*
X134589Y20340D01*
X137788D01*
Y21340D01*
X137556Y23692D01*
X136870Y25954D01*
X135756Y28039D01*
X134256Y29866D01*
X132429Y31366D01*
X130344Y32480D01*
X128082Y33166D01*
X127730Y33201D01*
D02*
G37*
G36*
X123730D02*
X123378Y33166D01*
X121116Y32480D01*
X119031Y31366D01*
X117204Y29866D01*
X115704Y28039D01*
X114590Y25954D01*
X113904Y23692D01*
X113672Y21340D01*
Y20340D01*
X123730D01*
Y33201D01*
D02*
G37*
G36*
X154210Y19504D02*
X150257D01*
X150240Y15534D01*
X146210Y15510D01*
Y11504D01*
X154210D01*
Y11819D01*
X153710D01*
X153698Y12525D01*
X153601Y13714D01*
X153516Y14197D01*
X153406Y14606D01*
X153272Y14940D01*
X153114Y15200D01*
X152932Y15386D01*
X152725Y15497D01*
X152494Y15534D01*
X154210D01*
Y19504D01*
D02*
G37*
%LPD*%
G36*
X352226Y635408D02*
X351916Y635588D01*
X351599Y635748D01*
X351273Y635890D01*
X350940Y636013D01*
X350599Y636117D01*
X350249Y636202D01*
X349892Y636268D01*
X349527Y636315D01*
X349154Y636344D01*
X348773Y636353D01*
X347967Y639353D01*
X348363Y639368D01*
X348736Y639413D01*
X349086Y639488D01*
X349412Y639592D01*
X349716Y639726D01*
X349996Y639891D01*
X350253Y640085D01*
X350488Y640308D01*
X350699Y640562D01*
X350887Y640845D01*
X352226Y635408D01*
D02*
G37*
G36*
X340073Y618836D02*
X339730Y618833D01*
X338721Y618768D01*
X338559Y618738D01*
X338432Y618702D01*
X338342Y618661D01*
X338288Y618615D01*
X338269Y618563D01*
X338299Y621805D01*
X340073Y621836D01*
Y618836D01*
D02*
G37*
G36*
X451001Y617530D02*
X450951Y618005D01*
X450801Y618430D01*
X450550Y618805D01*
X450201Y619130D01*
X449751Y619405D01*
X449201Y619630D01*
X448550Y619805D01*
X447800Y619930D01*
X446950Y620005D01*
X446001Y620030D01*
Y625030D01*
X446950Y625055D01*
X447800Y625130D01*
X448550Y625255D01*
X449201Y625430D01*
X449751Y625655D01*
X450201Y625930D01*
X450550Y626255D01*
X450801Y626630D01*
X450951Y627055D01*
X451001Y627530D01*
Y617530D01*
D02*
G37*
G36*
X430169Y626145D02*
X430320Y625720D01*
X430572Y625345D01*
X430924Y625020D01*
X431377Y624745D01*
X431930Y624520D01*
X432584Y624345D01*
X433339Y624220D01*
X434194Y624145D01*
X435149Y624120D01*
Y619120D01*
X434194Y619095D01*
X433339Y619020D01*
X432584Y618895D01*
X431930Y618720D01*
X431377Y618495D01*
X430924Y618220D01*
X430572Y617895D01*
X430320Y617520D01*
X430169Y617095D01*
X430119Y616620D01*
Y626620D01*
X430169Y626145D01*
D02*
G37*
G36*
X428705Y615631D02*
X428280Y615480D01*
X427905Y615228D01*
X427580Y614876D01*
X427305Y614423D01*
X427080Y613870D01*
X426905Y613216D01*
X426780Y612462D01*
X426705Y611606D01*
X426680Y610650D01*
X421680D01*
X421655Y611606D01*
X421580Y612462D01*
X421455Y613216D01*
X421280Y613870D01*
X421055Y614423D01*
X420780Y614876D01*
X420455Y615228D01*
X420080Y615480D01*
X419655Y615631D01*
X419180Y615681D01*
X429180D01*
X428705Y615631D01*
D02*
G37*
G36*
X373380Y654050D02*
X374138Y654050D01*
X375538Y653470D01*
X376610Y652398D01*
X377190Y650998D01*
X377190Y650240D01*
X377190Y625771D01*
X377190Y625771D01*
X377268Y624982D01*
X377871Y623525D01*
X378987Y622410D01*
X380444Y621806D01*
X381233Y621729D01*
X381233Y607060D01*
X372110D01*
Y641350D01*
X372109Y641350D01*
X372037Y642093D01*
X371468Y643467D01*
X370417Y644518D01*
X369043Y645087D01*
X368300Y645160D01*
X336550Y645160D01*
X336550Y645160D01*
X335892Y645095D01*
X334677Y644592D01*
X333747Y643661D01*
X333243Y642446D01*
X333179Y641789D01*
Y614617D01*
X327660D01*
Y619760D01*
X327660Y620378D01*
X328051Y621551D01*
X328793Y622541D01*
X329810Y623245D01*
X330403Y623418D01*
X330403Y623418D01*
X330626Y623503D01*
X331016Y623773D01*
X331301Y624152D01*
X331451Y624603D01*
X331470Y624840D01*
X331470Y632460D01*
X331470D01*
X331372Y633451D01*
X330614Y635282D01*
X329212Y636684D01*
X327381Y637442D01*
X326390Y637540D01*
X259080Y637540D01*
Y654050D01*
X373380D01*
X373380Y654050D01*
D02*
G37*
G36*
X364856Y594249D02*
X364591Y593966D01*
X364353Y593675D01*
X364142Y593375D01*
X363957Y593066D01*
X363799Y592749D01*
X363667Y592423D01*
X363562Y592088D01*
X363484Y591745D01*
X363433Y591393D01*
X363408Y591032D01*
X359615Y595152D01*
X359973Y595149D01*
X360323Y595175D01*
X360664Y595231D01*
X360998Y595317D01*
X361323Y595434D01*
X361641Y595580D01*
X361950Y595756D01*
X362251Y595962D01*
X362544Y596199D01*
X362830Y596465D01*
X364856Y594249D01*
D02*
G37*
G36*
X353360Y602587D02*
X353450Y602077D01*
X353600Y601627D01*
X353810Y601237D01*
X354080Y600907D01*
X354410Y600637D01*
X354800Y600427D01*
X355250Y600277D01*
X355760Y600187D01*
X356330Y600157D01*
Y597157D01*
X355760Y597127D01*
X355250Y597037D01*
X354800Y596887D01*
X354410Y596677D01*
X354080Y596407D01*
X353810Y596077D01*
X353600Y595687D01*
X353450Y595237D01*
X353360Y594727D01*
X353330Y594157D01*
X350330Y598657D01*
X353330Y603157D01*
X353360Y602587D01*
D02*
G37*
G36*
X378331Y579510D02*
X378599Y579420D01*
X378952Y579340D01*
X379392Y579271D01*
X380531Y579165D01*
X382884Y579085D01*
X383841Y579080D01*
Y574080D01*
X382884Y574075D01*
X378952Y573820D01*
X378599Y573740D01*
X378331Y573650D01*
X378150Y573549D01*
Y579611D01*
X378331Y579510D01*
D02*
G37*
G36*
X451001Y565824D02*
X450951Y566299D01*
X450801Y566724D01*
X450550Y567099D01*
X450201Y567424D01*
X449751Y567699D01*
X449201Y567924D01*
X448550Y568099D01*
X447800Y568224D01*
X446950Y568299D01*
X446001Y568324D01*
Y573324D01*
X446950Y573349D01*
X447800Y573424D01*
X448550Y573549D01*
X449201Y573724D01*
X449751Y573949D01*
X450201Y574224D01*
X450550Y574549D01*
X450801Y574924D01*
X450951Y575349D01*
X451001Y575824D01*
Y565824D01*
D02*
G37*
G36*
X427629Y575349D02*
X427780Y574924D01*
X428032Y574549D01*
X428384Y574224D01*
X428837Y573949D01*
X429390Y573724D01*
X430044Y573549D01*
X430798Y573424D01*
X431654Y573349D01*
X432609Y573324D01*
Y568324D01*
X431654Y568299D01*
X430798Y568224D01*
X430044Y568099D01*
X429390Y567924D01*
X428837Y567699D01*
X428384Y567424D01*
X428032Y567099D01*
X427780Y566724D01*
X427629Y566299D01*
X427579Y565824D01*
Y575824D01*
X427629Y575349D01*
D02*
G37*
G36*
X415701Y565824D02*
X415651Y566299D01*
X415500Y566724D01*
X415248Y567099D01*
X414896Y567424D01*
X414443Y567699D01*
X413890Y567924D01*
X413236Y568099D01*
X412481Y568224D01*
X411626Y568299D01*
X410671Y568324D01*
Y573324D01*
X411626Y573349D01*
X412481Y573424D01*
X413236Y573549D01*
X413890Y573724D01*
X414443Y573949D01*
X414896Y574224D01*
X415248Y574549D01*
X415500Y574924D01*
X415651Y575349D01*
X415701Y575824D01*
Y565824D01*
D02*
G37*
G36*
X378331Y566810D02*
X378599Y566720D01*
X378952Y566640D01*
X379392Y566571D01*
X380531Y566465D01*
X382884Y566385D01*
X383841Y566380D01*
Y561380D01*
X382884Y561375D01*
X378952Y561120D01*
X378599Y561040D01*
X378331Y560950D01*
X378150Y560849D01*
Y566911D01*
X378331Y566810D01*
D02*
G37*
G36*
X355554Y549240D02*
X355569Y549469D01*
X355508Y549674D01*
X355371Y549855D01*
X355157Y550011D01*
X354868Y550144D01*
X354502Y550252D01*
X354060Y550337D01*
X353542Y550397D01*
X352948Y550433D01*
X352277Y550445D01*
X352765Y553445D01*
X353324Y553453D01*
X354773Y553568D01*
X355180Y553637D01*
X355550Y553721D01*
X355882Y553820D01*
X356176Y553935D01*
X356432Y554065D01*
X356650Y554211D01*
X355554Y549240D01*
D02*
G37*
G36*
X356629Y535504D02*
X356585Y535785D01*
X356454Y536035D01*
X356236Y536257D01*
X355931Y536449D01*
X355538Y536611D01*
X355058Y536744D01*
X354491Y536847D01*
X353837Y536921D01*
X353095Y536965D01*
X352266Y536980D01*
Y539980D01*
X353095Y539995D01*
X354491Y540113D01*
X355058Y540216D01*
X355538Y540349D01*
X355931Y540511D01*
X356236Y540703D01*
X356454Y540924D01*
X356585Y541175D01*
X356629Y541456D01*
Y535504D01*
D02*
G37*
G36*
X378331Y528710D02*
X378599Y528620D01*
X378952Y528540D01*
X379392Y528471D01*
X380531Y528365D01*
X382884Y528285D01*
X383841Y528280D01*
Y523280D01*
X382884Y523275D01*
X378952Y523020D01*
X378599Y522940D01*
X378331Y522850D01*
X378150Y522749D01*
Y528811D01*
X378331Y528710D01*
D02*
G37*
G36*
Y516010D02*
X378599Y515920D01*
X378952Y515840D01*
X379392Y515771D01*
X380531Y515665D01*
X382884Y515585D01*
X383841Y515580D01*
Y510580D01*
X382884Y510575D01*
X378952Y510320D01*
X378599Y510240D01*
X378331Y510150D01*
X378150Y510049D01*
Y516111D01*
X378331Y516010D01*
D02*
G37*
G36*
X415701Y507620D02*
X415661Y507875D01*
X415544Y508104D01*
X415350Y508306D01*
X415078Y508481D01*
X414729Y508630D01*
X414302Y508751D01*
X413799Y508845D01*
X413218Y508912D01*
X412559Y508953D01*
X411824Y508966D01*
Y513966D01*
X412555Y513973D01*
X414709Y514136D01*
X415055Y514211D01*
X415324Y514299D01*
X415517Y514401D01*
X415632Y514516D01*
X415671Y514646D01*
X415701Y507620D01*
D02*
G37*
G36*
X378331Y503310D02*
X378599Y503220D01*
X378952Y503140D01*
X379392Y503071D01*
X380531Y502965D01*
X382884Y502885D01*
X383841Y502880D01*
Y497880D01*
X382884Y497875D01*
X378952Y497620D01*
X378599Y497540D01*
X378331Y497450D01*
X378150Y497349D01*
Y503411D01*
X378331Y503310D01*
D02*
G37*
G36*
X400060Y477560D02*
X400210Y476710D01*
X400460Y475960D01*
X400810Y475310D01*
X401260Y474760D01*
X401523Y474545D01*
X401562Y474592D01*
X401689Y474879D01*
X401731Y475201D01*
Y474375D01*
X401810Y474310D01*
X402460Y473960D01*
X403210Y473710D01*
X404060Y473560D01*
X405010Y473510D01*
X401731Y471324D01*
Y466819D01*
X401689Y467141D01*
X401562Y467428D01*
X401351Y467682D01*
X401056Y467901D01*
X400676Y468087D01*
X400211Y468240D01*
X399663Y468358D01*
X399030Y468442D01*
X398312Y468493D01*
X397510Y468510D01*
X396714Y468495D01*
X395373Y468378D01*
X394828Y468275D01*
X394367Y468143D01*
X393990Y467981D01*
X393697Y467790D01*
X393487Y467570D01*
X393361Y467320D01*
X393320Y467040D01*
X393303Y471314D01*
X390010Y473510D01*
X390960Y473560D01*
X391810Y473710D01*
X392560Y473960D01*
X393210Y474310D01*
X393292Y474377D01*
X393289Y475201D01*
X393332Y474879D01*
X393460Y474592D01*
X393498Y474546D01*
X393760Y474760D01*
X394210Y475310D01*
X394560Y475960D01*
X394810Y476710D01*
X394960Y477560D01*
X395010Y478510D01*
X400010D01*
X400060Y477560D01*
D02*
G37*
G36*
X454362Y445990D02*
X454436Y445840D01*
X454501Y445591D01*
X454558Y445241D01*
X454605Y444790D01*
X454650Y443826D01*
X454714D01*
X454717Y443373D01*
X454822Y441728D01*
X454861Y441524D01*
X454906Y441361D01*
X454957Y441240D01*
X455014Y441161D01*
X454713D01*
X454714Y441040D01*
X449714D01*
X449711Y441161D01*
X449414D01*
X449471Y441240D01*
X449522Y441361D01*
X449567Y441524D01*
X449606Y441728D01*
X449639Y441974D01*
X449663Y442284D01*
X449614Y442840D01*
X449489Y443591D01*
X449314Y444240D01*
X449089Y444790D01*
X448814Y445241D01*
X448489Y445591D01*
X448114Y445840D01*
X447689Y445990D01*
X447214Y446040D01*
X454280D01*
X454362Y445990D01*
D02*
G37*
G36*
X433522Y444975D02*
X433130Y444824D01*
X432784Y444575D01*
X432485Y444225D01*
X432231Y443774D01*
X432024Y443224D01*
X431862Y442575D01*
X431747Y441824D01*
X431678Y440975D01*
X431655Y440024D01*
X426655D01*
X426630Y440975D01*
X426555Y441824D01*
X426430Y442575D01*
X426255Y443224D01*
X426030Y443774D01*
X425755Y444225D01*
X425430Y444575D01*
X425055Y444824D01*
X424630Y444975D01*
X424155Y445024D01*
X433960D01*
X433522Y444975D01*
D02*
G37*
G36*
X412195D02*
X411770Y444824D01*
X411395Y444575D01*
X411070Y444225D01*
X410795Y443774D01*
X410570Y443224D01*
X410395Y442575D01*
X410270Y441824D01*
X410195Y440975D01*
X410170Y440024D01*
X405170D01*
X405145Y440975D01*
X405070Y441824D01*
X404945Y442575D01*
X404770Y443224D01*
X404545Y443774D01*
X404270Y444225D01*
X403945Y444575D01*
X403570Y444824D01*
X403145Y444975D01*
X402670Y445024D01*
X412670D01*
X412195Y444975D01*
D02*
G37*
G36*
X473155Y443610D02*
X472730Y443461D01*
X472355Y443210D01*
X472030Y442860D01*
X471755Y442411D01*
X471530Y441861D01*
X471355Y441211D01*
X471230Y440461D01*
X471155Y439610D01*
X471130Y438661D01*
X466130D01*
X466105Y439610D01*
X466030Y440461D01*
X465905Y441211D01*
X465730Y441861D01*
X465505Y442411D01*
X465230Y442860D01*
X464905Y443210D01*
X464530Y443461D01*
X464105Y443610D01*
X463630Y443661D01*
X473630D01*
X473155Y443610D01*
D02*
G37*
G36*
X391875Y445990D02*
X391450Y445840D01*
X391075Y445591D01*
X390750Y445241D01*
X390475Y444790D01*
X390250Y444240D01*
X390103Y443693D01*
X390300Y443100D01*
X390650Y442450D01*
X391100Y441900D01*
X391650Y441450D01*
X392300Y441100D01*
X393050Y440850D01*
X393149Y440833D01*
X393183Y440842D01*
X393304Y440893D01*
X393383Y440950D01*
Y440791D01*
X393900Y440700D01*
X394850Y440650D01*
Y435650D01*
X393900Y435600D01*
X393383Y435509D01*
Y435350D01*
X393304Y435407D01*
X393183Y435458D01*
X393149Y435467D01*
X393050Y435450D01*
X392300Y435200D01*
X391650Y434850D01*
X391100Y434400D01*
X390650Y433850D01*
X390302Y433203D01*
X390475Y432780D01*
X390750Y432329D01*
X391075Y431979D01*
X391450Y431730D01*
X391875Y431580D01*
X392350Y431530D01*
X389896D01*
X389850Y430650D01*
X389264Y431530D01*
X382350D01*
X382825Y431580D01*
X383250Y431730D01*
X383625Y431979D01*
X383950Y432329D01*
X384225Y432780D01*
X384450Y433330D01*
X384625Y433979D01*
X384750Y434729D01*
X384825Y435579D01*
X384850Y436530D01*
X385930D01*
X384850Y438150D01*
X386777Y441040D01*
X384850D01*
X384825Y441991D01*
X384750Y442840D01*
X384625Y443591D01*
X384450Y444240D01*
X384225Y444790D01*
X383950Y445241D01*
X383625Y445591D01*
X383250Y445840D01*
X382825Y445990D01*
X382350Y446040D01*
X392350D01*
X391875Y445990D01*
D02*
G37*
G36*
X471155Y437080D02*
X471230Y436230D01*
X471355Y435480D01*
X471530Y434829D01*
X471755Y434280D01*
X472030Y433829D01*
X472355Y433479D01*
X472730Y433229D01*
X473155Y433079D01*
X473630Y433030D01*
X463630D01*
X464105Y433079D01*
X464530Y433229D01*
X464905Y433479D01*
X465230Y433829D01*
X465505Y434280D01*
X465730Y434829D01*
X465905Y435480D01*
X466030Y436230D01*
X466105Y437080D01*
X466130Y438030D01*
X471130D01*
X471155Y437080D01*
D02*
G37*
G36*
X435162Y435505D02*
X437094Y433853D01*
X437931Y433262D01*
X438681Y432828D01*
X439345Y432549D01*
X439922Y432427D01*
X440414Y432461D01*
X440819Y432652D01*
X441138Y432999D01*
X435598Y424458D01*
X435810Y424912D01*
X435896Y425422D01*
X435856Y425988D01*
X435689Y426610D01*
X435396Y427289D01*
X434976Y428024D01*
X434430Y428816D01*
X433757Y429664D01*
X432957Y430569D01*
X432032Y431530D01*
X434067Y436565D01*
X435162Y435505D01*
D02*
G37*
G36*
X426165Y543805D02*
X425740Y543655D01*
X425365Y543405D01*
X425040Y543055D01*
X424765Y542604D01*
X424540Y542054D01*
X424365Y541404D01*
X424240Y540654D01*
X424165Y539804D01*
X424164Y539750D01*
X424165Y539696D01*
X424240Y538845D01*
X424365Y538096D01*
X424540Y537445D01*
X424765Y536895D01*
X425040Y536446D01*
X425365Y536096D01*
X425740Y535845D01*
X426165Y535695D01*
X426640Y535645D01*
X416640D01*
X417115Y535695D01*
X417540Y535845D01*
X417915Y536096D01*
X418240Y536446D01*
X418515Y536895D01*
X418740Y537445D01*
X418915Y538096D01*
X419040Y538845D01*
X419115Y539696D01*
X419116Y539750D01*
X419115Y539804D01*
X419040Y540654D01*
X418915Y541404D01*
X418740Y542054D01*
X418515Y542604D01*
X418240Y543055D01*
X417915Y543405D01*
X417540Y543655D01*
X417115Y543805D01*
X416640Y543854D01*
X426640D01*
X426165Y543805D01*
D02*
G37*
%LPC*%
G36*
X88737Y482410D02*
X87600D01*
X79470D01*
Y476250D01*
X82550D01*
X83758Y476369D01*
X85989Y477293D01*
X87697Y479001D01*
X88621Y481232D01*
X88737Y482410D01*
D02*
G37*
G36*
X75470D02*
X64470D01*
Y476250D01*
X75470D01*
Y482410D01*
D02*
G37*
G36*
X20081Y474421D02*
X19950Y474386D01*
X18230Y473394D01*
X16826Y471990D01*
X15834Y470270D01*
X15799Y470139D01*
X16805Y471646D01*
X18574Y473415D01*
X20081Y474421D01*
D02*
G37*
G36*
X111600Y474220D02*
X109220D01*
Y462220D01*
X111600D01*
Y474220D01*
D02*
G37*
G36*
X86360Y392702D02*
X86360Y389890D01*
X87476D01*
X87036Y391530D01*
X86360Y392702D01*
D02*
G37*
G36*
X87476Y387350D02*
X86360D01*
X86360Y384538D01*
X87036Y385710D01*
X87476Y387350D01*
D02*
G37*
G36*
X306070Y488951D02*
Y488951D01*
D01*
Y488951D01*
D02*
G37*
G36*
X92729Y290451D02*
X92729Y290450D01*
X92729Y290451D01*
X92729D01*
D02*
G37*
G36*
X288290Y261183D02*
X287229Y260898D01*
X285851Y260103D01*
X284727Y258979D01*
X283932Y257601D01*
X283647Y256540D01*
X288290D01*
Y261183D01*
D02*
G37*
%LPD*%
D10*
X432990Y466994D02*
X443310Y457010D01*
X427990Y471994D02*
X432990Y466994D01*
X443310Y457010D02*
X448310Y452010D01*
D20*
X360710Y422910D02*
D03*
X332710D02*
D03*
D21*
X292100Y544910D02*
D03*
Y565910D02*
D03*
X387350Y452010D02*
D03*
Y473010D02*
D03*
X16510Y580050D02*
D03*
Y601050D02*
D03*
X441537Y427060D02*
D03*
Y406060D02*
D03*
X414443Y427060D02*
D03*
Y406060D02*
D03*
X67310Y580050D02*
D03*
Y601050D02*
D03*
X259080Y304206D02*
D03*
Y325206D02*
D03*
X421640Y570824D02*
D03*
Y549824D02*
D03*
X424180Y621620D02*
D03*
Y642620D02*
D03*
X299720Y304206D02*
D03*
Y325206D02*
D03*
X288290Y152914D02*
D03*
Y131914D02*
D03*
X264160Y152994D02*
D03*
Y131994D02*
D03*
X292100Y525024D02*
D03*
Y504024D02*
D03*
X35560Y677640D02*
D03*
Y656640D02*
D03*
X54610Y677640D02*
D03*
Y656640D02*
D03*
X387350Y425560D02*
D03*
Y404560D02*
D03*
X41910Y601050D02*
D03*
Y580050D02*
D03*
X468630Y406060D02*
D03*
Y427060D02*
D03*
X16510Y677640D02*
D03*
Y656640D02*
D03*
X427990Y450994D02*
D03*
Y471994D02*
D03*
X407670Y450994D02*
D03*
Y471994D02*
D03*
X448310Y452010D02*
D03*
Y473010D02*
D03*
X421640Y508676D02*
D03*
Y529676D02*
D03*
X156210Y82660D02*
D03*
Y61660D02*
D03*
Y42504D02*
D03*
Y21504D02*
D03*
X468630Y449630D02*
D03*
Y470630D02*
D03*
D22*
X203200Y583190D02*
D03*
Y552190D02*
D03*
X269240Y642880D02*
D03*
Y611880D02*
D03*
D23*
X166630Y403860D02*
D03*
X135630D02*
D03*
X159010Y537210D02*
D03*
X128010D02*
D03*
D24*
X344186Y135874D02*
D03*
X359035Y121025D02*
D03*
X388604Y92726D02*
D03*
X373755Y107575D02*
D03*
D25*
X333416Y458470D02*
D03*
X354416D02*
D03*
D26*
X203200Y368830D02*
D03*
Y339830D02*
D03*
X87630Y367560D02*
D03*
Y338560D02*
D03*
X203200Y503450D02*
D03*
Y474450D02*
D03*
X77470Y500910D02*
D03*
Y471910D02*
D03*
D27*
X224790Y374680D02*
D03*
Y346680D02*
D03*
X110490Y339060D02*
D03*
Y367060D02*
D03*
X227330Y505490D02*
D03*
Y477490D02*
D03*
X101600Y476220D02*
D03*
Y504220D02*
D03*
D28*
X175400Y498130D02*
D03*
X152400D02*
D03*
X129400D02*
D03*
X179210Y373670D02*
D03*
X156210D02*
D03*
X133210D02*
D03*
D29*
X152400Y439130D02*
D03*
X156210Y314670D02*
D03*
D30*
X386330Y612836D02*
D03*
X378330D02*
D03*
X330330D02*
D03*
X322330D02*
D03*
D31*
X356830D02*
D03*
X361830D02*
D03*
X366830D02*
D03*
X351830D02*
D03*
X346830D02*
D03*
X336830D02*
D03*
D32*
X367400Y538480D02*
D03*
Y525780D02*
D03*
Y551180D02*
D03*
Y500380D02*
D03*
Y513080D02*
D03*
Y576580D02*
D03*
Y563880D02*
D03*
Y487680D02*
D03*
X318400Y513080D02*
D03*
Y525780D02*
D03*
Y563880D02*
D03*
Y576580D02*
D03*
Y538480D02*
D03*
Y551180D02*
D03*
Y487680D02*
D03*
Y500380D02*
D03*
D33*
X237472Y262130D02*
D03*
Y254130D02*
D03*
Y246130D02*
D03*
Y238130D02*
D03*
Y230130D02*
D03*
Y222130D02*
D03*
Y214130D02*
D03*
Y206130D02*
D03*
X323488Y262130D02*
D03*
Y254130D02*
D03*
Y246130D02*
D03*
Y238130D02*
D03*
Y230130D02*
D03*
Y222130D02*
D03*
Y214130D02*
D03*
Y206130D02*
D03*
D34*
X308480Y277138D02*
D03*
X300480D02*
D03*
X292480D02*
D03*
X284480D02*
D03*
X276480D02*
D03*
X268480D02*
D03*
X260480D02*
D03*
X252480D02*
D03*
Y191122D02*
D03*
X260480D02*
D03*
X268480D02*
D03*
X276480D02*
D03*
X284480D02*
D03*
X292480D02*
D03*
X300480D02*
D03*
X308480D02*
D03*
D35*
X458470Y638810D02*
D03*
Y553810D02*
D03*
D36*
X419942Y113458D02*
D03*
X359838Y173562D02*
D03*
D37*
X125730Y18340D02*
D03*
Y88340D02*
D03*
D38*
X279291Y324684D02*
D03*
Y305284D02*
D03*
D66*
X410599Y483870D02*
X441881D01*
X444810Y480941D01*
Y475661D02*
Y480941D01*
Y475661D02*
X449580Y470891D01*
X306459Y424180D02*
X331440D01*
X332710Y422910D01*
X303919Y421640D02*
X306459Y424180D01*
X358170Y425450D02*
Y458470D01*
Y425450D02*
X360710Y422910D01*
X354416Y458470D02*
X358170D01*
Y486756D01*
X73420Y654050D02*
Y674370D01*
X54610Y677640D02*
X69310D01*
X35560D02*
X54610D01*
X16510D02*
X35560D01*
X69310D02*
X72390Y680720D01*
X35560Y607400D02*
Y656640D01*
Y607400D02*
X41539Y601421D01*
Y600921D02*
Y601421D01*
X54920Y625800D02*
Y656330D01*
X54610Y656640D02*
X54920Y656330D01*
X67310Y600550D02*
Y613410D01*
X54920Y625800D02*
X67310Y613410D01*
X16510Y600550D02*
Y656640D01*
X300480Y215457D02*
Y277138D01*
X292480Y207457D02*
X300480Y215457D01*
X276480Y204528D02*
X279409Y207457D01*
X292480Y191122D02*
Y207457D01*
X279409D02*
X292480D01*
X276480Y173610D02*
Y204528D01*
X292480Y159343D02*
Y191122D01*
X300480Y277138D02*
Y304960D01*
X221971Y304800D02*
X228638Y311467D01*
X267516Y314134D02*
X293291D01*
X170210Y304800D02*
X221971D01*
X156210Y314670D02*
X170210Y304800D01*
X471559Y397510D02*
X509270D01*
X308480Y278130D02*
X352179D01*
X471559Y397510D01*
X227330Y472829D02*
Y477490D01*
X224401Y469900D02*
X227330Y472829D01*
X205710Y469900D02*
X224401D01*
X203200Y472410D02*
X205710Y469900D01*
X225290Y503450D02*
X227330Y505490D01*
X204955Y503450D02*
X225290D01*
X203200Y501695D02*
X204955Y503450D01*
X236220Y430530D02*
X261620D01*
X203200Y459740D02*
Y472410D01*
X176465Y501695D02*
X203200D01*
X293291Y314134D02*
X296220Y311205D01*
Y307706D02*
Y311205D01*
X156210Y314170D02*
Y339090D01*
Y376170D01*
X264160Y152240D02*
X266315Y154395D01*
X288330Y152160D02*
X291790Y155620D01*
X224790Y343259D02*
Y350680D01*
X298966Y304960D02*
X300480D01*
X296220Y307706D02*
X298966Y304960D01*
X277305Y314190D02*
X278563Y315447D01*
X237490Y300600D02*
X238302D01*
X242582Y304880D01*
X259000D01*
X254261Y172720D02*
X260480Y178939D01*
Y190130D01*
X227330Y117229D02*
Y169791D01*
X230259Y172720D02*
X254261D01*
X227330Y169791D02*
X230259Y172720D01*
X247650Y135169D02*
Y156210D01*
X268480Y177040D01*
Y212600D01*
X266315Y163445D02*
X276480Y173610D01*
X266315Y154395D02*
Y163445D01*
X291790Y158653D02*
X292480Y159343D01*
X291790Y155620D02*
Y158653D01*
X344719Y135341D02*
X367853Y158476D01*
Y165547D01*
X359838Y173562D02*
X367853Y165547D01*
X229913Y270553D02*
X237490Y278130D01*
X88900Y246380D02*
X113073Y270553D01*
X229913D01*
X340360Y81669D02*
Y100330D01*
X444500Y78740D02*
X469900Y104140D01*
X343289Y78740D02*
X444500D01*
X340360Y81669D02*
X343289Y78740D01*
X326779Y63530D02*
X460651D01*
X323850Y66459D02*
X326779Y63530D01*
X460651D02*
X499991Y102870D01*
X323850Y66459D02*
Y96131D01*
X314960Y59459D02*
X317889Y56530D01*
X469280D02*
X490220Y77470D01*
X314960Y59459D02*
Y87630D01*
X317889Y56530D02*
X469280D01*
X306070Y57150D02*
X313690Y49530D01*
X507357Y50157D02*
X509270Y52070D01*
X493841Y49530D02*
X494468Y50157D01*
X313690Y49530D02*
X493841D01*
X494468Y50157D02*
X507357D01*
X221369Y190130D02*
X252480D01*
X203589Y214130D02*
X256040D01*
X248800Y222130D02*
X257810Y231140D01*
X236480Y222130D02*
X248800D01*
X194699D02*
X236480D01*
X218440Y187201D02*
X221369Y190130D01*
X218440Y109609D02*
Y187201D01*
Y109609D02*
X221369Y106680D01*
X323850D01*
X332740Y97790D01*
Y74049D02*
Y97790D01*
Y74049D02*
X335669Y71120D01*
X452120D01*
X482600Y101600D01*
Y125341D01*
X485529Y128270D01*
X509270D01*
X280670Y39370D02*
Y41910D01*
Y20709D02*
Y39370D01*
X277741Y17780D02*
X280670Y20709D01*
X176919Y17780D02*
X277741D01*
X173990Y20709D02*
X176919Y17780D01*
X173990Y20709D02*
Y51681D01*
X171061Y54610D02*
X173990Y51681D01*
X156210Y54610D02*
X171061D01*
X280670Y64770D02*
Y67310D01*
X294251Y64770D02*
X297180Y61841D01*
X280670Y64770D02*
X294251D01*
X448361Y451959D02*
X452214D01*
Y438304D02*
Y451959D01*
X448310Y452010D02*
X448361Y451959D01*
X125730Y17070D02*
X143968D01*
X179210Y372990D02*
Y376170D01*
X159139Y8890D02*
X294251D01*
X259080Y336161D02*
X262009Y339090D01*
X259080Y324960D02*
Y336161D01*
X262009Y339090D02*
X298061D01*
X73420Y633730D02*
Y654050D01*
X95240Y611710D02*
Y652790D01*
X109220Y652780D02*
X118480D01*
X297180Y11819D02*
Y61841D01*
X294251Y8890D02*
X297180Y11819D01*
X358861Y121199D02*
X371389Y108671D01*
X397580Y642620D02*
Y665480D01*
X435524Y529676D02*
X468630Y496570D01*
X397580Y642620D02*
X424180D01*
X468630Y449630D02*
X468630Y449630D01*
X468630Y426560D02*
Y449630D01*
X279400Y292460D02*
Y305175D01*
X279291Y305284D02*
X279400Y305175D01*
Y292460D02*
X284480Y287380D01*
Y278130D02*
Y287380D01*
X278563Y315447D02*
Y323956D01*
X279291Y324684D01*
X259080Y304960D02*
X278967D01*
X279291Y305284D01*
X259000Y304880D02*
X259080Y304960D01*
X125730Y88340D02*
X126565Y89175D01*
X124460Y57539D02*
Y87070D01*
X125730Y88340D01*
Y17070D02*
Y18340D01*
X156210Y11819D02*
Y21504D01*
X143968Y17070D02*
X144902Y18004D01*
X152710D01*
X156210Y21504D01*
Y42504D02*
Y54610D01*
X143770Y230130D02*
X236480D01*
X138430Y224790D02*
X143770Y230130D01*
X138430Y113030D02*
Y224790D01*
X126565Y101165D02*
X138430Y113030D01*
X126565Y89175D02*
Y101165D01*
X124460Y57539D02*
X127389Y54610D01*
X156210Y11819D02*
X159139Y8890D01*
X407725Y100012D02*
X419942Y112229D01*
Y113458D01*
X394549Y100012D02*
X407725D01*
X388604Y92726D02*
X389067Y93188D01*
Y94529D01*
X394549Y100012D01*
X292100Y525024D02*
Y544910D01*
X421640Y570824D02*
X453470D01*
X458470Y565824D01*
Y553810D02*
Y565824D01*
Y627530D02*
Y638810D01*
X453470Y622530D02*
X458470Y627530D01*
X441880Y622530D02*
X453470D01*
X440970Y621620D02*
X441880Y622530D01*
X424180Y621620D02*
X440970D01*
X387350Y425560D02*
Y438150D01*
Y452010D01*
Y438150D02*
X396240D01*
X427990Y449630D02*
X429155Y448465D01*
Y437942D02*
Y448465D01*
Y437942D02*
X440537Y426560D01*
X441537D01*
X407670Y449630D02*
Y451010D01*
Y432333D02*
Y449630D01*
Y432333D02*
X413443Y426560D01*
X414443D01*
X367400Y525780D02*
X397510D01*
X367400Y525780D02*
X367400Y525780D01*
X418850Y511466D02*
X421640Y508676D01*
X411824Y511466D02*
X418850D01*
X397510Y525780D02*
X411824Y511466D01*
X318022Y525402D02*
X318400Y525780D01*
X292478Y525402D02*
X318022D01*
X292100Y525024D02*
X292478Y525402D01*
X367400Y576580D02*
X373440D01*
X424180Y589669D02*
Y621620D01*
X421251Y586740D02*
X424180Y589669D01*
X402590Y586740D02*
X421251D01*
X392430Y576580D02*
X402590Y586740D01*
X373440Y576580D02*
X392430D01*
X367400Y563880D02*
X373440D01*
X404454Y570824D02*
X421640D01*
X397510Y563880D02*
X404454Y570824D01*
X373440Y563880D02*
X397510D01*
X358170Y486756D02*
X359094Y487680D01*
X367400D01*
Y500380D02*
X373440D01*
X397510Y471010D02*
Y497451D01*
X394581Y500380D02*
X397510Y497451D01*
X373440Y500380D02*
X394581D01*
X367400Y513080D02*
X373440D01*
X407670Y486799D02*
X410599Y483870D01*
X407670Y486799D02*
Y502920D01*
X397510Y513080D02*
X407670Y502920D01*
X373440Y513080D02*
X397510D01*
X237490Y278130D02*
X252480D01*
X260480D02*
Y289171D01*
X257551Y292100D02*
X260480Y289171D01*
X237490Y292100D02*
X257551D01*
X223520Y278130D02*
X237490Y292100D01*
X106680Y278130D02*
X223520D01*
X77470Y248920D02*
X106680Y278130D01*
X77470Y181302D02*
Y248920D01*
X75238Y179070D02*
X77470Y181302D01*
X26670Y179070D02*
X75238D01*
X118620Y262130D02*
X236480D01*
X97790Y241300D02*
X118620Y262130D01*
X97790Y148590D02*
Y241300D01*
X77470Y128270D02*
X97790Y148590D01*
X26670Y128270D02*
X77470D01*
X88900Y156599D02*
Y246380D01*
X85971Y153670D02*
X88900Y156599D01*
X26670Y153670D02*
X85971D01*
X276480Y220600D02*
Y278130D01*
X268480Y212600D02*
X276480Y220600D01*
X324480Y238130D02*
X384562D01*
X257810Y231140D02*
Y244914D01*
X267008Y254112D01*
X259080Y220980D02*
X267970Y229870D01*
X129400Y498130D02*
Y500630D01*
X77470Y500910D02*
X79240D01*
X101600Y500520D02*
Y504220D01*
X129290Y500520D02*
X129400Y500630D01*
X101600Y500520D02*
X129290D01*
X98290Y500910D02*
X101600Y504220D01*
X79240Y500910D02*
X98290D01*
X133210Y371523D02*
Y376170D01*
X127477Y365790D02*
X133210Y371523D01*
X110490Y365790D02*
X127477D01*
X110490D02*
Y367060D01*
X109990Y367560D02*
X110490Y367060D01*
X87630Y367560D02*
X109990D01*
X106990Y347380D02*
Y347830D01*
Y347380D02*
X110490Y343880D01*
Y339060D02*
Y343880D01*
X97020Y347830D02*
X106990D01*
X96710Y348140D02*
X97020Y347830D01*
X96710Y347789D02*
Y348140D01*
X87630Y338709D02*
X96710Y347789D01*
X87630Y338560D02*
Y338709D01*
X199530Y372500D02*
X203200Y368830D01*
X179700Y372500D02*
X199530D01*
X179210Y372990D02*
X179700Y372500D01*
X203200Y368830D02*
X204125Y369755D01*
X223865D01*
X224790Y370680D01*
X204142Y340330D02*
X221861D01*
X203643Y339830D02*
X204142Y340330D01*
X221861D02*
X224790Y343259D01*
X157450Y340330D02*
X202700D01*
X203200Y339830D01*
X156210Y339090D02*
X157450Y340330D01*
X142795Y582155D02*
X202735D01*
X142240Y582710D02*
X142795Y582155D01*
X202735D02*
X203200Y581690D01*
X121410Y649520D02*
X121975Y648954D01*
X123245D01*
X129490Y642710D01*
X142240D01*
X121410Y649520D02*
Y649785D01*
X118480Y652715D02*
X121410Y649785D01*
X118480Y652715D02*
Y652780D01*
X107950Y654050D02*
X109220Y652780D01*
X93980Y654050D02*
X107950D01*
X93980D02*
X95240Y652790D01*
X230259Y114300D02*
X326390D01*
X227330Y117229D02*
X230259Y114300D01*
X326390D02*
X340360Y100330D01*
X63500Y77470D02*
X118110Y132080D01*
X26670Y77470D02*
X63500D01*
X306070Y57150D02*
Y78351D01*
X419100Y179070D02*
X509270D01*
X324480Y206130D02*
X392040D01*
X419100Y179070D01*
X476250Y372110D02*
X509270D01*
X324480Y262130D02*
X366270D01*
X476250Y372110D01*
X55880Y52070D02*
X128270Y124460D01*
X276225Y132200D02*
Y160655D01*
X308480Y171580D02*
Y190130D01*
X107950Y139700D02*
Y237490D01*
X26670Y102870D02*
X71120D01*
X107950Y139700D01*
X324600Y222250D02*
X397510D01*
X405130Y229870D02*
X509270D01*
X397510Y222250D02*
X405130Y229870D01*
X247650Y135169D02*
X250579Y132240D01*
X324480Y214130D02*
X399280D01*
X408940Y204470D01*
X509270D01*
X481330Y153670D02*
X509270D01*
X469900Y104140D02*
Y142240D01*
X481330Y153670D01*
X451155Y321310D02*
X509270D01*
X375975Y246130D02*
X451155Y321310D01*
X324480Y246130D02*
X375975D01*
X379261Y85891D02*
X385531Y92161D01*
X393375Y230130D02*
X433755Y270510D01*
X462280Y346710D02*
X509270D01*
X308480Y171580D02*
X344719Y135341D01*
X250579Y132240D02*
X264160D01*
X118110Y132080D02*
Y234950D01*
X129290Y246130D01*
X236480D01*
X107950Y237490D02*
X124590Y254130D01*
X236480D01*
X311150Y91440D02*
X314960Y87630D01*
X203589Y91440D02*
X311150D01*
X200660Y94369D02*
X203589Y91440D01*
X200660Y94369D02*
Y211201D01*
X203589Y214130D01*
X324480Y222130D02*
X324600Y222250D01*
X324480Y230130D02*
X393375D01*
X324480Y254130D02*
X324610Y254000D01*
X369570D01*
X462280Y346710D01*
X303141Y81280D02*
X306070Y78351D01*
X194699Y81280D02*
X303141D01*
X191770Y84209D02*
X194699Y81280D01*
X191770Y84209D02*
Y219201D01*
X194699Y222130D01*
X128270Y124460D02*
Y229870D01*
X136530Y238130D01*
X236480D01*
X256040Y214130D02*
X259080Y217170D01*
Y220980D01*
X276225Y160655D02*
X284480Y168910D01*
Y190130D01*
X320921Y99060D02*
X323850Y96131D01*
X212479Y99060D02*
X320921D01*
X209550Y101989D02*
X212479Y99060D01*
X209550Y101989D02*
Y201930D01*
X213750Y206130D01*
X236480D01*
X375119Y85891D02*
X379261D01*
X300480Y160530D02*
X375119Y85891D01*
X300480Y160530D02*
Y190130D01*
X433755Y270510D02*
X509270D01*
X385531Y92161D02*
Y94529D01*
X442341Y295910D02*
X509270D01*
X384562Y238130D02*
X442341Y295910D01*
X499991Y102870D02*
X509270D01*
X490220Y77470D02*
X509270D01*
X26670Y52070D02*
X55880D01*
X154940Y95250D02*
X155514Y94676D01*
X8990Y487680D02*
X48260D01*
X6061Y484751D02*
X8990Y487680D01*
X6061Y352671D02*
Y484751D01*
X155514Y84356D02*
X156210Y83660D01*
X155514Y84356D02*
Y94676D01*
X483481Y471170D02*
X486410Y468241D01*
Y427109D02*
Y468241D01*
X468630Y471010D02*
X468790Y471170D01*
X483481D01*
X489339Y424180D02*
X508000D01*
X486410Y427109D02*
X489339Y424180D01*
X508000D02*
X509270Y422910D01*
X292100Y487680D02*
Y504024D01*
X8990Y33020D02*
X52070D01*
X8990Y355600D02*
X25400D01*
X6061Y352671D02*
X8990Y355600D01*
X6061Y35949D02*
Y352671D01*
Y35949D02*
X8990Y33020D01*
X25400Y355600D02*
X26670Y356870D01*
X52070Y33020D02*
X73660Y54610D01*
X127389D01*
X267970Y612110D02*
X269240Y613380D01*
Y481719D02*
X272169Y478790D01*
X269240Y481719D02*
Y610840D01*
X267970Y612110D02*
X269240Y610840D01*
X73420Y654050D02*
X93980D01*
X394581Y609600D02*
X396815Y611834D01*
X386830Y609600D02*
X394581D01*
X396815Y623015D02*
X397580Y623780D01*
X396815Y611834D02*
Y623015D01*
X386330Y610100D02*
X386830Y609600D01*
X386330Y610100D02*
Y613836D01*
X397580Y623780D02*
Y642620D01*
X26670Y331470D02*
X48260D01*
X134167Y377127D02*
Y400897D01*
X137130Y403860D01*
X133210Y376170D02*
X134167Y377127D01*
X295910Y453001D02*
X298839Y455930D01*
X326360D01*
X295910Y416171D02*
Y453001D01*
Y416171D02*
X297180Y414901D01*
X326360Y455930D02*
X330170Y459740D01*
X297180Y382659D02*
Y414901D01*
X294251Y379730D02*
X297180Y382659D01*
X261620Y379730D02*
X294251D01*
X260350Y403860D02*
X261620Y405130D01*
X165130Y403860D02*
X260350D01*
X175400Y500630D02*
X176465Y501695D01*
X152400Y472440D02*
Y500630D01*
Y438630D02*
Y472440D01*
X152430Y472410D01*
X203200D01*
X129400Y500630D02*
X129455Y500685D01*
Y537155D02*
X129510Y537210D01*
X129455Y500685D02*
Y537155D01*
X300990Y326230D02*
Y336161D01*
X299720Y324960D02*
X300990Y326230D01*
X298061Y339090D02*
X300990Y336161D01*
X276225Y132200D02*
X288250D01*
X264200D02*
X276225D01*
X264160Y132240D02*
X264200Y132200D01*
X288250D02*
X288290Y132160D01*
X468630Y471010D02*
Y496570D01*
X421640Y529676D02*
X435524D01*
X421640D02*
Y549824D01*
X397510Y471010D02*
X407670D01*
X387350D02*
X397510D01*
X414443Y406560D02*
X441537D01*
X468630D02*
X469059D01*
X471559Y404060D01*
Y397510D02*
Y404060D01*
X385531Y94529D02*
X389067D01*
X156210Y54610D02*
Y63660D01*
X127389Y54610D02*
X156210D01*
D67*
X231377Y314206D02*
X266737D01*
X266809Y314134D02*
X267516D01*
X266737Y314206D02*
X266809Y314134D01*
X228638Y311467D02*
X231377Y314206D01*
D68*
X359930Y598657D02*
X359940Y598659D01*
X359969Y598666D01*
X351830Y598657D02*
X359930D01*
X359969Y598666D02*
X360000Y598678D01*
X360039Y598696D02*
X360092Y598726D01*
X360162Y598774D01*
X360250Y598844D01*
X360397Y598982D01*
X361830Y600415D02*
Y613836D01*
X351830Y584240D02*
Y598657D01*
X360397Y598982D02*
X361830Y600415D01*
X360000Y598678D02*
X360039Y598696D01*
X351830Y598657D02*
Y613836D01*
X336830Y620336D02*
X340073D01*
X341830Y622093D01*
X336830Y612836D02*
Y620336D01*
X341830Y622093D02*
Y635026D01*
X344657Y637853D02*
X353373D01*
X341830Y635026D02*
X344657Y637853D01*
X359410Y591157D02*
X359644D01*
X366830Y598344D01*
Y612836D01*
X346830Y624353D02*
X348587Y626110D01*
X356830Y613836D02*
Y624353D01*
X346830Y586311D02*
Y624353D01*
X348587Y626110D02*
X355073D01*
X356830Y624353D01*
X353373Y637853D02*
X354330Y638810D01*
X15510Y580550D02*
X16510D01*
X8227Y571767D02*
X13010Y576550D01*
X7270Y565150D02*
X8227Y566107D01*
Y571767D01*
X13010Y576550D02*
Y578050D01*
X15510Y580550D01*
X350520Y553703D02*
Y582930D01*
X352277Y551945D02*
X366635D01*
X350520Y553703D02*
X352277Y551945D01*
X366635D02*
X367400Y551180D01*
X350520Y582930D02*
X351830Y584240D01*
X345520Y585001D02*
X346830Y586311D01*
X345520Y541547D02*
Y585001D01*
Y541547D02*
X348587Y538480D01*
X367400D01*
X464130Y466130D02*
X468630Y470630D01*
Y471010D01*
X41910Y561340D02*
Y580550D01*
X52070Y537210D02*
Y551180D01*
X41910Y561340D02*
X52070Y551180D01*
D69*
X26670Y547370D02*
D03*
X509270Y534670D02*
D03*
X77470Y26670D02*
D03*
X356870D02*
D03*
D70*
X26670Y407670D02*
D03*
Y382270D02*
D03*
Y356870D02*
D03*
Y331470D02*
D03*
Y306070D02*
D03*
Y280670D02*
D03*
Y255270D02*
D03*
Y229870D02*
D03*
Y179070D02*
D03*
Y153670D02*
D03*
Y128270D02*
D03*
Y102870D02*
D03*
Y77470D02*
D03*
Y52070D02*
D03*
X509270Y270510D02*
D03*
Y295910D02*
D03*
Y321310D02*
D03*
Y346710D02*
D03*
Y372110D02*
D03*
Y397510D02*
D03*
Y422910D02*
D03*
Y448310D02*
D03*
Y473710D02*
D03*
Y499110D02*
D03*
Y52070D02*
D03*
Y77470D02*
D03*
Y102870D02*
D03*
Y128270D02*
D03*
Y153670D02*
D03*
Y179070D02*
D03*
Y204470D02*
D03*
Y229870D02*
D03*
D71*
X95240Y611710D02*
D03*
D72*
X142240Y642710D02*
D03*
Y582710D02*
D03*
D73*
X261620Y430530D02*
D03*
Y379730D02*
D03*
D74*
Y405130D02*
D03*
D75*
X311080Y665480D02*
D03*
X397580D02*
D03*
D76*
X311080Y623780D02*
D03*
X397580D02*
D03*
D77*
X325430Y628680D02*
D03*
X383230D02*
D03*
D78*
X280670Y67310D02*
D03*
X280670Y41910D02*
D03*
X255270Y67310D02*
D03*
X229870Y41910D02*
D03*
X255270D02*
D03*
X229870Y67310D02*
D03*
D79*
X517941Y666001D02*
D03*
Y646001D02*
D03*
Y626001D02*
D03*
Y606001D02*
D03*
Y586001D02*
D03*
Y566000D02*
D03*
Y246000D02*
D03*
Y26000D02*
D03*
X497941Y666001D02*
D03*
Y646001D02*
D03*
Y626001D02*
D03*
Y606001D02*
D03*
Y586001D02*
D03*
Y566000D02*
D03*
Y246000D02*
D03*
Y26000D02*
D03*
X477941Y666001D02*
D03*
Y646001D02*
D03*
Y626001D02*
D03*
Y606001D02*
D03*
Y586001D02*
D03*
Y566000D02*
D03*
Y546000D02*
D03*
Y526000D02*
D03*
Y386000D02*
D03*
Y306000D02*
D03*
Y286000D02*
D03*
Y246000D02*
D03*
Y166000D02*
D03*
Y26000D02*
D03*
X457941Y606001D02*
D03*
Y586001D02*
D03*
Y26000D02*
D03*
X437941Y666001D02*
D03*
Y646001D02*
D03*
Y606001D02*
D03*
Y586001D02*
D03*
Y546000D02*
D03*
Y526000D02*
D03*
Y26000D02*
D03*
X417941Y666001D02*
D03*
Y166000D02*
D03*
Y146000D02*
D03*
Y26000D02*
D03*
X397941Y646001D02*
D03*
Y606001D02*
D03*
Y546000D02*
D03*
Y346000D02*
D03*
Y186000D02*
D03*
Y166000D02*
D03*
Y146000D02*
D03*
Y26000D02*
D03*
X377941Y186000D02*
D03*
Y146000D02*
D03*
X337941Y166000D02*
D03*
X317941Y186000D02*
D03*
Y26000D02*
D03*
X297941Y666001D02*
D03*
Y626001D02*
D03*
Y606001D02*
D03*
Y46000D02*
D03*
Y26000D02*
D03*
X277941Y666001D02*
D03*
X257941D02*
D03*
X237941Y626001D02*
D03*
Y526000D02*
D03*
Y146000D02*
D03*
X217941Y626001D02*
D03*
Y606001D02*
D03*
Y526000D02*
D03*
X197941Y626001D02*
D03*
Y606001D02*
D03*
Y526000D02*
D03*
Y386000D02*
D03*
X177941Y646001D02*
D03*
Y626001D02*
D03*
Y606001D02*
D03*
Y526000D02*
D03*
Y446000D02*
D03*
Y426000D02*
D03*
X157941Y606001D02*
D03*
X137941D02*
D03*
Y466000D02*
D03*
Y346000D02*
D03*
X117941Y626001D02*
D03*
Y606001D02*
D03*
Y466000D02*
D03*
Y446000D02*
D03*
Y426000D02*
D03*
X97941Y666001D02*
D03*
Y646001D02*
D03*
Y526000D02*
D03*
Y446000D02*
D03*
Y426000D02*
D03*
X77941Y666001D02*
D03*
Y646001D02*
D03*
Y526000D02*
D03*
Y426000D02*
D03*
Y406000D02*
D03*
Y286000D02*
D03*
Y266000D02*
D03*
X57941Y506000D02*
D03*
Y406000D02*
D03*
Y286000D02*
D03*
Y266000D02*
D03*
Y246000D02*
D03*
X37941Y506000D02*
D03*
X233940Y406000D02*
D03*
X221940D02*
D03*
X209940D02*
D03*
X197940D02*
D03*
X185940D02*
D03*
X52070Y537210D02*
D03*
X359410Y591157D02*
D03*
X354330Y638810D02*
D03*
X237490Y300600D02*
D03*
X7270Y565150D02*
D03*
X452214Y438304D02*
D03*
X267970Y229870D02*
D03*
X154940Y95250D02*
D03*
X48260Y487680D02*
D03*
X267008Y254112D02*
D03*
X396240Y438150D02*
D03*
X292100Y487680D02*
D03*
D80*
X124460Y303530D02*
D03*
X113030Y292100D02*
D03*
Y303530D02*
D03*
X124460Y292100D02*
D03*
X100330D02*
D03*
Y303530D02*
D03*
X297180Y342900D02*
D03*
X283845D02*
D03*
X270510D02*
D03*
X257175D02*
D03*
X243840D02*
D03*
X58420Y349250D02*
D03*
Y375920D02*
D03*
Y388620D02*
D03*
X80010D02*
D03*
X243840Y355600D02*
D03*
X238760Y372110D02*
D03*
X257175Y355600D02*
D03*
X270510D02*
D03*
X283845D02*
D03*
X297180D02*
D03*
X198120Y675640D02*
D03*
Y657542D02*
D03*
Y639445D02*
D03*
X177800Y675640D02*
D03*
X135255Y657542D02*
D03*
X215900Y639445D02*
D03*
X114300Y657542D02*
D03*
X157480D02*
D03*
X215900D02*
D03*
X114300Y675640D02*
D03*
X135255D02*
D03*
X157480D02*
D03*
X215900D02*
D03*
X236220D02*
D03*
Y657542D02*
D03*
Y639445D02*
D03*
Y613727D02*
D03*
Y593090D02*
D03*
X297180D02*
D03*
X309880D02*
D03*
X322580D02*
D03*
X335280D02*
D03*
X73660Y452120D02*
D03*
Y436880D02*
D03*
X56727D02*
D03*
Y452120D02*
D03*
Y467360D02*
D03*
X39793D02*
D03*
Y452120D02*
D03*
Y436880D02*
D03*
X22860D02*
D03*
Y452120D02*
D03*
Y467360D02*
D03*
X116840Y556260D02*
D03*
X181610D02*
D03*
Y543103D02*
D03*
X160020Y556260D02*
D03*
X138430D02*
D03*
D81*
X289560Y219710D02*
D03*
Y228600D02*
D03*
Y237490D02*
D03*
Y246380D02*
D03*
Y255270D02*
D03*
M02*
