M48
;Layer_Color=9474304
;FILE_FORMAT=4:4
METRIC,LZ
;TYPE=PLATED
T01F00S00C0.4000
T02F00S00C0.5000
T03F00S00C0.6000
T05F00S00C1.0000
T07F00S00C1.1000
T08F00S00C3.2004
;TYPE=NON_PLATED
T09F00S00C0.6000
%
T01
X01397Y0034925
X016383Y0069215
X01694274Y00692304
X0153416Y0074168
X0153162Y0050927
Y0050038
Y0049149
Y004826
Y0047371
X0151003Y0048387
X01509068Y00508112
X0147955Y005546
X0129032Y0074168
X0129413Y0079121
X0124933Y0081915
X0160147Y00845157
X0159639Y0089281
T02
X01540001Y0028
X01560001
X01540001Y003
X01640001Y0028
X01660001
X01680001
X01700001
X01720001
X01740001
X01760001
X01720001Y0042
X01660001
Y004
X01640001
Y0042
Y0044
X01620001
Y004
X01720001Y005
X01740001
X01760001
X01720001Y0054
Y0056
Y0064
X01640001Y006
X01680001Y0078
X01720001
X01480001
X01460001
X01440001
X01420001
X01340001
X01320001
X01300001Y0076
X01280001
X01300001Y0068
X01320001
Y0066
X01300001
X01360001Y0072
X01380001
Y006
X01440001Y0064
X01320001Y0054
Y0052
X01300001
Y0054
Y005
X01480001Y004
X01580001Y0042
X01560001Y0044
X01540001Y00860001
Y00880001
Y00920001
X01520001
X01500001
X01480001Y00880001
X01460001
Y00860001
X01440001
Y00880001
X01420001
Y00900001
Y00860001
X01400001
X01380001
X01360001
Y00880001
X01340001Y00900001
Y00920001
X01320001
Y00900001
X01640001
X01680001
Y00920001
X01660001
X01720001
X01740001
X01760001
Y00900001
Y00880001
Y00860001
Y00840001
Y0082
X01740001
Y00840001
Y00860001
Y00880001
Y00900001
X01720001
Y00880001
Y00860001
Y00840001
Y0082
Y008
X01680001
Y00840001
X01700001
Y00860001
X01680001
X01640001
Y008
T03
X0134239Y005461
Y0055753
X0135509
Y005461
X0136652
Y0055753
X0130048Y0060325
Y0062992
Y0064262
X0132207
X0131572Y0069088
Y0070612
X01298787
Y0069088
X01281853
Y0070612
Y0072136
X01298787
X0126492
Y0070612
Y0069088
X0144399Y00697865
Y0071374
X01461135
Y00697865
Y0068199
X0147828
Y00697865
Y0071374
X0144399Y0068199
X0148082Y0062611
X014859Y006096
Y005969
X01499235
Y006096
X0151257
Y005969
X01525905
Y006096
X0153924
Y005969
Y0084709
X0155194
X0156464
X0157734
X0147828
Y00867728
Y00893445
Y00911543
Y0092964
X0145796
X0144018
Y00911543
X0145796
Y00893445
X0144018
X0141986Y0092964
X0139954
Y00911543
X01377315
Y0092964
X0135636
Y00911543
X013589Y0081026
X0138049
X0140208
X0142367
Y00797103
T05
X0126873Y0030607
Y0033147
Y0035687
Y0038227
X0147193Y0032131
X0149733
Y0029591
X0152273Y0029591
X0152273Y0032131
X0147193Y0029591
X0175133Y0030607
Y0033147
Y0035687
Y0038227
Y0040767
Y0043307
Y0045847
Y0048387
Y0052451
Y0054991
Y0057531
Y0060071
Y0062611
Y0065151
Y0067691
Y0070231
Y0072771
Y0075311
X0126873Y0066167
Y0063627
Y0061087
Y0058547
Y0056007
Y0053467
Y0050927
Y0048387
Y0043307
Y0040767
T07
X0150368Y0063373
Y0065913
Y0068453
T08
X0131953Y0028067
X0159893
X0175133Y0078867
X0126873Y0080137
T09
X0156749Y0088268
X0162529
M30
