M48
;Layer_Color=9474304
;FILE_FORMAT=4:4
METRIC,LZ
;TYPE=PLATED
T01F00S00C0.4000
T02F00S00C0.5000
T03F00S00C0.6000
T05F00S00C1.0000
T07F00S00C1.1000
T08F00S00C3.2004
;TYPE=NON_PLATED
T09F00S00C0.6000
%
T01
X0015494Y0009525
X0039624Y0043815
X00452214Y00438304
X002921Y0048768
X0028956Y0025527
Y0024638
Y0023749
Y002286
Y0021971
X0026797Y0022987
X00267008Y00254112
X0023749Y003006
X0004826Y0048768
X0005207Y0053721
X0000727Y0056515
X0035941Y00591157
X0035433Y0063881
T02
X00297941Y00026
X00317941
X00297941Y00046
X00397941Y00026
X00417941
X00437941
X00457941
X00477941
X00497941
X00517941
X00477941Y00166
X00417941
Y00146
X00397941
Y00166
Y00186
X00377941
Y00146
X00477941Y00246
X00497941
X00517941
X00477941Y00286
Y00306
Y00386
X00397941Y00346
X00437941Y00526
X00477941
X00237941
X00217941
X00197941
X00177941
Y00446
Y00426
X0018594Y00406
X0019794
X0020994
X0022194
X0023394
X00197941Y00386
X00137941Y00346
X00117941Y00426
Y00446
Y00466
X00137941
X00097941Y00446
Y00426
X00077941
Y00406
X00057941
Y00506
X00037941
X00077941Y00526
X00097941
X00077941Y00286
Y00266
X00057941
Y00286
Y00246
X00237941Y00146
X00337941Y00166
X00317941Y00186
X00297941Y00606001
Y00626001
Y00666001
X00277941
X00257941
X00237941Y00626001
X00217941
Y00606001
X00197941
Y00626001
X00177941
Y00646001
Y00606001
X00157941
X00137941
X00117941
Y00626001
X00097941Y00646001
Y00666001
X00077941
Y00646001
X00397941
X00437941
Y00666001
X00417941
X00477941
X00497941
X00517941
Y00646001
Y00626001
Y00606001
Y00586001
Y00566
X00497941
Y00586001
Y00606001
Y00626001
Y00646001
X00477941
Y00626001
Y00606001
Y00586001
Y00566
Y00546
X00437941
Y00586001
X00457941
Y00606001
X00437941
X00397941
Y00546
T03
X0010033Y002921
Y0030353
X0011303
X0012446
Y002921
X0011303
X0005842Y0034925
Y0037592
Y0038862
X0008001
X0007366Y0043688
Y0045212
X00056727
Y0043688
X00039793
Y0045212
Y0046736
X00056727
X0002286
Y0045212
Y0043688
X0023876Y0037211
X0024384Y003556
Y003429
X00257175
Y003556
X0027051
Y003429
X00283845
Y003556
X0029718
Y003429
Y0059309
X0030988
X0032258
X0033528
X0023622
Y00613727
Y00639445
Y00657542
Y0067564
X002159
X0019812
Y00657542
X002159
Y00639445
X0019812
X001778Y0067564
X0015748
Y00657542
X00135255
Y0067564
X001143
Y00657542
X0011684Y0055626
X0013843
X0016002
X0018161
Y00543103
T05
X0002667Y0005207
Y0007747
Y0010287
Y0012827
X0022987Y0006731
X0025527
Y0004191
X0028067Y0004191
X0028067Y0006731
X0022987Y0004191
X0050927Y0005207
Y0007747
Y0010287
Y0012827
Y0015367
Y0017907
Y0020447
Y0022987
Y0027051
Y0029591
Y0032131
Y0034671
Y0037211
Y0039751
Y0042291
Y0044831
Y0047371
Y0049911
X0002667Y0040767
Y0038227
Y0035687
Y0033147
Y0030607
Y0028067
Y0025527
Y0022987
Y0017907
Y0015367
T07
X0026162Y0037973
Y0040513
Y0043053
T08
X0007747Y0002667
X0035687
X0050927Y0053467
X0002667Y0054737
T09
X0032543Y0062868
X0038323
M30
